<svg xmlns="http://www.w3.org/2000/svg" xmlns:xlink="http://www.w3.org/1999/xlink" viewBox="0 0 760 467"><defs><style>.cls-1{fill:none;}.cls-2{isolation:isolate;}.cls-3{mix-blend-mode:multiply;}.cls-4{clip-path:url(#clip-path);}.cls-5{fill:#afc6df;}.cls-6{fill:#fff;}</style><clipPath id="clip-path" transform="translate(1215 -400)"><rect class="cls-1" x="-947.57" y="463.24" width="221.16" height="20.76"/></clipPath></defs><title>architecture2-rig1</title><g class="cls-2"><g id="BG_FOOTER_CONTENTS_Image" data-name="BG + FOOTER + CONTENTS Image"><g class="cls-3"><g class="cls-4"><rect class="cls-5" x="267.43" y="63.24" width="221.16" height="20.76"/></g></g><path class="cls-6" d="M-939.08,473.07a1.71,1.71,0,0,1-1.89-1.63,1.72,1.72,0,0,1,1.89-1.64,1.73,1.73,0,0,1,1.91,1.64A1.72,1.72,0,0,1-939.08,473.07Zm0-.67a1,1,0,0,0,1.11-1,1,1,0,0,0-1.11-1,1,1,0,0,0-1.09,1A1,1,0,0,0-939.08,472.4Zm4.16,3.68v.65h-5v-1.9H-936v-.6h-3.93v-.65h4.75v1.86h-3.92v.64Zm-.22-2.83H-936v-3.68h.83Z" transform="translate(1215 -400)"/><path class="cls-6" d="M-930.14,473.73h-3.42v-3.64h.83v1.13H-931v-1.13h.82ZM-931.9,476h4v.67h-4.88v-2.3h.83Zm.95-4.14h-1.77v1.2H-931Zm3.84-.16v.68h-1v2.51H-929v-5.32h.83v2.13Z" transform="translate(1215 -400)"/><path class="cls-6" d="M-921.85,473.59a2.52,2.52,0,0,1-1.3-1.36,2.72,2.72,0,0,1-1.41,1.53l-.44-.62a2.49,2.49,0,0,0,1.44-2.22V470h.8v.93a2.21,2.21,0,0,0,1.35,2Zm-1.89.74h4.91v2.5h-.83V475h-4.08Zm2.7-2.51h-1v-.67h1V469.7h.78v4.2H-921Zm2.21-2.24V474h-.79v-4.39Z" transform="translate(1215 -400)"/><path class="cls-6" d="M-913.85,474a3.05,3.05,0,0,1-1.64-1.69,3.06,3.06,0,0,1-1.74,1.79l-.45-.65a2.67,2.67,0,0,0,1.76-2.54V470h.84v.9a2.61,2.61,0,0,0,1.69,2.45Zm2.36,2v.67h-4.89v-2.24h.83V476Zm-1-3.31h-1.35V472h1.35v-.78h-1.35v-.67h1.35v-1h.83V475h-.83Z" transform="translate(1215 -400)"/><path class="cls-6" d="M-902.26,475.26v.67h-6.57v-.67H-906v-1.39c-1.32-.12-2.25-.85-2.25-1.93s1.12-1.94,2.66-1.94,2.66.76,2.66,1.94-.93,1.81-2.26,1.93v1.38Zm-3.29-2c1.08,0,1.85-.5,1.85-1.28s-.78-1.28-1.85-1.28-1.86.5-1.86,1.28S-906.63,473.23-905.55,473.23Z" transform="translate(1215 -400)"/><path class="cls-6" d="M-898,474.3c.36,0,.71-.06,1.06-.1l0,.61a28.93,28.93,0,0,1-4.58.28l-.09-.68h.92V471h-.72v-.67h4.09V471H-898Zm-1.84.09,1,0V471h-1Zm4.28-4.82v7.26h-.83v-7.26Z" transform="translate(1215 -400)"/><path class="cls-6" d="M-887.65,475.21v.68h-6.57v-.68Zm-.64-1.41a3.79,3.79,0,0,1-2.67-2,3.79,3.79,0,0,1-2.67,2l-.35-.68a3,3,0,0,0,2.59-2.53V470h.88v.55a3,3,0,0,0,2.59,2.53Z" transform="translate(1215 -400)"/><rect class="cls-1" width="760" height="467"/></g></g></svg>