<svg id="BG_FOOTER_CONTENTS_Image" data-name="BG + FOOTER + CONTENTS Image" xmlns="http://www.w3.org/2000/svg" viewBox="0 0 760 467"><defs><style>.cls-1{fill:#e6c2c6;}.cls-2{fill:#fff;}.cls-3{fill:none;}</style></defs><title>architecture2-rig11</title><polygon class="cls-1" points="502.3 416 253.22 416 253.22 379.16 312.72 379.16 312.72 358.24 339.4 358.24 389.6 358.24 430.53 358.24 430.53 379.16 492.75 379.16 492.75 358.24 502.3 358.24 502.3 416"/><path class="cls-2" d="M-846.14,787.78H-849v2.51h-.83v-2.51h-2.84v-.67h6.56Zm-6.19-1.85c1.38-.18,2.4-1,2.45-1.82h-2.21v-.67h5.34v.67h-2.19c0,.84,1.07,1.64,2.45,1.82l-.3.65a3.53,3.53,0,0,1-2.62-1.57,3.51,3.51,0,0,1-2.62,1.57Z" transform="translate(1215 -400)"/><path class="cls-2" d="M-842.69,785.34a3.18,3.18,0,0,0,1.71,2.81l-.46.63a3.37,3.37,0,0,1-1.65-2,3.53,3.53,0,0,1-1.75,2.12l-.46-.63a3.3,3.3,0,0,0,1.78-2.94v-.42h-1.56v-.67h1.56v-1.08h.83v1.08h1.53v.67h-1.53Zm4.24,1.28h-1.13v3.66h-.83V783h.83v2.91h1.13Z" transform="translate(1215 -400)"/><path class="cls-2" d="M-834,787.09a2.72,2.72,0,0,1-1.7-1.45,3,3,0,0,1-1.8,1.69l-.42-.65a2.47,2.47,0,0,0,1.77-2.31v-.14h-1.54v-.67h3.89v.67h-1.52v.14a2.24,2.24,0,0,0,1.71,2.09Zm1.89,1.82c0,.86-.92,1.37-2.42,1.37s-2.42-.51-2.42-1.37.92-1.37,2.42-1.37S-832.08,788-832.08,788.91Zm-.82,0c0-.47-.59-.72-1.6-.72s-1.6.25-1.6.72.59.72,1.6.72S-832.9,789.37-832.9,788.91Zm1.77-4.11v.68h-1v1.89H-833V783h.83v1.77Z" transform="translate(1215 -400)"/><path class="cls-2" d="M-822.23,786.42v.68h-6.55v-.68ZM-823,789c0,.84-.94,1.32-2.5,1.32s-2.5-.48-2.5-1.32.95-1.32,2.5-1.32S-823,788.12-823,789Zm0-3.14h-5v-2.54H-823v.67h-4.12v1.2H-823Zm-.88,3.14c0-.44-.6-.68-1.66-.68s-1.65.24-1.65.68.59.68,1.65.68S-823.86,789.41-823.86,789Z" transform="translate(1215 -400)"/><rect class="cls-3" width="760" height="467"/></svg>