<svg id="BG_FOOTER_CONTENTS_Image" data-name="BG + FOOTER + CONTENTS Image" xmlns="http://www.w3.org/2000/svg" xmlns:xlink="http://www.w3.org/1999/xlink" viewBox="0 0 761 467"><defs><style>.cls-1{fill:none;}.cls-2{fill:#231f20;}.cls-3{fill:#b2ddc8;}.cls-4{clip-path:url(#clip-path);}</style><clipPath id="clip-path" transform="translate(-199 -400)"><rect class="cls-1" x="518.46" y="720.1" width="125.24" height="105.4"/></clipPath></defs><title>architecture2-lef4</title><polygon class="cls-2" points="402.35 320.1 319.47 361.52 319.46 404.31 361.82 425.5 444.69 384.02 444.69 341.27 402.35 320.1"/><polygon class="cls-3" points="359.99 420.5 323.11 402.06 323.12 365.6 359.99 384.03 359.99 420.5"/><polygon class="cls-3" points="441.05 381.76 363.64 420.51 363.64 384.03 441.05 345.35 441.05 381.76"/><polygon class="cls-3" points="361.81 380.87 325.37 362.65 402.35 324.18 438.79 342.4 361.81 380.87"/><g class="cls-4"><path class="cls-2" d="M578.95,802.44a7.3,7.3,0,0,1-1.9,1.33,5.26,5.26,0,0,1-3,.61,6.12,6.12,0,0,1-3-1.39l-2,4.83a6.24,6.24,0,0,0,3.64,1.48,8,8,0,0,0,4.17-.91,13,13,0,0,0,3.91-2.94,13.14,13.14,0,0,0,2.54-4.12,12.8,12.8,0,0,0,.86-4.77q0-3-1.35-4.12t-4-.48l-3.31.83a2.67,2.67,0,0,1-1.94,0q-.58-.35-.59-1.52a4,4,0,0,1,.37-1.71,5.41,5.41,0,0,1,1.11-1.55,6.33,6.33,0,0,1,1.7-1.21,5.44,5.44,0,0,1,5.57.33l1.91-4.91a6.26,6.26,0,0,0-3.42-.95,8.6,8.6,0,0,0-3.85,1,12,12,0,0,0-6,6.61,12.29,12.29,0,0,0-.8,4.54,5.52,5.52,0,0,0,1.21,4,3.4,3.4,0,0,0,3.42.62l3.49-.85a3.22,3.22,0,0,1,2.24,0c.44.26.66.83.67,1.7a4.52,4.52,0,0,1-.42,1.93,5.76,5.76,0,0,1-1.23,1.73" transform="translate(-199 -400)"/><polygon class="cls-2" points="392.83 379.61 393.04 400.49 396.67 398.69 396.46 377.81 402.34 374.89 402.3 370.22 386.87 377.86 386.92 382.53 392.83 379.61"/><polygon class="cls-2" points="404.71 394.71 406.45 387.1 413.68 383.52 415.53 389.36 419.46 387.41 412.06 365.39 407.88 367.46 400.93 396.58 404.71 394.71"/><polygon class="cls-3" points="409.94 371.65 412.54 379.83 407.53 382.31 409.94 371.65"/><polygon class="cls-2" points="424.39 384.97 428.02 383.17 427.93 373.43 434.96 354.06 431 356.02 426.18 369.56 421.16 360.89 416.97 362.96 424.3 375.19 424.39 384.97"/></g><rect class="cls-1" width="761" height="467"/></svg>