<svg xmlns="http://www.w3.org/2000/svg" xmlns:xlink="http://www.w3.org/1999/xlink" viewBox="0 0 760 467"><defs><style>.cls-1{fill:none;}.cls-2{isolation:isolate;}.cls-3{mix-blend-mode:multiply;}.cls-4{clip-path:url(#clip-path);}.cls-5{fill:#ebcd93;}.cls-6{fill:#fff;}</style><clipPath id="clip-path" transform="translate(1215 -400)"><rect class="cls-1" x="-947.57" y="716.41" width="67.82" height="16.77"/></clipPath></defs><title>architecture2-rig6</title><g class="cls-2"><g id="BG_FOOTER_CONTENTS_Image" data-name="BG + FOOTER + CONTENTS Image"><g class="cls-3"><g class="cls-4"><polygon class="cls-5" points="267.43 316.41 335.25 316.41 335.25 333.18 312.72 333.18 308.58 333.18 267.43 333.18 267.43 316.41"/></g></g><path class="cls-6" d="M-937.37,724.71a2.85,2.85,0,0,1-1.66-1.52,3,3,0,0,1-1.75,1.72l-.44-.66a2.53,2.53,0,0,0,1.76-2.42v-.71h.83v.78a2.32,2.32,0,0,0,1.69,2.17Zm2,1.92c0,.86-.92,1.36-2.42,1.36s-2.42-.51-2.42-1.36.92-1.36,2.42-1.36S-935.41,725.77-935.41,726.63Zm-.82,0c0-.45-.59-.71-1.6-.71s-1.6.26-1.6.71.59.71,1.6.71S-936.23,727.09-936.23,726.63Zm1.77-4.09v.68h-1v1.88h-.83v-4.36h.83v1.8Z" transform="translate(1215 -400)"/><path class="cls-6" d="M-927.74,720.74v3.88h-.83v-1.54h-1.34a1.75,1.75,0,0,1-1.85,1.37,1.74,1.74,0,0,1-1.89-1.7,1.74,1.74,0,0,1,1.89-1.69,1.76,1.76,0,0,1,1.85,1.35h1.34v-1.67Zm-2.92,2a1,1,0,0,0-1.09-1,1,1,0,0,0-1.1,1,1,1,0,0,0,1.1,1A1,1,0,0,0-930.66,722.76Zm2.1,2.22h.82v2.93h-4.71V725h.82v.82h3.07Zm0,1.46h-3.07v.8h3.07Z" transform="translate(1215 -400)"/><path class="cls-6" d="M-923.76,722.53a3.51,3.51,0,0,0,1.88,3.18l-.48.66a3.62,3.62,0,0,1-1.8-2.18,3.77,3.77,0,0,1-1.85,2.34l-.49-.69a3.65,3.65,0,0,0,1.91-3.31v-1.19h.83Zm3.29-1.8V728h-.83v-7.27Z" transform="translate(1215 -400)"/><path class="cls-6" d="M-915.29,724.34a2.76,2.76,0,0,1-1.67-1.48,2.92,2.92,0,0,1-1.77,1.64l-.43-.65a2.39,2.39,0,0,0,1.77-2.27V721h.83v.61a2.28,2.28,0,0,0,1.71,2.12Zm2.41,2.91v.65h-5V726h3.88v-.58h-3.9v-.64h4.72v1.83H-917v.62Zm-1.08-4.64h-1.47v-.67H-914v-1.21h.83v3.72H-914Z" transform="translate(1215 -400)"/><rect class="cls-1" width="760" height="467"/></g></g></svg>