<svg id="CONTENTS" xmlns="http://www.w3.org/2000/svg" viewBox="0 0 762 467"><defs><style>.cls-1{fill:none;}.cls-2{fill:#231f20;}</style></defs><title>architecture2-ori</title><g id="_02" data-name="02"><rect class="cls-1" width="762" height="467"/><g id="tt"><g id="_상기_이미지는_고객의_이해를_돕기_위해_대지종단면도를_표현한_것으로_실제와_다소_차이가_있습니다." data-name="*상기 이미지는 고객의 이해를 돕기 위해 대지종단면도를 표현한 것으로 실제와 다소 차이가 있습니다."><path class="cls-2" d="M1214.53,822.63l.38-.65-.68-.29.12-.37.72.17.07-.76h.39l.07.75.72-.17.12.37-.68.29.39.65-.31.23-.5-.58-.5.58Z" transform="translate(-960 -400)"/><path class="cls-2" d="M1220,823.56a2.14,2.14,0,0,1-1.24-1.13,2.23,2.23,0,0,1-1.31,1.28l-.33-.49a1.89,1.89,0,0,0,1.31-1.81v-.53h.62v.58a1.73,1.73,0,0,0,1.27,1.62Zm1.46,1.43c0,.64-.68,1-1.81,1s-1.8-.38-1.8-1,.69-1,1.8-1S1221.44,824.35,1221.44,825Zm-.61,0c0-.34-.44-.53-1.19-.53s-1.19.19-1.19.53.44.53,1.19.53S1220.83,825.34,1220.83,825Zm1.32-3.06v.51h-.77v1.4h-.62v-3.26h.62v1.34Z" transform="translate(-960 -400)"/><path class="cls-2" d="M1225.61,821.16a4,4,0,0,1-2.51,3.88l-.33-.49a3.41,3.41,0,0,0,2.2-2.88H1223v-.5Zm1.59-.57V826h-.62v-5.42Z" transform="translate(-960 -400)"/><path class="cls-2" d="M1232.36,822.9c0,1.17-.59,1.91-1.4,1.91s-1.39-.74-1.39-1.91.59-1.91,1.39-1.91S1232.36,821.73,1232.36,822.9Zm-2.2,0c0,.85.33,1.36.8,1.36s.8-.51.8-1.36-.33-1.35-.8-1.35S1230.17,822.06,1230.17,822.9Zm3.68-2.31V826h-.62v-5.43Z" transform="translate(-960 -400)"/><path class="cls-2" d="M1237.83,821.1v3.58h-2.54V821.1Zm-1.94.49v2.59h1.33v-2.59Zm3.56-1V826h-.62v-5.43Z" transform="translate(-960 -400)"/><path class="cls-2" d="M1242.67,822.16a2.44,2.44,0,0,0,1.4,2.19l-.34.49a2.65,2.65,0,0,1-1.37-1.56A2.8,2.8,0,0,1,1241,825l-.35-.49a2.65,2.65,0,0,0,1.4-2.33v-.52h-1.21v-.51h3v.51h-1.21Zm2.46-1.57V826h-.62v-5.42Z" transform="translate(-960 -400)"/><path class="cls-2" d="M1251.25,823.3v.5h-4.92v-.5Zm-3.7,2.09h3.17v.5h-3.78v-1.59h.62Zm3.14-2.74H1247v-1.87h.62v1.36h3.1Z" transform="translate(-960 -400)"/><path class="cls-2" d="M1258.29,824.79v.51h-4.89v-.51h1.82v-1.91h.62v1.91Zm-1.15-3.19h-3.23v-.5h3.86v.53a12.4,12.4,0,0,1-.21,2.54l-.62-.07a11.65,11.65,0,0,0,.21-2.48Z" transform="translate(-960 -400)"/><path class="cls-2" d="M1261.35,821a2.89,2.89,0,0,1-2.07,2.84l-.29-.44a2.37,2.37,0,0,0,1.73-1.89h-1.49V821Zm-1.45,3h3.68v2H1263v-1.5h-3.06Zm3.68-3.42v3.18H1263v-1.36h-.6v1.34h-.58V820.7h.58v1.21h.6v-1.31Z" transform="translate(-960 -400)"/><path class="cls-2" d="M1264.69,824.36a24.75,24.75,0,0,0,3.48-.18l0,.45a18.79,18.79,0,0,1-3.45.24Zm3.2-2.09a1.48,1.48,0,1,1-1.48-1.3A1.35,1.35,0,0,1,1267.89,822.27Zm-2.34,0a.87.87,0,1,0,.86-.77A.78.78,0,0,0,1265.55,822.27Zm3.57-1.68V826h-.62v-5.43Z" transform="translate(-960 -400)"/><path class="cls-2" d="M1274.69,822.9c0,1.17-.59,1.91-1.4,1.91s-1.39-.74-1.39-1.91.59-1.91,1.39-1.91S1274.69,821.73,1274.69,822.9Zm-2.2,0c0,.85.33,1.36.8,1.36s.8-.51.8-1.36-.33-1.35-.8-1.35S1272.49,822.06,1272.49,822.9Zm3.68-2.31V826h-.62v-5.43Z" transform="translate(-960 -400)"/><path class="cls-2" d="M1279,821.48h1v.5h-2.65v-.5h1v-.73h.61Zm.87,2.06a1.18,1.18,0,1,1-1.18-1.26A1.17,1.17,0,0,1,1279.82,823.54Zm-.55,0c0-.45-.26-.75-.62-.75s-.62.3-.62.75.26.74.62.74S1279.27,824,1279.27,823.54Zm2.67-2.94V826h-.59v-2.66h-.58v2.41h-.58v-5h.58v2.13h.58v-2.24Z" transform="translate(-960 -400)"/><path class="cls-2" d="M1287.9,823.08v.46H1283v-.46Zm-3.72,2.45h3.28v.43h-3.89v-1.24h3.12v-.38h-3.13v-.43h3.74v1.21h-3.12Zm2.49-4.37h-3.06v-.43h3.68v1.19h-3.06v.38h3.15v.43h-3.76v-1.22h3.05Z" transform="translate(-960 -400)"/><path class="cls-2" d="M1295,823.08v.5h-4.9v-.5h2.12v-.53h-1.52v-1.76h3.69v.5h-3.08V822h3.13v.5h-1.61v.53Zm-1.23.8h.61v2.06h-3.68v-2.06h.62v.52h2.45Zm0,1h-2.45v.56h2.45Z" transform="translate(-960 -400)"/><path class="cls-2" d="M1298.53,821.16A4,4,0,0,1,1296,825l-.33-.49a3.41,3.41,0,0,0,2.2-2.88H1296v-.5Zm1.59-.57V826h-.62v-5.42Z" transform="translate(-960 -400)"/><path class="cls-2" d="M1305.39,823.76a11.72,11.72,0,0,1-1.45.19v1.9h-.62V824l-1.41,0-.07-.51a25.21,25.21,0,0,0,3.51-.19Zm-3.18-1.8c0-.67.59-1.13,1.4-1.13s1.4.47,1.4,1.13-.59,1.14-1.4,1.14S1302.2,822.63,1302.2,822Zm.59,0c0,.38.34.63.8.63s.8-.25.8-.63-.33-.62-.8-.62S1302.8,821.58,1302.8,822Zm3.52-1.37V826h-.62v-5.42Z" transform="translate(-960 -400)"/><path class="cls-2" d="M1309.07,821.48h1v.5h-2.65v-.5h1v-.73h.61Zm.87,2.06a1.18,1.18,0,1,1-1.18-1.26A1.17,1.17,0,0,1,1309.94,823.54Zm-.55,0c0-.45-.26-.75-.62-.75s-.62.3-.62.75.26.74.62.74S1309.39,824,1309.39,823.54Zm2.67-2.94V826h-.59v-2.66h-.58v2.41h-.58v-5h.58v2.13h.58v-2.24Z" transform="translate(-960 -400)"/><path class="cls-2" d="M1315.28,824.21a8.35,8.35,0,0,0,1.67-.15l.05.51a9.76,9.76,0,0,1-2,.15h-.36v-3.48h2v.5h-1.4Zm3.83-3.62V826h-.59v-2.77h-.64v2.51h-.58v-5h.58v2h.64v-2.14Z" transform="translate(-960 -400)"/><path class="cls-2" d="M1322.1,822.16a2.44,2.44,0,0,0,1.4,2.19l-.34.49a2.65,2.65,0,0,1-1.37-1.56,2.8,2.8,0,0,1-1.36,1.7l-.35-.49a2.65,2.65,0,0,0,1.4-2.33v-.52h-1.21v-.51h3v.51h-1.21Zm2.46-1.57V826h-.62v-5.42Z" transform="translate(-960 -400)"/><path class="cls-2" d="M1330.61,823.24v.5h-4.9v-.5h2.13v-.73h.62v.73Zm-4.65-.92c1-.1,1.69-.52,1.78-1h-1.57v-.5h4v.5h-1.58c.08.48.78.9,1.79,1l-.22.48a2.45,2.45,0,0,1-2-1,2.48,2.48,0,0,1-2,1Zm4.06,2.74c0,.61-.7.95-1.87.95s-1.86-.34-1.86-.95.7-.95,1.86-.95S1330,824.46,1330,825.06Zm-.62,0c0-.31-.44-.47-1.24-.47s-1.24.16-1.24.47.44.47,1.24.47S1329.39,825.38,1329.39,825.06Z" transform="translate(-960 -400)"/><path class="cls-2" d="M1334.58,823.4a11.26,11.26,0,0,1-2.5.19h-.44V821H1334v.5h-1.79v1.54a10.59,10.59,0,0,0,2.26-.17Zm-1.74,2h3v.5h-3.65v-1.79h.62Zm3.57-3.26v.51h-.77v1.86H1335v-3.92h.62v1.55Z" transform="translate(-960 -400)"/><path class="cls-2" d="M1339.85,823.63h-2.51V821h2.51v.46H1341v-.91h.62v4H1341v-1.39h-1.13Zm-.6-2.1H1338v1.61h1.3Zm2.47,3.87v.5h-3.65v-1.72h.62v1.22Zm-1.87-3.4v.66H1341V822Z" transform="translate(-960 -400)"/><path class="cls-2" d="M1347.69,824.85v.51h-4.91v-.51h2.13v-1.28h-1.54V821h3.71v.5H1344v1.58h3.14v.5h-1.6v1.28Z" transform="translate(-960 -400)"/><path class="cls-2" d="M1353.3,823.08v.46h-4.91v-.46Zm-3.72,2.45h3.28v.43H1349v-1.24h3.12v-.38H1349v-.43h3.74v1.21h-3.12Zm2.49-4.37H1349v-.43h3.68v1.19h-3.06v.38h3.15v.43H1349v-1.22h3.05Z" transform="translate(-960 -400)"/><path class="cls-2" d="M1360.35,824.88v.51h-4.91v-.51h1.29v-1.16h-.87v-.5h.78v-1.66h-.8v-.5h4.07v.5h-.8v1.66h.78v.5H1359v1.16Zm-3.09-1.66h1.25v-1.66h-1.25Zm.09,1.66h1.07v-1.16h-1.07Z" transform="translate(-960 -400)"/><path class="cls-2" d="M1364,821.7h-3v-.49h1.22v-.63h.62v.63H1364Zm-1.48,2.35a1.06,1.06,0,1,1,1.25-1A1.1,1.1,0,0,1,1362.53,824.05Zm0-.49c.4,0,.67-.21.67-.56a.67.67,0,0,0-1.33,0C1361.87,823.36,1362.14,823.57,1362.53,823.57Zm3.08,1.83v.5H1362v-1.53h.62v1Zm-.74-1.76H1364v-.5h.83v-.65H1364V822h.83v-1.4h.62v4.13h-.62Z" transform="translate(-960 -400)"/><path class="cls-2" d="M1369.86,821.7h-3.2v-.49H1368v-.62h.62v.62h1.29Zm-1.6,2.3c-.77,0-1.31-.41-1.31-1s.54-1,1.31-1,1.31.41,1.31,1S1369,824,1368.26,824Zm-.18,1.4h3v.5h-3.65v-1.56h.62Zm.18-1.88c.43,0,.73-.2.73-.55s-.29-.55-.73-.55-.72.2-.72.55S1367.84,823.53,1368.26,823.53Zm3.39-1.21v.51h-.77v1.82h-.62v-4.06h.62v1.73Z" transform="translate(-960 -400)"/><path class="cls-2" d="M1375.74,821a3,3,0,0,1-2.44,2.92l-.26-.48c1.25-.39,1.94-1.07,2-1.94h-1.78V821Zm.23,3c0,.71.71,1.32,1.75,1.49l-.25.49a2.53,2.53,0,0,1-1.81-1.13,2.56,2.56,0,0,1-1.83,1.15l-.24-.49c1-.18,1.76-.79,1.76-1.5v-.21h.62Zm.86-1.42h-1.07v-.51h1.07v-1.48h.62v3.63h-.62Z" transform="translate(-960 -400)"/><path class="cls-2" d="M1383.54,824.82v.51h-4.91v-.51Zm-.47-2.39c0,.92-.86,1.53-2,1.53s-2-.61-2-1.53.86-1.53,2-1.53S1383.07,821.51,1383.07,822.43Zm-3.38,0c0,.62.59,1,1.39,1s1.39-.4,1.39-1-.59-1-1.39-1S1379.69,821.8,1379.69,822.43Z" transform="translate(-960 -400)"/><path class="cls-2" d="M1389.27,824.86v.51h-4.91v-.51h2.13v-.92H1385v-1.75h3.12v-.73h-3.13V821h3.74v1.71h-3.12v.76h3.24v.5h-1.69v.92Z" transform="translate(-960 -400)"/><path class="cls-2" d="M1394.4,823.25a2.16,2.16,0,0,1-1.33-1.15,2.21,2.21,0,0,1-1.36,1.25l-.31-.49a1.84,1.84,0,0,0,1.34-1.71v-.41h.63v.41a1.74,1.74,0,0,0,1.32,1.62Zm1.63,2.22V826h-3.7v-1.41h2.93v-.44h-2.94v-.48h3.55V825h-2.93v.47Zm-.16-2.1h-.62v-2.78h.62Z" transform="translate(-960 -400)"/><path class="cls-2" d="M1398.66,822.08a2.59,2.59,0,0,0,1.1,2.3l-.36.45a2.46,2.46,0,0,1-1-1.46,2.69,2.69,0,0,1-1.06,1.59l-.37-.46a2.81,2.81,0,0,0,1.13-2.42v-.39h-1v-.51h2.45v.51h-.89Zm1.29-1.39h.58v5H1400V823h-.8v-.5h.8Zm1.68-.11V826H1401v-5.42Z" transform="translate(-960 -400)"/><path class="cls-2" d="M1404.55,824.34c.46,0,.92-.05,1.36-.11l.05.46a19.79,19.79,0,0,1-3.3.2l-.08-.51h1.36v-.85a1.3,1.3,0,0,1-1.15-1.28,1.46,1.46,0,0,1,2.9,0,1.28,1.28,0,0,1-1.13,1.27Zm-.31-1.34a.77.77,0,1,0,0-1.54.77.77,0,1,0,0,1.54Zm3.4.29h-.8V826h-.62v-5.41h.62v2.18h.8Z" transform="translate(-960 -400)"/><path class="cls-2" d="M1410.51,824.17a13.06,13.06,0,0,0,2.29-.17l.07.51a13.4,13.4,0,0,1-2.53.18h-.44V821.1h2.52v.5h-1.9Zm4.2-1h-.85V826h-.62v-5.43h.62v2.09h.85Z" transform="translate(-960 -400)"/><path class="cls-2" d="M1420.22,824.83v.51h-4.91v-.51h2.12v-1.27h.62v1.27Zm-.47-1.16a2.81,2.81,0,0,1-2-1.43,2.85,2.85,0,0,1-2,1.43l-.26-.52a2.17,2.17,0,0,0,1.94-1.82v-.41h.65v.41a2.16,2.16,0,0,0,1.94,1.82Z" transform="translate(-960 -400)"/><path class="cls-2" d="M1424.24,822.31a2.37,2.37,0,0,0,1.28,2.1l-.34.47a2.52,2.52,0,0,1-1.24-1.49,2.64,2.64,0,0,1-1.31,1.58l-.34-.47a2.46,2.46,0,0,0,1.33-2.2V822h-1.16v-.5h1.16v-.8h.62v.8h1.15v.5h-1.15Zm3.17,1h-.85V826h-.62v-5.42h.62v2.18h.85Z" transform="translate(-960 -400)"/><path class="cls-2" d="M1431.1,822.9c0,1.17-.59,1.91-1.4,1.91s-1.39-.74-1.39-1.91.59-1.91,1.39-1.91S1431.1,821.73,1431.1,822.9Zm-2.2,0c0,.85.33,1.36.8,1.36s.8-.51.8-1.36-.33-1.35-.8-1.35S1428.9,822.06,1428.9,822.9Zm3.68-2.31V826H1432v-5.43Z" transform="translate(-960 -400)"/><path class="cls-2" d="M1436.45,821.16A4.07,4.07,0,0,1,1434,825l-.34-.47a3.56,3.56,0,0,0,2.17-2.88h-1.9v-.5Zm2.24,2.08h-.82V826h-.62v-5.42h.62v2.14h.82Z" transform="translate(-960 -400)"/><path class="cls-2" d="M1440.83,822.17a1.45,1.45,0,1,1,1.44,1.28A1.31,1.31,0,0,1,1440.83,822.17Zm3.78,2a1.4,1.4,0,0,0,1.06,1.33l-.31.46a1.74,1.74,0,0,1-1.06-1,1.83,1.83,0,0,1-1,1,1.7,1.7,0,0,1-1-1,1.82,1.82,0,0,1-1,1l-.3-.46a1.46,1.46,0,0,0,1-1.33v-.24h.6v.24a1.45,1.45,0,0,0,.68,1.24,1.56,1.56,0,0,0,.71-1.24v-.24h.61Zm-3.18-2a.84.84,0,1,0,.83-.77A.76.76,0,0,0,1441.43,822.17Zm3.75,1.5h-.62V820.6h.62Z" transform="translate(-960 -400)"/><path class="cls-2" d="M1451.23,823v.49h-4.91V823Zm-.49-.32a2.31,2.31,0,0,0-3.93,0l-.23-.48c1.09-.14,1.87-.73,1.87-1.36v-.21h.64v.21c0,.62.8,1.22,1.87,1.36Zm-.76,1.15h.62v2.1h-3.67v-2.1h.61v.55H1450Zm0,1h-2.44v.58H1450Z" transform="translate(-960 -400)"/><path class="cls-2" d="M1453.05,824.11a12.53,12.53,0,0,0,2.43-.25l.07.52a13,13,0,0,1-2.64.26h-.46v-3.52h.61Zm3.54-3.52V826H1456v-5.42Z" transform="translate(-960 -400)"/><path class="cls-2" d="M1458.57,824.17a13.06,13.06,0,0,0,2.29-.17l.07.51a13.4,13.4,0,0,1-2.53.18H1458V821.1h2.52v.5h-1.9Zm4.2-1h-.85V826h-.62v-5.43h.62v2.09h.85Z" transform="translate(-960 -400)"/><path class="cls-2" d="M1463.08,825.15a.46.46,0,1,1,.92,0,.46.46,0,1,1-.92,0Z" transform="translate(-960 -400)"/></g></g></g></svg>