<svg id="Layer_1" data-name="Layer 1" xmlns="http://www.w3.org/2000/svg" viewBox="0 0 952 629"><defs><style>.cls-1{fill:#1d1d1b;}.cls-2{fill:none;}</style></defs><title>architecture1-bg3</title><polygon class="cls-1" points="138 623.97 134.4 623.97 134.4 607.55 140.22 601.73 147.26 601.73 147.26 609.59 149.41 609.59 149.41 593.88 157.98 589.02 167.38 593.44 167.38 598.02 171.53 598.02 171.53 580.47 184.85 573.17 200.84 580.93 200.84 606 197.24 606 197.24 583.18 184.95 577.22 175.12 582.6 175.12 601.62 163.78 601.62 163.78 595.72 158.14 593.06 153 595.98 153 613.18 143.66 613.18 143.66 605.32 141.72 605.32 138 609.04 138 623.97"/><rect class="cls-2" width="952" height="629"/><rect class="cls-2" width="952" height="629"/></svg>