<svg id="BG_FOOTER_CONTENTS_Image" data-name="BG + FOOTER + CONTENTS Image" xmlns="http://www.w3.org/2000/svg" xmlns:xlink="http://www.w3.org/1999/xlink" viewBox="0 0 761 467"><defs><style>.cls-1{fill:none;}.cls-2{fill:#c6def3;}.cls-3{fill:#231f20;}.cls-4{clip-path:url(#clip-path);}</style><clipPath id="clip-path" transform="translate(-199 -400)"><rect class="cls-1" x="435.67" y="454.19" width="165.95" height="125.81"/></clipPath></defs><title>architecture2-lef1</title><polygon class="cls-2" points="239.24 76.58 238.51 118.12 358.78 178.39 400.89 157.92 401.62 117.54 279.18 56.61 239.24 76.58"/><polygon class="cls-3" points="279.07 54.19 236.68 75.37 236.67 118.21 360.23 180 402.62 158.76 402.62 115.96 279.89 54.6 279.07 54.19"/><polygon class="cls-2" points="398.97 156.5 362.05 175 362.05 138.48 398.97 120.04 398.97 156.5"/><polygon class="cls-2" points="240.32 115.96 240.33 79.45 358.39 138.49 358.4 175 240.32 115.96"/><polygon class="cls-2" points="242.58 76.5 279.07 58.27 396.71 117.09 360.22 135.31 242.58 76.5"/><g class="cls-4"><path class="cls-3" d="M462.72,499.86a20.45,20.45,0,0,0-3-4.32,13.18,13.18,0,0,0-3.71-2.88,7,7,0,0,0-3.68-.87,4.89,4.89,0,0,0-3,1.29,7.51,7.51,0,0,0-2,3.17,14.15,14.15,0,0,0-.67,4.78,21.71,21.71,0,0,0,.78,5.52,24.9,24.9,0,0,0,2.05,5.2,20.56,20.56,0,0,0,3,4.32,13,13,0,0,0,3.7,2.87,7,7,0,0,0,3.69.88,4.87,4.87,0,0,0,3-1.28,7.43,7.43,0,0,0,2-3.17,14.43,14.43,0,0,0,.66-4.79,22.09,22.09,0,0,0-.76-5.51,24.64,24.64,0,0,0-2-5.2" transform="translate(-199 -400)"/><path class="cls-2" d="M461.36,511.71a4.76,4.76,0,0,1-1.17,2,3,3,0,0,1-1.76.84,3.92,3.92,0,0,1-2.23-.5,7.54,7.54,0,0,1-2.22-1.76,12.84,12.84,0,0,1-1.8-2.65,15.16,15.16,0,0,1-1.22-3.24,14.67,14.67,0,0,1-.46-3.53,9.55,9.55,0,0,1,.4-3,4.76,4.76,0,0,1,1.17-2,3,3,0,0,1,1.76-.84,3.85,3.85,0,0,1,2.21.49,7.61,7.61,0,0,1,2.25,1.77,12.9,12.9,0,0,1,1.8,2.65,15.44,15.44,0,0,1,1.22,3.23,14.54,14.54,0,0,1,.46,3.51,9.79,9.79,0,0,1-.4,3.05" transform="translate(-199 -400)"/><polygon class="cls-3" points="283.97 106.74 270.21 99.77 270.46 125.24 274.15 127.11 274.05 116.66 280.74 120.05 280.69 115.61 274 112.22 273.94 106.22 284.02 111.33 283.97 106.74"/><polygon class="cls-3" points="301.5 115.63 287.74 108.65 287.99 134.12 291.68 135.99 291.57 125.55 298.26 128.94 298.22 124.5 291.53 121.11 291.47 115.1 301.54 120.21 301.5 115.63"/><polygon class="cls-3" points="305.26 117.53 305.52 143.01 309.21 144.87 308.95 119.4 305.26 117.53"/><path class="cls-3" d="M524.18,547.65a4.12,4.12,0,0,1-2.61-.49,8.15,8.15,0,0,1-2.31-1.79,12.7,12.7,0,0,1-1.86-2.66,15,15,0,0,1-1.25-3.24,14.41,14.41,0,0,1-.46-3.48,9.76,9.76,0,0,1,.4-3.07,4.78,4.78,0,0,1,1.17-2,3,3,0,0,1,1.79-.83,4,4,0,0,1,2.23.5,8.8,8.8,0,0,1,2.72,2.24,15.78,15.78,0,0,1,2.25,3.71l2.46-2.27a20.06,20.06,0,0,0-2-3.57,19.75,19.75,0,0,0-2.57-2.93,12.69,12.69,0,0,0-2.86-2,7,7,0,0,0-3.69-.87,5,5,0,0,0-3,1.26,7.27,7.27,0,0,0-2,3.14,14.27,14.27,0,0,0-.67,4.82,21.81,21.81,0,0,0,.78,5.52,24.67,24.67,0,0,0,2.05,5.18,20.49,20.49,0,0,0,3,4.31,13.33,13.33,0,0,0,3.72,2.88,7.76,7.76,0,0,0,2.78.85,5.37,5.37,0,0,0,2.51-.34,4.79,4.79,0,0,0,2-1.49l-2.45-4.65a3.63,3.63,0,0,1-2.14,1.3" transform="translate(-199 -400)"/><polygon class="cls-3" points="336.89 154.35 336.83 148.31 343.41 151.64 343.37 147.21 336.78 143.87 336.72 138.04 346.72 143.11 346.68 138.53 332.99 131.59 333.25 157.06 347.03 164.05 346.99 159.46 336.89 154.35"/></g><rect class="cls-1" width="761" height="467"/></svg>