<svg id="BG_FOOTER_CONTENTS_Image" data-name="BG + FOOTER + CONTENTS Image" xmlns="http://www.w3.org/2000/svg" viewBox="0 0 760 467"><defs><style>.cls-1,.cls-3{fill:none;}.cls-1{stroke:#1d1d1b;stroke-miterlimit:10;stroke-width:0.31px;}.cls-2{fill:#1d1d1b;}</style></defs><title>architecture2-fl2</title><line class="cls-1" x1="518.35" y1="212.51" x2="550.05" y2="212.51"/><path class="cls-2" d="M-695.21,552.35v-5.07l-1.07.45V547l1.38-.58h.53v5.94Z" transform="translate(1215 -400)"/><path class="cls-2" d="M-690.59,552.44a2.24,2.24,0,0,1-1.31-.39,2.59,2.59,0,0,1-.88-1.08,3.79,3.79,0,0,1-.32-1.6,3.79,3.79,0,0,1,.32-1.6,2.59,2.59,0,0,1,.88-1.08,2.24,2.24,0,0,1,1.31-.39,2.23,2.23,0,0,1,1.3.39,2.59,2.59,0,0,1,.88,1.08,3.79,3.79,0,0,1,.32,1.6,3.79,3.79,0,0,1-.32,1.6,2.59,2.59,0,0,1-.88,1.08A2.23,2.23,0,0,1-690.59,552.44Zm0-.74a1.42,1.42,0,0,0,.88-.28,1.81,1.81,0,0,0,.58-.81,3.4,3.4,0,0,0,.2-1.23,3.38,3.38,0,0,0-.2-1.24,1.81,1.81,0,0,0-.58-.81,1.42,1.42,0,0,0-.88-.28,1.44,1.44,0,0,0-.89.28,1.8,1.8,0,0,0-.58.81,3.39,3.39,0,0,0-.2,1.24,3.41,3.41,0,0,0,.2,1.23,1.8,1.8,0,0,0,.58.81A1.44,1.44,0,0,0-690.59,551.7Z" transform="translate(1215 -400)"/><path class="cls-2" d="M-686.45,549.84l-.61-.07a1.82,1.82,0,0,1,.37-1,1,1,0,0,1,.76-.34,1.32,1.32,0,0,1,.37.06,2.14,2.14,0,0,1,.41.17l.71.35.31.14a.75.75,0,0,0,.23,0q.49,0,.59-.73l.59.07a1.75,1.75,0,0,1-.37,1,1,1,0,0,1-.76.34,1.46,1.46,0,0,1-.36-.05,1.89,1.89,0,0,1-.42-.17l-.71-.35a2.08,2.08,0,0,0-.32-.15.66.66,0,0,0-.22,0Q-686.35,549.11-686.45,549.84Z" transform="translate(1215 -400)"/><path class="cls-2" d="M-680.75,552.35v-5.07l-1.07.45V547l1.38-.58h.53v5.94Z" transform="translate(1215 -400)"/><path class="cls-2" d="M-676.38,552.44a2.72,2.72,0,0,1-1.12-.22,1.88,1.88,0,0,1-.77-.61,1.49,1.49,0,0,1-.28-.89,1.3,1.3,0,0,1,.17-.65,1.6,1.6,0,0,1,.47-.52,1.91,1.91,0,0,1,.68-.31,1.65,1.65,0,0,1-.8-.52,1.24,1.24,0,0,1-.31-.82,1.37,1.37,0,0,1,.26-.82,1.77,1.77,0,0,1,.7-.57,2.32,2.32,0,0,1,1-.21,2.35,2.35,0,0,1,1,.21,1.74,1.74,0,0,1,.7.57,1.38,1.38,0,0,1,.25.82,1.24,1.24,0,0,1-.31.82,1.65,1.65,0,0,1-.8.52,1.89,1.89,0,0,1,1,.56,1.34,1.34,0,0,1,.36.92,1.51,1.51,0,0,1-.28.89,1.84,1.84,0,0,1-.77.61A2.75,2.75,0,0,1-676.38,552.44Zm0-.67a1.65,1.65,0,0,0,.7-.14,1.18,1.18,0,0,0,.48-.39,1,1,0,0,0,.18-.56,1,1,0,0,0-.18-.56,1.19,1.19,0,0,0-.48-.39,1.65,1.65,0,0,0-.7-.14,1.62,1.62,0,0,0-.7.14,1.24,1.24,0,0,0-.48.39.93.93,0,0,0-.18.56,1,1,0,0,0,.18.56,1.18,1.18,0,0,0,.48.39A1.65,1.65,0,0,0-676.38,551.77Zm0-2.84a1.35,1.35,0,0,0,.59-.13,1,1,0,0,0,.42-.35.84.84,0,0,0,.15-.49.88.88,0,0,0-.15-.5,1,1,0,0,0-.42-.35,1.39,1.39,0,0,0-.59-.12,1.39,1.39,0,0,0-.59.12,1,1,0,0,0-.42.34.86.86,0,0,0-.15.5.85.85,0,0,0,.15.5,1,1,0,0,0,.42.35A1.35,1.35,0,0,0-676.38,548.93Z" transform="translate(1215 -400)"/><path class="cls-2" d="M-672.72,552.35v-5.94h4.4v.78h-3.51V549h2.31v.76h-2.31v2.58Z" transform="translate(1215 -400)"/><rect class="cls-3" width="760" height="467"/></svg>