<svg id="Layer_1" data-name="Layer 1" xmlns="http://www.w3.org/2000/svg" viewBox="0 0 952 629"><defs><style>.cls-1{fill:#1d1d1b;}.cls-2{fill:none;}</style></defs><title>architecture1-bg2</title><path class="cls-1" d="M841.49,527.64a10.55,10.55,0,0,0-4.81,1.17,15.11,15.11,0,0,0-15.39-6.48,22,22,0,0,0-2-4h19.57a5.92,5.92,0,1,0,0-11.84h-3a14,14,0,0,0,.15-2,13.85,13.85,0,0,0-8.44-12.77,23.47,23.47,0,0,0-43.35-8.94,11.25,11.25,0,0,0-3.19-2,11.08,11.08,0,0,0-17.28-8,24,24,0,0,0-41.18,16.67c0,.13,0,.26,0,.38a14.38,14.38,0,0,0-15.82,19.14,1.8,1.8,0,1,0,3.37-1.24A10.79,10.79,0,0,1,724,493.82l2.75,1-.36-2.9a20.83,20.83,0,0,1-.16-2.52,20.37,20.37,0,0,1,36-13l1.24,1.48,1.39-1.35a7.48,7.48,0,0,1,12.68,5.37c0,.06,0,.11,0,.17l0,1.4,1.35.37a7.69,7.69,0,0,1,4.31,3.08l1.72,2.14,1.4-2.4a19.88,19.88,0,0,1,37.88,6.52l.1,1.18,1.13.37a10.3,10.3,0,0,1,6.54,13l-.79,2.37h7.72a2.33,2.33,0,1,1,0,4.65H816.57a22.3,22.3,0,0,0-16.19-7,22.05,22.05,0,0,0-13.46,4.53,22.48,22.48,0,0,0-7.39,9.92,15.1,15.1,0,0,0-16.26,19.47,1.8,1.8,0,1,0,3.43-1.07A11.5,11.5,0,0,1,780.33,526l1.66.39.48-1.63a18.8,18.8,0,0,1,6.63-9.61,18.49,18.49,0,0,1,11.28-3.8,18.72,18.72,0,0,1,18,13.64l.5,1.79,1.77-.56a11.51,11.51,0,0,1,13.8,5.94l1,2,1.75-1.4a6.85,6.85,0,0,1,4.31-1.51,6.92,6.92,0,0,1,6.51,9.27,1.8,1.8,0,0,0,3.38,1.22,10.52,10.52,0,0,0-9.89-14.09"/><rect class="cls-2" width="952" height="629"/><rect class="cls-2" width="952" height="629"/></svg>