<svg xmlns="http://www.w3.org/2000/svg" xmlns:xlink="http://www.w3.org/1999/xlink" viewBox="0 0 760 467"><defs><style>.cls-1{fill:none;}.cls-2{isolation:isolate;}.cls-3{mix-blend-mode:multiply;}.cls-4{clip-path:url(#clip-path);}.cls-5{fill:#abceb0;}.cls-6{fill:#fff;}</style><clipPath id="clip-path" transform="translate(1215 -400)"><rect class="cls-1" x="-947.57" y="737.33" width="41.14" height="16.77"/></clipPath></defs><title>architecture2-rig8</title><g class="cls-2"><g id="BG_FOOTER_CONTENTS_Image" data-name="BG + FOOTER + CONTENTS Image"><g class="cls-3"><g class="cls-4"><rect class="cls-5" x="267.43" y="337.33" width="41.15" height="16.77"/></g></g><path class="cls-6" d="M-937.42,745.69v.83h2.07v2.39h-.83v-1.73h-4.2v-.67h2.13v-.83h-2.86V745h6.56v.67Zm2.21-1.16a3.64,3.64,0,0,1-2.62-1.49,3.61,3.61,0,0,1-2.62,1.49l-.3-.64c1.43-.18,2.5-1,2.5-1.87v-.27h.85V742c0,.85,1.07,1.69,2.5,1.87Z" transform="translate(1215 -400)"/><path class="cls-6" d="M-930,745.58h-3.42v-3.47h.83v1.06h1.77v-1.06h.82Zm-2.78.79H-928v2.53h-.83V747h-3.94Zm2-2.57h-1.77v1.12h1.77Zm3.84.36h-1V746h-.83v-4.37h.83v1.84h1Z" transform="translate(1215 -400)"/><path class="cls-6" d="M-923.71,743.45a3.51,3.51,0,0,0,1.88,3.18l-.48.66a3.62,3.62,0,0,1-1.8-2.18,3.77,3.77,0,0,1-1.85,2.34l-.49-.69a3.65,3.65,0,0,0,1.91-3.31v-1.19h.83Zm3.29-1.8v7.27h-.83v-7.27Z" transform="translate(1215 -400)"/><path class="cls-6" d="M-915.25,745.25a2.76,2.76,0,0,1-1.67-1.48,2.92,2.92,0,0,1-1.77,1.64l-.43-.65a2.39,2.39,0,0,0,1.77-2.27v-.61h.83v.61a2.28,2.28,0,0,0,1.71,2.12Zm2.41,2.91v.65h-5v-1.88h3.88v-.58h-3.9v-.64h4.72v1.83H-917v.62Zm-1.08-4.64h-1.47v-.67h1.47v-1.21h.83v3.72h-.83Z" transform="translate(1215 -400)"/><rect class="cls-1" width="760" height="467"/></g></g></svg>