<svg id="BG_FOOTER_CONTENTS_Image" data-name="BG + FOOTER + CONTENTS Image" xmlns="http://www.w3.org/2000/svg" viewBox="0 0 760 467"><defs><style>.cls-1,.cls-3{fill:none;}.cls-1{stroke:#1d1d1b;stroke-miterlimit:10;stroke-width:0.31px;}.cls-2{fill:#1d1d1b;}</style></defs><title>architecture2-fl3</title><line class="cls-1" x1="518.35" y1="293.43" x2="550.05" y2="293.43"/><path class="cls-2" d="M-693.18,656v-1.51h-3.37v-.67l3.27-3.76h.94v3.72h.72v.71h-.72V656Zm-2.37-2.22h2.37v-2.73Z" transform="translate(1215 -400)"/><path class="cls-2" d="M-690,653.52l-.61-.07a1.82,1.82,0,0,1,.37-1,1,1,0,0,1,.76-.34,1.32,1.32,0,0,1,.37.06,2.14,2.14,0,0,1,.41.17l.71.35.31.14a.75.75,0,0,0,.23,0q.49,0,.59-.73l.59.07a1.75,1.75,0,0,1-.37,1,1,1,0,0,1-.76.34,1.46,1.46,0,0,1-.36-.05,1.89,1.89,0,0,1-.42-.17l-.71-.35a2.08,2.08,0,0,0-.32-.15.66.66,0,0,0-.22,0Q-689.94,652.79-690,653.52Z" transform="translate(1215 -400)"/><path class="cls-2" d="M-683.18,650a2.18,2.18,0,0,1,1.26.37,2.48,2.48,0,0,1,.85,1,3.48,3.48,0,0,1,.31,1.5,4,4,0,0,1-.34,1.7,2.66,2.66,0,0,1-1,1.13,2.57,2.57,0,0,1-1.44.4,2.72,2.72,0,0,1-.81-.13,2.46,2.46,0,0,1-.7-.34l.43-.61a2.23,2.23,0,0,0,.55.26,2,2,0,0,0,.59.09,1.65,1.65,0,0,0,1-.3,1.87,1.87,0,0,0,.63-.85,3.69,3.69,0,0,0,.23-1.32,2.26,2.26,0,0,1-.76.65,1.93,1.93,0,0,1-.92.23,2.15,2.15,0,0,1-1-.24,1.84,1.84,0,0,1-.71-.65,1.76,1.76,0,0,1-.25-.95,1.89,1.89,0,0,1,.27-1,2,2,0,0,1,.74-.7A2.18,2.18,0,0,1-683.18,650Zm0,3.15a1.77,1.77,0,0,0,.84-.21,2.19,2.19,0,0,0,.68-.56,2.47,2.47,0,0,0-.28-.88,1.6,1.6,0,0,0-.53-.58,1.32,1.32,0,0,0-.73-.21,1.34,1.34,0,0,0-.66.16,1.19,1.19,0,0,0-.46.44,1.23,1.23,0,0,0-.17.64,1.19,1.19,0,0,0,.17.62,1.12,1.12,0,0,0,.46.43A1.44,1.44,0,0,0-683.14,653.14Z" transform="translate(1215 -400)"/><path class="cls-2" d="M-679.35,656v-5.94h4.4v.78h-3.51v1.83h2.31v.76h-2.31V656Z" transform="translate(1215 -400)"/><rect class="cls-3" width="760" height="467"/></svg>