<svg xmlns="http://www.w3.org/2000/svg" xmlns:xlink="http://www.w3.org/1999/xlink" viewBox="0 0 760 467"><defs><style>.cls-1{fill:none;}.cls-2{isolation:isolate;}.cls-3{mix-blend-mode:multiply;}.cls-4{clip-path:url(#clip-path);}.cls-5{fill:#ebcd93;}.cls-6{fill:#fff;}</style><clipPath id="clip-path" transform="translate(1215 -400)"><rect class="cls-1" x="-821.25" y="716.41" width="94.85" height="58.6"/></clipPath></defs><title>architecture2-rig10</title><g class="cls-2"><g id="BG_FOOTER_CONTENTS_Image" data-name="BG + FOOTER + CONTENTS Image"><g class="cls-3"><g class="cls-4"><polygon class="cls-5" points="393.75 354.1 393.75 316.41 488.6 316.41 488.6 354.1 488.6 375.01 434.68 375.01 434.68 354.1 393.75 354.1"/></g></g><path class="cls-6" d="M-784.07,735.17a2.85,2.85,0,0,1-1.66-1.52,3,3,0,0,1-1.75,1.72l-.44-.66a2.53,2.53,0,0,0,1.76-2.42v-.71h.83v.78a2.32,2.32,0,0,0,1.69,2.17Zm2,1.92c0,.86-.92,1.36-2.42,1.36s-2.42-.51-2.42-1.36.92-1.36,2.42-1.36S-782.11,736.23-782.11,737.08Zm-.82,0c0-.45-.59-.71-1.6-.71s-1.6.26-1.6.71.59.71,1.6.71S-782.93,737.55-782.93,737.08Zm1.77-4.09v.68h-1v1.88H-783v-4.36h.83V733Z" transform="translate(1215 -400)"/><path class="cls-6" d="M-774.43,731.2v3.88h-.83v-1.54h-1.34a1.75,1.75,0,0,1-1.85,1.37,1.74,1.74,0,0,1-1.89-1.7,1.74,1.74,0,0,1,1.89-1.69,1.76,1.76,0,0,1,1.85,1.35h1.34V731.2Zm-2.92,2a1,1,0,0,0-1.09-1,1,1,0,0,0-1.1,1,1,1,0,0,0,1.1,1A1,1,0,0,0-777.36,733.21Zm2.1,2.22h.82v2.93h-4.71v-2.93h.82v.82h3.07Zm0,1.46h-3.07v.8h3.07Z" transform="translate(1215 -400)"/><path class="cls-6" d="M-770.46,733a3.51,3.51,0,0,0,1.88,3.18l-.48.66a3.62,3.62,0,0,1-1.8-2.18,3.77,3.77,0,0,1-1.85,2.34l-.49-.69a3.65,3.65,0,0,0,1.91-3.31V731.8h.83Zm3.29-1.8v7.27H-768v-7.27Z" transform="translate(1215 -400)"/><path class="cls-6" d="M-762,734.8a2.76,2.76,0,0,1-1.67-1.48,2.92,2.92,0,0,1-1.77,1.64l-.43-.65a2.39,2.39,0,0,0,1.77-2.27v-.61h.83V732a2.28,2.28,0,0,0,1.71,2.12Zm2.41,2.91v.65h-5v-1.88h3.88v-.58h-3.9v-.64h4.72v1.83h-3.88v.62Zm-1.08-4.64h-1.47v-.67h1.47v-1.21h.83v3.72h-.83Z" transform="translate(1215 -400)"/><rect class="cls-1" width="760" height="467"/></g></g></svg>