<svg xmlns="http://www.w3.org/2000/svg" xmlns:xlink="http://www.w3.org/1999/xlink" viewBox="0 0 760 467"><defs><style>.cls-1{fill:none;}.cls-2{isolation:isolate;}.cls-3{mix-blend-mode:multiply;}.cls-4{clip-path:url(#clip-path);}.cls-5{fill:#afc6df;}.cls-6{fill:#fff;}</style><clipPath id="clip-path" transform="translate(1215 -400)"><rect class="cls-1" x="-947.57" y="488.15" width="221.16" height="203.2"/></clipPath></defs><title>architecture2-rig2</title><g class="cls-2"><g id="BG_FOOTER_CONTENTS_Image" data-name="BG + FOOTER + CONTENTS Image"><g class="cls-3"><g class="cls-4"><polygon class="cls-5" points="267.43 88.15 488.6 88.15 488.6 291.35 434.8 291.35 434.8 208.37 420.15 208.37 267.43 208.37 267.43 88.15"/></g></g><path class="cls-6" d="M-887.7,549.89v.68h-6.58v-.68Zm-5-4.33h-1.07v-.67h5.45v.67h-1.07v2.37h1.05v.67h-5.41v-.67h1Zm2.5,0h-1.67v2.37h1.67Z" transform="translate(1215 -400)"/><path class="cls-6" d="M-885.58,549.07a20.85,20.85,0,0,0,3.3-.25l.09.67a20,20,0,0,1-3.6.26h-.62v-2.87h2.53v-1.35h-2.54v-.67h3.38v2.69h-2.53Zm4.74-4.87v7.28h-.83V544.2Z" transform="translate(1215 -400)"/><path class="cls-6" d="M-875.73,544.89v4.79h-3.4v-4.79Zm-2.59.66V549h1.78v-3.47Zm4.77-1.35v7.27h-.83V544.2Z" transform="translate(1215 -400)"/><path class="cls-6" d="M-866.21,544.21v4.14H-867v-1.69h-1.34a1.77,1.77,0,0,1-1.85,1.41,1.75,1.75,0,0,1-1.89-1.74,1.75,1.75,0,0,1,1.89-1.73,1.79,1.79,0,0,1,1.85,1.37H-867v-1.77Zm-2.92,2.13a1,1,0,0,0-1.1-1,1,1,0,0,0-1.09,1,1,1,0,0,0,1.09,1.05A1,1,0,0,0-869.13,546.34Zm-1.84,2.37h4.76v2.66H-871Zm.81,2H-867v-1.35h-3.14Z" transform="translate(1215 -400)"/><path class="cls-6" d="M-856.81,549.89v.67h-6.57v-.67h2.86v-1.39c-1.32-.12-2.25-.85-2.25-1.93s1.12-1.94,2.66-1.94,2.66.76,2.66,1.94-.93,1.81-2.26,1.93v1.38Zm-3.29-2c1.08,0,1.85-.5,1.85-1.28s-.78-1.28-1.85-1.28-1.86.5-1.86,1.28S-861.18,547.86-860.1,547.86Z" transform="translate(1215 -400)"/><path class="cls-6" d="M-852.39,548.94c.36,0,.71-.06,1.06-.1l0,.61a28.93,28.93,0,0,1-4.58.28l-.09-.68h.92v-3.43h-.72v-.67h4.09v.67h-.72Zm-1.84.09,1,0v-3.38h-1Zm4.28-4.82v7.26h-.83v-7.26Z" transform="translate(1215 -400)"/><path class="cls-6" d="M-842.06,549.85v.68h-6.57v-.68Zm-.64-1.41a3.79,3.79,0,0,1-2.67-2,3.79,3.79,0,0,1-2.67,2l-.35-.68a3,3,0,0,0,2.59-2.53v-.55h.88v.55a3,3,0,0,0,2.59,2.53Z" transform="translate(1215 -400)"/><path class="cls-6" d="M-837.67,544.44h.64l-2.23,7.85h-.64Z" transform="translate(1215 -400)"/><path class="cls-6" d="M-832.77,547.71a1.72,1.72,0,0,1-1.89-1.63,1.72,1.72,0,0,1,1.89-1.64,1.73,1.73,0,0,1,1.91,1.64A1.73,1.73,0,0,1-832.77,547.71Zm0-.67a1,1,0,0,0,1.11-1,1,1,0,0,0-1.11-1,1,1,0,0,0-1.09,1A1,1,0,0,0-832.77,547Zm4.16,3.68v.65h-5v-1.9h3.92v-.6h-3.93v-.65h4.75v1.86h-3.92v.64Zm-.22-2.83h-.83V544.2h.83Z" transform="translate(1215 -400)"/><path class="cls-6" d="M-823.82,548.37h-3.42v-3.64h.83v1.13h1.77v-1.13h.82Zm-1.77,2.28h4v.67h-4.88V549h.83Zm.95-4.14h-1.77v1.2h1.77Zm3.84-.16V547h-1v2.51h-.83v-5.32h.83v2.13Z" transform="translate(1215 -400)"/><path class="cls-6" d="M-815.55,548.23a2.53,2.53,0,0,1-1.3-1.36,2.71,2.71,0,0,1-1.41,1.52l-.44-.62a2.49,2.49,0,0,0,1.44-2.21v-.93h.8v.93a2.21,2.21,0,0,0,1.35,2Zm-1.89.74h4.91v2.5h-.83v-1.84h-4.09Zm2.7-2.51h-1v-.67h1v-1.44h.78v4.2h-.78Zm2.21-2.24v4.39h-.79v-4.39Z" transform="translate(1215 -400)"/><path class="cls-6" d="M-807.55,548.61a3.05,3.05,0,0,1-1.64-1.69,3.06,3.06,0,0,1-1.74,1.79l-.45-.65a2.67,2.67,0,0,0,1.76-2.54v-.9h.84v.9a2.61,2.61,0,0,0,1.69,2.45Zm2.36,2v.67h-4.89v-2.24h.83v1.57Zm-1-3.31h-1.35v-.67h1.35v-.78h-1.35v-.67h1.35v-1h.83v5.39h-.83Z" transform="translate(1215 -400)"/><path class="cls-6" d="M-796,549.89v.67h-6.57v-.67h2.86v-1.39c-1.32-.12-2.25-.85-2.25-1.93s1.12-1.94,2.66-1.94,2.66.76,2.66,1.94-.93,1.81-2.26,1.93v1.38Zm-3.29-2c1.08,0,1.85-.5,1.85-1.28s-.78-1.28-1.85-1.28-1.86.5-1.86,1.28S-800.33,547.86-799.25,547.86Z" transform="translate(1215 -400)"/><path class="cls-6" d="M-791.68,548.94c.36,0,.71-.06,1.06-.1l0,.61a28.93,28.93,0,0,1-4.58.28l-.09-.68h.92v-3.43H-795v-.67H-791v.67h-.72Zm-1.84.09,1,0v-3.38h-1Zm4.28-4.82v7.26h-.83v-7.26Z" transform="translate(1215 -400)"/><path class="cls-6" d="M-781.35,549.85v.68h-6.57v-.68Zm-.64-1.41a3.79,3.79,0,0,1-2.67-2,3.79,3.79,0,0,1-2.67,2l-.35-.68a3,3,0,0,0,2.59-2.53v-.55h.88v.55a3,3,0,0,0,2.59,2.53Z" transform="translate(1215 -400)"/><rect class="cls-1" width="760" height="467"/></g></g></svg>