<svg id="BG_FOOTER_CONTENTS_Image" data-name="BG + FOOTER + CONTENTS Image" xmlns="http://www.w3.org/2000/svg" xmlns:xlink="http://www.w3.org/1999/xlink" viewBox="0 0 761 467"><defs><style>.cls-1{fill:none;}.cls-2{fill:#fad3da;}.cls-3{fill:#231f20;}.cls-4{clip-path:url(#clip-path);}</style><clipPath id="clip-path" transform="translate(-199 -400)"><rect class="cls-1" x="435.67" y="536.02" width="248.33" height="167.21"/></clipPath></defs><title>architecture2-lef2</title><polygon class="cls-2" points="237.96 240.62 238.12 280.46 279.42 301.84 482.33 198.68 482 158.36 442.81 138.76 237.96 240.62"/><polygon class="cls-3" points="442.39 136.01 237.69 238.35 236.68 238.86 236.67 281.91 279.29 303.23 485 200.33 485 157.32 442.39 136.01"/><polygon class="cls-2" points="240.34 279.64 240.34 242.96 277.44 261.51 277.45 298.2 240.34 279.64"/><polygon class="cls-2" points="279.28 258.32 242.61 239.99 442.39 140.12 479.06 158.45 279.28 258.32"/><polygon class="cls-2" points="481.33 198.06 281.12 298.21 281.12 261.51 481.33 161.42 481.33 198.06"/><g class="cls-4"><path class="cls-3" d="M497.39,681a5.08,5.08,0,0,0,3,1.33,6.85,6.85,0,0,0,3.69-.81,11.81,11.81,0,0,0,2.75-1.94,17.72,17.72,0,0,0,2.49-2.88,20,20,0,0,0,2-3.52l-2.43-2.27a15.08,15.08,0,0,1-2.12,3.48,8,8,0,0,1-2.59,2.13,4.19,4.19,0,0,1-2.28.5,3.11,3.11,0,0,1-1.85-.84,4.85,4.85,0,0,1-1.24-2,10,10,0,0,1-.46-3.08,14.58,14.58,0,0,1,.39-3.54,15.06,15.06,0,0,1,1.16-3.23,12,12,0,0,1,1.77-2.65,7.35,7.35,0,0,1,2.21-1.74,4.09,4.09,0,0,1,2.69-.45,3.85,3.85,0,0,1,2.23,1.52l2.43-4.78a4.89,4.89,0,0,0-2-1.58,5.71,5.71,0,0,0-2.55-.4,7.45,7.45,0,0,0-2.83.81,12.47,12.47,0,0,0-3.66,2.82,20.07,20.07,0,0,0-3,4.29,23.81,23.81,0,0,0-2,5.2,22,22,0,0,0-.67,5.59,14.74,14.74,0,0,0,.77,4.84,7.87,7.87,0,0,0,2,3.22" transform="translate(-199 -400)"/><path class="cls-3" d="M516.36,671.58a5.07,5.07,0,0,0,3,1.36,6.69,6.69,0,0,0,3.66-.8,12.46,12.46,0,0,0,3.66-2.83,19.58,19.58,0,0,0,2.94-4.3,24,24,0,0,0,1.94-5.2,22.05,22.05,0,0,0,.65-5.55,15,15,0,0,0-.76-4.85,7.92,7.92,0,0,0-2-3.24,5.07,5.07,0,0,0-3-1.36,6.78,6.78,0,0,0-3.68.81,12.39,12.39,0,0,0-3.64,2.82,19.71,19.71,0,0,0-2.93,4.29,24.38,24.38,0,0,0-1.95,5.21,21.77,21.77,0,0,0-.67,5.55,14.68,14.68,0,0,0,.77,4.84,8,8,0,0,0,2,3.24" transform="translate(-199 -400)"/><path class="cls-2" d="M517.71,658.11a14.92,14.92,0,0,1,1.16-3.23,12.19,12.19,0,0,1,1.75-2.63,7.08,7.08,0,0,1,2.18-1.73,3.81,3.81,0,0,1,2.23-.46,3.14,3.14,0,0,1,1.78.89A5.11,5.11,0,0,1,528,653a10.07,10.07,0,0,1,.46,3.11,14.72,14.72,0,0,1-.39,3.52,15.05,15.05,0,0,1-1.16,3.25,12.24,12.24,0,0,1-1.75,2.64,7.2,7.2,0,0,1-2.21,1.74,3.76,3.76,0,0,1-2.2.44,3.14,3.14,0,0,1-1.78-.89,5.08,5.08,0,0,1-1.21-2.07,10.26,10.26,0,0,1-.46-3.13,14.51,14.51,0,0,1,.39-3.5" transform="translate(-199 -400)"/><polygon class="cls-3" points="340.49 263.59 340.3 244.6 346.57 258.73 352.52 238.62 352.71 257.54 356.16 255.83 355.9 230.12 351.22 232.44 346.52 248.72 341.54 237.23 336.85 239.55 337.11 265.26 340.49 263.59"/><polygon class="cls-3" points="363.97 251.97 363.78 232.98 370.05 247.11 376 227 376.19 245.92 379.64 244.21 379.39 218.5 374.7 220.82 370 237.1 365.02 225.61 360.34 227.93 360.6 253.64 363.97 251.97"/><path class="cls-3" d="M583.71,636.66a4.51,4.51,0,0,0,2.75,2.64,5.7,5.7,0,0,0,4.16-.65,11.66,11.66,0,0,0,4.13-3.46,16.79,16.79,0,0,0,2.67-5.34,21.49,21.49,0,0,0,.9-6.52l-.15-14.62-3.63,1.8.15,14.62a13.05,13.05,0,0,1-.48,3.73,9.39,9.39,0,0,1-1.43,3,6,6,0,0,1-2.18,1.88,2.88,2.88,0,0,1-2.21.3,2.58,2.58,0,0,1-1.48-1.56,8.38,8.38,0,0,1-.55-3.21l-.15-14.62-3.65,1.81.15,14.62a13.75,13.75,0,0,0,1,5.6" transform="translate(-199 -400)"/><polygon class="cls-3" points="407.06 230.64 406.88 213.46 416.05 226.19 419.28 224.6 419.02 198.89 415.59 200.58 415.76 217.18 406.83 204.92 403.35 206.64 403.61 232.35 407.06 230.64"/><polygon class="cls-3" points="427.39 220.58 427.13 194.87 423.48 196.68 423.74 222.39 427.39 220.58"/><polygon class="cls-3" points="436.45 194.98 436.67 215.99 440.32 214.18 440.11 193.18 446.03 190.24 445.98 185.54 430.46 193.22 430.51 197.93 436.45 194.98"/><polygon class="cls-3" points="455.26 206.79 458.91 204.98 458.81 195.18 465.89 175.69 461.9 177.66 457.05 191.29 452 182.56 447.79 184.65 455.16 196.95 455.26 206.79"/></g><rect class="cls-1" width="761" height="467"/></svg>