<svg id="BG_FOOTER_CONTENTS_Image" data-name="BG + FOOTER + CONTENTS Image" xmlns="http://www.w3.org/2000/svg" viewBox="0 0 760 467"><defs><style>.cls-1,.cls-3{fill:none;}.cls-1{stroke:#1d1d1b;stroke-miterlimit:10;stroke-width:0.31px;}.cls-2{fill:#1d1d1b;}</style></defs><title>architecture2-fl4</title><line class="cls-1" x1="518.35" y1="314.34" x2="550.05" y2="314.34"/><path class="cls-2" d="M-694.14,707a3.14,3.14,0,0,1-1.19-.23,2.73,2.73,0,0,1-1-.65l.55-.53a2.23,2.23,0,0,0,.73.53,2.2,2.2,0,0,0,.87.16,1.75,1.75,0,0,0,.71-.14,1.13,1.13,0,0,0,.48-.37.93.93,0,0,0,.17-.55.91.91,0,0,0-.15-.51,1,1,0,0,0-.4-.35,1.32,1.32,0,0,0-.59-.12h-.72v-.69h.66a1,1,0,0,0,.72-.26.91.91,0,0,0,.27-.69.9.9,0,0,0-.15-.51,1,1,0,0,0-.42-.36,1.35,1.35,0,0,0-.61-.13,1.9,1.9,0,0,0-.79.16,2.34,2.34,0,0,0-.71.55l-.55-.53a2.8,2.8,0,0,1,.94-.68,2.8,2.8,0,0,1,1.13-.23,2.35,2.35,0,0,1,1,.21,1.74,1.74,0,0,1,.71.59,1.48,1.48,0,0,1,.26.85,1.26,1.26,0,0,1-.31.84,1.61,1.61,0,0,1-.81.51,1.79,1.79,0,0,1,1,.5,1.25,1.25,0,0,1,.36.89,1.51,1.51,0,0,1-.28.89,1.86,1.86,0,0,1-.77.62A2.66,2.66,0,0,1-694.14,707Z" transform="translate(1215 -400)"/><path class="cls-2" d="M-690.56,706.94V701h4.4v.78h-3.51v1.83h2.31v.76h-2.31v2.58Z" transform="translate(1215 -400)"/><rect class="cls-3" width="760" height="467"/></svg>