<svg id="BG_FOOTER_CONTENTS_Image" data-name="BG + FOOTER + CONTENTS Image" xmlns="http://www.w3.org/2000/svg" viewBox="0 0 760 467"><defs><style>.cls-1,.cls-3{fill:none;}.cls-1{stroke:#1d1d1b;stroke-miterlimit:10;stroke-width:0.31px;}.cls-2{fill:#1d1d1b;}</style></defs><title>architecture2-fl7</title><line class="cls-1" x1="518.35" y1="416" x2="550.05" y2="416"/><path class="cls-2" d="M-696.3,790.18v-5.94h2.57a2.47,2.47,0,0,1,1,.2,1.56,1.56,0,0,1,.67.55,1.44,1.44,0,0,1,.24.83,1.35,1.35,0,0,1-.22.76,1.54,1.54,0,0,1-.62.53,1.7,1.7,0,0,1,.79.54,1.33,1.33,0,0,1,.28.84,1.58,1.58,0,0,1-.25.9,1.65,1.65,0,0,1-.71.59,2.59,2.59,0,0,1-1.08.21Zm.89-3.42h1.63a1.24,1.24,0,0,0,.8-.24.78.78,0,0,0,.3-.65.78.78,0,0,0-.3-.65,1.24,1.24,0,0,0-.8-.24h-1.63Zm0,2.67h1.72a1.38,1.38,0,0,0,.89-.26.87.87,0,0,0,.33-.71.87.87,0,0,0-.33-.71,1.36,1.36,0,0,0-.89-.27h-1.72Z" transform="translate(1215 -400)"/><path class="cls-2" d="M-689.54,790.18v-5.07l-1.07.45v-.75l1.38-.58h.53v5.94Z" transform="translate(1215 -400)"/><path class="cls-2" d="M-686.86,787.68l-.61-.07a1.82,1.82,0,0,1,.37-1,1,1,0,0,1,.76-.34,1.32,1.32,0,0,1,.37.06,2.14,2.14,0,0,1,.41.17l.71.35.31.14a.75.75,0,0,0,.23,0q.49,0,.59-.73l.59.07a1.75,1.75,0,0,1-.37,1,1,1,0,0,1-.76.34,1.46,1.46,0,0,1-.36-.05,1.89,1.89,0,0,1-.42-.17l-.71-.35a2.08,2.08,0,0,0-.32-.15.66.66,0,0,0-.22,0Q-686.77,786.95-686.86,787.68Z" transform="translate(1215 -400)"/><path class="cls-2" d="M-681.84,790.18v-5.94h2.57a2.47,2.47,0,0,1,1,.2,1.56,1.56,0,0,1,.67.55,1.44,1.44,0,0,1,.24.83,1.35,1.35,0,0,1-.22.76,1.54,1.54,0,0,1-.62.53,1.7,1.7,0,0,1,.79.54,1.33,1.33,0,0,1,.28.84,1.58,1.58,0,0,1-.25.9,1.65,1.65,0,0,1-.71.59,2.59,2.59,0,0,1-1.08.21Zm.89-3.42h1.63a1.24,1.24,0,0,0,.8-.24.78.78,0,0,0,.3-.65.78.78,0,0,0-.3-.65,1.24,1.24,0,0,0-.8-.24H-681Zm0,2.67h1.72a1.38,1.38,0,0,0,.89-.26.87.87,0,0,0,.33-.71.87.87,0,0,0-.33-.71,1.36,1.36,0,0,0-.89-.27H-681Z" transform="translate(1215 -400)"/><path class="cls-2" d="M-672.77,790.18v-1.51h-3.37V788l3.27-3.76h.94V788h.72v.71h-.72v1.51Zm-2.37-2.22h2.37v-2.73Z" transform="translate(1215 -400)"/><rect class="cls-3" width="760" height="467"/></svg>