<svg id="BG_FOOTER_CONTENTS_Image" data-name="BG + FOOTER + CONTENTS Image" xmlns="http://www.w3.org/2000/svg" viewBox="0 0 760 467"><defs><style>.cls-1,.cls-3{fill:none;}.cls-1{stroke:#1d1d1b;stroke-miterlimit:10;stroke-width:0.31px;}.cls-2{fill:#1d1d1b;}</style></defs><title>architecture2-fl1</title><line class="cls-1" x1="518.35" y1="63.24" x2="550.05" y2="63.24"/><line class="cls-1" x1="518.35" y1="86.08" x2="550.05" y2="86.08"/><path class="cls-2" d="M-695.21,477.72v-5.07l-1.07.45v-.75l1.38-.58h.53v5.94Z" transform="translate(1215 -400)"/><path class="cls-2" d="M-691,471.68a2.18,2.18,0,0,1,1.26.37,2.48,2.48,0,0,1,.85,1,3.48,3.48,0,0,1,.31,1.5,4,4,0,0,1-.34,1.7,2.66,2.66,0,0,1-1,1.13,2.56,2.56,0,0,1-1.44.4,2.69,2.69,0,0,1-.81-.13,2.47,2.47,0,0,1-.7-.34l.43-.61a2.23,2.23,0,0,0,.55.26,2,2,0,0,0,.59.09,1.65,1.65,0,0,0,1-.3,1.87,1.87,0,0,0,.63-.85,3.69,3.69,0,0,0,.23-1.32,2.27,2.27,0,0,1-.76.65,1.94,1.94,0,0,1-.92.23,2.15,2.15,0,0,1-1-.24,1.82,1.82,0,0,1-.71-.65,1.76,1.76,0,0,1-.25-.95,1.89,1.89,0,0,1,.27-1,2,2,0,0,1,.74-.7A2.18,2.18,0,0,1-691,471.68Zm0,3.15a1.77,1.77,0,0,0,.84-.21,2.18,2.18,0,0,0,.68-.56,2.48,2.48,0,0,0-.28-.88,1.6,1.6,0,0,0-.53-.58,1.32,1.32,0,0,0-.73-.21,1.34,1.34,0,0,0-.66.16,1.19,1.19,0,0,0-.46.44,1.23,1.23,0,0,0-.17.64,1.19,1.19,0,0,0,.17.62,1.13,1.13,0,0,0,.46.43A1.44,1.44,0,0,0-691,474.83Z" transform="translate(1215 -400)"/><path class="cls-2" d="M-686.87,475.21l-.61-.07a1.82,1.82,0,0,1,.37-1,1,1,0,0,1,.76-.34,1.32,1.32,0,0,1,.37.06,2.11,2.11,0,0,1,.41.17l.71.35.31.14a.75.75,0,0,0,.23,0q.49,0,.59-.73l.59.07a1.75,1.75,0,0,1-.37,1,1,1,0,0,1-.76.34,1.46,1.46,0,0,1-.36-.05A1.84,1.84,0,0,1-685,475l-.71-.35a2.18,2.18,0,0,0-.32-.15.69.69,0,0,0-.22,0Q-686.78,474.48-686.87,475.21Z" transform="translate(1215 -400)"/><path class="cls-2" d="M-682,477.72v-.59l2.41-2.56a3.34,3.34,0,0,0,.38-.46,1.47,1.47,0,0,0,.19-.39,1.33,1.33,0,0,0,.06-.39.82.82,0,0,0-.32-.66,1.25,1.25,0,0,0-.81-.26,1.84,1.84,0,0,0-.76.16,3.11,3.11,0,0,0-.79.56l-.46-.56a3.52,3.52,0,0,1,1-.66,2.59,2.59,0,0,1,1-.22,2.33,2.33,0,0,1,1,.2,1.62,1.62,0,0,1,.67.56,1.45,1.45,0,0,1,.24.83,1.86,1.86,0,0,1-.08.55,2,2,0,0,1-.26.53,5.08,5.08,0,0,1-.53.63l-1.94,2h2.92v.7Z" transform="translate(1215 -400)"/><path class="cls-2" d="M-674.51,477.81a2.24,2.24,0,0,1-1.31-.39,2.59,2.59,0,0,1-.88-1.08,3.79,3.79,0,0,1-.32-1.6,3.79,3.79,0,0,1,.32-1.6,2.59,2.59,0,0,1,.88-1.08,2.24,2.24,0,0,1,1.31-.39,2.23,2.23,0,0,1,1.3.39,2.59,2.59,0,0,1,.88,1.08,3.79,3.79,0,0,1,.32,1.6,3.79,3.79,0,0,1-.32,1.6,2.59,2.59,0,0,1-.88,1.08A2.23,2.23,0,0,1-674.51,477.81Zm0-.74a1.42,1.42,0,0,0,.88-.28A1.81,1.81,0,0,0-673,476a3.39,3.39,0,0,0,.2-1.23,3.38,3.38,0,0,0-.2-1.24,1.81,1.81,0,0,0-.58-.81,1.42,1.42,0,0,0-.88-.28,1.44,1.44,0,0,0-.89.28,1.8,1.8,0,0,0-.58.81,3.39,3.39,0,0,0-.2,1.24A3.4,3.4,0,0,0-676,476a1.8,1.8,0,0,0,.58.81A1.44,1.44,0,0,0-674.51,477.07Z" transform="translate(1215 -400)"/><path class="cls-2" d="M-670.68,477.72v-5.94h4.4v.78h-3.51v1.83h2.31v.76h-2.31v2.58Z" transform="translate(1215 -400)"/><rect class="cls-3" width="760" height="467"/></svg>