<svg id="Layer_1" data-name="Layer 1" xmlns="http://www.w3.org/2000/svg" viewBox="0 0 952 629"><defs><style>.cls-1{fill:#e94f15;}.cls-2{fill:#1d1d1b;}.cls-3{fill:#fff;}.cls-4{fill:none;}</style></defs><title>architecture1-bg5</title><polygon class="cls-1" points="219.7 430.19 241.56 420.16 265.62 431.16 265.1 461.32 241.29 449.99 241.29 451.5 220.11 460.58 219.7 430.19"/><path class="cls-2" d="M243.74,418.77l-1.58-.77-1.58.77-22.44,10.89V623.13h48V429.66ZM263,431.64V458l-19.27-9.35v-26.4Zm-22.44-9.35v26.4L221.3,458V431.64ZM243.74,620V452.2L263,461.55V620Z"/><path class="cls-2" d="M233.47,428.71,228,431.36a6.31,6.31,0,0,0-2.93,5.33v9.79c0,.81.49,1.23,1.1.93l1-.47L225,451.76l1.42-.69.64-1.45,7.25-3.53.64.83,1.42-.69-2.13-2.76,1-.5a2.36,2.36,0,0,0,1.1-2V431.2c0-2.16-1.31-3.27-2.93-2.49m-6.31,15.43a1.53,1.53,0,0,1,.71-1.29c.39-.19.71.08.71.6a1.53,1.53,0,0,1-.71,1.29c-.39.19-.71-.08-.71-.6m.78,3.56.64-1.45,4.27-2.07.64.82Zm5.62-5.72c-.39.19-.71-.08-.71-.6a1.53,1.53,0,0,1,.71-1.29c.39-.19.71.08.71.6a1.53,1.53,0,0,1-.71,1.29m1.44-4.42-8.5,4.13v-4.83a4.74,4.74,0,0,1,2.2-4l4.09-2c1.22-.59,2.21.25,2.21,1.87Zm-4.28-1.7-.9-1.86-1.13.55v4.87l.82-.4v-3.33l1.2,2.4,1.2-3.55v3.32l.85-.41v-4.87l-1.13.55Zm28.41,10.64v-9.79a6.31,6.31,0,0,0-2.93-5.33l-5.45-2.64c-1.62-.79-2.93.33-2.93,2.49V441a2.36,2.36,0,0,0,1.1,2l1,.47-2.13,2.76,1.42.69.64-.83,7.25,3.51.64,1.46,1.42.69L257,446.94l1,.5c.61.3,1.1-.12,1.1-.93m-9.24-5.82c0-.52.32-.79.71-.6a1.53,1.53,0,0,1,.71,1.29c0,.52-.32.79-.71.6a1.53,1.53,0,0,1-.71-1.29m.78,4.32.64-.83,4.27,2.07.64,1.44Zm5.62-.26a1.53,1.53,0,0,1-.71-1.29c0-.52.32-.79.71-.6a1.53,1.53,0,0,1,.71,1.29c0,.52-.32.79-.71.6m1.44-3-8.5-4.13v-4.83c0-1.62,1-2.46,2.21-1.87l4.09,2a4.74,4.74,0,0,1,2.2,4Zm-4.28-5.86-.9-2.73-1.13-.55v4.87l.82.4v-3.33l1.2,3.57,1.2-2.39V439l.84.41v-4.87l-1.13-.55Zm-.77,31.81-.77-1.19a2.69,2.69,0,0,0-.66,1.1,4.71,4.71,0,0,0-.23,1.53,6.27,6.27,0,0,0,.2,1.64,4.13,4.13,0,0,0,.58,1.29,2.3,2.3,0,0,0,.88.78.81.81,0,0,0,1,0,2.17,2.17,0,0,0,.49-1.31l.16-1.22a1.51,1.51,0,0,1,.2-.67.27.27,0,0,1,.37,0,.74.74,0,0,1,.31.3,1.89,1.89,0,0,1,.2.54,3.23,3.23,0,0,1,.07.71,2.94,2.94,0,0,1-.62,1.88l.8,1.16a3,3,0,0,0,.53-1.08,5.07,5.07,0,0,0,.19-1.42,5.87,5.87,0,0,0-.19-1.54,3.73,3.73,0,0,0-.54-1.2,2.19,2.19,0,0,0-.84-.74.81.81,0,0,0-.92,0,1.69,1.69,0,0,0-.47,1.11l-.18,1.29a1.81,1.81,0,0,1-.23.77.3.3,0,0,1-.41.06.85.85,0,0,1-.35-.34,2,2,0,0,1-.23-.6,3.76,3.76,0,0,1-.08-.79,3.07,3.07,0,0,1,.18-1.09,2.53,2.53,0,0,1,.58-.88M251.13,477a6.1,6.1,0,0,0,.42,1.18l.61-.59a2.71,2.71,0,0,1-.23-.61,2.83,2.83,0,0,1-.08-.68,1.57,1.57,0,0,1,.1-.6.73.73,0,0,1,.29-.36.65.65,0,0,1,.41-.09v3.81l.27.13a1.62,1.62,0,0,0,1.06.18,1.15,1.15,0,0,0,.74-.54,2.22,2.22,0,0,0,.27-1.18,4.27,4.27,0,0,0-.27-1.47,4.62,4.62,0,0,0-.72-1.3,3,3,0,0,0-1-.84,1.35,1.35,0,0,0-1-.13,1.25,1.25,0,0,0-.72.64,2.67,2.67,0,0,0-.27,1.27,5.16,5.16,0,0,0,.13,1.19m2.25-1.42a2.08,2.08,0,0,1,.41.45,2.12,2.12,0,0,1,.27.56,2,2,0,0,1,.1.62,1.15,1.15,0,0,1-.1.51.68.68,0,0,1-.27.3.58.58,0,0,1-.4.06Zm-2.12,8A4.69,4.69,0,0,0,252,485a2.9,2.9,0,0,0,1,.85,1.38,1.38,0,0,0,1,.13,1.23,1.23,0,0,0,.72-.64,2.67,2.67,0,0,0,.27-1.27,4.56,4.56,0,0,0-.27-1.53,4.68,4.68,0,0,0-.72-1.34,2.93,2.93,0,0,0-1-.85,1.34,1.34,0,0,0-1-.13,1.25,1.25,0,0,0-.72.64,2.64,2.64,0,0,0-.27,1.26,4.55,4.55,0,0,0,.27,1.53m.76-1.75a.63.63,0,0,1,.4-.32.83.83,0,0,1,.57.09,1.69,1.69,0,0,1,.57.47,2.56,2.56,0,0,1,.4.71,2.23,2.23,0,0,1,.15.79,1.24,1.24,0,0,1-.15.65.68.68,0,0,1-.4.32.8.8,0,0,1-.57-.08,1.67,1.67,0,0,1-.57-.47,2.57,2.57,0,0,1-.4-.71,2.24,2.24,0,0,1-.15-.8,1.27,1.27,0,0,1,.15-.65m-.64,7.88-.31-.15V491l3.86,1.87v-1.35l-2.68-1.3a2.11,2.11,0,0,1-.28-.59,2.16,2.16,0,0,1-.1-.66.85.85,0,0,1,.22-.68.52.52,0,0,1,.59,0l2.25,1.09V488l-2.39-1.16a1.15,1.15,0,0,0-.8-.13.86.86,0,0,0-.54.46,2,2,0,0,0-.2,1,3.65,3.65,0,0,0,.39,1.64m-.31,4.06,5.36,2.6-.17-1.44-5.19-2.52Zm.13,9.29a4.12,4.12,0,0,0,.58,1.29,2.3,2.3,0,0,0,.88.78.81.81,0,0,0,1,0,2.16,2.16,0,0,0,.49-1.31l.16-1.22a1.51,1.51,0,0,1,.2-.67.27.27,0,0,1,.37,0,.74.74,0,0,1,.31.3,1.88,1.88,0,0,1,.2.54,3.24,3.24,0,0,1,.07.71,2.94,2.94,0,0,1-.62,1.88l.8,1.16a3,3,0,0,0,.53-1.08,5.06,5.06,0,0,0,.19-1.42,5.87,5.87,0,0,0-.19-1.54,3.75,3.75,0,0,0-.54-1.2,2.2,2.2,0,0,0-.84-.74.81.81,0,0,0-.92,0,1.7,1.7,0,0,0-.47,1.11l-.18,1.29a1.8,1.8,0,0,1-.23.77.3.3,0,0,1-.41.06.86.86,0,0,1-.35-.34,2,2,0,0,1-.23-.6,3.77,3.77,0,0,1-.08-.79,3.07,3.07,0,0,1,.18-1.09,2.54,2.54,0,0,1,.58-.88l-.77-1.19a2.69,2.69,0,0,0-.66,1.1,4.71,4.71,0,0,0-.23,1.53,6.28,6.28,0,0,0,.2,1.65m.18,6-.31-.15v1.35l3.86,1.87v-1.35l-2.68-1.3A2.1,2.1,0,0,1,252,509a2.15,2.15,0,0,1-.1-.66.85.85,0,0,1,.22-.68.52.52,0,0,1,.59,0l2.25,1.09v-1.35l-2.39-1.16a1.15,1.15,0,0,0-.8-.13.86.86,0,0,0-.54.46,2,2,0,0,0-.2,1,3.65,3.65,0,0,0,.39,1.64m4.87,5.12-5.19-2.52v1.33l.27.13a1.72,1.72,0,0,0-.24.56,2.9,2.9,0,0,0-.08.71,4.33,4.33,0,0,0,.26,1.47,4.68,4.68,0,0,0,.71,1.3,2.87,2.87,0,0,0,1,.84,1.37,1.37,0,0,0,1,.14,1.22,1.22,0,0,0,.72-.6,2.39,2.39,0,0,0,.27-1.19,3.84,3.84,0,0,0-.36-1.62l1.81.88ZM254,516.47a.66.66,0,0,1-.4.34.8.8,0,0,1-.57-.08,1.65,1.65,0,0,1-.57-.47,2.59,2.59,0,0,1-.4-.73,2.47,2.47,0,0,1-.15-.84,1.93,1.93,0,0,1,.1-.64.87.87,0,0,1,.27-.41l1.5.73a2.6,2.6,0,0,1,.28.67,2.87,2.87,0,0,1,.09.73,1.47,1.47,0,0,1-.14.7m-2.9,7.45,3.86,3.3V526l-2.5-2.06,2.5.2V523l-2.49-2.24,2.49.36v-1.28l-3.86-.46v1.3l2.47,2.2-2.47-.2Zm0,6.92,2.5,1.22q.68.33,1.06-.07a2.09,2.09,0,0,0,.37-1.43,7,7,0,0,0-.1-1.17,12,12,0,0,0-.31-1.32l-.75.13q.16.57.24,1a4.06,4.06,0,0,1,.08.74,1.14,1.14,0,0,1-.17.73c-.11.13-.28.14-.5,0l-.28-.14a4.15,4.15,0,0,0,.16-1.19,4.2,4.2,0,0,0-.31-1.69,1.83,1.83,0,0,0-.86-1,.74.74,0,0,0-.62-.06.8.8,0,0,0-.42.46,2.3,2.3,0,0,0-.15.91,4.19,4.19,0,0,0,.08.84,3.84,3.84,0,0,0,.26.81l-.27-.13Zm.79-2.77a.25.25,0,0,1,.35-.09.76.76,0,0,1,.35.43,2.11,2.11,0,0,1,.13.79,3.72,3.72,0,0,1,0,.55,2.45,2.45,0,0,1-.11.46l-.56-.27a2.9,2.9,0,0,1-.19-.61,3.31,3.31,0,0,1-.06-.65,1.14,1.14,0,0,1,.13-.62m3.07,9.76-2.63-2.73h2.63V533.6l-3.9.11-.15-.15a1.78,1.78,0,0,1-.53-1.28,3,3,0,0,1,0-.46l-.87-.42c0,.07,0,.15,0,.26s0,.22,0,.34a4,4,0,0,0,.13,1,3.39,3.39,0,0,0,.41.92,6,6,0,0,0,.75.95l4.17,4.4Zm1.33,6.8-5.19-2.52v5.22l.95.46V544l4.24,2.06Zm-1.33,6.06-3.86-1.87v1.35l3.86,1.87Zm1,.41a.35.35,0,0,0-.41,0,.57.57,0,0,0-.17.46,1.27,1.27,0,0,0,.17.63,1,1,0,0,0,.41.42.35.35,0,0,0,.41,0,.58.58,0,0,0,.17-.47,1.3,1.3,0,0,0-.17-.62,1,1,0,0,0-.41-.43m-1.36,3.65.32.15v-1.35l-3.86-1.87V553l2.67,1.3a2.15,2.15,0,0,1,.29.58,2.18,2.18,0,0,1,.1.66.85.85,0,0,1-.22.67.53.53,0,0,1-.6,0l-2.24-1.09v1.35l2.39,1.16a1.16,1.16,0,0,0,.8.13.85.85,0,0,0,.54-.45,2,2,0,0,0,.2-1,3.56,3.56,0,0,0-.39-1.63m-1.69,9.09A1.62,1.62,0,0,0,254,564a1.15,1.15,0,0,0,.74-.54,2.22,2.22,0,0,0,.27-1.18,4.27,4.27,0,0,0-.27-1.47,4.62,4.62,0,0,0-.72-1.3,3,3,0,0,0-1-.84,1.35,1.35,0,0,0-1-.13,1.25,1.25,0,0,0-.72.64,2.67,2.67,0,0,0-.27,1.27,5.16,5.16,0,0,0,.13,1.19,6.08,6.08,0,0,0,.42,1.18l.61-.59a2.71,2.71,0,0,1-.23-.61,2.84,2.84,0,0,1-.08-.68,1.57,1.57,0,0,1,.1-.6.74.74,0,0,1,.29-.36.66.66,0,0,1,.41-.09v3.81Zm.46-3.61a2.08,2.08,0,0,1,.41.45,2.12,2.12,0,0,1,.27.56,2,2,0,0,1,.1.62,1.15,1.15,0,0,1-.1.51.68.68,0,0,1-.27.3.58.58,0,0,1-.4.06Zm2.1,8.55-.61.58a4.71,4.71,0,0,1,.47,1,3.21,3.21,0,0,1,.13.95,1.46,1.46,0,0,1-.1.57.55.55,0,0,1-.26.3.42.42,0,0,1-.37,0,1.1,1.1,0,0,1-.5-.51,1.78,1.78,0,0,1-.18-.82v-.75l-.8-.39v.87a1.33,1.33,0,0,1-.09.52.48.48,0,0,1-.23.26.42.42,0,0,1-.36,0,1,1,0,0,1-.39-.36,2,2,0,0,1-.26-.61,3.05,3.05,0,0,1-.09-.77,2.68,2.68,0,0,1,.12-.9,1.26,1.26,0,0,1,.44-.57l-.61-1.16a1.76,1.76,0,0,0-.6.86,4.07,4.07,0,0,0-.21,1.39,5.43,5.43,0,0,0,.2,1.47,4.17,4.17,0,0,0,.55,1.21,2,2,0,0,0,.79.73.65.65,0,0,0,.75,0,1.43,1.43,0,0,0,.41-.9,3.48,3.48,0,0,0,.45,1.17,1.84,1.84,0,0,0,.74.72.86.86,0,0,0,.76.05,1.08,1.08,0,0,0,.52-.62,3.14,3.14,0,0,0,.19-1.18,5.56,5.56,0,0,0-.23-1.54,6.15,6.15,0,0,0-.63-1.47"/><path class="cls-3" d="M230,518.55v-5.07l-3.67,1.78v-1.21l5.86-2.84a28.28,28.28,0,0,0,.29-4.33l-5,2.44v-1.24l6.13-3a36.12,36.12,0,0,1-.33,5.58l1.53-.74v1.21L231.1,513V518Z"/><path class="cls-3" d="M232,527.46a55.26,55.26,0,0,1-5.75,3.23l-.12-1.21c.38-.17.82-.38,1.27-.62l-.28-4.42,1.08-.68.2,4.59,1.09-.58.23-4.75,1.06-.38-.31,4.59c.56-.33,1.07-.64,1.45-.9Zm-5.59-3.59v-1.2l5.09-2.47v1.2Zm7.18-.11v6.36l-1.11.54v-12l1.11-.54v4.39l1.44-.7v1.24Z"/><path class="cls-3" d="M226.57,541.19v-5.55l1.1-.53v1.68l2.19-1.06V534l1.1-.53v5.56Zm3.29-4.28L227.66,538v1.49l2.19-1.06Zm-2,10.22V543.8l4.67-2.27v-1l-4.71,2.28v-1.21l5.83-2.83v3.33l-4.68,2.27v1l4.91-2.38v1.21Zm5.79-11.49v2.52l-1.12.54v-6.37l1.12-.54v2.61l1.41-.68V535Z"/><path class="cls-3" d="M233,553.48v-1.65l-2.27,1.1a4.29,4.29,0,0,1-1.86,1.92c-1.35.65-2.39-.05-2.39-1.81a4.8,4.8,0,0,1,2.39-4.16,1.57,1.57,0,0,1,1.76.07l2.37-1.15v-1.51l1.1-.53v7.2Zm-4.13.15a2.72,2.72,0,0,0,1.33-2.41c0-1-.52-1.49-1.33-1.1a2.7,2.7,0,0,0-1.3,2.38c0,1,.53,1.5,1.3,1.13m4.13,5.19v-3.48l-5,2.42v-1.21l6.08-2.95v4.69Zm-1.78-7.37,1.78-.86V549l-1.81.88a3.8,3.8,0,0,1,.09.78,4.63,4.63,0,0,1-.06.75"/><path class="cls-3" d="M230.6,475.63a2.84,2.84,0,0,1-1.43.33,1.62,1.62,0,0,1-1.09-.48l.95-1.63a1.2,1.2,0,0,0,.69.37,1.71,1.71,0,0,0,.86-.22,2.29,2.29,0,0,0,.61-.42,1.88,1.88,0,0,0,.4-.56,1.47,1.47,0,0,0,.14-.62.72.72,0,0,0-.1-.42.4.4,0,0,0-.29-.16.84.84,0,0,0-.44.11l-.82.4v-1.54l.67-.33a1.43,1.43,0,0,0,.61-.55,1.5,1.5,0,0,0,.22-.81.77.77,0,0,0-.13-.48.5.5,0,0,0-.35-.2,1,1,0,0,0-.52.12,2.46,2.46,0,0,0-.79.59,5.58,5.58,0,0,0-.7,1.1l-1-.69a7,7,0,0,1,1.12-1.63,4.71,4.71,0,0,1,1.38-1.06,2.33,2.33,0,0,1,1.23-.29,1.13,1.13,0,0,1,.83.46,1.88,1.88,0,0,1,.3,1.14,3.11,3.11,0,0,1-.34,1.38,3.65,3.65,0,0,1-.88,1.15,1.1,1.1,0,0,1,1,.16,1.25,1.25,0,0,1,.37,1,3.53,3.53,0,0,1-.33,1.46,4.79,4.79,0,0,1-.9,1.34,4.51,4.51,0,0,1-1.32,1"/><path class="cls-3" d="M224.26,487.34v-1.53l2.57-1.25v-.36l-2.57,1.25v-.59l1.3-.63v-.36l-1.88.91v-.61l4.32-2.1v.61l-1.88.91V484l1.27-.61v1.51l-2.57,1.25v.38l2.73-1.32v.59Zm2-5.87c.19.3.82.25,1.5,0l-.23.7c-.71.26-1.39.28-1.65-.06a4.11,4.11,0,0,1-1.66,1.67l-.23-.48a3.34,3.34,0,0,0,1.51-1.42l-1.28.62v-.59l3.3-1.6v.59Zm-1.15-.33v-.59l1.52-.74v.59Z"/><path class="cls-3" d="M229.8,478.51c.72-.35,1.25,0,1.25.9a2.39,2.39,0,0,1-1.25,2.09c-.72.35-1.25,0-1.25-.88a2.44,2.44,0,0,1,1.25-2.11m0,2.36a1.37,1.37,0,0,0,.69-1.19c0-.53-.29-.72-.69-.53a1.35,1.35,0,0,0-.69,1.2c0,.51.3.72.69.53m-.44,4V482.2l.57-.28v.69l1.88-.91V481l.57-.28v2.62Zm2.45-2.5-1.88.91v.69l1.88-.91Zm0-5.07.56-.27v3.41l-.56.27Z"/><path class="cls-3" d="M235.09,482v-2.59l-1.88.91v-.62l3-1.45a14.5,14.5,0,0,0,.15-2.21l-2.57,1.25v-.63l3.13-1.52a18.73,18.73,0,0,1-.17,2.86l.78-.38v.62l-1.88.91v2.59Z"/><path class="cls-1" d="M253.7,599.16c-4.11-2-7.44-8-7.44-13.53s3.33-8.3,7.44-6.31,7.44,8,7.44,13.53-3.33,8.3-7.44,6.31m1.31-5.32a1.24,1.24,0,0,0,.91-.46,1.8,1.8,0,0,0,.33-1.15,2.82,2.82,0,0,0-.38-1.38,3.54,3.54,0,0,0-1-1.14,1,1,0,0,0,.88-.31,1.49,1.49,0,0,0,.34-1.06,3.58,3.58,0,0,0-.3-1.43,4.4,4.4,0,0,0-.83-1.27,4.14,4.14,0,0,0-1.23-.91,2.51,2.51,0,0,0-1.39-.28,1.79,1.79,0,0,0-1.12.55l1,1.63a1.41,1.41,0,0,1,.7-.42,1.35,1.35,0,0,1,.79.17,1.73,1.73,0,0,1,.52.38,2,2,0,0,1,.36.55,1.5,1.5,0,0,1,.13.61.67.67,0,0,1-.22.6.62.62,0,0,1-.61,0l-.68-.33v1.55l.82.4a1.51,1.51,0,0,1,.44.33,1.54,1.54,0,0,1,.29.45,1.33,1.33,0,0,1,.11.53.74.74,0,0,1-.14.49.5.5,0,0,1-.4.17,1.41,1.41,0,0,1-.61-.17,2.89,2.89,0,0,1-.86-.61,4.73,4.73,0,0,1-.69-1l-1,.71a6.24,6.24,0,0,0,1.09,1.54,5,5,0,0,0,1.43,1.06,2.57,2.57,0,0,0,1.33.31"/><path class="cls-1" d="M230.61,599.16c-4.11,2-7.44-.83-7.44-6.31s3.33-11.53,7.44-13.53,7.44.83,7.44,6.31-3.33,11.53-7.44,13.53m1.31-6.59a4.83,4.83,0,0,0,.91-1.34,3.56,3.56,0,0,0,.33-1.47,1.25,1.25,0,0,0-.38-1,1.1,1.1,0,0,0-1-.16,3.64,3.64,0,0,0,.88-1.16A3.11,3.11,0,0,0,233,586a1.88,1.88,0,0,0-.3-1.14,1.13,1.13,0,0,0-.83-.46,2.33,2.33,0,0,0-1.24.29,4.71,4.71,0,0,0-1.39,1.07,7,7,0,0,0-1.12,1.64l1,.69a5.64,5.64,0,0,1,.7-1.1,2.5,2.5,0,0,1,.79-.6,1,1,0,0,1,.52-.12.5.5,0,0,1,.36.2.77.77,0,0,1,.13.48,1.52,1.52,0,0,1-.22.81,1.45,1.45,0,0,1-.61.55l-.68.33v1.55l.82-.4a.85.85,0,0,1,.44-.11.39.39,0,0,1,.29.16.72.72,0,0,1,.11.43,1.48,1.48,0,0,1-.14.62,1.9,1.9,0,0,1-.4.56,2.3,2.3,0,0,1-.61.42,1.71,1.71,0,0,1-.86.22,1.21,1.21,0,0,1-.69-.37l-1,1.63a1.63,1.63,0,0,0,1.09.48,2.86,2.86,0,0,0,1.43-.33,4.56,4.56,0,0,0,1.33-1"/><rect class="cls-4" width="952" height="629"/><rect class="cls-4" width="952" height="629"/></svg>