<svg id="Layer_1" data-name="Layer 1" xmlns="http://www.w3.org/2000/svg" viewBox="0 0 952 629"><defs><style>.cls-1{fill:#1d1d1b;}.cls-2{fill:none;}</style></defs><title>architecture1-bg1</title><path class="cls-1" d="M280.7,388.12a14.34,14.34,0,0,0-26-5.76,7.18,7.18,0,0,0-1-.56,7.17,7.17,0,0,0-10.59-5.1,14.57,14.57,0,0,0-9-4,12.85,12.85,0,0,0-18.9-13.61,18.68,18.68,0,0,0-19.66-8.31A28,28,0,0,0,186.38,338a27.76,27.76,0,0,0-33.7-.11,28,28,0,0,0-9.35,12.73,18.67,18.67,0,0,0-20.49,24,1.8,1.8,0,1,0,3.43-1.07,15.08,15.08,0,0,1,17.86-19.15l1.66.39.48-1.64a24.34,24.34,0,0,1,8.58-12.43,23.93,23.93,0,0,1,14.6-4.91,24.23,24.23,0,0,1,23.27,17.65l.5,1.79,1.77-.56a15.08,15.08,0,0,1,18.08,7.78l1,2,1.76-1.4a9.16,9.16,0,0,1,5.77-2,9.24,9.24,0,0,1,8.88,11.84,14.65,14.65,0,0,0-12,13.75l-.59,0a9.08,9.08,0,0,0-8.57,12.08,1.8,1.8,0,1,0,3.39-1.19,5.48,5.48,0,0,1,7-7l2.76,1-.36-2.91a11.35,11.35,0,0,1-.08-1.37,11,11,0,0,1,19.5-7.06l1.24,1.49,1.39-1.35a3.57,3.57,0,0,1,6.05,2.56s0,0,0,.06l0,1.42,1.37.38a3.68,3.68,0,0,1,2.07,1.48l1.57,2.08,1.55-2.35a10.74,10.74,0,0,1,20.47,3.52l.1,1.18,1.13.37a5.2,5.2,0,0,1,3.32,6.51,1.8,1.8,0,0,0,3.43,1.09,8.81,8.81,0,0,0-4.54-10.58"/><rect class="cls-2" width="952" height="629"/><rect class="cls-2" width="952" height="629"/></svg>