<svg xmlns="http://www.w3.org/2000/svg" xmlns:xlink="http://www.w3.org/1999/xlink" viewBox="0 0 760 467"><defs><style>.cls-1{fill:none;}.cls-2{isolation:isolate;}.cls-3{mix-blend-mode:multiply;}.cls-4{clip-path:url(#clip-path);}.cls-5{fill:#abceb0;}.cls-6{fill:#fff;}</style><clipPath id="clip-path" transform="translate(1215 -400)"><rect class="cls-1" x="-947.57" y="695.5" width="221.16" height="16.77"/></clipPath></defs><title>architecture2-rig5</title><g class="cls-2"><g id="BG_FOOTER_CONTENTS_Image" data-name="BG + FOOTER + CONTENTS Image"><g class="cls-3"><g class="cls-4"><polygon class="cls-5" points="267.43 295.5 420.15 295.5 430.66 295.5 488.6 295.5 488.6 312.27 389.61 312.27 339.4 312.27 267.43 312.27 267.43 295.5"/></g></g><path class="cls-6" d="M-935.15,699.82v3.88H-936v-1.54h-1.34a1.75,1.75,0,0,1-1.85,1.37,1.74,1.74,0,0,1-1.89-1.7,1.74,1.74,0,0,1,1.89-1.69,1.76,1.76,0,0,1,1.85,1.35H-936v-1.67Zm-2.92,2a1,1,0,0,0-1.09-1,1,1,0,0,0-1.1,1,1,1,0,0,0,1.1,1A1,1,0,0,0-938.07,701.84Zm2.1,2.22h.82V707h-4.71v-2.93h.82v.82H-936Zm0,1.46H-939v.8H-936Z" transform="translate(1215 -400)"/><path class="cls-6" d="M-927.32,704.63h-2.9v2.44H-931v-2.44h-2.85V704h6.57Zm-.82-1.56h-5v-2.87h5Zm-.82-2.21h-3.31v1.54H-929Z" transform="translate(1215 -400)"/><path class="cls-6" d="M-923.83,701.61a3.51,3.51,0,0,0,1.88,3.18l-.48.66a3.62,3.62,0,0,1-1.8-2.18,3.77,3.77,0,0,1-1.85,2.34l-.49-.69a3.65,3.65,0,0,0,1.91-3.31v-1.19h.83Zm3.29-1.8v7.27h-.83v-7.27Z" transform="translate(1215 -400)"/><path class="cls-6" d="M-915.36,703.42a2.76,2.76,0,0,1-1.67-1.48,2.92,2.92,0,0,1-1.77,1.64l-.43-.65a2.39,2.39,0,0,0,1.77-2.27V700h.83v.61a2.28,2.28,0,0,0,1.71,2.12Zm2.41,2.91V707h-5V705.1H-914v-.58h-3.9v-.64h4.72v1.83h-3.88v.62Zm-1.08-4.64h-1.47V701H-914v-1.21h.83v3.72H-914Z" transform="translate(1215 -400)"/><path class="cls-6" d="M-906.7,700.54a5.46,5.46,0,0,1-3.24,5.39l-.45-.64A5,5,0,0,0-908,703l-2.26.21-.12-.71,2.64-.16a5.72,5.72,0,0,0,.19-1.14H-910v-.67Zm2.34-.72v7.26h-.83v-3.72h-1.52v-.68h1.52v-2.85Z" transform="translate(1215 -400)"/><path class="cls-6" d="M-896.5,704.61h-1.59v2.5h-.82v-2.5h-1.73v2.5h-.83v-2.5h-1.6v-.67h6.57Zm-.82-1.56h-5v-2.87h5Zm-.82-2.21h-3.31v1.55h3.31Z" transform="translate(1215 -400)"/><path class="cls-6" d="M-894.33,704.53a16.87,16.87,0,0,0,3.25-.33l.09.69a17.31,17.31,0,0,1-3.54.34h-.62v-4.71h.82Zm4.74-4.71v7.25h-.83v-7.25Z" transform="translate(1215 -400)"/><path class="cls-6" d="M-887,704.7a19.57,19.57,0,0,0,3.16-.22l.08.67a20.36,20.36,0,0,1-3.47.22h-.6v-4.93h3.58v.68H-887v1.35h2.47v.67H-887Zm4.73-4.89v7.26h-.83v-7.26Z" transform="translate(1215 -400)"/><path class="cls-6" d="M-877.31,700h.64l-2.23,7.85h-.64Z" transform="translate(1215 -400)"/><path class="cls-6" d="M-870.77,703.86v.83h2.07v2.39h-.83v-1.73h-4.2v-.67h2.13v-.83h-2.86v-.67h6.56v.67Zm2.21-1.16a3.64,3.64,0,0,1-2.62-1.49,3.61,3.61,0,0,1-2.62,1.49l-.3-.64c1.43-.18,2.5-1,2.5-1.87v-.27h.85v.27c0,.85,1.07,1.69,2.5,1.87Z" transform="translate(1215 -400)"/><path class="cls-6" d="M-863.33,703.75h-3.42v-3.47h.83v1.06h1.77v-1.06h.82Zm-2.78.79h4.77v2.53h-.83V705.2h-3.94Zm2-2.57h-1.77v1.12h1.77Zm3.84.36h-1v1.85h-.83v-4.37h.83v1.84h1Z" transform="translate(1215 -400)"/><path class="cls-6" d="M-857.06,701.61a3.51,3.51,0,0,0,1.88,3.18l-.48.66a3.62,3.62,0,0,1-1.8-2.18,3.77,3.77,0,0,1-1.85,2.34l-.49-.69a3.65,3.65,0,0,0,1.91-3.31v-1.19h.83Zm3.29-1.8v7.27h-.83v-7.27Z" transform="translate(1215 -400)"/><path class="cls-6" d="M-848.58,703.42a2.76,2.76,0,0,1-1.67-1.48,2.92,2.92,0,0,1-1.77,1.64l-.43-.65a2.39,2.39,0,0,0,1.77-2.27V700h.83v.61a2.28,2.28,0,0,0,1.71,2.12Zm2.41,2.91V707h-5V705.1h3.88v-.58h-3.9v-.64h4.72v1.83h-3.88v.62Zm-1.08-4.64h-1.47V701h1.47v-1.21h.83v3.72h-.83Z" transform="translate(1215 -400)"/><path class="cls-6" d="M-839.93,700.54a5.46,5.46,0,0,1-3.24,5.39l-.45-.64A5,5,0,0,0-841.2,703l-2.26.21-.12-.71,2.64-.16a5.72,5.72,0,0,0,.19-1.14h-2.46v-.67Zm2.34-.72v7.26h-.83v-3.72H-840v-.68h1.52v-2.85Z" transform="translate(1215 -400)"/><path class="cls-6" d="M-829.72,704.61h-1.59v2.5h-.82v-2.5h-1.73v2.5h-.83v-2.5h-1.6v-.67h6.57Zm-.82-1.56h-5v-2.87h5Zm-.82-2.21h-3.31v1.55h3.31Z" transform="translate(1215 -400)"/><path class="cls-6" d="M-827.56,704.53a16.87,16.87,0,0,0,3.25-.33l.09.69a17.31,17.31,0,0,1-3.54.34h-.62v-4.71h.82Zm4.74-4.71v7.25h-.83v-7.25Z" transform="translate(1215 -400)"/><path class="cls-6" d="M-820.24,704.7a19.57,19.57,0,0,0,3.16-.22l.08.67a20.36,20.36,0,0,1-3.47.22h-.6v-4.93h3.58v.68h-2.75v1.35h2.47v.67h-2.47Zm4.73-4.89v7.26h-.83v-7.26Z" transform="translate(1215 -400)"/><path class="cls-6" d="M-810.54,700h.64l-2.23,7.85h-.64Z" transform="translate(1215 -400)"/><path class="cls-6" d="M-803.89,703.79a2.85,2.85,0,0,1-1.66-1.52A3,3,0,0,1-807.3,704l-.44-.66a2.53,2.53,0,0,0,1.76-2.42v-.71h.83V701a2.32,2.32,0,0,0,1.69,2.17Zm2,1.92c0,.86-.92,1.36-2.42,1.36s-2.42-.51-2.42-1.36.92-1.36,2.42-1.36S-801.93,704.85-801.93,705.71Zm-.82,0c0-.45-.59-.71-1.6-.71s-1.6.26-1.6.71.59.71,1.6.71S-802.75,706.17-802.75,705.71Zm1.77-4.09v.68h-1v1.88h-.83v-4.36h.83v1.8Z" transform="translate(1215 -400)"/><path class="cls-6" d="M-794.26,699.82v3.88h-.83v-1.54h-1.34a1.75,1.75,0,0,1-1.85,1.37,1.74,1.74,0,0,1-1.89-1.7,1.74,1.74,0,0,1,1.89-1.69,1.76,1.76,0,0,1,1.85,1.35h1.34v-1.67Zm-2.92,2a1,1,0,0,0-1.09-1,1,1,0,0,0-1.1,1,1,1,0,0,0,1.1,1A1,1,0,0,0-797.18,701.84Zm2.1,2.22h.82V707H-799v-2.93h.82v.82h3.07Zm0,1.46h-3.07v.8h3.07Z" transform="translate(1215 -400)"/><path class="cls-6" d="M-790.28,701.61a3.51,3.51,0,0,0,1.88,3.18l-.48.66a3.62,3.62,0,0,1-1.8-2.18,3.77,3.77,0,0,1-1.85,2.34l-.49-.69a3.65,3.65,0,0,0,1.91-3.31v-1.19h.83Zm3.29-1.8v7.27h-.83v-7.27Z" transform="translate(1215 -400)"/><path class="cls-6" d="M-781.81,703.42a2.76,2.76,0,0,1-1.67-1.48,2.92,2.92,0,0,1-1.77,1.64l-.43-.65a2.39,2.39,0,0,0,1.77-2.27V700h.83v.61a2.28,2.28,0,0,0,1.71,2.12Zm2.41,2.91V707h-5V705.1h3.88v-.58h-3.9v-.64h4.72v1.83h-3.88v.62Zm-1.08-4.64h-1.47V701h1.47v-1.21h.83v3.72h-.83Z" transform="translate(1215 -400)"/><rect class="cls-1" width="760" height="467"/></g></g></svg>