<svg id="BG_FOOTER_CONTENTS_Image" data-name="BG + FOOTER + CONTENTS Image" xmlns="http://www.w3.org/2000/svg" viewBox="0 0 760 467"><defs><style>.cls-1,.cls-3{fill:none;}.cls-1{stroke:#1d1d1b;stroke-miterlimit:10;stroke-width:0.31px;}.cls-2{fill:#1d1d1b;}</style></defs><title>architecture2-fl5</title><line class="cls-1" x1="518.35" y1="337.33" x2="550.05" y2="337.33"/><path class="cls-2" d="M-696.18,728.94v-.59l2.41-2.56a3.4,3.4,0,0,0,.38-.46,1.48,1.48,0,0,0,.19-.39,1.34,1.34,0,0,0,.06-.39.82.82,0,0,0-.32-.66,1.25,1.25,0,0,0-.81-.26,1.82,1.82,0,0,0-.76.16,3.12,3.12,0,0,0-.79.56l-.46-.56a3.53,3.53,0,0,1,1-.66,2.61,2.61,0,0,1,1-.22,2.33,2.33,0,0,1,1,.2,1.62,1.62,0,0,1,.67.56,1.45,1.45,0,0,1,.24.83,1.86,1.86,0,0,1-.08.55,2,2,0,0,1-.26.53,5.08,5.08,0,0,1-.53.63l-1.94,2h2.92v.71Z" transform="translate(1215 -400)"/><path class="cls-2" d="M-690.9,728.94V723h4.4v.78H-690v1.83h2.31v.76H-690v2.58Z" transform="translate(1215 -400)"/><rect class="cls-3" width="760" height="467"/></svg>