<svg id="BG_FOOTER_CONTENTS_Image" data-name="BG + FOOTER + CONTENTS Image" xmlns="http://www.w3.org/2000/svg" xmlns:xlink="http://www.w3.org/1999/xlink" viewBox="0 0 761 467"><defs><style>.cls-1{fill:none;}.cls-2{fill:#231f20;}.cls-3{fill:#ffeec5;}.cls-4{clip-path:url(#clip-path);}</style><clipPath id="clip-path" transform="translate(-199 -400)"><rect class="cls-1" x="558.25" y="638" width="167.08" height="126.67"/></clipPath></defs><title>architecture2-lef3</title><polygon class="cls-2" points="401.94 238 359.26 259.32 359.25 302.46 483.65 364.67 526.33 343.28 526.33 300.19 402.77 238.41 401.94 238"/><polygon class="cls-3" points="362.93 300.19 362.93 263.46 481.81 322.87 481.81 359.63 362.93 300.19"/><polygon class="cls-3" points="483.64 319.68 365.19 260.47 401.95 242.11 520.38 301.33 483.64 319.68"/><polygon class="cls-3" points="522.65 341.01 485.49 359.63 485.48 322.87 522.65 304.3 522.65 341.01"/><g class="cls-4"><path class="cls-2" d="M588.59,694.61a6.72,6.72,0,0,0,.9-3.84,13.51,13.51,0,0,0-.82-4.54,13.3,13.3,0,0,0-2.21-3.91,10,10,0,0,0-3.22-2.64l-8.76-4.44.26,25.64,3.71,1.88-.1-9.82,4,2.05,3.61,11.6,4.15,2.1-4.08-12.6a3.17,3.17,0,0,0,2.51-1.5" transform="translate(-199 -400)"/><path class="cls-3" d="M585,691.06a1.81,1.81,0,0,1-2-.07l-4.71-2.39-.07-6.89L583,684.1a4.82,4.82,0,0,1,2,2,5.83,5.83,0,0,1,.78,2.87,2.49,2.49,0,0,1-.73,2.11" transform="translate(-199 -400)"/><polygon class="cls-2" points="398.08 307.63 398.02 301.55 404.65 304.91 404.61 300.44 397.98 297.08 397.92 291.21 407.98 296.31 407.93 291.7 394.16 284.71 394.41 310.36 408.3 317.4 408.25 312.78 398.08 307.63"/><polygon class="cls-2" points="426.63 305.84 426.58 301.15 410.8 293.15 410.85 297.84 416.9 300.91 417.11 321.86 420.82 323.75 420.61 302.79 426.63 305.84"/><polygon class="cls-2" points="432.29 304.05 425.17 325.95 429.04 327.91 430.82 322.11 438.22 325.86 440.11 333.52 444.13 335.56 436.57 306.21 432.29 304.05"/><polygon class="cls-3" points="431.93 318.44 434.39 310.29 437.05 321.04 431.93 318.44"/><polygon class="cls-2" points="446.66 311.33 446.92 336.97 450.63 338.86 450.37 313.21 446.66 311.33"/><polygon class="cls-2" points="458.83 338.35 458.62 317.39 454.91 315.51 455.16 341.15 468.69 348.01 468.64 343.32 458.83 338.35"/></g><rect class="cls-1" width="761" height="467"/></svg>