<svg id="CONTENTS" xmlns="http://www.w3.org/2000/svg" viewBox="0 0 13.15 6.5"><defs><style>.cls-1{fill:#010101;}</style></defs><title>community2-name9</title><g id="_02" data-name="02"><g id="아이콘"><g id="아이콘_카피1" data-name="아이콘 카피1"><g id="O9"><path class="cls-1" d="M499.5,466a3.4,3.4,0,0,1-1.31-.25,3.26,3.26,0,0,1-1.77-1.73,3.29,3.29,0,0,1,0-2.55,3.26,3.26,0,0,1,1.77-1.73,3.57,3.57,0,0,1,2.61,0,3.25,3.25,0,0,1,1.06.69,3.24,3.24,0,0,1,0,4.62,3.25,3.25,0,0,1-1.06.69A3.43,3.43,0,0,1,499.5,466Zm0-1.2a2,2,0,0,0,.79-.16,2,2,0,0,0,1.05-1.08,2.23,2.23,0,0,0,0-1.62,2,2,0,0,0-1.05-1.08,2,2,0,0,0-.79-.16,1.93,1.93,0,0,0-.78.16,2,2,0,0,0-1.05,1.08,2.1,2.1,0,0,0-.15.81,2.16,2.16,0,0,0,.15.82,2,2,0,0,0,1.05,1.08A1.93,1.93,0,0,0,499.5,464.77Z" transform="translate(-496.17 -459.46)"/><path class="cls-1" d="M506.63,459.46a2.54,2.54,0,0,1,1.41.39,2.61,2.61,0,0,1,.95,1.09,3.73,3.73,0,0,1,.34,1.63,4,4,0,0,1-.37,1.77,2.83,2.83,0,0,1-1,1.19,2.9,2.9,0,0,1-1.58.42,3,3,0,0,1-1-.17,2.42,2.42,0,0,1-.81-.45l.67-.85a1.8,1.8,0,0,0,.56.31,2.08,2.08,0,0,0,.65.1,1.57,1.57,0,0,0,.94-.27,1.71,1.71,0,0,0,.58-.8,3.67,3.67,0,0,0,.21-1.26,2.28,2.28,0,0,1-.75.67,1.92,1.92,0,0,1-.93.24,2.36,2.36,0,0,1-1.09-.24,1.82,1.82,0,0,1-1-1.67,2,2,0,0,1,.29-1.07,2.09,2.09,0,0,1,.81-.74A2.45,2.45,0,0,1,506.63,459.46Zm0,3.09a1.78,1.78,0,0,0,.78-.18,2.09,2.09,0,0,0,.64-.48,2.18,2.18,0,0,0-.28-.75,1.49,1.49,0,0,0-.48-.49,1.19,1.19,0,0,0-.64-.18,1.3,1.3,0,0,0-.6.14,1,1,0,0,0-.42.37,1,1,0,0,0-.15.54,1,1,0,0,0,.15.53,1,1,0,0,0,.41.36A1.31,1.31,0,0,0,506.66,462.55Z" transform="translate(-496.17 -459.46)"/></g></g></g></g></svg>