<svg id="Layer_1" data-name="Layer 1" xmlns="http://www.w3.org/2000/svg" xmlns:xlink="http://www.w3.org/1999/xlink" viewBox="0 0 60.07 7.73"><defs><style>.cls-1{fill:none;}.cls-2{clip-path:url(#clip-path);}.cls-3{fill:#010101;}</style><clipPath id="clip-path" transform="translate(-0.18 -2.7)"><rect class="cls-1" width="61.71" height="12.24"/></clipPath></defs><title>community2-txt21</title><g class="cls-2"><path class="cls-3" d="M2.47,9.7V4.22H.18V2.7h6.3V4.22H4.19V9.7Z" transform="translate(-0.18 -2.7)"/><path class="cls-3" d="M9.35,9.8a3,3,0,0,1-1.47-.36,2.77,2.77,0,0,1-1-1,2.61,2.61,0,0,1-.38-1.39,2.68,2.68,0,0,1,.37-1.39,2.71,2.71,0,0,1,1-1,2.74,2.74,0,0,1,1.4-.36,2.55,2.55,0,0,1,1.38.38,2.65,2.65,0,0,1,.95,1,3.13,3.13,0,0,1,.34,1.49v.4H8.13A1.47,1.47,0,0,0,8.42,8a1.27,1.27,0,0,0,.45.29,1.48,1.48,0,0,0,.56.11,1.63,1.63,0,0,0,.6-.11A1.3,1.3,0,0,0,10.49,8l1.07,1a3.41,3.41,0,0,1-1,.61A3.48,3.48,0,0,1,9.35,9.8ZM8.1,6.48h2.21A1.19,1.19,0,0,0,10.06,6a1.22,1.22,0,0,0-.38-.29,1.1,1.1,0,0,0-.48-.1,1.17,1.17,0,0,0-.49.1A1.05,1.05,0,0,0,8.33,6,1.25,1.25,0,0,0,8.1,6.48Z" transform="translate(-0.18 -2.7)"/><path class="cls-3" d="M13.16,9.7V4.41h1.62v.53a1.74,1.74,0,0,1,.61-.49,1.81,1.81,0,0,1,.78-.17,1.2,1.2,0,0,1,.61.13V5.83a1.45,1.45,0,0,0-.36-.12,2.1,2.1,0,0,0-.41,0,1.46,1.46,0,0,0-.71.17,1.39,1.39,0,0,0-.52.49V9.7Z" transform="translate(-0.18 -2.7)"/><path class="cls-3" d="M18,9.7V4.41H19.6v.53a1.74,1.74,0,0,1,.61-.49A1.81,1.81,0,0,1,21,4.29a1.2,1.2,0,0,1,.61.13V5.83a1.45,1.45,0,0,0-.36-.12,2.1,2.1,0,0,0-.41,0,1.46,1.46,0,0,0-.71.17,1.39,1.39,0,0,0-.52.49V9.7Z" transform="translate(-0.18 -2.7)"/><path class="cls-3" d="M24.39,9.79a2.27,2.27,0,0,1-1-.21A1.65,1.65,0,0,1,22.72,9a1.5,1.5,0,0,1-.25-.85A1.36,1.36,0,0,1,23,7a2.7,2.7,0,0,1,1.6-.42,4.79,4.79,0,0,1,1.2.15V6.45a.7.7,0,0,0-.25-.6,1.23,1.23,0,0,0-.75-.19,2.81,2.81,0,0,0-.7.1,6.79,6.79,0,0,0-.9.32l-.58-1.19a7.21,7.21,0,0,1,1.25-.44,5.2,5.2,0,0,1,1.22-.15,2.54,2.54,0,0,1,1.71.52,1.84,1.84,0,0,1,.61,1.48V9.7h-1.6V9.38a2.17,2.17,0,0,1-.67.32A3,3,0,0,1,24.39,9.79ZM24,8.12a.44.44,0,0,0,.22.39,1.13,1.13,0,0,0,.61.14,2.37,2.37,0,0,0,.54-.06,1.55,1.55,0,0,0,.46-.19V7.72a3.93,3.93,0,0,0-.47-.09l-.49,0a1.3,1.3,0,0,0-.65.13A.42.42,0,0,0,24,8.12Z" transform="translate(-0.18 -2.7)"/><path class="cls-3" d="M31.37,9.8a2.84,2.84,0,0,1-1.42-.36,2.69,2.69,0,0,1-1.37-2.38,2.68,2.68,0,0,1,.37-1.4,2.74,2.74,0,0,1,1-1,2.81,2.81,0,0,1,1.42-.37,3.08,3.08,0,0,1,1.24.26,2.75,2.75,0,0,1,1,.72l-1,1a1.9,1.9,0,0,0-.57-.47,1.42,1.42,0,0,0-.64-.15,1.17,1.17,0,0,0-.63.18,1.24,1.24,0,0,0-.44.48,1.47,1.47,0,0,0-.16.7,1.4,1.4,0,0,0,.17.68,1.23,1.23,0,0,0,1.1.66,1.35,1.35,0,0,0,.61-.14,1.85,1.85,0,0,0,.54-.43l1,1a2.75,2.75,0,0,1-1,.71A3,3,0,0,1,31.37,9.8Z" transform="translate(-0.18 -2.7)"/><path class="cls-3" d="M37.19,9.8a3,3,0,0,1-1.46-.36,2.78,2.78,0,0,1-1-1,2.61,2.61,0,0,1-.38-1.39,2.69,2.69,0,0,1,1.36-2.38,2.74,2.74,0,0,1,1.4-.36,2.55,2.55,0,0,1,1.38.38,2.65,2.65,0,0,1,.94,1,3.13,3.13,0,0,1,.35,1.49v.4H36a1.47,1.47,0,0,0,.29.44,1.26,1.26,0,0,0,.45.29,1.47,1.47,0,0,0,.56.11,1.64,1.64,0,0,0,.6-.11A1.31,1.31,0,0,0,38.33,8L39.4,9a3.4,3.4,0,0,1-1,.61A3.49,3.49,0,0,1,37.19,9.8ZM35.94,6.48h2.21A1.18,1.18,0,0,0,37.91,6a1.23,1.23,0,0,0-.39-.29,1.1,1.1,0,0,0-.48-.1,1.17,1.17,0,0,0-.49.1,1.05,1.05,0,0,0-.37.29A1.26,1.26,0,0,0,35.94,6.48Z" transform="translate(-0.18 -2.7)"/></g><path class="cls-3" d="M43.78,4.34A4,4,0,0,0,43,6.79a4,4,0,0,0,.76,2.43h-.41a3.88,3.88,0,0,1-.79-2.43,4,4,0,0,1,.79-2.45Z" transform="translate(-0.18 -2.7)"/><path class="cls-3" d="M45.45,8.46a1.85,1.85,0,0,0,.94.26c.53,0,.85-.28.85-.69s-.22-.59-.76-.8S45.4,6.66,45.4,6.09A1.16,1.16,0,0,1,46.71,5a1.83,1.83,0,0,1,.89.2l-.14.43a1.6,1.6,0,0,0-.77-.19c-.55,0-.76.33-.76.61s.25.56.8.78,1,.59,1,1.19-.46,1.16-1.42,1.16a2.08,2.08,0,0,1-1-.26Z" transform="translate(-0.18 -2.7)"/><path class="cls-3" d="M49.3,5.36V6.2h.76v.4H49.3V8.16c0,.36.1.56.4.56a1.15,1.15,0,0,0,.31,0l0,.4a1.29,1.29,0,0,1-.47.07A.73.73,0,0,1,49,8.94a1.07,1.07,0,0,1-.2-.76V6.6h-.45V6.2h.45V5.5Z" transform="translate(-0.18 -2.7)"/><path class="cls-3" d="M52.55,9.1l0-.37h0a1.08,1.08,0,0,1-.89.43.83.83,0,0,1-.89-.83c0-.7.62-1.08,1.75-1.08V7.19a.6.6,0,0,0-.66-.67,1.43,1.43,0,0,0-.75.22l-.12-.35a1.81,1.81,0,0,1,1-.26c.89,0,1.1.61,1.1,1.19V8.4a4.07,4.07,0,0,0,0,.7Zm-.08-1.48c-.58,0-1.23.09-1.23.65a.47.47,0,0,0,.5.5.72.72,0,0,0,.7-.49.54.54,0,0,0,0-.17Z" transform="translate(-0.18 -2.7)"/><path class="cls-3" d="M56.1,6.2l.64,1.71c.07.19.14.42.19.59h0c.05-.17.11-.4.19-.61l.58-1.7h.56l-.79,2.07a4.41,4.41,0,0,1-1,1.82,1.43,1.43,0,0,1-.65.34L55.69,10a1.4,1.4,0,0,0,.46-.26,1.61,1.61,0,0,0,.44-.59.37.37,0,0,0,0-.13.44.44,0,0,0,0-.14L55.53,6.2Z" transform="translate(-0.18 -2.7)"/><g class="cls-2"><path class="cls-3" d="M59.06,9.23a4.06,4.06,0,0,0,.76-2.45,4,4,0,0,0-.76-2.43h.41a3.82,3.82,0,0,1,.79,2.44,3.89,3.89,0,0,1-.79,2.45Z" transform="translate(-0.18 -2.7)"/></g></svg>