<svg id="Layer_1" data-name="Layer 1" xmlns="http://www.w3.org/2000/svg" xmlns:xlink="http://www.w3.org/1999/xlink" viewBox="0 0 62.26 62.17"><defs><style>.cls-1,.cls-3{fill:none;}.cls-2{clip-path:url(#clip-path);}.cls-3{stroke:#010101;stroke-miterlimit:10;stroke-width:6.23px;}</style><clipPath id="clip-path" transform="translate(0 0)"><rect class="cls-1" width="62.26" height="62.17"/></clipPath></defs><title>community2-icon20</title><g class="cls-2"><polyline class="cls-3" points="9.35 62.17 9.35 52.86 52.93 52.86 52.93 62.17"/><path class="cls-3" d="M46.69,52.86l-.13-24.81a6.29,6.29,0,1,1,12.58,0V52.86h-56V28a6.23,6.23,0,1,1,12.45,0v24.9" transform="translate(0 0)"/><line class="cls-3" x1="15.56" y1="37.29" x2="46.61" y2="37.29"/><path class="cls-3" d="M9.34,22.57h0A19.45,19.45,0,0,1,28.79,3.11h4.68A19.45,19.45,0,0,1,52.92,22.57v0" transform="translate(0 0)"/></g></svg>