<svg id="Layer_1" data-name="Layer 1" xmlns="http://www.w3.org/2000/svg" xmlns:xlink="http://www.w3.org/1999/xlink" viewBox="0 0 113.05 9.6"><defs><style>.cls-1{fill:none;}.cls-2{clip-path:url(#clip-path);}.cls-3{fill:#010101;}</style><clipPath id="clip-path" transform="translate(0 -0.94)"><rect class="cls-1" width="114.02" height="11.04"/></clipPath></defs><title>community2-txt15</title><g class="cls-2"><path class="cls-3" d="M2.83,8.5,0,1.5H1.86l2,5.21,2-5.21H7.67L4.8,8.5Z" transform="translate(0 -0.94)"/><path class="cls-3" d="M9.41,2.72a.89.89,0,0,1-.89-.89.89.89,0,1,1,1.78,0,.89.89,0,0,1-.89.89ZM8.6,8.5V3.21h1.62V8.5Z" transform="translate(0 -0.94)"/><path class="cls-3" d="M11.72,10.54V3.21h1.6V3.6a2.35,2.35,0,0,1,1.42-.46,2.62,2.62,0,0,1,1.37.36,2.74,2.74,0,0,1,1,1,2.67,2.67,0,0,1,.36,1.38,2.65,2.65,0,0,1-.37,1.38,2.71,2.71,0,0,1-1,1,2.74,2.74,0,0,1-1.4.36A2.78,2.78,0,0,1,14,8.48a2.71,2.71,0,0,1-.64-.26v2.32ZM14.46,7.2A1.43,1.43,0,0,0,15.17,7a1.35,1.35,0,0,0,.49-.48,1.36,1.36,0,0,0,0-1.37,1.33,1.33,0,0,0-.5-.48,1.43,1.43,0,0,0-.7-.17,1.76,1.76,0,0,0-.62.1,1.45,1.45,0,0,0-.5.31V6.79a1.55,1.55,0,0,0,.5.3A1.74,1.74,0,0,0,14.46,7.2Z" transform="translate(0 -0.94)"/><path class="cls-3" d="M24.24,8.6a4,4,0,0,1-1.48-.27,3.69,3.69,0,0,1-1.19-.77A3.5,3.5,0,0,1,20.48,5a3.52,3.52,0,0,1,.29-1.42,3.48,3.48,0,0,1,.8-1.15,3.75,3.75,0,0,1,1.2-.77,4,4,0,0,1,2.61-.1,4.11,4.11,0,0,1,1,.48,3.08,3.08,0,0,1,.79.72L26,3.9a2.49,2.49,0,0,0-.82-.7,2.15,2.15,0,0,0-1-.23,2,2,0,0,0-1.42.58,1.92,1.92,0,0,0-.42.64,2.13,2.13,0,0,0-.15.81,2,2,0,0,0,.58,1.43,1.92,1.92,0,0,0,.65.43A2.18,2.18,0,0,0,24.3,7a2.07,2.07,0,0,0,.95-.22A2.43,2.43,0,0,0,26,6.14l1.13,1.11a3.2,3.2,0,0,1-.79.71,3.94,3.94,0,0,1-1,.47A3.83,3.83,0,0,1,24.24,8.6Z" transform="translate(0 -0.94)"/><path class="cls-3" d="M30.79,8.6a2.93,2.93,0,0,1-1.46-.36,2.78,2.78,0,0,1-1-1,2.6,2.6,0,0,1-.38-1.39,2.63,2.63,0,0,1,.38-1.4,2.77,2.77,0,0,1,1-1,3.1,3.1,0,0,1,2.92,0,2.77,2.77,0,0,1,1,1,2.64,2.64,0,0,1,.38,1.4,2.61,2.61,0,0,1-.38,1.39,2.79,2.79,0,0,1-1,1A2.93,2.93,0,0,1,30.79,8.6Zm0-1.4A1.23,1.23,0,0,0,31.45,7a1.3,1.3,0,0,0,.46-.48,1.37,1.37,0,0,0,.17-.68,1.39,1.39,0,0,0-.17-.69,1.3,1.3,0,0,0-.46-.48,1.28,1.28,0,0,0-1.31,0,1.3,1.3,0,0,0-.47.48,1.39,1.39,0,0,0-.17.69,1.37,1.37,0,0,0,.17.68,1.29,1.29,0,0,0,.47.48A1.23,1.23,0,0,0,30.79,7.2Z" transform="translate(0 -0.94)"/><path class="cls-3" d="M34.72,8.5V3.21h1.62v.36a2.27,2.27,0,0,1,1.42-.46,2.18,2.18,0,0,1,1.09.27,1.94,1.94,0,0,1,.75.75,2.22,2.22,0,0,1,.27,1.11V8.5H38.25v-3a.9.9,0,0,0-1-1,1.27,1.27,0,0,0-.54.11,1.19,1.19,0,0,0-.4.31V8.5Z" transform="translate(0 -0.94)"/><path class="cls-3" d="M42,8.5V4.56H40.85V3.21H42V2.89a1.82,1.82,0,0,1,.56-1.44,2.32,2.32,0,0,1,1.6-.5l.45,0a2.15,2.15,0,0,1,.41.08V2.4l-.33-.05-.31,0a.91.91,0,0,0-.56.15.52.52,0,0,0-.19.44v.29H45V4.56H43.63V8.5Z" transform="translate(0 -0.94)"/><path class="cls-3" d="M48.64,8.6a3,3,0,0,1-1.47-.36,2.77,2.77,0,0,1-1-1,2.6,2.6,0,0,1-.38-1.39,2.68,2.68,0,0,1,.37-1.39,2.71,2.71,0,0,1,1-1,2.74,2.74,0,0,1,1.4-.36,2.55,2.55,0,0,1,1.38.38,2.65,2.65,0,0,1,.95,1A3.13,3.13,0,0,1,51.19,6v.4H47.42a1.47,1.47,0,0,0,.29.44,1.27,1.27,0,0,0,.45.29,1.48,1.48,0,0,0,.56.11,1.63,1.63,0,0,0,.6-.11,1.3,1.3,0,0,0,.46-.29l1.07,1a3.41,3.41,0,0,1-1,.61A3.48,3.48,0,0,1,48.64,8.6ZM47.39,5.28H49.6a1.19,1.19,0,0,0-.25-.44A1.22,1.22,0,0,0,49,4.54a1.1,1.1,0,0,0-.48-.1,1.17,1.17,0,0,0-.49.1,1.05,1.05,0,0,0-.37.29A1.25,1.25,0,0,0,47.39,5.28Z" transform="translate(0 -0.94)"/><path class="cls-3" d="M52.45,8.5V3.21h1.62v.53a1.74,1.74,0,0,1,.61-.49,1.81,1.81,0,0,1,.78-.17,1.2,1.2,0,0,1,.61.13V4.63a1.45,1.45,0,0,0-.36-.12,2.1,2.1,0,0,0-.41,0,1.46,1.46,0,0,0-.71.17,1.38,1.38,0,0,0-.52.5V8.5Z" transform="translate(0 -0.94)"/><path class="cls-3" d="M59.77,8.6a3,3,0,0,1-1.46-.36,2.78,2.78,0,0,1-1-1,2.61,2.61,0,0,1-.38-1.39,2.69,2.69,0,0,1,1.36-2.37,2.74,2.74,0,0,1,1.4-.36A2.55,2.55,0,0,1,61,3.5a2.65,2.65,0,0,1,.94,1A3.13,3.13,0,0,1,62.32,6v.4H58.55a1.47,1.47,0,0,0,.29.44,1.26,1.26,0,0,0,.45.29,1.47,1.47,0,0,0,.56.11,1.64,1.64,0,0,0,.6-.11,1.31,1.31,0,0,0,.46-.29L62,7.8a3.4,3.4,0,0,1-1,.61A3.49,3.49,0,0,1,59.77,8.6ZM58.52,5.28h2.21a1.18,1.18,0,0,0-.24-.44,1.23,1.23,0,0,0-.39-.29,1.1,1.1,0,0,0-.48-.1,1.17,1.17,0,0,0-.49.1,1.05,1.05,0,0,0-.37.29A1.25,1.25,0,0,0,58.52,5.28Z" transform="translate(0 -0.94)"/><path class="cls-3" d="M63.48,8.5V3.21H65.1v.36a2.27,2.27,0,0,1,1.42-.46,2.18,2.18,0,0,1,1.09.27,1.94,1.94,0,0,1,.75.75,2.23,2.23,0,0,1,.27,1.11V8.5H67v-3a.9.9,0,0,0-1-1,1.27,1.27,0,0,0-.54.11,1.19,1.19,0,0,0-.41.31V8.5Z" transform="translate(0 -0.94)"/><path class="cls-3" d="M72.55,8.6a2.84,2.84,0,0,1-1.42-.36,2.69,2.69,0,0,1-1.37-2.38,2.68,2.68,0,0,1,.37-1.4,2.75,2.75,0,0,1,1-1,2.81,2.81,0,0,1,1.42-.37,3.09,3.09,0,0,1,1.24.26,2.76,2.76,0,0,1,1,.72l-1,1a1.92,1.92,0,0,0-.57-.47,1.42,1.42,0,0,0-.64-.15,1.16,1.16,0,0,0-.63.18,1.22,1.22,0,0,0-.44.48,1.47,1.47,0,0,0-.16.69,1.41,1.41,0,0,0,.17.69,1.23,1.23,0,0,0,1.1.66,1.34,1.34,0,0,0,.61-.14,1.84,1.84,0,0,0,.54-.43l1,1a2.74,2.74,0,0,1-1,.71A3,3,0,0,1,72.55,8.6Z" transform="translate(0 -0.94)"/><path class="cls-3" d="M78.37,8.6a3,3,0,0,1-1.46-.36,2.78,2.78,0,0,1-1-1,2.61,2.61,0,0,1-.38-1.39,2.69,2.69,0,0,1,1.36-2.37,2.74,2.74,0,0,1,1.4-.36,2.55,2.55,0,0,1,1.38.38,2.65,2.65,0,0,1,.94,1A3.13,3.13,0,0,1,80.92,6v.4H77.15a1.47,1.47,0,0,0,.29.44,1.26,1.26,0,0,0,.45.29,1.47,1.47,0,0,0,.56.11,1.64,1.64,0,0,0,.6-.11,1.31,1.31,0,0,0,.46-.29l1.07,1a3.4,3.4,0,0,1-1,.61A3.49,3.49,0,0,1,78.37,8.6ZM77.12,5.28h2.21a1.18,1.18,0,0,0-.24-.44,1.23,1.23,0,0,0-.39-.29,1.1,1.1,0,0,0-.48-.1,1.17,1.17,0,0,0-.49.1,1.05,1.05,0,0,0-.37.29A1.25,1.25,0,0,0,77.12,5.28Z" transform="translate(0 -0.94)"/><path class="cls-3" d="M84.21,8.5v-7h3.58a2.79,2.79,0,0,1,1.28.29,2.16,2.16,0,0,1,.88.79,2.14,2.14,0,0,1,.31,1.15,2,2,0,0,1-.36,1.18A2.29,2.29,0,0,1,89,5.7l1.53,2.8H88.56L87.24,6H85.93V8.5Zm1.72-4h1.7a.93.93,0,0,0,.64-.22.73.73,0,0,0,.25-.57.73.73,0,0,0-.25-.57A.93.93,0,0,0,87.63,3h-1.7Z" transform="translate(0 -0.94)"/><path class="cls-3" d="M93.88,8.6a2.93,2.93,0,0,1-1.46-.36,2.79,2.79,0,0,1-1-1A2.61,2.61,0,0,1,91,5.86a2.64,2.64,0,0,1,.38-1.4,2.77,2.77,0,0,1,1-1,3.1,3.1,0,0,1,2.92,0,2.77,2.77,0,0,1,1,1,2.64,2.64,0,0,1,.38,1.4,2.61,2.61,0,0,1-.38,1.39,2.79,2.79,0,0,1-1,1A2.93,2.93,0,0,1,93.88,8.6Zm0-1.4A1.22,1.22,0,0,0,94.54,7,1.3,1.3,0,0,0,95,6.54a1.37,1.37,0,0,0,.17-.68A1.39,1.39,0,0,0,95,5.17a1.3,1.3,0,0,0-.46-.48,1.28,1.28,0,0,0-1.31,0,1.3,1.3,0,0,0-.46.48,1.39,1.39,0,0,0-.17.69,1.37,1.37,0,0,0,.17.68,1.29,1.29,0,0,0,.46.48A1.23,1.23,0,0,0,93.88,7.2Z" transform="translate(0 -0.94)"/><path class="cls-3" d="M100.64,8.6a2.93,2.93,0,0,1-1.46-.36,2.79,2.79,0,0,1-1-1,2.61,2.61,0,0,1-.38-1.39,2.64,2.64,0,0,1,.38-1.4,2.77,2.77,0,0,1,1-1,3.1,3.1,0,0,1,2.92,0,2.77,2.77,0,0,1,1,1,2.64,2.64,0,0,1,.38,1.4,2.61,2.61,0,0,1-.38,1.39,2.79,2.79,0,0,1-1,1A2.93,2.93,0,0,1,100.64,8.6Zm0-1.4A1.22,1.22,0,0,0,101.3,7a1.3,1.3,0,0,0,.46-.48,1.37,1.37,0,0,0,.17-.68,1.39,1.39,0,0,0-.17-.69,1.3,1.3,0,0,0-.46-.48,1.28,1.28,0,0,0-1.31,0,1.3,1.3,0,0,0-.46.48,1.39,1.39,0,0,0-.17.69,1.37,1.37,0,0,0,.17.68A1.29,1.29,0,0,0,100,7,1.23,1.23,0,0,0,100.64,7.2Z" transform="translate(0 -0.94)"/><path class="cls-3" d="M104.77,8.5V3.21h1.62v.34a2.21,2.21,0,0,1,2.22-.25,1.83,1.83,0,0,1,.67.54A2.22,2.22,0,0,1,110,3.3a2.4,2.4,0,0,1,1-.19,2.06,2.06,0,0,1,1.06.27,1.94,1.94,0,0,1,.72.75A2.26,2.26,0,0,1,113,5.24V8.5h-1.62v-3a1,1,0,0,0-.24-.7.8.8,0,0,0-.62-.26,1.17,1.17,0,0,0-.49.1,1,1,0,0,0-.38.3c0,.05,0,.11,0,.17s0,.12,0,.18V8.5H108.1v-3a1,1,0,0,0-.24-.7.8.8,0,0,0-.62-.26,1.18,1.18,0,0,0-.48.1.94.94,0,0,0-.37.28V8.5Z" transform="translate(0 -0.94)"/></g></svg>