<svg id="CONTENTS" xmlns="http://www.w3.org/2000/svg" viewBox="0 0 13.61 6.5"><defs><style>.cls-1{fill:#010101;}</style></defs><title>community2-name4</title><g id="_02" data-name="02"><g id="아이콘"><g id="아이콘_카피1" data-name="아이콘 카피1"><g id="O4"><path class="cls-1" d="M499.5,363a3.4,3.4,0,0,1-1.31-.25,3.26,3.26,0,0,1-1.77-1.73,3.29,3.29,0,0,1,0-2.55,3.26,3.26,0,0,1,1.77-1.73,3.57,3.57,0,0,1,2.61,0,3.25,3.25,0,0,1,1.06.69,3.24,3.24,0,0,1,0,4.62,3.25,3.25,0,0,1-1.06.69A3.43,3.43,0,0,1,499.5,363Zm0-1.2a2,2,0,0,0,.79-.16,2,2,0,0,0,1.05-1.08,2.23,2.23,0,0,0,0-1.62,2,2,0,0,0-1.05-1.08,2,2,0,0,0-.79-.16,1.93,1.93,0,0,0-.78.16,2,2,0,0,0-1.05,1.08,2.1,2.1,0,0,0-.15.81,2.16,2.16,0,0,0,.15.82,2,2,0,0,0,1.05,1.08A1.93,1.93,0,0,0,499.5,361.77Z" transform="translate(-496.17 -356.46)"/><path class="cls-1" d="M507.77,362.86v-1.48h-3.55v-1l3.37-3.83H509v3.79h.77v1H509v1.48Zm-2.13-2.51h2.13v-2.42Z" transform="translate(-496.17 -356.46)"/></g></g></g></g></svg>