<svg xmlns="http://www.w3.org/2000/svg" viewBox="0 0 86.7 9.34"><defs><style>.cls-1{fill:#1d1d1b;}</style></defs><title>community-tit</title><g id="업무시설_커뮤니티" data-name="업무시설 커뮤니티"><path class="cls-1" d="M577.61,255.31v4.95h-1.32v-1.85h-1.46a2.33,2.33,0,0,1-2.38,1.68,2.21,2.21,0,1,1,0-4.4,2.34,2.34,0,0,1,2.37,1.65h1.47v-2Zm-4,2.58a1.17,1.17,0,1,0-1.17,1.1A1.07,1.07,0,0,0,573.62,257.89Zm2.68,2.77h1.31v3.75h-6.1v-3.75h1.31v.88h3.48Zm0,1.88h-3.48v.83h3.48Z" transform="translate(-570.03 -255.3)"/><path class="cls-1" d="M586.7,261.51h-3.54v3h-1.32v-3h-3.48v-1h8.34Zm-1-2h-6.38v-3.72h6.38Zm-1.29-2.68h-3.79v1.64h3.79Z" transform="translate(-570.03 -255.3)"/><path class="cls-1" d="M590.38,257.36a4.22,4.22,0,0,0,2.29,4.06l-.75,1.07a4.21,4.21,0,0,1-2.18-2.52,4.45,4.45,0,0,1-2.26,2.74l-.79-1.09a4.44,4.44,0,0,0,2.37-4.26V256h1.32Zm4.06-2.06v9.23h-1.32V255.3Z" transform="translate(-570.03 -255.3)"/><path class="cls-1" d="M600.09,259.88a3.36,3.36,0,0,1-2-1.69,3.5,3.5,0,0,1-2.18,1.87l-.68-1a2.8,2.8,0,0,0,2.17-2.76v-.66h1.33v.66a2.67,2.67,0,0,0,2.07,2.6Zm3.13,3.51v1H596.9V261.9h4.76v-.51h-4.77v-1H603v2.47H598.2v.54Zm-1.58-5.68H600v-1h1.68v-1.35H603V260h-1.32Z" transform="translate(-570.03 -255.3)"/><path class="cls-1" d="M609.91,256.19c0,2.83-.74,5.21-4,6.94l-.72-1a6.32,6.32,0,0,0,2.85-2.61l-2.63.24-.17-1.11,3.2-.18a9.06,9.06,0,0,0,.2-1.23h-2.91v-1Zm3-.88v9.2h-1.32v-4.61h-1.72v-1.07h1.72v-3.53Z" transform="translate(-570.03 -255.3)"/><path class="cls-1" d="M622,261.49h-1.87v3.06h-1.32v-3.06H616.9v3.06h-1.31v-3.06h-1.91v-1H622Zm-1-2h-6.38v-3.72H621Zm-1.29-2.67h-3.79v1.63h3.79Z" transform="translate(-570.03 -255.3)"/><path class="cls-1" d="M623.92,261.12a22.46,22.46,0,0,0,3.87-.4l.14,1.1a21.85,21.85,0,0,1-4.5.43h-.82v-6.07h1.31Zm5.9-5.82v9.21H628.5V255.3Z" transform="translate(-570.03 -255.3)"/><path class="cls-1" d="M632.39,261.38a25,25,0,0,0,3.74-.25l.12,1a27.67,27.67,0,0,1-4.38.26h-.8v-6.37h4.66v1.07h-3.34v1.5h3v1h-3Zm5.86-6.07v9.21h-1.33v-9.21Z" transform="translate(-570.03 -255.3)"/></g><g id="_15" data-name="15"><path class="cls-1" d="M646.7,264.51v-6.43l-1.74.7v-1.68l2.46-1h1.22v8.4Z" transform="translate(-570.03 -255.3)"/><path class="cls-1" d="M653.28,264.64a4.56,4.56,0,0,1-3.07-1.13l1.1-1.28a3.86,3.86,0,0,0,1,.62,2.85,2.85,0,0,0,1,.19,1.81,1.81,0,0,0,.77-.15,1.22,1.22,0,0,0,.51-.43,1.11,1.11,0,0,0,.19-.64,1.07,1.07,0,0,0-.44-.88,1.73,1.73,0,0,0-1.11-.35,2.61,2.61,0,0,0-.7.1,3.13,3.13,0,0,0-.71.3l-1.3-.38.2-4.51h5.5v1.57h-3.95l-.08,1.88a3.62,3.62,0,0,1,.79-.29,3.71,3.71,0,0,1,.85-.1,3.29,3.29,0,0,1,1.49.32,2.39,2.39,0,0,1,1,.89,2.52,2.52,0,0,1,.35,1.34,2.69,2.69,0,0,1-.43,1.52,2.88,2.88,0,0,1-1.21,1A4.23,4.23,0,0,1,653.28,264.64Z" transform="translate(-570.03 -255.3)"/></g></svg>