<svg id="Layer_1" data-name="Layer 1" xmlns="http://www.w3.org/2000/svg" xmlns:xlink="http://www.w3.org/1999/xlink" viewBox="0 0 75.72 7.67"><defs><style>.cls-1{fill:none;}.cls-2{clip-path:url(#clip-path);}.cls-3{fill:#010101;}</style><clipPath id="clip-path" transform="translate(-0.33 -0.94)"><rect class="cls-1" width="76.81" height="11.04"/></clipPath></defs><title>community2-txt8</title><g class="cls-2"><path class="cls-3" d="M4.07,8.61A3.88,3.88,0,0,1,2.6,8.33a3.67,3.67,0,0,1-1.19-.77A3.57,3.57,0,0,1,.62,6.41,3.5,3.5,0,0,1,.33,5,3.5,3.5,0,0,1,.62,3.58a3.57,3.57,0,0,1,.79-1.15A3.66,3.66,0,0,1,2.6,1.66a3.89,3.89,0,0,1,1.47-.27,3.89,3.89,0,0,1,1.47.27,3.66,3.66,0,0,1,1.19.77,3.58,3.58,0,0,1,.79,1.15A3.51,3.51,0,0,1,7.81,5a3.51,3.51,0,0,1-.29,1.42,3.58,3.58,0,0,1-.79,1.15,3.68,3.68,0,0,1-1.19.77A3.88,3.88,0,0,1,4.07,8.61ZM4.07,7A1.92,1.92,0,0,0,5.89,5.81a2.25,2.25,0,0,0,0-1.62,2,2,0,0,0-3.64,0A2.11,2.11,0,0,0,2.1,5a2.17,2.17,0,0,0,.15.81,1.93,1.93,0,0,0,.42.65A1.95,1.95,0,0,0,4.07,7Z" transform="translate(-0.33 -0.94)"/><path class="cls-3" d="M10,8.5V4.56H8.82V3.21H10V2.89a1.82,1.82,0,0,1,.56-1.44,2.32,2.32,0,0,1,1.6-.5l.45,0a2.15,2.15,0,0,1,.41.08V2.4l-.33-.05-.31,0a.91.91,0,0,0-.56.15.52.52,0,0,0-.19.44v.29H13V4.56H11.6V8.5Z" transform="translate(-0.33 -0.94)"/><path class="cls-3" d="M15,8.5V4.56H13.85V3.21H15V2.89a1.82,1.82,0,0,1,.56-1.44,2.32,2.32,0,0,1,1.6-.5l.45,0a2.15,2.15,0,0,1,.41.08V2.4l-.33-.05-.31,0a.91.91,0,0,0-.56.15.52.52,0,0,0-.19.44v.29H18V4.56H16.63V8.5Z" transform="translate(-0.33 -0.94)"/><path class="cls-3" d="M20,2.72a.89.89,0,0,1-.89-.89.89.89,0,1,1,1.78,0,.89.89,0,0,1-.89.89ZM19.2,8.5V3.21h1.62V8.5Z" transform="translate(-0.33 -0.94)"/><path class="cls-3" d="M24.88,8.6a2.84,2.84,0,0,1-1.43-.36,2.69,2.69,0,0,1-1.37-2.38,2.68,2.68,0,0,1,.37-1.4,2.74,2.74,0,0,1,1-1,2.81,2.81,0,0,1,1.43-.37,3.08,3.08,0,0,1,1.24.26,2.76,2.76,0,0,1,1,.72l-1,1a1.93,1.93,0,0,0-.57-.47,1.42,1.42,0,0,0-.64-.15,1.16,1.16,0,0,0-.63.18,1.23,1.23,0,0,0-.44.48,1.48,1.48,0,0,0-.16.69,1.41,1.41,0,0,0,.17.69A1.23,1.23,0,0,0,25,7.2a1.34,1.34,0,0,0,.61-.14,1.84,1.84,0,0,0,.54-.43l1,1a2.74,2.74,0,0,1-1,.71A3,3,0,0,1,24.88,8.6Z" transform="translate(-0.33 -0.94)"/><path class="cls-3" d="M30.69,8.6a3,3,0,0,1-1.47-.36,2.77,2.77,0,0,1-1-1,2.6,2.6,0,0,1-.38-1.39,2.68,2.68,0,0,1,.37-1.39,2.71,2.71,0,0,1,1-1,2.74,2.74,0,0,1,1.4-.36,2.55,2.55,0,0,1,1.38.38,2.65,2.65,0,0,1,.95,1A3.13,3.13,0,0,1,33.24,6v.4H29.47a1.47,1.47,0,0,0,.29.44,1.27,1.27,0,0,0,.45.29,1.48,1.48,0,0,0,.56.11,1.63,1.63,0,0,0,.6-.11,1.3,1.3,0,0,0,.46-.29l1.07,1a3.41,3.41,0,0,1-1,.61A3.48,3.48,0,0,1,30.69,8.6ZM29.44,5.28h2.21a1.19,1.19,0,0,0-.25-.44A1.22,1.22,0,0,0,31,4.54a1.1,1.1,0,0,0-.48-.1,1.17,1.17,0,0,0-.49.1,1.05,1.05,0,0,0-.37.29A1.25,1.25,0,0,0,29.44,5.28Z" transform="translate(-0.33 -0.94)"/><path class="cls-3" d="M38.92,8.5V3H36.63V1.5h6.3V3H40.64V8.5Z" transform="translate(-0.33 -0.94)"/><path class="cls-3" d="M45.56,8.6a3,3,0,0,1-1.46-.36,2.78,2.78,0,0,1-1-1,2.61,2.61,0,0,1-.38-1.39A2.69,2.69,0,0,1,44,3.48a2.74,2.74,0,0,1,1.4-.36,2.55,2.55,0,0,1,1.38.38,2.65,2.65,0,0,1,.94,1A3.13,3.13,0,0,1,48.11,6v.4H44.34a1.47,1.47,0,0,0,.29.44,1.26,1.26,0,0,0,.45.29,1.47,1.47,0,0,0,.56.11,1.64,1.64,0,0,0,.6-.11,1.31,1.31,0,0,0,.46-.29l1.07,1a3.4,3.4,0,0,1-1,.61A3.49,3.49,0,0,1,45.56,8.6ZM44.31,5.28h2.21a1.18,1.18,0,0,0-.24-.44,1.23,1.23,0,0,0-.39-.29,1.1,1.1,0,0,0-.48-.1,1.17,1.17,0,0,0-.49.1,1.05,1.05,0,0,0-.37.29A1.25,1.25,0,0,0,44.31,5.28Z" transform="translate(-0.33 -0.94)"/><path class="cls-3" d="M49.37,8.5V3.21H51v.53a1.73,1.73,0,0,1,.61-.49,1.8,1.8,0,0,1,.78-.17,1.2,1.2,0,0,1,.61.13V4.63a1.43,1.43,0,0,0-.36-.12,2.1,2.1,0,0,0-.41,0,1.46,1.46,0,0,0-.71.17,1.39,1.39,0,0,0-.52.5V8.5Z" transform="translate(-0.33 -0.94)"/><path class="cls-3" d="M54.19,8.5V3.21h1.62v.53a1.73,1.73,0,0,1,.61-.49,1.8,1.8,0,0,1,.78-.17,1.2,1.2,0,0,1,.61.13V4.63a1.43,1.43,0,0,0-.36-.12,2.1,2.1,0,0,0-.41,0,1.46,1.46,0,0,0-.71.17,1.39,1.39,0,0,0-.52.5V8.5Z" transform="translate(-0.33 -0.94)"/><path class="cls-3" d="M60.6,8.59a2.26,2.26,0,0,1-1-.21,1.66,1.66,0,0,1-.68-.58A1.51,1.51,0,0,1,58.68,7a1.37,1.37,0,0,1,.58-1.18,2.71,2.71,0,0,1,1.61-.42,4.79,4.79,0,0,1,1.2.15V5.25a.7.7,0,0,0-.26-.6A1.23,1.23,0,0,0,61,4.46a2.8,2.8,0,0,0-.69.1,6.77,6.77,0,0,0-.91.32l-.58-1.19a7.23,7.23,0,0,1,1.25-.44,5.2,5.2,0,0,1,1.21-.15A2.54,2.54,0,0,1,63,3.63a1.84,1.84,0,0,1,.61,1.48V8.5h-1.6V8.18a2.17,2.17,0,0,1-.68.32A3,3,0,0,1,60.6,8.59Zm-.38-1.67a.44.44,0,0,0,.22.39,1.13,1.13,0,0,0,.61.14,2.37,2.37,0,0,0,.54-.06,1.55,1.55,0,0,0,.47-.19V6.52a3.61,3.61,0,0,0-.47-.09,3.85,3.85,0,0,0-.49,0,1.29,1.29,0,0,0-.65.14A.42.42,0,0,0,60.22,6.92Z" transform="translate(-0.33 -0.94)"/><path class="cls-3" d="M67.68,8.6a2.84,2.84,0,0,1-1.42-.36,2.69,2.69,0,0,1-1.37-2.38,2.68,2.68,0,0,1,.37-1.4,2.75,2.75,0,0,1,1-1,2.81,2.81,0,0,1,1.42-.37,3.09,3.09,0,0,1,1.24.26,2.76,2.76,0,0,1,1,.72l-1,1a1.92,1.92,0,0,0-.57-.47,1.42,1.42,0,0,0-.64-.15,1.16,1.16,0,0,0-.63.18,1.22,1.22,0,0,0-.44.48,1.47,1.47,0,0,0-.16.69,1.41,1.41,0,0,0,.17.69,1.23,1.23,0,0,0,1.1.66,1.34,1.34,0,0,0,.61-.14,1.84,1.84,0,0,0,.54-.43l1,1a2.74,2.74,0,0,1-1,.71A3,3,0,0,1,67.68,8.6Z" transform="translate(-0.33 -0.94)"/><path class="cls-3" d="M73.5,8.6A3,3,0,0,1,72,8.24a2.78,2.78,0,0,1-1-1,2.61,2.61,0,0,1-.38-1.39A2.69,2.69,0,0,1,72,3.48a2.74,2.74,0,0,1,1.4-.36,2.55,2.55,0,0,1,1.38.38,2.65,2.65,0,0,1,.94,1A3.13,3.13,0,0,1,76,6v.4H72.28a1.47,1.47,0,0,0,.29.44,1.26,1.26,0,0,0,.45.29,1.47,1.47,0,0,0,.56.11,1.64,1.64,0,0,0,.6-.11,1.31,1.31,0,0,0,.46-.29l1.07,1a3.4,3.4,0,0,1-1,.61A3.49,3.49,0,0,1,73.5,8.6ZM72.25,5.28h2.21a1.18,1.18,0,0,0-.24-.44,1.23,1.23,0,0,0-.39-.29,1.1,1.1,0,0,0-.48-.1,1.17,1.17,0,0,0-.49.1,1.05,1.05,0,0,0-.37.29A1.25,1.25,0,0,0,72.25,5.28Z" transform="translate(-0.33 -0.94)"/></g></svg>