<svg id="CONTENTS" xmlns="http://www.w3.org/2000/svg" viewBox="0 0 11.81 6.5"><defs><style>.cls-1{fill:#010101;}</style></defs><title>community2-name25</title><g id="_02" data-name="02"><g id="아이콘"><g id="아이콘_카피1" data-name="아이콘 카피1"><g id="S6"><path class="cls-1" d="M592.66,775a4.15,4.15,0,0,1-2.79-1.09l.75-.94a4,4,0,0,0,1.06.7,2.71,2.71,0,0,0,1.08.22,2.22,2.22,0,0,0,.68-.09,1,1,0,0,0,.45-.27.62.62,0,0,0,.16-.42.59.59,0,0,0-.23-.5,2,2,0,0,0-.8-.27l-1.25-.22a2.14,2.14,0,0,1-1.22-.57,1.54,1.54,0,0,1-.42-1.12,1.73,1.73,0,0,1,.3-1,1.89,1.89,0,0,1,.85-.66,3.43,3.43,0,0,1,1.32-.23,4.29,4.29,0,0,1,1.38.23,4.12,4.12,0,0,1,1.22.65l-.7,1a3.27,3.27,0,0,0-2-.76,1.89,1.89,0,0,0-.61.09.92.92,0,0,0-.4.25.54.54,0,0,0-.14.37.53.53,0,0,0,.21.45,1.61,1.61,0,0,0,.69.24l1.19.2a2.62,2.62,0,0,1,1.41.6,1.55,1.55,0,0,1,.47,1.17A1.79,1.79,0,0,1,595,774a2.07,2.07,0,0,1-.92.7A3.67,3.67,0,0,1,592.66,775Z" transform="translate(-589.87 -768.46)"/><path class="cls-1" d="M599.4,775a2.5,2.5,0,0,1-1.4-.4,2.66,2.66,0,0,1-.94-1.09,3.68,3.68,0,0,1-.34-1.62,4,4,0,0,1,.37-1.78,2.84,2.84,0,0,1,1-1.18,2.88,2.88,0,0,1,1.57-.42,3.1,3.1,0,0,1,1,.16,2.31,2.31,0,0,1,.81.45l-.67.85a1.83,1.83,0,0,0-.56-.31,2.09,2.09,0,0,0-.66-.1,1.56,1.56,0,0,0-.94.28,1.73,1.73,0,0,0-.59.8,3.6,3.6,0,0,0-.21,1.26,2.27,2.27,0,0,1,.76-.67,1.93,1.93,0,0,1,.93-.24,2.36,2.36,0,0,1,1.1.25,1.88,1.88,0,0,1,.75.68,1.85,1.85,0,0,1,.27,1,2,2,0,0,1-.3,1.07,2.11,2.11,0,0,1-.81.75A2.43,2.43,0,0,1,599.4,775Zm0-3.09a1.82,1.82,0,0,0-.78.17,2,2,0,0,0-.64.49,2.37,2.37,0,0,0,.28.75,1.4,1.4,0,0,0,.48.49,1.22,1.22,0,0,0,.64.17,1.3,1.3,0,0,0,.6-.13,1.05,1.05,0,0,0,.42-.37,1,1,0,0,0,.15-.54,1,1,0,0,0-.54-.9A1.33,1.33,0,0,0,599.37,771.88Z" transform="translate(-589.87 -768.46)"/></g></g></g></g></svg>