<svg id="Layer_1" data-name="Layer 1" xmlns="http://www.w3.org/2000/svg" xmlns:xlink="http://www.w3.org/1999/xlink" viewBox="0 0 63.88 70.78"><defs><style>.cls-1,.cls-3,.cls-4{fill:none;}.cls-2{clip-path:url(#clip-path);}.cls-3,.cls-4{stroke:#010101;stroke-miterlimit:10;}.cls-3{stroke-width:5.11px;}.cls-4{stroke-width:6.39px;}</style><clipPath id="clip-path" transform="translate(0 0)"><rect class="cls-1" width="63.88" height="70.78"/></clipPath></defs><title>community2-icon13</title><g class="cls-2"><path class="cls-3" d="M25,2.1v.46A6.82,6.82,0,0,0,26,6.32a7.24,7.24,0,0,1,0,7.53A6.82,6.82,0,0,0,25,17.61v.46" transform="translate(0 0)"/><path class="cls-3" d="M13.79,2.1v.46a6.82,6.82,0,0,0,1.05,3.76,7.27,7.27,0,0,1,0,7.53,6.82,6.82,0,0,0-1.05,3.77v.46" transform="translate(0 0)"/><path class="cls-4" d="M3.19,19.64v17A18.11,18.11,0,0,0,21.3,54.78h8.46A18.11,18.11,0,0,0,47.87,36.67v-17" transform="translate(0 0)"/><path class="cls-4" d="M47.87,22.83h6.42a6.39,6.39,0,0,1,6.39,6.39A12.78,12.78,0,0,1,47.91,42" transform="translate(0 0)"/><path class="cls-3" d="M36.18,2.1v.46a6.82,6.82,0,0,0,1.05,3.76,7.24,7.24,0,0,1,0,7.53,6.82,6.82,0,0,0-1.05,3.77v.46" transform="translate(0 0)"/><path class="cls-4" d="M3.19,58H47.87a9.58,9.58,0,0,1-9.58,9.58H12.78A9.58,9.58,0,0,1,3.19,58Z" transform="translate(0 0)"/></g></svg>