<svg id="Layer_1" data-name="Layer 1" xmlns="http://www.w3.org/2000/svg" xmlns:xlink="http://www.w3.org/1999/xlink" viewBox="0 0 62.93 62.93"><defs><style>.cls-1,.cls-3{fill:none;}.cls-2{clip-path:url(#clip-path);}.cls-3{stroke:#010101;stroke-miterlimit:10;stroke-width:6.29px;}</style><clipPath id="clip-path" transform="translate(0 0)"><rect class="cls-1" width="62.93" height="62.93"/></clipPath></defs><title>community2-icon24</title><g class="cls-2"><polygon class="cls-3" points="8.65 3.15 19.66 3.15 19.66 12.59 25.17 25.17 25.17 59.78 3.15 59.78 3.15 25.17 8.65 12.59 8.65 3.15"/><line class="cls-3" x1="8.65" y1="12.59" x2="19.66" y2="12.59"/><polygon class="cls-3" points="43.26 3.15 54.27 3.15 54.27 12.59 54.27 25.12 59.78 31.52 59.78 59.78 37.76 59.78 37.76 31.52 43.26 25.12 43.26 12.59 43.26 3.15"/><line class="cls-3" x1="43.26" y1="12.59" x2="54.27" y2="12.59"/><line class="cls-3" x1="37.76" y1="33.9" x2="59.78" y2="33.9"/><line class="cls-3" x1="37.76" y1="50.29" x2="59.78" y2="50.29"/></g></svg>