<svg id="Layer_1" data-name="Layer 1" xmlns="http://www.w3.org/2000/svg" xmlns:xlink="http://www.w3.org/1999/xlink" viewBox="0 0 55.84 61.15"><defs><style>.cls-1,.cls-3{fill:none;}.cls-2{clip-path:url(#clip-path);}.cls-3{stroke:#010101;stroke-miterlimit:10;stroke-width:6.23px;}.cls-4{fill:#010101;}</style><clipPath id="clip-path" transform="translate(0 0)"><rect class="cls-1" width="55.84" height="61.15"/></clipPath></defs><title>community2-icon18</title><g class="cls-2"><polygon class="cls-3" points="49.18 33.23 45.69 58.04 30.68 58.04 10.15 58.04 6.66 33.23 49.18 33.23"/><path class="cls-3" d="M47.41,22.6a19.49,19.49,0,1,0-39,0,5.32,5.32,0,1,0,0,10.63h39a5.32,5.32,0,1,0,0-10.63Z" transform="translate(0 0)"/><line class="cls-3" x1="27.92" y1="33.24" x2="27.92" y2="58.04"/><line class="cls-3" x1="17.7" y1="33.24" x2="18.51" y2="58.04"/><line class="cls-3" x1="38.13" y1="33.24" x2="37.33" y2="58.04"/><path class="cls-4" d="M33.76,16a2.41,2.41,0,1,1,1.89-1.89A2.42,2.42,0,0,1,33.76,16" transform="translate(0 0)"/><path class="cls-4" d="M21.3,20.54a2.41,2.41,0,1,1,1.89-1.89,2.42,2.42,0,0,1-1.89,1.89" transform="translate(0 0)"/><path class="cls-4" d="M30.8,27.38a2.41,2.41,0,1,1,1.89-1.89,2.42,2.42,0,0,1-1.89,1.89" transform="translate(0 0)"/></g></svg>