<svg id="CONTENTS" xmlns="http://www.w3.org/2000/svg" viewBox="0 0 12.92 6.5"><defs><style>.cls-1{fill:#010101;}</style></defs><title>community2-name3</title><g id="_02" data-name="02"><g id="아이콘"><g id="아이콘_카피1" data-name="아이콘 카피1"><g id="O3"><path class="cls-1" d="M405.5,363a3.4,3.4,0,0,1-1.31-.25,3.26,3.26,0,0,1-1.77-1.73,3.29,3.29,0,0,1,0-2.55,3.26,3.26,0,0,1,1.77-1.73,3.57,3.57,0,0,1,2.61,0,3.25,3.25,0,0,1,1.06.69,3.24,3.24,0,0,1,0,4.62,3.25,3.25,0,0,1-1.06.69A3.43,3.43,0,0,1,405.5,363Zm0-1.2a2,2,0,0,0,.79-.16,2,2,0,0,0,1.05-1.08,2.23,2.23,0,0,0,0-1.62,2,2,0,0,0-1.05-1.08,2,2,0,0,0-.79-.16,1.93,1.93,0,0,0-.78.16,2,2,0,0,0-1.05,1.08,2.1,2.1,0,0,0-.15.81,2.16,2.16,0,0,0,.15.82,2,2,0,0,0,1.05,1.08A1.93,1.93,0,0,0,405.5,361.77Z" transform="translate(-402.17 -356.46)"/><path class="cls-1" d="M412.66,363a3.53,3.53,0,0,1-1.35-.26,2.84,2.84,0,0,1-1-.72l.79-.74a2.12,2.12,0,0,0,.72.54,2.28,2.28,0,0,0,.88.15,1.8,1.8,0,0,0,.66-.11,1,1,0,0,0,.44-.32.77.77,0,0,0,.16-.48.73.73,0,0,0-.13-.43.86.86,0,0,0-.34-.28,1.18,1.18,0,0,0-.51-.1h-.79v-1h.68a1,1,0,0,0,.67-.22.78.78,0,0,0,.24-.61.77.77,0,0,0-.14-.45,1,1,0,0,0-.39-.32,1.3,1.3,0,0,0-.56-.12,1.85,1.85,0,0,0-.81.16,2.36,2.36,0,0,0-.71.58l-.8-.74a3.07,3.07,0,0,1,1.06-.77,3.16,3.16,0,0,1,1.3-.27,2.78,2.78,0,0,1,1.16.23,1.93,1.93,0,0,1,.79.63,1.56,1.56,0,0,1,.29.93,1.34,1.34,0,0,1-.33.9,1.73,1.73,0,0,1-.86.54,1.89,1.89,0,0,1,1,.5,1.25,1.25,0,0,1,.37.91,1.56,1.56,0,0,1-.31,1,2.09,2.09,0,0,1-.86.66A3.1,3.1,0,0,1,412.66,363Z" transform="translate(-402.17 -356.46)"/></g></g></g></g></svg>