<svg id="Layer_1" data-name="Layer 1" xmlns="http://www.w3.org/2000/svg" xmlns:xlink="http://www.w3.org/1999/xlink" viewBox="0 0 92.36 55.97"><defs><style>.cls-1,.cls-3,.cls-4{fill:none;}.cls-2{clip-path:url(#clip-path);}.cls-3,.cls-4{stroke:#010101;stroke-miterlimit:10;}.cls-3{stroke-width:5.6px;}.cls-4{stroke-width:5.31px;}</style><clipPath id="clip-path" transform="translate(0 0)"><rect class="cls-1" width="92.36" height="55.97"/></clipPath></defs><title>community2-icon7</title><g class="cls-2"><rect class="cls-3" x="2.8" y="2.8" width="86.76" height="50.37" rx="25.18" ry="25.18"/><path class="cls-3" d="M64.38,45.25H28a17.27,17.27,0,0,1,0-34.54h36.4a17.27,17.27,0,1,1,0,34.54Z" transform="translate(0 0)"/><path class="cls-3" d="M64.73,37H27.63a9,9,0,1,1,0-18h37.1a9,9,0,0,1,0,18Z" transform="translate(0 0)"/><line class="cls-4" x1="44.97" y1="2.8" x2="44.97" y2="18.97"/><line class="cls-4" x1="50.96" y1="53.17" x2="50.96" y2="45.25"/><line class="cls-4" x1="57.81" y1="45.25" x2="57.81" y2="36.99"/></g></svg>