<svg id="Layer_1" data-name="Layer 1" xmlns="http://www.w3.org/2000/svg" xmlns:xlink="http://www.w3.org/1999/xlink" viewBox="0 0 71.36 66.57"><defs><style>.cls-1,.cls-3{fill:none;}.cls-2{clip-path:url(#clip-path);}.cls-3{stroke:#010101;stroke-miterlimit:10;stroke-width:5.79px;}</style><clipPath id="clip-path" transform="translate(0 0)"><rect class="cls-1" width="71.36" height="66.57"/></clipPath></defs><title>community2-icon5</title><g class="cls-2"><ellipse class="cls-3" cx="35.66" cy="17.06" rx="4.95" ry="5.89"/><path class="cls-3" d="M40.17,24.13h-9A7,7,0,0,0,24,30.91V42.53a6.85,6.85,0,0,0,5.26,6.55V61.12a2.59,2.59,0,0,0,2.62,2.55H39.4A2.59,2.59,0,0,0,42,61.12V49.07a6.85,6.85,0,0,0,5.26-6.55V30.91A7,7,0,0,0,40.17,24.13Z" transform="translate(0 0)"/><ellipse class="cls-3" cx="57.87" cy="8.79" rx="4.95" ry="5.89"/><path class="cls-3" d="M61.35,15.86h-7a7,7,0,0,0-7.12,6.78V34.26a6.84,6.84,0,0,0,5.26,6.55V52.85a2.59,2.59,0,0,0,2.62,2.55h5.44a2.59,2.59,0,0,0,2.62-2.55V40.8a6.85,6.85,0,0,0,5.26-6.55V22.64A7,7,0,0,0,61.35,15.86Z" transform="translate(0 0)"/><ellipse class="cls-3" cx="13.5" cy="8.79" rx="4.95" ry="5.89"/><path class="cls-3" d="M17,15.86H10a7,7,0,0,0-7.12,6.78V34.26A6.84,6.84,0,0,0,8.16,40.8V52.85a2.59,2.59,0,0,0,2.62,2.55h5.44a2.59,2.59,0,0,0,2.62-2.55V40.8a6.85,6.85,0,0,0,5.26-6.55V22.64A7,7,0,0,0,17,15.86Z" transform="translate(0 0)"/></g></svg>