<svg id="Layer_1" data-name="Layer 1" xmlns="http://www.w3.org/2000/svg" xmlns:xlink="http://www.w3.org/1999/xlink" viewBox="0 0 75.44 9.7"><defs><style>.cls-1{fill:none;}.cls-2{clip-path:url(#clip-path);}.cls-3{fill:#010101;}</style><clipPath id="clip-path" transform="translate(-0.33 -0.94)"><rect class="cls-1" width="76.55" height="11.04"/></clipPath></defs><title>community2-txt9</title><g class="cls-2"><path class="cls-3" d="M4.07,8.61A3.88,3.88,0,0,1,2.6,8.33a3.67,3.67,0,0,1-1.19-.77A3.57,3.57,0,0,1,.62,6.41,3.5,3.5,0,0,1,.33,5,3.5,3.5,0,0,1,.62,3.58a3.57,3.57,0,0,1,.79-1.15A3.66,3.66,0,0,1,2.6,1.66a3.89,3.89,0,0,1,1.47-.27,3.89,3.89,0,0,1,1.47.27,3.66,3.66,0,0,1,1.19.77,3.58,3.58,0,0,1,.79,1.15A3.51,3.51,0,0,1,7.81,5a3.51,3.51,0,0,1-.29,1.42,3.58,3.58,0,0,1-.79,1.15,3.68,3.68,0,0,1-1.19.77A3.88,3.88,0,0,1,4.07,8.61ZM4.07,7A1.92,1.92,0,0,0,5.89,5.81a2.25,2.25,0,0,0,0-1.62,2,2,0,0,0-3.64,0A2.11,2.11,0,0,0,2.1,5a2.17,2.17,0,0,0,.15.81,1.93,1.93,0,0,0,.42.65A1.95,1.95,0,0,0,4.07,7Z" transform="translate(-0.33 -0.94)"/><path class="cls-3" d="M10,8.5V4.56H8.82V3.21H10V2.89a1.82,1.82,0,0,1,.56-1.44,2.32,2.32,0,0,1,1.6-.5l.45,0a2.15,2.15,0,0,1,.41.08V2.4l-.33-.05-.31,0a.91.91,0,0,0-.56.15.52.52,0,0,0-.19.44v.29H13V4.56H11.6V8.5Z" transform="translate(-0.33 -0.94)"/><path class="cls-3" d="M15,8.5V4.56H13.85V3.21H15V2.89a1.82,1.82,0,0,1,.56-1.44,2.32,2.32,0,0,1,1.6-.5l.45,0a2.15,2.15,0,0,1,.41.08V2.4l-.33-.05-.31,0a.91.91,0,0,0-.56.15.52.52,0,0,0-.19.44v.29H18V4.56H16.63V8.5Z" transform="translate(-0.33 -0.94)"/><path class="cls-3" d="M20,2.72a.89.89,0,0,1-.89-.89.89.89,0,1,1,1.78,0,.89.89,0,0,1-.89.89ZM19.2,8.5V3.21h1.62V8.5Z" transform="translate(-0.33 -0.94)"/><path class="cls-3" d="M24.88,8.6a2.84,2.84,0,0,1-1.43-.36,2.69,2.69,0,0,1-1.37-2.38,2.68,2.68,0,0,1,.37-1.4,2.74,2.74,0,0,1,1-1,2.81,2.81,0,0,1,1.43-.37,3.08,3.08,0,0,1,1.24.26,2.76,2.76,0,0,1,1,.72l-1,1a1.93,1.93,0,0,0-.57-.47,1.42,1.42,0,0,0-.64-.15,1.16,1.16,0,0,0-.63.18,1.23,1.23,0,0,0-.44.48,1.48,1.48,0,0,0-.16.69,1.41,1.41,0,0,0,.17.69A1.23,1.23,0,0,0,25,7.2a1.34,1.34,0,0,0,.61-.14,1.84,1.84,0,0,0,.54-.43l1,1a2.74,2.74,0,0,1-1,.71A3,3,0,0,1,24.88,8.6Z" transform="translate(-0.33 -0.94)"/><path class="cls-3" d="M30.69,8.6a3,3,0,0,1-1.47-.36,2.77,2.77,0,0,1-1-1,2.6,2.6,0,0,1-.38-1.39,2.68,2.68,0,0,1,.37-1.39,2.71,2.71,0,0,1,1-1,2.74,2.74,0,0,1,1.4-.36,2.55,2.55,0,0,1,1.38.38,2.65,2.65,0,0,1,.95,1A3.13,3.13,0,0,1,33.24,6v.4H29.47a1.47,1.47,0,0,0,.29.44,1.27,1.27,0,0,0,.45.29,1.48,1.48,0,0,0,.56.11,1.63,1.63,0,0,0,.6-.11,1.3,1.3,0,0,0,.46-.29l1.07,1a3.41,3.41,0,0,1-1,.61A3.48,3.48,0,0,1,30.69,8.6ZM29.44,5.28h2.21a1.19,1.19,0,0,0-.25-.44A1.22,1.22,0,0,0,31,4.54a1.1,1.1,0,0,0-.48-.1,1.17,1.17,0,0,0-.49.1,1.05,1.05,0,0,0-.37.29A1.25,1.25,0,0,0,29.44,5.28Z" transform="translate(-0.33 -0.94)"/><path class="cls-3" d="M37,8.5v-7h1.72V7h3.69V8.5Z" transform="translate(-0.33 -0.94)"/><path class="cls-3" d="M46.29,8.6a2.93,2.93,0,0,1-1.46-.36,2.79,2.79,0,0,1-1-1,2.61,2.61,0,0,1-.38-1.39,2.64,2.64,0,0,1,.38-1.4,2.77,2.77,0,0,1,1-1,3.1,3.1,0,0,1,2.92,0,2.77,2.77,0,0,1,1,1,2.64,2.64,0,0,1,.38,1.4,2.61,2.61,0,0,1-.38,1.39,2.79,2.79,0,0,1-1,1A2.93,2.93,0,0,1,46.29,8.6Zm0-1.4A1.22,1.22,0,0,0,46.95,7a1.3,1.3,0,0,0,.46-.48,1.37,1.37,0,0,0,.17-.68,1.39,1.39,0,0,0-.17-.69,1.3,1.3,0,0,0-.46-.48,1.28,1.28,0,0,0-1.31,0,1.3,1.3,0,0,0-.46.48,1.39,1.39,0,0,0-.17.69,1.37,1.37,0,0,0,.17.68,1.29,1.29,0,0,0,.46.48A1.23,1.23,0,0,0,46.29,7.2Z" transform="translate(-0.33 -0.94)"/><path class="cls-3" d="M52.49,8.6a2.18,2.18,0,0,1-1.1-.27,1.93,1.93,0,0,1-.74-.75,2.23,2.23,0,0,1-.27-1.11V3.21H52v3a.91.91,0,0,0,1,1,1.29,1.29,0,0,0,.55-.11,1.08,1.08,0,0,0,.4-.31V3.21h1.62V8.5H53.91V8.14A2.27,2.27,0,0,1,52.49,8.6Z" transform="translate(-0.33 -0.94)"/><path class="cls-3" d="M57,8.5V3.21h1.62v.36a2.27,2.27,0,0,1,1.42-.46,2.18,2.18,0,0,1,1.09.27,1.94,1.94,0,0,1,.75.75,2.23,2.23,0,0,1,.27,1.11V8.5H60.56v-3a.9.9,0,0,0-1-1,1.27,1.27,0,0,0-.54.11,1.19,1.19,0,0,0-.41.31V8.5Z" transform="translate(-0.33 -0.94)"/><path class="cls-3" d="M66.34,10.64a5.93,5.93,0,0,1-1.21-.12,4.68,4.68,0,0,1-1-.34l.54-1.26a4.4,4.4,0,0,0,.85.3,3.63,3.63,0,0,0,.84.1,1.37,1.37,0,0,0,.86-.23.83.83,0,0,0,.29-.69V8.1a2.39,2.39,0,0,1-1.37.42,2.62,2.62,0,0,1-1.36-.36,2.7,2.7,0,0,1-1-1,2.65,2.65,0,0,1-.36-1.36,2.6,2.6,0,0,1,.37-1.36,2.67,2.67,0,0,1,1-1,2.77,2.77,0,0,1,1.39-.35,2.72,2.72,0,0,1,.7.09,2.51,2.51,0,0,1,.63.26V3.21h1.6V8.42a2,2,0,0,1-.71,1.65A3.15,3.15,0,0,1,66.34,10.64Zm0-3.48a1.74,1.74,0,0,0,.6-.1,1.45,1.45,0,0,0,.49-.29V4.9A1.63,1.63,0,0,0,67,4.62a1.65,1.65,0,0,0-.59-.11,1.43,1.43,0,0,0-.71.18,1.36,1.36,0,0,0-.5.47,1.22,1.22,0,0,0-.19.67,1.32,1.32,0,0,0,.18.69,1.3,1.3,0,0,0,.5.48A1.43,1.43,0,0,0,66.37,7.16Z" transform="translate(-0.33 -0.94)"/><path class="cls-3" d="M73.22,8.6a3,3,0,0,1-1.46-.36,2.78,2.78,0,0,1-1-1,2.61,2.61,0,0,1-.38-1.39A2.69,2.69,0,0,1,71.7,3.48a2.74,2.74,0,0,1,1.4-.36,2.55,2.55,0,0,1,1.38.38,2.65,2.65,0,0,1,.94,1A3.13,3.13,0,0,1,75.77,6v.4H72a1.47,1.47,0,0,0,.29.44,1.26,1.26,0,0,0,.45.29,1.47,1.47,0,0,0,.56.11,1.64,1.64,0,0,0,.6-.11,1.31,1.31,0,0,0,.46-.29l1.07,1a3.4,3.4,0,0,1-1,.61A3.49,3.49,0,0,1,73.22,8.6ZM72,5.28h2.21a1.18,1.18,0,0,0-.24-.44,1.23,1.23,0,0,0-.39-.29,1.1,1.1,0,0,0-.48-.1,1.17,1.17,0,0,0-.49.1,1.05,1.05,0,0,0-.37.29A1.25,1.25,0,0,0,72,5.28Z" transform="translate(-0.33 -0.94)"/></g></svg>