<svg id="Layer_1" data-name="Layer 1" xmlns="http://www.w3.org/2000/svg" xmlns:xlink="http://www.w3.org/1999/xlink" viewBox="0 0 58.12 68.26"><defs><style>.cls-1,.cls-3{fill:none;}.cls-2{clip-path:url(#clip-path);}.cls-3{stroke:#010101;stroke-miterlimit:10;stroke-width:6.21px;}.cls-4{fill:#010101;}</style><clipPath id="clip-path" transform="translate(0 0)"><rect class="cls-1" width="58.12" height="68.26"/></clipPath></defs><title>community2-icon3</title><g class="cls-2"><polyline class="cls-3" points="21.74 30.88 5.43 38.03 3.1 38.03 3.1 27.79 3.1 17.55 5.43 17.55 21.74 25.25"/><rect class="cls-3" x="21.74" y="18.41" width="31.06" height="18.75"/><circle class="cls-3" cx="44.84" cy="8.15" r="5.04"/><circle class="cls-3" cx="29.68" cy="8.15" r="5.04"/><rect class="cls-4" x="34.02" y="37.16" width="6.21" height="31.1"/><path class="cls-4" d="M37,35.24a4.54,4.54,0,0,0-3.93,2.23L16.13,62.2h7.16L37,43.05,50.93,62.19h7.19L40.94,37.45A4.56,4.56,0,0,0,37,35.24" transform="translate(0 0)"/></g></svg>