<svg id="Layer_1" data-name="Layer 1" xmlns="http://www.w3.org/2000/svg" xmlns:xlink="http://www.w3.org/1999/xlink" viewBox="0 0 50.75 7.22"><defs><style>.cls-1{fill:none;}.cls-2{clip-path:url(#clip-path);}.cls-3{fill:#010101;}</style><clipPath id="clip-path" transform="translate(-0.33 -1.39)"><rect class="cls-1" width="52.04" height="11.04"/></clipPath></defs><title>community2-txt5</title><g class="cls-2"><path class="cls-3" d="M4.08,8.61a3.88,3.88,0,0,1-1.47-.28,3.74,3.74,0,0,1-1.19-.77,3.54,3.54,0,0,1-.8-1.15A3.5,3.5,0,0,1,.33,5,3.5,3.5,0,0,1,.62,3.58a3.6,3.6,0,0,1,2-1.92A3.86,3.86,0,0,1,4,1.39a4,4,0,0,1,1.68.36A3.44,3.44,0,0,1,7,2.76L5.81,3.85A2.26,2.26,0,0,0,5,3.19,2.17,2.17,0,0,0,4,3a1.91,1.91,0,0,0-.77.15,2,2,0,0,0-.62.42,1.89,1.89,0,0,0-.41.64A2.2,2.2,0,0,0,2.1,5a2.17,2.17,0,0,0,.15.81,1.9,1.9,0,0,0,.42.65A2,2,0,0,0,4.11,7a1.91,1.91,0,0,0,.75-.14,1.7,1.7,0,0,0,.58-.39A1.43,1.43,0,0,0,5.77,6H3.88V4.46H7.63V5a3.9,3.9,0,0,1-.26,1.46,3.57,3.57,0,0,1-.74,1.16,3.29,3.29,0,0,1-1.12.76A3.67,3.67,0,0,1,4.08,8.61Z" transform="translate(-0.33 -1.39)"/><path class="cls-3" d="M9.26,8.61a.94.94,0,1,1,.65-.28A.89.89,0,0,1,9.26,8.61Z" transform="translate(-0.33 -1.39)"/><path class="cls-3" d="M11,8.5l2.65-3.61L11.08,1.5h2.05l1.5,2.11,1.5-2.11h2L15.61,4.89l2.7,3.61h-2L14.59,6.16,12.93,8.5Z" transform="translate(-0.33 -1.39)"/><path class="cls-3" d="M22,8.5v-7h3.58a2.79,2.79,0,0,1,1.28.29,2.16,2.16,0,0,1,.88.79,2.14,2.14,0,0,1,.31,1.15,2,2,0,0,1-.36,1.18,2.29,2.29,0,0,1-.95.79L28.3,8.5H26.38L25.06,6H23.75V8.5Zm1.72-4h1.7a.93.93,0,0,0,.65-.22.73.73,0,0,0,.24-.57.73.73,0,0,0-.24-.57A.93.93,0,0,0,25.45,3h-1.7Z" transform="translate(-0.33 -1.39)"/><path class="cls-3" d="M32,8.6a2.93,2.93,0,0,1-1.46-.36,2.79,2.79,0,0,1-1-1,2.61,2.61,0,0,1-.38-1.39,2.64,2.64,0,0,1,.38-1.4,2.77,2.77,0,0,1,1-1,3.1,3.1,0,0,1,2.92,0,2.77,2.77,0,0,1,1,1,2.64,2.64,0,0,1,.38,1.4,2.61,2.61,0,0,1-.38,1.39,2.79,2.79,0,0,1-1,1A2.93,2.93,0,0,1,32,8.6Zm0-1.4A1.22,1.22,0,0,0,32.67,7a1.3,1.3,0,0,0,.46-.48,1.37,1.37,0,0,0,.17-.68,1.39,1.39,0,0,0-.17-.69,1.3,1.3,0,0,0-.46-.48,1.28,1.28,0,0,0-1.31,0,1.3,1.3,0,0,0-.46.48,1.39,1.39,0,0,0-.17.69,1.37,1.37,0,0,0,.17.68,1.29,1.29,0,0,0,.46.48A1.23,1.23,0,0,0,32,7.2Z" transform="translate(-0.33 -1.39)"/><path class="cls-3" d="M38.77,8.6a2.93,2.93,0,0,1-1.46-.36,2.79,2.79,0,0,1-1-1,2.61,2.61,0,0,1-.38-1.39,2.64,2.64,0,0,1,.38-1.4,2.77,2.77,0,0,1,1-1,3.1,3.1,0,0,1,2.92,0,2.77,2.77,0,0,1,1,1,2.64,2.64,0,0,1,.38,1.4,2.61,2.61,0,0,1-.38,1.39,2.79,2.79,0,0,1-1,1A2.93,2.93,0,0,1,38.77,8.6Zm0-1.4A1.22,1.22,0,0,0,39.43,7a1.3,1.3,0,0,0,.46-.48,1.37,1.37,0,0,0,.17-.68,1.39,1.39,0,0,0-.17-.69,1.3,1.3,0,0,0-.46-.48,1.28,1.28,0,0,0-1.31,0,1.3,1.3,0,0,0-.46.48,1.39,1.39,0,0,0-.17.69,1.37,1.37,0,0,0,.17.68,1.29,1.29,0,0,0,.46.48A1.23,1.23,0,0,0,38.77,7.2Z" transform="translate(-0.33 -1.39)"/><path class="cls-3" d="M42.8,8.5V3.21h1.62v.34a2.21,2.21,0,0,1,2.22-.25,1.83,1.83,0,0,1,.67.54,2.22,2.22,0,0,1,.76-.54,2.4,2.4,0,0,1,1-.19,2.06,2.06,0,0,1,1.06.27,1.94,1.94,0,0,1,.72.75,2.26,2.26,0,0,1,.27,1.11V8.5H49.46v-3a1,1,0,0,0-.24-.7.8.8,0,0,0-.62-.26,1.17,1.17,0,0,0-.49.1,1,1,0,0,0-.38.3c0,.05,0,.11,0,.17s0,.12,0,.18V8.5H46.13v-3a1,1,0,0,0-.24-.7.8.8,0,0,0-.62-.26,1.18,1.18,0,0,0-.48.1.94.94,0,0,0-.37.28V8.5Z" transform="translate(-0.33 -1.39)"/></g></svg>