<svg id="Layer_1" data-name="Layer 1" xmlns="http://www.w3.org/2000/svg" xmlns:xlink="http://www.w3.org/1999/xlink" viewBox="0 0 68.13 54.43"><defs><style>.cls-1,.cls-3{fill:none;}.cls-2{clip-path:url(#clip-path);}.cls-3{stroke:#010101;stroke-miterlimit:10;stroke-width:5.68px;}</style><clipPath id="clip-path" transform="translate(0 0)"><rect class="cls-1" width="68.13" height="54.43"/></clipPath></defs><title>community2-icon9</title><g class="cls-2"><path class="cls-3" d="M34.07,50.95c1.65-9.9,14.66-15.89,24-12.23A34.58,34.58,0,0,1,62.69,41l2.6-2.43" transform="translate(0 0)"/><path class="cls-3" d="M2.84,38.54,5.45,41a34.26,34.26,0,0,1,4.83-2.33c9.27-3.56,22.39,2.46,23.79,12.31" transform="translate(0 0)"/><path class="cls-3" d="M2.84,16.13V46.77L6,50c12.47-8.76,23.25-.89,26.69,1.61h2.68C38.79,49.1,49.68,41.22,62.15,50l3.14-3.22V8.55c-15.9-12.85-31.23,0-31.23,0S18.73-4.3,2.84,8.55Z" transform="translate(0 0)"/></g></svg>