<svg id="CONTENTS" xmlns="http://www.w3.org/2000/svg" viewBox="0 0 37.25 9.37"><defs><style>.cls-1{fill:#1d1d1b;}.cls-2{fill:#010101;}</style></defs><title>community2-name16</title><g id="_02" data-name="02"><g id="아이콘"><g id="아이콘_카피1" data-name="아이콘 카피1"><g id="상업시설"><path class="cls-1" d="M250.6,672.28a3,3,0,0,1-1.83-1.55,3.19,3.19,0,0,1-1.94,1.78l-.62-.94a2.7,2.7,0,0,0,1.94-2.69v-.75h1.21V669a2.43,2.43,0,0,0,1.86,2.38Zm2.35,2.1c0,1-1.08,1.6-2.8,1.6s-2.81-.59-2.81-1.6,1.08-1.59,2.81-1.59S252.95,673.37,252.95,674.37Zm-1.18,0c0-.46-.57-.68-1.62-.68s-1.63.22-1.63.68.57.68,1.63.68S251.77,674.84,251.77,674.37Zm2.19-4.76v1h-1.1v2h-1.19v-4.9h1.19v1.92Z" transform="translate(-246.21 -666.62)"/><path class="cls-1" d="M260.87,667.68v4.46h-1.19v-1.67h-1.31a2.1,2.1,0,0,1-2.14,1.51,2,2,0,1,1,0-4,2.11,2.11,0,0,1,2.13,1.49h1.32v-1.83ZM257.28,670a1.05,1.05,0,1,0-1.05,1A1,1,0,0,0,257.28,670Zm2.41,2.49h1.18v3.38h-5.49V672.5h1.18v.79h3.13Zm0,1.69h-3.13v.75h3.13Z" transform="translate(-246.21 -666.62)"/><path class="cls-1" d="M264.76,669.53a3.8,3.8,0,0,0,2.06,3.66l-.68,1a3.79,3.79,0,0,1-2-2.27,4,4,0,0,1-2,2.47l-.71-1a4,4,0,0,0,2.13-3.83v-1.21h1.19Zm3.66-1.85V676h-1.19v-8.32Z" transform="translate(-246.21 -666.62)"/><path class="cls-1" d="M273.49,671.8a3,3,0,0,1-1.84-1.52,3.16,3.16,0,0,1-2,1.68l-.61-.93a2.52,2.52,0,0,0,2-2.49V668h1.2v.59a2.41,2.41,0,0,0,1.86,2.34Zm2.82,3.16v.93h-5.69v-2.27h4.29v-.46h-4.29v-.91h5.46v2.22h-4.29V675Zm-1.42-5.11h-1.51v-.95h1.51v-1.22h1.19v4.21h-1.19Z" transform="translate(-246.21 -666.62)"/></g><g id="_2" data-name="2"><path class="cls-2" d="M277.11,675.87v-1.22l3.8-3.85a3.89,3.89,0,0,0,.44-.53,1.85,1.85,0,0,0,.23-.49,1.71,1.71,0,0,0,.07-.49,1,1,0,0,0-.42-.84,1.66,1.66,0,0,0-1.07-.34,2.66,2.66,0,0,0-1.16.25,4.67,4.67,0,0,0-1.17.87l-1-1.17a5.62,5.62,0,0,1,1.6-1.07,4.37,4.37,0,0,1,1.74-.36,3.83,3.83,0,0,1,1.63.33,2.61,2.61,0,0,1,1.09.9,2.32,2.32,0,0,1,.39,1.34,2.74,2.74,0,0,1-.12.83,3,3,0,0,1-.4.79,6.22,6.22,0,0,1-.73.85l-2.76,2.77h4.15v1.46Z" transform="translate(-246.21 -666.62)"/></g></g></g></g></svg>