<svg id="CONTENTS" xmlns="http://www.w3.org/2000/svg" viewBox="0 0 9.01 6.3"><defs><style>.cls-1{fill:#010101;}</style></defs><title>community2-name17</title><g id="_02" data-name="02"><g id="아이콘"><g id="아이콘_카피1" data-name="아이콘 카피1"><g id="R1"><path class="cls-1" d="M308.41,671.86v-6.3h3.08a2.47,2.47,0,0,1,1.13.25,1.84,1.84,0,0,1,1,1.71,1.76,1.76,0,0,1-.33,1.06,2,2,0,0,1-.89.68l1.39,2.6h-1.46l-1.23-2.41h-1.42v2.41Zm1.31-3.48h1.66a1,1,0,0,0,.71-.23.84.84,0,0,0,0-1.22,1,1,0,0,0-.71-.23h-1.66Z" transform="translate(-308.41 -665.56)"/><path class="cls-1" d="M316.19,671.86v-5l-1.23.51v-1.08l1.68-.68h.78v6.3Z" transform="translate(-308.41 -665.56)"/></g></g></g></g></svg>