<svg id="CONTENTS" xmlns="http://www.w3.org/2000/svg" viewBox="0 0 17.56 6.5"><defs><style>.cls-1{fill:#010101;}</style></defs><title>community2-name14</title><g id="_02" data-name="02"><g id="아이콘"><g id="아이콘_카피1" data-name="아이콘 카피1"><g id="O14"><path class="cls-1" d="M499.5,569a3.4,3.4,0,0,1-1.31-.25,3.26,3.26,0,0,1-1.77-1.73,3.29,3.29,0,0,1,0-2.55,3.26,3.26,0,0,1,1.77-1.73,3.57,3.57,0,0,1,2.61,0,3.25,3.25,0,0,1,1.06.69,3.24,3.24,0,0,1,0,4.62,3.25,3.25,0,0,1-1.06.69A3.43,3.43,0,0,1,499.5,569Zm0-1.2a2,2,0,0,0,.79-.16,2,2,0,0,0,.63-.43,2,2,0,0,0,.42-.65,2.24,2.24,0,0,0,0-1.62,2,2,0,0,0-1.05-1.08,2,2,0,0,0-.79-.16,1.94,1.94,0,0,0-.78.16,2,2,0,0,0-1.05,1.08,2.1,2.1,0,0,0-.15.81,2.16,2.16,0,0,0,.15.82,2,2,0,0,0,.42.65,2,2,0,0,0,.63.43A1.93,1.93,0,0,0,499.5,567.77Z" transform="translate(-496.17 -562.46)"/><path class="cls-1" d="M505.4,568.86v-5l-1.23.51v-1.08l1.68-.68h.78v6.3Z" transform="translate(-496.17 -562.46)"/><path class="cls-1" d="M511.72,568.86v-1.48h-3.55v-1l3.37-3.83H513v3.79h.77v1H513v1.48Zm-2.13-2.51h2.13v-2.42Z" transform="translate(-496.17 -562.46)"/></g></g></g></g></svg>