<svg xmlns="http://www.w3.org/2000/svg" xmlns:xlink="http://www.w3.org/1999/xlink" viewBox="0 0 115.45 37.75"><defs><style>.cls-1,.cls-6{fill:none;}.cls-2{isolation:isolate;}.cls-3{clip-path:url(#clip-path);}.cls-4{mix-blend-mode:multiply;}.cls-5{fill:#1d1d1b;}.cls-6{stroke:#fff;stroke-miterlimit:10;stroke-width:0.2px;}</style><clipPath id="clip-path" transform="translate(-0.02 -2.72)"><rect class="cls-1" width="116.4" height="41.22"/></clipPath></defs><title>community2-icon19</title><g class="cls-2"><g id="Layer_1" data-name="Layer 1"><g class="cls-3"><g class="cls-3"><g class="cls-4"><g class="cls-3"><path class="cls-5" d="M6.17,16.78a9,9,0,0,1-6-2.35l1.61-2A8.59,8.59,0,0,0,4,13.93a5.86,5.86,0,0,0,2.32.47,4.75,4.75,0,0,0,1.47-.2,2.11,2.11,0,0,0,1-.59,1.34,1.34,0,0,0,.34-.91,1.27,1.27,0,0,0-.5-1.08A4.21,4.21,0,0,0,6.91,11l-2.7-.47A4.62,4.62,0,0,1,1.58,9.33a3.31,3.31,0,0,1-.9-2.41,3.73,3.73,0,0,1,.65-2.19A4.08,4.08,0,0,1,3.17,3.31,7.4,7.4,0,0,1,6,2.82a9.2,9.2,0,0,1,3,.5,8.89,8.89,0,0,1,2.63,1.4L10.11,6.81A7,7,0,0,0,5.82,5.18a4.06,4.06,0,0,0-1.32.19,2,2,0,0,0-.86.53,1.17,1.17,0,0,0-.3.81,1.14,1.14,0,0,0,.45,1,3.5,3.5,0,0,0,1.49.51l2.56.43a5.64,5.64,0,0,1,3,1.29,3.34,3.34,0,0,1,1,2.53,3.86,3.86,0,0,1-.7,2.3,4.46,4.46,0,0,1-2,1.51A7.92,7.92,0,0,1,6.17,16.78Z" transform="translate(-0.02 -2.72)"/><path class="cls-5" d="M18.86,16.75A3.73,3.73,0,0,1,16.31,16a2.84,2.84,0,0,1-.86-2.24v-5H13.37V6.48h2.08V3.9l2.66-.6V6.48H21V8.69H18.1v4.5a1.35,1.35,0,0,0,.31,1,1.55,1.55,0,0,0,1.09.3,4.76,4.76,0,0,0,.71,0,4,4,0,0,0,.71-.18v2.19a5.44,5.44,0,0,1-1,.21A8.55,8.55,0,0,1,18.86,16.75Z" transform="translate(-0.02 -2.72)"/><path class="cls-5" d="M26.46,16.76a4.41,4.41,0,0,1-1.92-.4,3.14,3.14,0,0,1-1.3-1.1,2.84,2.84,0,0,1-.47-1.61,2.64,2.64,0,0,1,1.1-2.26,5,5,0,0,1,3-.81,7.47,7.47,0,0,1,2.48.41v-.74a1.61,1.61,0,0,0-.54-1.32,2.46,2.46,0,0,0-1.59-.45,5.19,5.19,0,0,0-1.38.2,12.76,12.76,0,0,0-1.71.63l-1-2a13.5,13.5,0,0,1,2.3-.81,9.12,9.12,0,0,1,2.2-.27,4.7,4.7,0,0,1,3.17,1A3.46,3.46,0,0,1,32,10v6.56H29.37v-.72a4.23,4.23,0,0,1-1.34.68A5.5,5.5,0,0,1,26.46,16.76ZM25.3,13.6a1.06,1.06,0,0,0,.5.92,2.36,2.36,0,0,0,1.34.34,4.32,4.32,0,0,0,1.22-.17,3.19,3.19,0,0,0,1-.49V12.73a5.34,5.34,0,0,0-1-.29,6.16,6.16,0,0,0-1.13-.1,2.57,2.57,0,0,0-1.43.34A1.05,1.05,0,0,0,25.3,13.6Z" transform="translate(-0.02 -2.72)"/><path class="cls-5" d="M35.78,20.76q-.35,0-.67,0l-.53-.07V18.37a4.82,4.82,0,0,0,.93.08,2,2,0,0,0,2-1.38l.15-.39L33.74,6.48h2.93l2.52,6.89L42,6.48h2.87L40.26,17.4a7.85,7.85,0,0,1-1.14,2,3.69,3.69,0,0,1-1.43,1.07A5,5,0,0,1,35.78,20.76Z" transform="translate(-0.02 -2.72)"/><path class="cls-6" d="M9.21,16.25a4.45,4.45,0,0,0,2-1.51,3.86,3.86,0,0,0,.7-2.3,3.34,3.34,0,0,0-1-2.53,5.64,5.64,0,0,0-3-1.29L5.28,8.19a3.5,3.5,0,0,1-1.49-.51,1.13,1.13,0,0,1-.45-1,1.17,1.17,0,0,1,.3-.81,2,2,0,0,1,.86-.53,4.06,4.06,0,0,1,1.32-.19,7,7,0,0,1,4.29,1.63l1.51-2.09A8.88,8.88,0,0,0,9,3.32a9.19,9.19,0,0,0-3-.5,7.4,7.4,0,0,0-2.84.49A4.08,4.08,0,0,0,1.33,4.74,3.73,3.73,0,0,0,.68,6.93a3.31,3.31,0,0,0,.9,2.41,4.62,4.62,0,0,0,2.63,1.22l2.7.46a4.23,4.23,0,0,1,1.73.59,1.27,1.27,0,0,1,.5,1.08,1.34,1.34,0,0,1-.34.91,2.11,2.11,0,0,1-1,.59,4.74,4.74,0,0,1-1.47.2A5.88,5.88,0,0,1,4,13.93a8.6,8.6,0,0,1-2.28-1.51l-1.61,2a9,9,0,0,0,6,2.35A7.92,7.92,0,0,0,9.21,16.25Z" transform="translate(-0.02 -2.72)"/><path class="cls-6" d="M19.9,16.67a5.54,5.54,0,0,0,1-.21V14.26a4,4,0,0,1-.71.18,4.79,4.79,0,0,1-.71,0,1.54,1.54,0,0,1-1.09-.3,1.35,1.35,0,0,1-.31-1V8.69H21V6.48H18.1V3.3l-2.66.6V6.48H13.37V8.69h2.07v5A2.84,2.84,0,0,0,16.31,16a3.73,3.73,0,0,0,2.55.77A8.62,8.62,0,0,0,19.9,16.67Z" transform="translate(-0.02 -2.72)"/><path class="cls-6" d="M25.83,12.68a2.57,2.57,0,0,1,1.43-.34,6.16,6.16,0,0,1,1.13.1,5.39,5.39,0,0,1,1,.29V14.2a3.18,3.18,0,0,1-1,.5,4.33,4.33,0,0,1-1.22.16,2.36,2.36,0,0,1-1.34-.34,1.09,1.09,0,0,1,0-1.84Zm2.22,3.87a4.25,4.25,0,0,0,1.34-.68v.72H32V10a3.46,3.46,0,0,0-1.13-2.76,4.7,4.7,0,0,0-3.17-1,9.13,9.13,0,0,0-2.2.27,13.42,13.42,0,0,0-2.3.81l1,2a12.91,12.91,0,0,1,1.71-.63,5.22,5.22,0,0,1,1.38-.2,2.46,2.46,0,0,1,1.59.45,1.61,1.61,0,0,1,.54,1.32V11a7.49,7.49,0,0,0-2.48-.41,5,5,0,0,0-3,.81,2.64,2.64,0,0,0-1.1,2.26,2.84,2.84,0,0,0,.47,1.61,3.14,3.14,0,0,0,1.3,1.1,4.4,4.4,0,0,0,1.92.4A5.51,5.51,0,0,0,28.06,16.55Z" transform="translate(-0.02 -2.72)"/><path class="cls-6" d="M37.71,20.43a3.69,3.69,0,0,0,1.43-1.07,7.84,7.84,0,0,0,1.15-2L44.93,6.48H42.06l-2.85,6.89L36.69,6.48H33.76l3.94,10.2-.15.39a2,2,0,0,1-2,1.38,4.81,4.81,0,0,1-.93-.08v2.29l.53.07q.32,0,.67,0A5,5,0,0,0,37.71,20.43Z" transform="translate(-0.02 -2.72)"/><path class="cls-5" d="M8,36.38a7.48,7.48,0,0,1-2.83-.53,7.06,7.06,0,0,1-2.3-1.48,6.9,6.9,0,0,1-1.53-2.22,6.91,6.91,0,0,1,1.54-7.73,7.21,7.21,0,0,1,2.3-1.48A7.41,7.41,0,0,1,8,22.4a7.64,7.64,0,0,1,2.17.31,7.91,7.91,0,0,1,1.95.87,6.13,6.13,0,0,1,1.54,1.36l-1.9,1.88a5,5,0,0,0-1.7-1.38A4.68,4.68,0,0,0,8,25a4.31,4.31,0,0,0-1.71.34A4.21,4.21,0,0,0,4,27.64a4.58,4.58,0,0,0-.33,1.76A4.53,4.53,0,0,0,4,31.14,4.11,4.11,0,0,0,5,32.53a4.31,4.31,0,0,0,1.41.92,4.76,4.76,0,0,0,3.75-.12,5,5,0,0,0,1.65-1.28l1.84,1.82a6.38,6.38,0,0,1-1.53,1.34,7.52,7.52,0,0,1-1.93.86A7.61,7.61,0,0,1,8,36.38Z" transform="translate(-0.02 -2.72)"/><path class="cls-6" d="M10.14,36.08a7.51,7.51,0,0,0,1.93-.86,6.37,6.37,0,0,0,1.53-1.34l-1.84-1.82a5,5,0,0,1-1.65,1.28,4.56,4.56,0,0,1-2,.45,4.58,4.58,0,0,1-1.76-.33A4.3,4.3,0,0,1,5,32.53,4.12,4.12,0,0,1,4,31.14a4.53,4.53,0,0,1-.33-1.74A4.59,4.59,0,0,1,4,27.64a4.29,4.29,0,0,1,.91-1.4,4.24,4.24,0,0,1,1.38-.93A4.31,4.31,0,0,1,8,25a4.68,4.68,0,0,1,2.07.46,5,5,0,0,1,1.7,1.38l1.9-1.88a6.11,6.11,0,0,0-1.54-1.36,7.9,7.9,0,0,0-1.95-.87A7.61,7.61,0,0,0,8,22.4a7.42,7.42,0,0,0-2.82.53,7.23,7.23,0,0,0-2.3,1.48,6.93,6.93,0,0,0,0,10,7.08,7.08,0,0,0,2.3,1.49A7.5,7.5,0,0,0,8,36.38,7.58,7.58,0,0,0,10.14,36.08Z" transform="translate(-0.02 -2.72)"/><path class="cls-5" d="M20.68,36.38a5.41,5.41,0,0,1-2.74-.7A5.3,5.3,0,0,1,16,33.8a5,5,0,0,1-.72-2.66A5.13,5.13,0,0,1,16,28.48a5.19,5.19,0,0,1,1.94-1.89,5.74,5.74,0,0,1,5.49,0,5.19,5.19,0,0,1,1.94,1.89,5.13,5.13,0,0,1,.71,2.67,5.08,5.08,0,0,1-.71,2.66,5.22,5.22,0,0,1-1.93,1.88A5.45,5.45,0,0,1,20.68,36.38Zm0-2.31a2.66,2.66,0,0,0,1.43-.39,2.87,2.87,0,0,0,1-1.06,3,3,0,0,0-1-4,2.73,2.73,0,0,0-2.84,0,2.87,2.87,0,0,0-1,1.06,3.19,3.19,0,0,0,0,3,2.77,2.77,0,0,0,1,1.06A2.68,2.68,0,0,0,20.68,34.08Z" transform="translate(-0.02 -2.72)"/><path class="cls-5" d="M28.48,36.19V26.08h2.66v.78a4.09,4.09,0,0,1,4.4-.57,3.49,3.49,0,0,1,1.28,1.12,4.18,4.18,0,0,1,1.46-1.12,4.42,4.42,0,0,1,1.87-.39,3.85,3.85,0,0,1,2,.51,3.67,3.67,0,0,1,1.36,1.42,4.31,4.31,0,0,1,.49,2.1v6.27H41.38V30.31a2.22,2.22,0,0,0-.52-1.56,1.8,1.8,0,0,0-1.4-.57,2.38,2.38,0,0,0-1.1.25,2.28,2.28,0,0,0-.84.76l0,.35a3.6,3.6,0,0,1,0,.39v6.27H34.92V30.31a2.25,2.25,0,0,0-.51-1.56A1.77,1.77,0,0,0,33,28.18a2.41,2.41,0,0,0-1.08.23,2.12,2.12,0,0,0-.81.7v7.08Z" transform="translate(-0.02 -2.72)"/><path class="cls-5" d="M46.81,36.19V26.08h2.66v.78a4.09,4.09,0,0,1,4.4-.57,3.49,3.49,0,0,1,1.28,1.12,4.18,4.18,0,0,1,1.46-1.12,4.43,4.43,0,0,1,1.87-.39,3.85,3.85,0,0,1,2,.51,3.68,3.68,0,0,1,1.36,1.42,4.3,4.3,0,0,1,.49,2.1v6.27H59.71V30.31a2.22,2.22,0,0,0-.52-1.56,1.8,1.8,0,0,0-1.4-.57,2.38,2.38,0,0,0-1.1.25,2.28,2.28,0,0,0-.84.76l0,.35a3.6,3.6,0,0,1,0,.39v6.27H53.26V30.31a2.25,2.25,0,0,0-.51-1.56,1.77,1.77,0,0,0-1.39-.57,2.41,2.41,0,0,0-1.08.23,2.12,2.12,0,0,0-.81.7v7.08Z" transform="translate(-0.02 -2.72)"/><path class="cls-5" d="M69,36.38a4.1,4.1,0,0,1-2.07-.51,3.69,3.69,0,0,1-1.42-1.43A4.19,4.19,0,0,1,65,32.35V26.08h2.66V32a2.12,2.12,0,0,0,.57,1.55,2.06,2.06,0,0,0,1.54.58,2.67,2.67,0,0,0,1.19-.26,2.34,2.34,0,0,0,.88-.75v-7h2.66V36.19H71.8v-.81A4.21,4.21,0,0,1,69,36.38Z" transform="translate(-0.02 -2.72)"/><path class="cls-5" d="M77.31,36.19V26.08H80v.83a4.09,4.09,0,0,1,2.83-1,4.14,4.14,0,0,1,2.08.51,3.66,3.66,0,0,1,1.41,1.42,4.24,4.24,0,0,1,.5,2.1v6.27H84.14V30.31a2.13,2.13,0,0,0-.56-1.56A2,2,0,0,0,82,28.18a2.65,2.65,0,0,0-1.2.26,2.37,2.37,0,0,0-.87.75v7Z" transform="translate(-0.02 -2.72)"/><path class="cls-6" d="M19.27,33.69a2.78,2.78,0,0,1-1-1.06,3.19,3.19,0,0,1,0-3,2.88,2.88,0,0,1,1-1.06,2.74,2.74,0,0,1,2.84,0,3,3,0,0,1,1,1.06,3.12,3.12,0,0,1,0,3,2.88,2.88,0,0,1-1,1.06,2.8,2.8,0,0,1-2.84,0Zm4.17,2a5.23,5.23,0,0,0,1.93-1.88,5.07,5.07,0,0,0,.71-2.66,5.13,5.13,0,0,0-.71-2.67,5.19,5.19,0,0,0-1.94-1.89,5.75,5.75,0,0,0-5.49,0A5.2,5.2,0,0,0,16,28.48a5.13,5.13,0,0,0-.71,2.67A5,5,0,0,0,16,33.8a5.31,5.31,0,0,0,1.94,1.88,5.75,5.75,0,0,0,5.49,0Z" transform="translate(-0.02 -2.72)"/><path class="cls-6" d="M31.14,36.19V29.11a2.12,2.12,0,0,1,.8-.7A2.4,2.4,0,0,1,33,28.18a1.77,1.77,0,0,1,1.39.57,2.26,2.26,0,0,1,.51,1.56v5.88h2.66V29.92a3.52,3.52,0,0,0,0-.39l0-.35a2.29,2.29,0,0,1,.85-.76,2.37,2.37,0,0,1,1.09-.25,1.8,1.8,0,0,1,1.4.57,2.23,2.23,0,0,1,.52,1.56v5.88H44V29.92a4.32,4.32,0,0,0-.49-2.11,3.67,3.67,0,0,0-1.36-1.42,3.85,3.85,0,0,0-2-.51,4.43,4.43,0,0,0-1.87.39,4.19,4.19,0,0,0-1.47,1.13,3.48,3.48,0,0,0-1.28-1.12,4.09,4.09,0,0,0-4.4.57v-.78H28.48V36.19Z" transform="translate(-0.02 -2.72)"/><path class="cls-6" d="M49.47,36.19V29.11a2.12,2.12,0,0,1,.8-.7,2.4,2.4,0,0,1,1.08-.23,1.77,1.77,0,0,1,1.39.57,2.26,2.26,0,0,1,.51,1.56v5.88h2.66V29.92a3.52,3.52,0,0,0,0-.39l0-.35a2.29,2.29,0,0,1,.84-.76,2.37,2.37,0,0,1,1.1-.25,1.8,1.8,0,0,1,1.4.57,2.23,2.23,0,0,1,.52,1.56v5.88h2.64V29.92a4.32,4.32,0,0,0-.49-2.11A3.67,3.67,0,0,0,60.5,26.4a3.85,3.85,0,0,0-2-.51,4.43,4.43,0,0,0-1.87.39,4.19,4.19,0,0,0-1.47,1.13,3.48,3.48,0,0,0-1.28-1.12,4.09,4.09,0,0,0-4.4.57v-.78H46.82V36.19Z" transform="translate(-0.02 -2.72)"/><path class="cls-6" d="M71.82,35.37v.82h2.66V26.08H71.82v7a2.35,2.35,0,0,1-.88.75,2.68,2.68,0,0,1-1.19.26,2.06,2.06,0,0,1-1.54-.58A2.12,2.12,0,0,1,67.63,32V26.08H65v6.27a4.19,4.19,0,0,0,.51,2.1,3.7,3.7,0,0,0,1.42,1.43,4.1,4.1,0,0,0,2.07.51A4.2,4.2,0,0,0,71.82,35.37Z" transform="translate(-0.02 -2.72)"/><path class="cls-6" d="M80,36.19v-7a2.34,2.34,0,0,1,.87-.75,2.65,2.65,0,0,1,1.2-.26,2.05,2.05,0,0,1,1.53.57,2.13,2.13,0,0,1,.56,1.56v5.88h2.66V29.92a4.24,4.24,0,0,0-.5-2.11,3.65,3.65,0,0,0-1.41-1.42,4.14,4.14,0,0,0-2.09-.51,4.08,4.08,0,0,0-2.83,1v-.83H77.33V36.19Z" transform="translate(-0.02 -2.72)"/><path class="cls-5" d="M90.93,24.88a1.52,1.52,0,0,1-1.07-2.59A1.52,1.52,0,0,1,92,24.43,1.44,1.44,0,0,1,90.93,24.88ZM89.61,36.19V26.08h2.66V36.19Z" transform="translate(-0.02 -2.72)"/><path class="cls-6" d="M92,24.43a1.52,1.52,0,0,0-2.14-2.14A1.52,1.52,0,1,0,92,24.43Zm.26,1.65H89.61V36.19h2.66Z" transform="translate(-0.02 -2.72)"/><path class="cls-5" d="M100.11,36.35a3.73,3.73,0,0,1-2.55-.77,2.84,2.84,0,0,1-.86-2.24v-5H94.62V26.08h2.08V23.5l2.66-.6v3.18h2.89v2.21H99.35v4.5a1.35,1.35,0,0,0,.31,1,1.55,1.55,0,0,0,1.09.3,4.75,4.75,0,0,0,.71,0,3.93,3.93,0,0,0,.71-.18v2.19a5.42,5.42,0,0,1-1,.21A8.45,8.45,0,0,1,100.11,36.35Z" transform="translate(-0.02 -2.72)"/><path class="cls-6" d="M101.14,36.27a5.54,5.54,0,0,0,1-.21V33.86a4,4,0,0,1-.71.18,4.79,4.79,0,0,1-.71,0,1.54,1.54,0,0,1-1.09-.3,1.35,1.35,0,0,1-.31-1v-4.5h2.89V26.08H99.35V22.9l-2.66.6v2.58H94.62v2.21h2.07v5a2.84,2.84,0,0,0,.86,2.24,3.73,3.73,0,0,0,2.55.77A8.62,8.62,0,0,0,101.14,36.27Z" transform="translate(-0.02 -2.72)"/><path class="cls-5" d="M106.18,40.36c-.23,0-.46,0-.67,0l-.53-.07V38a4.9,4.9,0,0,0,.93.08,2,2,0,0,0,2-1.38l.16-.39-3.94-10.2h2.93L109.59,33l2.85-6.89h2.87L110.66,37a7.87,7.87,0,0,1-1.14,2A3.69,3.69,0,0,1,108.09,40,5,5,0,0,1,106.18,40.36Z" transform="translate(-0.02 -2.72)"/><path class="cls-6" d="M108.09,40A3.69,3.69,0,0,0,109.51,39a7.84,7.84,0,0,0,1.15-2l4.66-10.92h-2.87L109.59,33l-2.52-6.89h-2.93l3.94,10.21-.15.39a2,2,0,0,1-2,1.38A4.81,4.81,0,0,1,105,38v2.29l.53.07q.32,0,.67,0A5,5,0,0,0,108.09,40Z" transform="translate(-0.02 -2.72)"/></g></g></g></g></g></g></svg>