<svg id="Layer_1" data-name="Layer 1" xmlns="http://www.w3.org/2000/svg" xmlns:xlink="http://www.w3.org/1999/xlink" viewBox="0 0 66.18 9.68"><defs><style>.cls-1{fill:none;}.cls-2{clip-path:url(#clip-path);}.cls-3{fill:#010101;}</style><clipPath id="clip-path" transform="translate(-0.58 -0.96)"><rect class="cls-1" width="67.54" height="11.04"/></clipPath></defs><title>community2-txt13</title><g class="cls-2"><path class="cls-3" d="M.58,8.5v-7H2.3V7H6V8.5Z" transform="translate(-0.58 -0.96)"/><path class="cls-3" d="M9.85,8.6a2.93,2.93,0,0,1-1.46-.36,2.78,2.78,0,0,1-1-1A2.6,2.6,0,0,1,7,5.86a2.63,2.63,0,0,1,.38-1.4,2.77,2.77,0,0,1,1-1,3.1,3.1,0,0,1,2.92,0,2.77,2.77,0,0,1,1,1,2.64,2.64,0,0,1,.38,1.4,2.61,2.61,0,0,1-.38,1.39,2.79,2.79,0,0,1-1,1A2.93,2.93,0,0,1,9.85,8.6Zm0-1.4A1.23,1.23,0,0,0,10.51,7,1.3,1.3,0,0,0,11,6.54a1.37,1.37,0,0,0,.17-.68A1.39,1.39,0,0,0,11,5.17a1.3,1.3,0,0,0-.46-.48,1.28,1.28,0,0,0-1.31,0,1.3,1.3,0,0,0-.47.48,1.39,1.39,0,0,0-.17.69,1.37,1.37,0,0,0,.17.68A1.29,1.29,0,0,0,9.19,7,1.23,1.23,0,0,0,9.85,7.2Z" transform="translate(-0.58 -0.96)"/><path class="cls-3" d="M16,8.6A2.18,2.18,0,0,1,15,8.33a1.93,1.93,0,0,1-.75-.75,2.23,2.23,0,0,1-.27-1.11V3.21h1.62v3a.91.91,0,0,0,1,1,1.29,1.29,0,0,0,.55-.11,1.08,1.08,0,0,0,.4-.31V3.21h1.62V8.5H17.47V8.14A2.27,2.27,0,0,1,16,8.6Z" transform="translate(-0.58 -0.96)"/><path class="cls-3" d="M20.59,8.5V3.21h1.62v.36a2.27,2.27,0,0,1,1.42-.46,2.18,2.18,0,0,1,1.09.27,1.94,1.94,0,0,1,.75.75,2.22,2.22,0,0,1,.27,1.11V8.5H24.12v-3a.9.9,0,0,0-1-1,1.27,1.27,0,0,0-.54.11,1.19,1.19,0,0,0-.4.31V8.5Z" transform="translate(-0.58 -0.96)"/><path class="cls-3" d="M29.89,10.64a5.93,5.93,0,0,1-1.22-.12,4.71,4.71,0,0,1-1-.34l.54-1.26a4.42,4.42,0,0,0,.85.3,3.63,3.63,0,0,0,.84.1,1.36,1.36,0,0,0,.86-.23A.83.83,0,0,0,31,8.4V8.1a2.39,2.39,0,0,1-1.37.42,2.62,2.62,0,0,1-1.36-.36,2.69,2.69,0,0,1-1-1,2.65,2.65,0,0,1-.36-1.36,2.59,2.59,0,0,1,.37-1.36,2.67,2.67,0,0,1,1-1,2.77,2.77,0,0,1,1.39-.35,2.72,2.72,0,0,1,.7.09,2.51,2.51,0,0,1,.63.26V3.21h1.6V8.42a2,2,0,0,1-.71,1.65A3.15,3.15,0,0,1,29.89,10.64Zm0-3.48a1.74,1.74,0,0,0,.6-.1A1.45,1.45,0,0,0,31,6.77V4.9a1.62,1.62,0,0,0-.48-.28,1.65,1.65,0,0,0-.59-.11,1.43,1.43,0,0,0-.71.18,1.36,1.36,0,0,0-.5.47,1.22,1.22,0,0,0-.19.67,1.33,1.33,0,0,0,.18.69,1.3,1.3,0,0,0,.5.48A1.43,1.43,0,0,0,29.92,7.16Z" transform="translate(-0.58 -0.96)"/><path class="cls-3" d="M36.77,8.6a3,3,0,0,1-1.46-.36,2.78,2.78,0,0,1-1-1,2.61,2.61,0,0,1-.38-1.39,2.69,2.69,0,0,1,1.36-2.37,2.74,2.74,0,0,1,1.4-.36A2.55,2.55,0,0,1,38,3.5a2.65,2.65,0,0,1,.94,1A3.13,3.13,0,0,1,39.32,6v.4H35.55a1.47,1.47,0,0,0,.29.44,1.26,1.26,0,0,0,.45.29,1.47,1.47,0,0,0,.56.11,1.64,1.64,0,0,0,.6-.11,1.31,1.31,0,0,0,.46-.29L39,7.8a3.4,3.4,0,0,1-1,.61A3.49,3.49,0,0,1,36.77,8.6ZM35.52,5.28h2.21a1.18,1.18,0,0,0-.24-.44,1.23,1.23,0,0,0-.39-.29,1.1,1.1,0,0,0-.48-.1,1.17,1.17,0,0,0-.49.1,1.05,1.05,0,0,0-.37.29A1.25,1.25,0,0,0,35.52,5.28Z" transform="translate(-0.58 -0.96)"/><path class="cls-3" d="M46.62,8.6a4,4,0,0,1-1.48-.27,3.68,3.68,0,0,1-1.2-.77A3.5,3.5,0,0,1,42.86,5a3.52,3.52,0,0,1,.29-1.42,3.47,3.47,0,0,1,.8-1.15,3.74,3.74,0,0,1,1.2-.77,4,4,0,0,1,2.62-.1,4.1,4.1,0,0,1,1,.48,3.06,3.06,0,0,1,.79.72L48.43,3.9a2.5,2.5,0,0,0-.83-.7,2.15,2.15,0,0,0-1-.23,2,2,0,0,0-1.42.58,1.91,1.91,0,0,0-.42.64,2.14,2.14,0,0,0-.15.81,2,2,0,0,0,.58,1.43,1.92,1.92,0,0,0,.65.43,2.18,2.18,0,0,0,.82.15,2.06,2.06,0,0,0,.94-.22,2.42,2.42,0,0,0,.79-.65l1.13,1.11a3.18,3.18,0,0,1-.79.71,3.94,3.94,0,0,1-1,.47A3.84,3.84,0,0,1,46.62,8.6Z" transform="translate(-0.58 -0.96)"/><path class="cls-3" d="M52.38,8.59a2.26,2.26,0,0,1-1-.21,1.66,1.66,0,0,1-.68-.58A1.51,1.51,0,0,1,50.46,7,1.37,1.37,0,0,1,51,5.77a2.71,2.71,0,0,1,1.61-.42,4.79,4.79,0,0,1,1.2.15V5.25a.7.7,0,0,0-.26-.6,1.23,1.23,0,0,0-.75-.19,2.8,2.8,0,0,0-.69.1,6.77,6.77,0,0,0-.91.32l-.58-1.19a7.23,7.23,0,0,1,1.25-.44,5.2,5.2,0,0,1,1.21-.15,2.54,2.54,0,0,1,1.71.52,1.84,1.84,0,0,1,.61,1.48V8.5h-1.6V8.18a2.17,2.17,0,0,1-.68.32A3,3,0,0,1,52.38,8.59ZM52,6.92a.44.44,0,0,0,.22.39,1.13,1.13,0,0,0,.61.14,2.37,2.37,0,0,0,.54-.06,1.55,1.55,0,0,0,.47-.19V6.52a3.61,3.61,0,0,0-.47-.09,3.85,3.85,0,0,0-.49,0,1.29,1.29,0,0,0-.65.14A.42.42,0,0,0,52,6.92Z" transform="translate(-0.58 -0.96)"/><path class="cls-3" d="M57.58,8.5V4.56H56.42V3.21h1.16V2.89a1.83,1.83,0,0,1,.55-1.44,2.32,2.32,0,0,1,1.6-.5l.46,0a2.14,2.14,0,0,1,.4.08V2.4l-.33-.05-.3,0a.91.91,0,0,0-.56.15.52.52,0,0,0-.19.44v.29h1.39V4.56H59.2V8.5Z" transform="translate(-0.58 -0.96)"/><path class="cls-3" d="M64.21,8.6a3,3,0,0,1-1.46-.36,2.78,2.78,0,0,1-1-1,2.61,2.61,0,0,1-.38-1.39,2.69,2.69,0,0,1,1.36-2.37,2.74,2.74,0,0,1,1.4-.36,2.55,2.55,0,0,1,1.38.38,2.65,2.65,0,0,1,.94,1A3.13,3.13,0,0,1,66.76,6v.4H63a1.47,1.47,0,0,0,.29.44,1.26,1.26,0,0,0,.45.29,1.47,1.47,0,0,0,.56.11,1.64,1.64,0,0,0,.6-.11,1.31,1.31,0,0,0,.46-.29l1.07,1a3.4,3.4,0,0,1-1,.61A3.49,3.49,0,0,1,64.21,8.6ZM63,5.28h2.21a1.18,1.18,0,0,0-.24-.44,1.23,1.23,0,0,0-.39-.29,1.1,1.1,0,0,0-.48-.1,1.17,1.17,0,0,0-.49.1,1.05,1.05,0,0,0-.37.29A1.25,1.25,0,0,0,63,5.28Z" transform="translate(-0.58 -0.96)"/></g></svg>