<svg id="Layer_1" data-name="Layer 1" xmlns="http://www.w3.org/2000/svg" xmlns:xlink="http://www.w3.org/1999/xlink" viewBox="0 0 106.29 7.64"><defs><style>.cls-1{fill:none;}.cls-2{clip-path:url(#clip-path);}.cls-3{fill:#010101;}</style><clipPath id="clip-path" transform="translate(-0.33 -2.16)"><rect class="cls-1" width="108.08" height="12.24"/></clipPath></defs><title>community2-txt11</title><g class="cls-2"><path class="cls-3" d="M4.09,9.8A4,4,0,0,1,2.6,9.53a3.69,3.69,0,0,1-1.19-.77A3.5,3.5,0,0,1,.33,6.2,3.52,3.52,0,0,1,.62,4.78a3.48,3.48,0,0,1,.8-1.15,3.75,3.75,0,0,1,1.2-.77,4,4,0,0,1,2.61-.1,4.11,4.11,0,0,1,1,.48A3.08,3.08,0,0,1,7.06,4L5.9,5.1a2.49,2.49,0,0,0-.82-.7,2.15,2.15,0,0,0-1-.23,2,2,0,0,0-1.42.58,1.92,1.92,0,0,0-.42.64,2.13,2.13,0,0,0-.15.81,2,2,0,0,0,.58,1.43,1.92,1.92,0,0,0,.65.43,2.18,2.18,0,0,0,.81.15A2.07,2.07,0,0,0,5.1,8a2.43,2.43,0,0,0,.78-.65L7,8.45a3.2,3.2,0,0,1-.79.71,3.94,3.94,0,0,1-1,.47A3.83,3.83,0,0,1,4.09,9.8Z" transform="translate(-0.33 -2.16)"/><path class="cls-3" d="M10.64,9.8a2.93,2.93,0,0,1-1.46-.36,2.78,2.78,0,0,1-1-1,2.61,2.61,0,0,1-.38-1.39,2.63,2.63,0,0,1,.38-1.4,2.77,2.77,0,0,1,1-1,3.1,3.1,0,0,1,2.92,0,2.77,2.77,0,0,1,1,1,2.64,2.64,0,0,1,.38,1.4,2.61,2.61,0,0,1-.38,1.39,2.79,2.79,0,0,1-1,1A2.93,2.93,0,0,1,10.64,9.8Zm0-1.4a1.23,1.23,0,0,0,.66-.18,1.3,1.3,0,0,0,.46-.48,1.36,1.36,0,0,0,.17-.67,1.38,1.38,0,0,0-.17-.69,1.3,1.3,0,0,0-.46-.48,1.28,1.28,0,0,0-1.31,0,1.3,1.3,0,0,0-.47.48,1.38,1.38,0,0,0-.17.69,1.36,1.36,0,0,0,.17.67,1.29,1.29,0,0,0,.47.48A1.23,1.23,0,0,0,10.64,8.4Z" transform="translate(-0.33 -2.16)"/><path class="cls-3" d="M14.77,9.7V4.41h1.62v.36a2.27,2.27,0,0,1,1.42-.46,2.18,2.18,0,0,1,1.09.27,1.94,1.94,0,0,1,.75.75,2.22,2.22,0,0,1,.27,1.11V9.7H18.3v-3a.9.9,0,0,0-1-1,1.27,1.27,0,0,0-.54.11,1.19,1.19,0,0,0-.4.31V9.7Z" transform="translate(-0.33 -2.16)"/><path class="cls-3" d="M22.07,9.7V5.76H20.91V4.41h1.16V4.09a1.82,1.82,0,0,1,.56-1.44,2.32,2.32,0,0,1,1.6-.5l.45,0a2.15,2.15,0,0,1,.41.08V3.6l-.33-.05-.31,0a.91.91,0,0,0-.56.15.52.52,0,0,0-.19.44v.29h1.39V5.76H23.69V9.7Z" transform="translate(-0.33 -2.16)"/><path class="cls-3" d="M28.7,9.8a3,3,0,0,1-1.47-.36,2.77,2.77,0,0,1-1-1,2.61,2.61,0,0,1-.38-1.39,2.68,2.68,0,0,1,.37-1.39,2.71,2.71,0,0,1,1-1,2.74,2.74,0,0,1,1.4-.36A2.55,2.55,0,0,1,30,4.7a2.65,2.65,0,0,1,.95,1,3.13,3.13,0,0,1,.34,1.49v.4H27.48a1.47,1.47,0,0,0,.29.44,1.27,1.27,0,0,0,.45.29,1.48,1.48,0,0,0,.56.11,1.63,1.63,0,0,0,.6-.11A1.3,1.3,0,0,0,29.84,8l1.07,1a3.41,3.41,0,0,1-1,.61A3.48,3.48,0,0,1,28.7,9.8ZM27.45,6.48h2.21A1.19,1.19,0,0,0,29.41,6,1.22,1.22,0,0,0,29,5.74a1.1,1.1,0,0,0-.48-.1,1.17,1.17,0,0,0-.49.1,1.05,1.05,0,0,0-.37.29A1.25,1.25,0,0,0,27.45,6.48Z" transform="translate(-0.33 -2.16)"/><path class="cls-3" d="M32.51,9.7V4.41h1.62v.53a1.74,1.74,0,0,1,.61-.49,1.81,1.81,0,0,1,.78-.17,1.2,1.2,0,0,1,.61.13V5.83a1.45,1.45,0,0,0-.36-.12,2.1,2.1,0,0,0-.41,0,1.46,1.46,0,0,0-.71.17,1.39,1.39,0,0,0-.52.49V9.7Z" transform="translate(-0.33 -2.16)"/><path class="cls-3" d="M39.82,9.8a3,3,0,0,1-1.47-.36,2.77,2.77,0,0,1-1-1,2.61,2.61,0,0,1-.38-1.39,2.68,2.68,0,0,1,.37-1.39,2.71,2.71,0,0,1,1-1,2.74,2.74,0,0,1,1.4-.36,2.55,2.55,0,0,1,1.38.38,2.65,2.65,0,0,1,.95,1,3.13,3.13,0,0,1,.34,1.49v.4H38.6a1.47,1.47,0,0,0,.29.44,1.27,1.27,0,0,0,.45.29,1.48,1.48,0,0,0,.56.11,1.63,1.63,0,0,0,.6-.11A1.3,1.3,0,0,0,41,8L42,9a3.41,3.41,0,0,1-1,.61A3.48,3.48,0,0,1,39.82,9.8ZM38.57,6.48h2.21A1.19,1.19,0,0,0,40.53,6a1.22,1.22,0,0,0-.38-.29,1.1,1.1,0,0,0-.48-.1,1.17,1.17,0,0,0-.49.1A1.05,1.05,0,0,0,38.8,6,1.25,1.25,0,0,0,38.57,6.48Z" transform="translate(-0.33 -2.16)"/><path class="cls-3" d="M43.62,9.7V4.41h1.62v.36a2.27,2.27,0,0,1,1.42-.46,2.18,2.18,0,0,1,1.09.27,1.94,1.94,0,0,1,.75.75,2.22,2.22,0,0,1,.27,1.11V9.7H47.15v-3a.9.9,0,0,0-1-1,1.27,1.27,0,0,0-.54.11,1.19,1.19,0,0,0-.4.31V9.7Z" transform="translate(-0.33 -2.16)"/><path class="cls-3" d="M52.79,9.8a2.84,2.84,0,0,1-1.43-.36A2.69,2.69,0,0,1,50,7.06a2.68,2.68,0,0,1,.37-1.4,2.74,2.74,0,0,1,1-1,2.81,2.81,0,0,1,1.43-.37A3.09,3.09,0,0,1,54,4.57a2.77,2.77,0,0,1,1,.72l-1,1a1.93,1.93,0,0,0-.57-.47,1.42,1.42,0,0,0-.64-.15,1.16,1.16,0,0,0-.63.18,1.23,1.23,0,0,0-.44.48,1.47,1.47,0,0,0-.16.7,1.41,1.41,0,0,0,.17.68,1.23,1.23,0,0,0,1.1.66,1.34,1.34,0,0,0,.61-.14A1.84,1.84,0,0,0,54,7.83l1,1a2.73,2.73,0,0,1-1,.71A3,3,0,0,1,52.79,9.8Z" transform="translate(-0.33 -2.16)"/><path class="cls-3" d="M58.61,9.8a3,3,0,0,1-1.46-.36,2.78,2.78,0,0,1-1-1,2.61,2.61,0,0,1-.38-1.39,2.69,2.69,0,0,1,1.36-2.38,2.74,2.74,0,0,1,1.4-.36,2.55,2.55,0,0,1,1.38.38,2.65,2.65,0,0,1,.94,1,3.13,3.13,0,0,1,.35,1.49v.4H57.39a1.47,1.47,0,0,0,.29.44,1.26,1.26,0,0,0,.45.29,1.47,1.47,0,0,0,.56.11,1.64,1.64,0,0,0,.6-.11A1.31,1.31,0,0,0,59.75,8l1.07,1a3.4,3.4,0,0,1-1,.61A3.49,3.49,0,0,1,58.61,9.8ZM57.36,6.48h2.21A1.18,1.18,0,0,0,59.32,6a1.23,1.23,0,0,0-.39-.29,1.1,1.1,0,0,0-.48-.1,1.17,1.17,0,0,0-.49.1,1.05,1.05,0,0,0-.37.29A1.26,1.26,0,0,0,57.36,6.48Z" transform="translate(-0.33 -2.16)"/><path class="cls-3" d="M64.71,9.7v-7h3.58A2.79,2.79,0,0,1,69.57,3a2.16,2.16,0,0,1,.88.79,2.14,2.14,0,0,1,.31,1.15,2,2,0,0,1-.36,1.18,2.29,2.29,0,0,1-.95.79L71,9.7H69.06L67.74,7.15H66.43V9.7Zm1.72-4h1.7a.93.93,0,0,0,.64-.22.79.79,0,0,0,0-1.14.93.93,0,0,0-.64-.22h-1.7Z" transform="translate(-0.33 -2.16)"/><path class="cls-3" d="M74.69,9.8a2.93,2.93,0,0,1-1.46-.36,2.79,2.79,0,0,1-1-1,2.61,2.61,0,0,1-.38-1.39,2.64,2.64,0,0,1,.38-1.4,2.77,2.77,0,0,1,1-1,3.1,3.1,0,0,1,2.92,0,2.77,2.77,0,0,1,1,1,2.64,2.64,0,0,1,.38,1.4,2.61,2.61,0,0,1-.38,1.39,2.79,2.79,0,0,1-1,1A2.93,2.93,0,0,1,74.69,9.8Zm0-1.4a1.22,1.22,0,0,0,.66-.18,1.3,1.3,0,0,0,.46-.48A1.36,1.36,0,0,0,76,7.06a1.38,1.38,0,0,0-.17-.69,1.3,1.3,0,0,0-.46-.48,1.28,1.28,0,0,0-1.31,0,1.3,1.3,0,0,0-.46.48,1.38,1.38,0,0,0-.17.69,1.36,1.36,0,0,0,.17.67,1.29,1.29,0,0,0,.46.48A1.23,1.23,0,0,0,74.69,8.4Z" transform="translate(-0.33 -2.16)"/><path class="cls-3" d="M81.45,9.8A2.93,2.93,0,0,1,80,9.44a2.79,2.79,0,0,1-1-1,2.61,2.61,0,0,1-.38-1.39A2.64,2.64,0,0,1,79,5.66a2.77,2.77,0,0,1,1-1,3.1,3.1,0,0,1,2.92,0,2.77,2.77,0,0,1,1,1,2.64,2.64,0,0,1,.38,1.4,2.61,2.61,0,0,1-.38,1.39,2.79,2.79,0,0,1-1,1A2.93,2.93,0,0,1,81.45,9.8Zm0-1.4a1.22,1.22,0,0,0,.66-.18,1.3,1.3,0,0,0,.46-.48,1.36,1.36,0,0,0,.17-.67,1.38,1.38,0,0,0-.17-.69,1.3,1.3,0,0,0-.46-.48,1.28,1.28,0,0,0-1.31,0,1.3,1.3,0,0,0-.46.48,1.38,1.38,0,0,0-.17.69,1.36,1.36,0,0,0,.17.67,1.29,1.29,0,0,0,.46.48A1.23,1.23,0,0,0,81.45,8.4Z" transform="translate(-0.33 -2.16)"/><path class="cls-3" d="M85.48,9.7V4.41H87.1v.34a2.21,2.21,0,0,1,2.22-.25A1.83,1.83,0,0,1,90,5a2.22,2.22,0,0,1,.76-.54,2.4,2.4,0,0,1,1-.19,2.06,2.06,0,0,1,1.06.27,1.94,1.94,0,0,1,.72.75,2.26,2.26,0,0,1,.27,1.11V9.7H92.14v-3a1,1,0,0,0-.24-.7.8.8,0,0,0-.62-.26,1.17,1.17,0,0,0-.49.1,1,1,0,0,0-.38.3c0,.05,0,.11,0,.17s0,.12,0,.17V9.7H88.81v-3a1,1,0,0,0-.24-.7A.8.8,0,0,0,88,5.7a1.18,1.18,0,0,0-.48.1.94.94,0,0,0-.37.28V9.7Z" transform="translate(-0.33 -2.16)"/></g><path class="cls-3" d="M98.44,4.34a4,4,0,0,0-.76,2.45,4,4,0,0,0,.76,2.43H98a3.88,3.88,0,0,1-.79-2.43A4,4,0,0,1,98,4.34Z" transform="translate(-0.33 -2.16)"/><path class="cls-3" d="M103.58,7.32c0-.56-.07-1.24-.06-1.74h0c-.14.47-.31,1-.51,1.53l-.71,2h-.4l-.65-1.92c-.19-.57-.35-1.09-.47-1.57h0c0,.5,0,1.18-.08,1.79l-.11,1.73h-.5l.28-4H101l.69,2c.17.5.31.94.41,1.36h0c.1-.41.25-.85.43-1.36l.72-2h.67l.25,4h-.51Z" transform="translate(-0.33 -2.16)"/><path class="cls-3" d="M105.43,9.23a4.06,4.06,0,0,0,.76-2.45,4,4,0,0,0-.76-2.44h.41a3.82,3.82,0,0,1,.79,2.44,3.89,3.89,0,0,1-.79,2.45Z" transform="translate(-0.33 -2.16)"/></svg>