<svg id="CONTENTS" xmlns="http://www.w3.org/2000/svg" viewBox="0 0 11.19 6.4"><defs><style>.cls-1{fill:#010101;}</style></defs><title>community2-name18</title><g id="_02" data-name="02"><g id="아이콘"><g id="아이콘_카피1" data-name="아이콘 카피1"><g id="R2"><path class="cls-1" d="M402.41,671.86v-6.3h3.08a2.47,2.47,0,0,1,1.13.25,1.84,1.84,0,0,1,1,1.71,1.76,1.76,0,0,1-.33,1.06,2,2,0,0,1-.89.68l1.39,2.6h-1.46l-1.23-2.41h-1.42v2.41Zm1.31-3.48h1.66a1,1,0,0,0,.71-.23.84.84,0,0,0,0-1.22,1,1,0,0,0-.71-.23h-1.66Z" transform="translate(-402.41 -665.46)"/><path class="cls-1" d="M409.21,671.86V671l2.63-2.66a2.67,2.67,0,0,0,.3-.37,1.28,1.28,0,0,0,.16-.34,1.18,1.18,0,0,0,0-.34.72.72,0,0,0-.29-.58,1.15,1.15,0,0,0-.74-.23,1.84,1.84,0,0,0-.8.18,3.23,3.23,0,0,0-.81.6l-.67-.81a3.87,3.87,0,0,1,1.11-.74,3,3,0,0,1,1.21-.25,2.64,2.64,0,0,1,1.12.23,1.8,1.8,0,0,1,.76.62,1.61,1.61,0,0,1,.27.93,1.9,1.9,0,0,1-.09.58,2.06,2.06,0,0,1-.27.54,4.28,4.28,0,0,1-.5.59l-1.91,1.92h2.87v1Z" transform="translate(-402.41 -665.46)"/></g></g></g></g></svg>