<svg id="CONTENTS" xmlns="http://www.w3.org/2000/svg" viewBox="0 0 12.63 6.5"><defs><style>.cls-1{fill:#010101;}</style></defs><title>community2-name2</title><g id="_02" data-name="02"><g id="아이콘"><g id="아이콘_카피1" data-name="아이콘 카피1"><g id="O2"><path class="cls-1" d="M311.5,363a3.4,3.4,0,0,1-1.31-.25,3.26,3.26,0,0,1-1.77-1.73,3.29,3.29,0,0,1,0-2.55,3.26,3.26,0,0,1,1.77-1.73,3.57,3.57,0,0,1,2.61,0,3.25,3.25,0,0,1,1.06.69,3.24,3.24,0,0,1,0,4.62,3.25,3.25,0,0,1-1.06.69A3.43,3.43,0,0,1,311.5,363Zm0-1.2a2,2,0,0,0,.79-.16,2,2,0,0,0,1.05-1.08,2.23,2.23,0,0,0,0-1.62,2,2,0,0,0-1.05-1.08,2,2,0,0,0-.79-.16,1.93,1.93,0,0,0-.78.16,2,2,0,0,0-1.05,1.08,2.1,2.1,0,0,0-.15.81,2.16,2.16,0,0,0,.15.82,2,2,0,0,0,1.05,1.08A1.93,1.93,0,0,0,311.5,361.77Z" transform="translate(-308.17 -356.46)"/><path class="cls-1" d="M316.41,362.86V362l2.63-2.66a2.73,2.73,0,0,0,.3-.37,1.28,1.28,0,0,0,.16-.34,1.19,1.19,0,0,0,0-.34.72.72,0,0,0-.29-.58,1.15,1.15,0,0,0-.74-.23,1.84,1.84,0,0,0-.8.18,3.23,3.23,0,0,0-.81.6l-.67-.81a3.88,3.88,0,0,1,1.11-.74,3,3,0,0,1,1.21-.25,2.65,2.65,0,0,1,1.12.23,1.81,1.81,0,0,1,.76.62,1.61,1.61,0,0,1,.27.93,1.89,1.89,0,0,1-.09.58,2.07,2.07,0,0,1-.27.54,4.31,4.31,0,0,1-.5.59l-1.91,1.92h2.87v1Z" transform="translate(-308.17 -356.46)"/></g></g></g></g></svg>