<svg id="CONTENTS" xmlns="http://www.w3.org/2000/svg" viewBox="0 0 16.79 6.5"><defs><style>.cls-1{fill:#010101;}</style></defs><title>community2-name15</title><g id="_02" data-name="02"><g id="아이콘"><g id="아이콘_카피1" data-name="아이콘 카피1"><g id="O15"><path class="cls-1" d="M593.5,569a3.4,3.4,0,0,1-1.31-.25,3.26,3.26,0,0,1-1.77-1.73,3.29,3.29,0,0,1,0-2.55,3.26,3.26,0,0,1,1.77-1.73,3.57,3.57,0,0,1,2.61,0,3.25,3.25,0,0,1,1.06.69,3.24,3.24,0,0,1,0,4.62,3.25,3.25,0,0,1-1.06.69A3.43,3.43,0,0,1,593.5,569Zm0-1.2a2,2,0,0,0,.79-.16,2,2,0,0,0,.63-.43,2,2,0,0,0,.42-.65,2.24,2.24,0,0,0,0-1.62,2,2,0,0,0-1.05-1.08,2,2,0,0,0-.79-.16,1.94,1.94,0,0,0-.78.16,2,2,0,0,0-1.05,1.08,2.1,2.1,0,0,0-.15.81,2.16,2.16,0,0,0,.15.82,2,2,0,0,0,.42.65,2,2,0,0,0,.63.43A1.93,1.93,0,0,0,593.5,567.77Z" transform="translate(-590.17 -562.46)"/><path class="cls-1" d="M599.4,568.86v-5l-1.23.51v-1.08l1.68-.68h.78v6.3Z" transform="translate(-590.17 -562.46)"/><path class="cls-1" d="M604.49,569a3.29,3.29,0,0,1-2.26-.85l.7-.82a2.94,2.94,0,0,0,.78.5,2.18,2.18,0,0,0,.83.15,1.42,1.42,0,0,0,.64-.13,1.07,1.07,0,0,0,.43-.38,1,1,0,0,0,.16-.57.94.94,0,0,0-.36-.76,1.39,1.39,0,0,0-.92-.3,2.21,2.21,0,0,0-.57.08,2.64,2.64,0,0,0-.58.24l-.82-.24.14-3.32h4v1h-3l-.07,1.63a3,3,0,0,1,.62-.23,2.78,2.78,0,0,1,.66-.08,2.44,2.44,0,0,1,1.11.24,1.77,1.77,0,0,1,.73.67,1.91,1.91,0,0,1,.26,1,2,2,0,0,1-.31,1.13,2.07,2.07,0,0,1-.87.76A3,3,0,0,1,604.49,569Z" transform="translate(-590.17 -562.46)"/></g></g></g></g></svg>