<svg id="CONTENTS" xmlns="http://www.w3.org/2000/svg" viewBox="0 0 11.29 6.49"><defs><style>.cls-1{fill:#010101;}</style></defs><title>community2-name21</title><g id="_02" data-name="02"><g id="아이콘"><g id="아이콘_카피1" data-name="아이콘 카피1"><g id="S2"><path class="cls-1" d="M216.66,775a4.15,4.15,0,0,1-2.79-1.09l.75-.94a4,4,0,0,0,1.06.7,2.71,2.71,0,0,0,1.08.22,2.22,2.22,0,0,0,.68-.09,1,1,0,0,0,.45-.27.62.62,0,0,0,.16-.42.59.59,0,0,0-.23-.5,2,2,0,0,0-.8-.27l-1.25-.22a2.14,2.14,0,0,1-1.22-.57,1.54,1.54,0,0,1-.42-1.12,1.73,1.73,0,0,1,.3-1,1.89,1.89,0,0,1,.85-.66,3.43,3.43,0,0,1,1.32-.23,4.29,4.29,0,0,1,1.38.23,4.12,4.12,0,0,1,1.22.65l-.7,1a3.27,3.27,0,0,0-2-.76,1.89,1.89,0,0,0-.61.09.92.92,0,0,0-.4.25.54.54,0,0,0-.14.37.53.53,0,0,0,.21.45,1.61,1.61,0,0,0,.69.24l1.19.2a2.62,2.62,0,0,1,1.41.6,1.55,1.55,0,0,1,.47,1.17A1.79,1.79,0,0,1,219,774a2.07,2.07,0,0,1-.92.7A3.67,3.67,0,0,1,216.66,775Z" transform="translate(-213.87 -768.46)"/><path class="cls-1" d="M220.78,774.86V774l2.63-2.66a2.67,2.67,0,0,0,.3-.37,1.28,1.28,0,0,0,.16-.34,1.18,1.18,0,0,0,0-.34.72.72,0,0,0-.29-.58,1.15,1.15,0,0,0-.74-.23,1.84,1.84,0,0,0-.8.18,3.23,3.23,0,0,0-.81.6l-.67-.81a3.87,3.87,0,0,1,1.11-.74,3,3,0,0,1,1.21-.25,2.64,2.64,0,0,1,1.12.23,1.8,1.8,0,0,1,.76.62,1.61,1.61,0,0,1,.27.93,1.9,1.9,0,0,1-.09.58,2.06,2.06,0,0,1-.27.54,4.28,4.28,0,0,1-.5.59l-1.91,1.92h2.87v1Z" transform="translate(-213.87 -768.46)"/></g></g></g></g></svg>