<svg id="CONTENTS" xmlns="http://www.w3.org/2000/svg" viewBox="0 0 12.84 6.5"><defs><style>.cls-1{fill:#010101;}</style></defs><title>community2-name5</title><g id="_02" data-name="02"><g id="아이콘"><g id="아이콘_카피1" data-name="아이콘 카피1"><g id="O5"><path class="cls-1" d="M593.5,363a3.4,3.4,0,0,1-1.31-.25,3.26,3.26,0,0,1-1.77-1.73,3.29,3.29,0,0,1,0-2.55,3.26,3.26,0,0,1,1.77-1.73,3.57,3.57,0,0,1,2.61,0,3.25,3.25,0,0,1,1.06.69,3.24,3.24,0,0,1,0,4.62,3.25,3.25,0,0,1-1.06.69A3.43,3.43,0,0,1,593.5,363Zm0-1.2a2,2,0,0,0,.79-.16,2,2,0,0,0,1.05-1.08,2.23,2.23,0,0,0,0-1.62,2,2,0,0,0-1.05-1.08,2,2,0,0,0-.79-.16,1.93,1.93,0,0,0-.78.16,2,2,0,0,0-1.05,1.08,2.1,2.1,0,0,0-.15.81,2.16,2.16,0,0,0,.15.82,2,2,0,0,0,1.05,1.08A1.93,1.93,0,0,0,593.5,361.77Z" transform="translate(-590.17 -356.46)"/><path class="cls-1" d="M600.54,363a3.29,3.29,0,0,1-2.26-.85l.7-.82a3,3,0,0,0,.78.5,2.18,2.18,0,0,0,.83.15,1.41,1.41,0,0,0,.64-.14,1.07,1.07,0,0,0,.43-.38,1,1,0,0,0,.16-.57.94.94,0,0,0-.36-.76,1.39,1.39,0,0,0-.92-.3,2.21,2.21,0,0,0-.57.08,2.62,2.62,0,0,0-.58.24l-.82-.24.14-3.32h4v1h-3l-.07,1.63a3,3,0,0,1,.62-.23,2.78,2.78,0,0,1,.66-.08,2.44,2.44,0,0,1,1.11.24,1.77,1.77,0,0,1,.73.67,1.91,1.91,0,0,1,.26,1,2,2,0,0,1-.31,1.13,2.08,2.08,0,0,1-.87.76A3,3,0,0,1,600.54,363Z" transform="translate(-590.17 -356.46)"/></g></g></g></g></svg>