<svg id="CONTENTS" xmlns="http://www.w3.org/2000/svg" viewBox="0 0 11.5 6.49"><defs><style>.cls-1{fill:#010101;}</style></defs><title>community2-name24</title><g id="_02" data-name="02"><g id="아이콘"><g id="아이콘_카피1" data-name="아이콘 카피1"><g id="S5"><path class="cls-1" d="M498.66,775a4.15,4.15,0,0,1-2.79-1.09l.75-.94a4,4,0,0,0,1.06.7,2.71,2.71,0,0,0,1.08.22,2.22,2.22,0,0,0,.68-.09,1,1,0,0,0,.45-.27.62.62,0,0,0,.16-.42.59.59,0,0,0-.23-.5,2,2,0,0,0-.8-.27l-1.25-.22a2.14,2.14,0,0,1-1.22-.57,1.54,1.54,0,0,1-.42-1.12,1.73,1.73,0,0,1,.3-1,1.89,1.89,0,0,1,.85-.66,3.43,3.43,0,0,1,1.32-.23,4.29,4.29,0,0,1,1.38.23,4.12,4.12,0,0,1,1.22.65l-.7,1a3.27,3.27,0,0,0-2-.76,1.89,1.89,0,0,0-.61.09.92.92,0,0,0-.4.25.54.54,0,0,0-.14.37.53.53,0,0,0,.21.45,1.61,1.61,0,0,0,.69.24l1.19.2a2.62,2.62,0,0,1,1.41.6,1.55,1.55,0,0,1,.47,1.17A1.79,1.79,0,0,1,501,774a2.07,2.07,0,0,1-.92.7A3.67,3.67,0,0,1,498.66,775Z" transform="translate(-495.87 -768.47)"/><path class="cls-1" d="M504.9,775a3.29,3.29,0,0,1-2.26-.85l.7-.82a2.94,2.94,0,0,0,.78.5,2.18,2.18,0,0,0,.83.15,1.42,1.42,0,0,0,.64-.13,1.07,1.07,0,0,0,.43-.38,1,1,0,0,0,.16-.57.94.94,0,0,0-.36-.76,1.39,1.39,0,0,0-.92-.3,2.21,2.21,0,0,0-.57.08,2.64,2.64,0,0,0-.58.24l-.82-.24.14-3.32h4v1h-3L504,771.2a3,3,0,0,1,.62-.23,2.78,2.78,0,0,1,.66-.08,2.44,2.44,0,0,1,1.11.24,1.77,1.77,0,0,1,.73.67,1.91,1.91,0,0,1,.26,1,2,2,0,0,1-.31,1.13,2.07,2.07,0,0,1-.87.76A3,3,0,0,1,504.9,775Z" transform="translate(-495.87 -768.47)"/></g></g></g></g></svg>