<svg xmlns="http://www.w3.org/2000/svg" xmlns:xlink="http://www.w3.org/1999/xlink" viewBox="0 0 88.79 24.57"><defs><style>.cls-1,.cls-6{fill:none;}.cls-2{isolation:isolate;}.cls-3{clip-path:url(#clip-path);}.cls-4{mix-blend-mode:multiply;}.cls-5{fill:#1d1d1b;}.cls-6{stroke:#fff;stroke-miterlimit:10;stroke-width:0.6px;}</style><clipPath id="clip-path" transform="translate(-2.02 -3.55)"><rect class="cls-1" width="94.1" height="35.93"/></clipPath></defs><title>community2-icon16</title><g class="cls-2"><g id="Layer_1" data-name="Layer 1"><g class="cls-3"><g class="cls-3"><g class="cls-4"><g class="cls-3"><path class="cls-5" d="M2.32,27.5V5.1H13.26a8.8,8.8,0,0,1,4,.88A6.54,6.54,0,0,1,21,12a6.26,6.26,0,0,1-1.18,3.78,7.09,7.09,0,0,1-3.17,2.43l5,9.25H16.4L12,18.92H7V27.5ZM7,15.12h5.89a3.66,3.66,0,0,0,2.51-.83,2.76,2.76,0,0,0,.94-2.18,2.76,2.76,0,0,0-.94-2.18,3.66,3.66,0,0,0-2.51-.83H7Z" transform="translate(-2.02 -3.55)"/><path class="cls-6" d="M7,9.1h5.89a3.66,3.66,0,0,1,2.51.83,2.76,2.76,0,0,1,.94,2.18,2.76,2.76,0,0,1-.94,2.18,3.66,3.66,0,0,1-2.51.83H7ZM7,27.5V18.92H12L16.4,27.5h5.18l-5-9.25a7.09,7.09,0,0,0,3.17-2.43A6.26,6.26,0,0,0,21,12,6.54,6.54,0,0,0,17.28,6a8.81,8.81,0,0,0-4-.88H2.32V27.5Z" transform="translate(-2.02 -3.55)"/><path class="cls-5" d="M32.24,27.82a9,9,0,0,1-4.53-1.15,8.72,8.72,0,0,1-3.22-3.1,8.29,8.29,0,0,1-1.18-4.38,8.51,8.51,0,0,1,4.22-7.49,8.4,8.4,0,0,1,4.35-1.15,7.74,7.74,0,0,1,4.26,1.18,8.41,8.41,0,0,1,2.93,3.2,9.6,9.6,0,0,1,1.07,4.58v1.15H27.79a5,5,0,0,0,.94,1.79,4.51,4.51,0,0,0,1.63,1.25,5,5,0,0,0,2.1.45,5.85,5.85,0,0,0,2.06-.35,4.68,4.68,0,0,0,1.62-1L39,25.42a10,10,0,0,1-6.78,2.4Zm-4.51-10.3h8.1A4.33,4.33,0,0,0,35,15.77a4.4,4.4,0,0,0-1.41-1.18,3.8,3.8,0,0,0-1.81-.43,4.1,4.1,0,0,0-1.86.42,3.87,3.87,0,0,0-1.39,1.17A4.94,4.94,0,0,0,27.72,17.52Z" transform="translate(-2.02 -3.55)"/><path class="cls-6" d="M28.54,15.74a3.87,3.87,0,0,1,1.39-1.17,4.1,4.1,0,0,1,1.86-.42,3.8,3.8,0,0,1,1.81.43A4.41,4.41,0,0,1,35,15.77a4.33,4.33,0,0,1,.82,1.74h-8.1A4.92,4.92,0,0,1,28.54,15.74Zm7.33,11.5A10.73,10.73,0,0,0,39,25.42L36.14,22.8a4.67,4.67,0,0,1-1.62,1,5.86,5.86,0,0,1-2.06.35,5,5,0,0,1-2.1-.45,4.51,4.51,0,0,1-1.63-1.25,5,5,0,0,1-.94-1.79H40.14V19.5a9.59,9.59,0,0,0-1.07-4.58,8.4,8.4,0,0,0-2.93-3.2,7.74,7.74,0,0,0-4.26-1.18,8.4,8.4,0,0,0-4.35,1.15,8.51,8.51,0,0,0-4.22,7.49,8.28,8.28,0,0,0,1.18,4.38,8.71,8.71,0,0,0,3.22,3.1,9,9,0,0,0,4.53,1.15A10.77,10.77,0,0,0,35.87,27.24Z" transform="translate(-2.02 -3.55)"/><path class="cls-5" d="M51.37,27.76a6.16,6.16,0,0,1-4.21-1.26,4.68,4.68,0,0,1-1.42-3.7V14.48H42.32V10.83h3.42V6.57l4.38-1v5.25h4.77v3.65H50.12V21.9a2.22,2.22,0,0,0,.51,1.65,2.55,2.55,0,0,0,1.79.5A7.79,7.79,0,0,0,53.6,24a6.52,6.52,0,0,0,1.17-.3v3.62a9,9,0,0,1-1.68.35A14,14,0,0,1,51.37,27.76Z" transform="translate(-2.02 -3.55)"/><path class="cls-6" d="M53.08,27.63a9,9,0,0,0,1.68-.35V23.66a6.47,6.47,0,0,1-1.17.3,7.75,7.75,0,0,1-1.17.08,2.55,2.55,0,0,1-1.79-.5,2.22,2.22,0,0,1-.51-1.65V14.48h4.77V10.83H50.12V5.58l-4.38,1v4.26H42.32v3.65h3.42V22.8a4.68,4.68,0,0,0,1.42,3.7,6.16,6.16,0,0,0,4.21,1.26A14,14,0,0,0,53.08,27.63Z" transform="translate(-2.02 -3.55)"/><path class="cls-5" d="M63.95,27.79a7.27,7.27,0,0,1-3.17-.66,5.19,5.19,0,0,1-2.14-1.81,4.68,4.68,0,0,1-.77-2.66,4.36,4.36,0,0,1,1.81-3.73,8.26,8.26,0,0,1,5-1.33,12.31,12.31,0,0,1,4.1.67V17.07a2.65,2.65,0,0,0-.9-2.18,4.05,4.05,0,0,0-2.62-.74,8.56,8.56,0,0,0-2.27.34,21.07,21.07,0,0,0-2.82,1l-1.6-3.23A22.34,22.34,0,0,1,62.33,11,15.06,15.06,0,0,1,66,10.51a7.76,7.76,0,0,1,5.23,1.62,5.7,5.7,0,0,1,1.87,4.56V27.5H68.75V26.32a7,7,0,0,1-2.21,1.12A9,9,0,0,1,63.95,27.79ZM62,22.57a1.74,1.74,0,0,0,.83,1.52,3.89,3.89,0,0,0,2.21.56,7.13,7.13,0,0,0,2-.27,5.26,5.26,0,0,0,1.66-.82V21.13a8.78,8.78,0,0,0-1.66-.48,10.21,10.21,0,0,0-1.86-.16,4.24,4.24,0,0,0-2.35.56A1.74,1.74,0,0,0,62,22.57Z" transform="translate(-2.02 -3.55)"/><path class="cls-5" d="M79.53,8.84a2.4,2.4,0,0,1-1.76-.74A2.4,2.4,0,0,1,77,6.35a2.39,2.39,0,0,1,.74-1.78A2.49,2.49,0,0,1,82,6.35a2.43,2.43,0,0,1-.72,1.76A2.38,2.38,0,0,1,79.53,8.84ZM77.35,27.5V10.83h4.38V27.5Z" transform="translate(-2.02 -3.55)"/><path class="cls-6" d="M62.88,21.05a4.24,4.24,0,0,1,2.35-.56,10.17,10.17,0,0,1,1.86.16,8.81,8.81,0,0,1,1.66.48v2.43a5.25,5.25,0,0,1-1.66.82,7.16,7.16,0,0,1-2,.27,3.9,3.9,0,0,1-2.21-.56,1.8,1.8,0,0,1,0-3Zm3.66,6.38a7,7,0,0,0,2.21-1.12V27.5h4.32V16.68a5.7,5.7,0,0,0-1.87-4.56A7.76,7.76,0,0,0,66,10.51a15.08,15.08,0,0,0-3.63.45,22.32,22.32,0,0,0-3.79,1.34l1.6,3.23a21.17,21.17,0,0,1,2.82-1,8.56,8.56,0,0,1,2.27-.34,4,4,0,0,1,2.62.74,2.65,2.65,0,0,1,.9,2.18v1.22a12.31,12.31,0,0,0-4.1-.67,8.25,8.25,0,0,0-5,1.33,4.36,4.36,0,0,0-1.81,3.73,4.68,4.68,0,0,0,.77,2.66,5.19,5.19,0,0,0,2.14,1.81,7.28,7.28,0,0,0,3.17.66A9.09,9.09,0,0,0,66.54,27.44Z" transform="translate(-2.02 -3.55)"/><path class="cls-6" d="M81.31,8.11A2.43,2.43,0,0,0,82,6.35a2.5,2.5,0,0,0-4.26-1.78A2.39,2.39,0,0,0,77,6.35a2.4,2.4,0,0,0,.74,1.76,2.49,2.49,0,0,0,3.54,0Zm.43,2.72H77.35V27.5h4.38Z" transform="translate(-2.02 -3.55)"/><path class="cls-5" d="M86.12,27.5V5.1l4.38-.74V27.5Z" transform="translate(-2.02 -3.55)"/><polygon class="cls-6" points="88.49 23.95 88.49 0.81 84.11 1.55 84.11 23.95 88.49 23.95"/></g></g></g></g></g></g></svg>