<svg id="CONTENTS" xmlns="http://www.w3.org/2000/svg" viewBox="0 0 10.46 6.5"><defs><style>.cls-1{fill:#010101;}</style></defs><title>community2-name1</title><g id="_02" data-name="02"><g id="아이콘"><g id="아이콘_카피1" data-name="아이콘 카피1"><g id="O1"><path class="cls-1" d="M217.5,363a3.4,3.4,0,0,1-1.31-.25,3.26,3.26,0,0,1-1.77-1.73,3.29,3.29,0,0,1,0-2.55,3.26,3.26,0,0,1,1.77-1.73,3.57,3.57,0,0,1,2.61,0,3.25,3.25,0,0,1,1.06.69,3.24,3.24,0,0,1,0,4.62,3.25,3.25,0,0,1-1.06.69A3.43,3.43,0,0,1,217.5,363Zm0-1.2a2,2,0,0,0,.79-.16,2,2,0,0,0,1.05-1.08,2.23,2.23,0,0,0,0-1.62,2,2,0,0,0-1.05-1.08,2,2,0,0,0-.79-.16,1.93,1.93,0,0,0-.78.16,2,2,0,0,0-1.05,1.08,2.1,2.1,0,0,0-.15.81,2.16,2.16,0,0,0,.15.82,2,2,0,0,0,1.05,1.08A1.93,1.93,0,0,0,217.5,361.77Z" transform="translate(-214.17 -356.46)"/><path class="cls-1" d="M223.4,362.86v-5l-1.23.51v-1.08l1.68-.68h.78v6.3Z" transform="translate(-214.17 -356.46)"/></g></g></g></g></svg>