<svg id="Layer_1" data-name="Layer 1" xmlns="http://www.w3.org/2000/svg" xmlns:xlink="http://www.w3.org/1999/xlink" viewBox="0 0 89.06 50.19"><defs><style>.cls-1,.cls-3,.cls-4,.cls-5{fill:none;}.cls-2{clip-path:url(#clip-path);}.cls-3,.cls-4,.cls-5{stroke:#010101;stroke-width:5.98px;}.cls-3{stroke-miterlimit:10;}.cls-4{stroke-linejoin:round;}.cls-5{stroke-linejoin:bevel;}</style><clipPath id="clip-path" transform="translate(0 0)"><rect class="cls-1" width="89.07" height="50.19"/></clipPath></defs><title>community2-icon17</title><g class="cls-2"><line class="cls-3" x1="75.23" y1="50.19" x2="75.23" y2="26.58"/><path class="cls-4" d="M81.74,16a8.14,8.14,0,1,0-13,0,10.85,10.85,0,1,0,13,0Z" transform="translate(0 0)"/><line class="cls-3" x1="13.84" y1="50.19" x2="13.84" y2="26.58"/><path class="cls-4" d="M20.35,16a8.14,8.14,0,1,0-13,0,10.85,10.85,0,1,0,13,0Z" transform="translate(0 0)"/><polyline class="cls-5" points="57.79 50.11 57.79 37.97 31.28 37.97 31.28 50.11"/><polyline class="cls-3" points="54.73 37.97 54.73 24.33 34.24 24.33 34.24 37.97"/></g></svg>