<svg id="Layer_1" data-name="Layer 1" xmlns="http://www.w3.org/2000/svg" xmlns:xlink="http://www.w3.org/1999/xlink" viewBox="0 0 92.32 7.65"><defs><style>.cls-1{fill:none;}.cls-2{clip-path:url(#clip-path);}.cls-3{fill:#010101;}</style><clipPath id="clip-path" transform="translate(-0.18 -2.16)"><rect class="cls-1" width="93.11" height="12.24"/></clipPath></defs><title>community2-txt18</title><g class="cls-2"><path class="cls-3" d="M2.47,9.7V4.22H.18V2.7h6.3V4.22H4.19V9.7Z" transform="translate(-0.18 -2.16)"/><path class="cls-3" d="M9.35,9.8a3,3,0,0,1-1.47-.36,2.77,2.77,0,0,1-1-1,2.61,2.61,0,0,1-.38-1.39,2.68,2.68,0,0,1,.37-1.39,2.71,2.71,0,0,1,1-1,2.74,2.74,0,0,1,1.4-.36,2.55,2.55,0,0,1,1.38.38,2.65,2.65,0,0,1,.95,1,3.13,3.13,0,0,1,.34,1.49v.4H8.13A1.47,1.47,0,0,0,8.42,8a1.27,1.27,0,0,0,.45.29,1.48,1.48,0,0,0,.56.11,1.63,1.63,0,0,0,.6-.11A1.3,1.3,0,0,0,10.49,8l1.07,1a3.41,3.41,0,0,1-1,.61A3.48,3.48,0,0,1,9.35,9.8ZM8.1,6.48h2.21A1.19,1.19,0,0,0,10.06,6a1.22,1.22,0,0,0-.38-.29,1.1,1.1,0,0,0-.48-.1,1.17,1.17,0,0,0-.49.1A1.05,1.05,0,0,0,8.33,6,1.25,1.25,0,0,0,8.1,6.48Z" transform="translate(-0.18 -2.16)"/><path class="cls-3" d="M13.16,9.7V4.41h1.62v.53a1.74,1.74,0,0,1,.61-.49,1.81,1.81,0,0,1,.78-.17,1.2,1.2,0,0,1,.61.13V5.83a1.45,1.45,0,0,0-.36-.12,2.1,2.1,0,0,0-.41,0,1.46,1.46,0,0,0-.71.17,1.39,1.39,0,0,0-.52.49V9.7Z" transform="translate(-0.18 -2.16)"/><path class="cls-3" d="M18,9.7V4.41H19.6v.53a1.74,1.74,0,0,1,.61-.49A1.81,1.81,0,0,1,21,4.29a1.2,1.2,0,0,1,.61.13V5.83a1.45,1.45,0,0,0-.36-.12,2.1,2.1,0,0,0-.41,0,1.46,1.46,0,0,0-.71.17,1.39,1.39,0,0,0-.52.49V9.7Z" transform="translate(-0.18 -2.16)"/><path class="cls-3" d="M24.39,9.79a2.27,2.27,0,0,1-1-.21A1.65,1.65,0,0,1,22.71,9a1.5,1.5,0,0,1-.25-.85A1.36,1.36,0,0,1,23,7a2.7,2.7,0,0,1,1.6-.42,4.79,4.79,0,0,1,1.2.15V6.45a.7.7,0,0,0-.25-.6,1.23,1.23,0,0,0-.75-.19,2.81,2.81,0,0,0-.7.1,6.79,6.79,0,0,0-.9.32l-.58-1.19a7.21,7.21,0,0,1,1.25-.44,5.2,5.2,0,0,1,1.22-.15,2.54,2.54,0,0,1,1.71.52,1.84,1.84,0,0,1,.61,1.48V9.7h-1.6V9.38a2.17,2.17,0,0,1-.67.32A3,3,0,0,1,24.39,9.79ZM24,8.12a.44.44,0,0,0,.22.39,1.13,1.13,0,0,0,.61.14,2.37,2.37,0,0,0,.54-.06,1.55,1.55,0,0,0,.46-.19V7.72a3.93,3.93,0,0,0-.47-.09l-.49,0a1.3,1.3,0,0,0-.65.13A.42.42,0,0,0,24,8.12Z" transform="translate(-0.18 -2.16)"/><path class="cls-3" d="M31.47,9.8A2.84,2.84,0,0,1,30,9.44a2.69,2.69,0,0,1-1.37-2.38A2.68,2.68,0,0,1,29,5.66a2.74,2.74,0,0,1,1-1,2.81,2.81,0,0,1,1.43-.37,3.08,3.08,0,0,1,1.24.26,2.76,2.76,0,0,1,1,.72l-1,1a1.93,1.93,0,0,0-.57-.47,1.42,1.42,0,0,0-.64-.15,1.16,1.16,0,0,0-.63.18,1.23,1.23,0,0,0-.44.48,1.47,1.47,0,0,0-.16.7,1.41,1.41,0,0,0,.17.68,1.23,1.23,0,0,0,1.1.66,1.34,1.34,0,0,0,.61-.14,1.84,1.84,0,0,0,.54-.43l1,1a2.74,2.74,0,0,1-1,.71A3,3,0,0,1,31.47,9.8Z" transform="translate(-0.18 -2.16)"/><path class="cls-3" d="M37.28,9.8a3,3,0,0,1-1.47-.36,2.77,2.77,0,0,1-1-1,2.61,2.61,0,0,1-.38-1.39,2.68,2.68,0,0,1,.37-1.39,2.71,2.71,0,0,1,1-1,2.74,2.74,0,0,1,1.4-.36,2.55,2.55,0,0,1,1.38.38,2.65,2.65,0,0,1,.95,1,3.13,3.13,0,0,1,.34,1.49v.4H36.06a1.47,1.47,0,0,0,.29.44,1.27,1.27,0,0,0,.45.29,1.48,1.48,0,0,0,.56.11,1.63,1.63,0,0,0,.6-.11A1.3,1.3,0,0,0,38.42,8l1.07,1a3.41,3.41,0,0,1-1,.61A3.48,3.48,0,0,1,37.28,9.8ZM36,6.48h2.21A1.19,1.19,0,0,0,38,6a1.22,1.22,0,0,0-.38-.29,1.1,1.1,0,0,0-.48-.1,1.17,1.17,0,0,0-.49.1,1.05,1.05,0,0,0-.37.29A1.25,1.25,0,0,0,36,6.48Z" transform="translate(-0.18 -2.16)"/><path class="cls-3" d="M46.39,9.8a4,4,0,0,1-1.48-.27,3.69,3.69,0,0,1-1.19-.77A3.5,3.5,0,0,1,42.63,6.2a3.52,3.52,0,0,1,.29-1.42,3.48,3.48,0,0,1,.8-1.15,3.75,3.75,0,0,1,1.2-.77,4,4,0,0,1,2.62-.1,4.1,4.1,0,0,1,1,.48,3.06,3.06,0,0,1,.79.72L48.2,5.1a2.5,2.5,0,0,0-.83-.7,2.15,2.15,0,0,0-1-.23A2,2,0,0,0,45,4.75a1.92,1.92,0,0,0-.42.64,2.13,2.13,0,0,0-.15.81A2,2,0,0,0,45,7.63a1.92,1.92,0,0,0,.65.43,2.18,2.18,0,0,0,.82.15A2.06,2.06,0,0,0,47.39,8a2.42,2.42,0,0,0,.79-.65l1.13,1.11a3.18,3.18,0,0,1-.79.71,3.94,3.94,0,0,1-1,.47A3.84,3.84,0,0,1,46.39,9.8Z" transform="translate(-0.18 -2.16)"/><path class="cls-3" d="M52.15,9.79a2.26,2.26,0,0,1-1-.21A1.66,1.66,0,0,1,50.47,9a1.51,1.51,0,0,1-.25-.85A1.36,1.36,0,0,1,50.8,7a2.71,2.71,0,0,1,1.61-.42,4.79,4.79,0,0,1,1.2.15V6.45a.7.7,0,0,0-.26-.6,1.23,1.23,0,0,0-.75-.19,2.8,2.8,0,0,0-.69.1,6.77,6.77,0,0,0-.91.32l-.58-1.19a7.23,7.23,0,0,1,1.25-.44,5.2,5.2,0,0,1,1.21-.15,2.54,2.54,0,0,1,1.71.52,1.84,1.84,0,0,1,.61,1.48V9.7h-1.6V9.38a2.17,2.17,0,0,1-.68.32A3,3,0,0,1,52.15,9.79Zm-.38-1.67a.44.44,0,0,0,.22.39,1.13,1.13,0,0,0,.61.14,2.37,2.37,0,0,0,.54-.06,1.55,1.55,0,0,0,.47-.19V7.72a4,4,0,0,0-.47-.09l-.49,0a1.3,1.3,0,0,0-.65.13A.42.42,0,0,0,51.77,8.12Z" transform="translate(-0.18 -2.16)"/><path class="cls-3" d="M57.35,9.7V5.76H56.19V4.41h1.16V4.09a1.83,1.83,0,0,1,.55-1.44,2.32,2.32,0,0,1,1.6-.5l.46,0a2.14,2.14,0,0,1,.4.08V3.6L60,3.55l-.3,0a.91.91,0,0,0-.56.15.52.52,0,0,0-.19.44v.29h1.39V5.76H59V9.7Z" transform="translate(-0.18 -2.16)"/><path class="cls-3" d="M64,9.8a3,3,0,0,1-1.46-.36,2.78,2.78,0,0,1-1-1,2.61,2.61,0,0,1-.38-1.39,2.69,2.69,0,0,1,1.36-2.38,2.74,2.74,0,0,1,1.4-.36,2.55,2.55,0,0,1,1.38.38,2.65,2.65,0,0,1,.94,1,3.13,3.13,0,0,1,.35,1.49v.4H62.76a1.47,1.47,0,0,0,.29.44,1.26,1.26,0,0,0,.45.29,1.47,1.47,0,0,0,.56.11,1.64,1.64,0,0,0,.6-.11A1.31,1.31,0,0,0,65.12,8l1.07,1a3.4,3.4,0,0,1-1,.61A3.49,3.49,0,0,1,64,9.8ZM62.73,6.48h2.21A1.18,1.18,0,0,0,64.7,6a1.23,1.23,0,0,0-.39-.29,1.1,1.1,0,0,0-.48-.1,1.17,1.17,0,0,0-.49.1A1.05,1.05,0,0,0,63,6,1.26,1.26,0,0,0,62.73,6.48Z" transform="translate(-0.18 -2.16)"/></g><path class="cls-3" d="M71.31,9.81a3.11,3.11,0,0,1-1.15-1.16A3.31,3.31,0,0,1,69.76,7a3.31,3.31,0,0,1,.4-1.64,3.05,3.05,0,0,1,1.15-1.16l.46.51a2.6,2.6,0,0,0-.93,1A2.69,2.69,0,0,0,70.52,7a2.71,2.71,0,0,0,.32,1.33,2.55,2.55,0,0,0,.93,1Z" transform="translate(-0.18 -2.16)"/><path class="cls-3" d="M72.68,9.1V4.9h2.05a1.65,1.65,0,0,1,.75.17,1.27,1.27,0,0,1,.51.46,1.24,1.24,0,0,1,.19.68,1.16,1.16,0,0,1-.22.71,1.35,1.35,0,0,1-.6.46l.93,1.73h-1L74.5,7.49h-.95V9.1Zm.87-2.32h1.1a.69.69,0,0,0,.47-.16.56.56,0,0,0,0-.82.69.69,0,0,0-.47-.16h-1.1Z" transform="translate(-0.18 -2.16)"/><path class="cls-3" d="M78.35,9.16a1.69,1.69,0,0,1-.85-.22,1.63,1.63,0,0,1-.6-.58,1.55,1.55,0,0,1-.22-.82,1.6,1.6,0,0,1,.79-1.4,1.58,1.58,0,0,1,.82-.22,1.45,1.45,0,0,1,.8.22,1.57,1.57,0,0,1,.55.6,1.8,1.8,0,0,1,.2.86v.22H77.51a.94.94,0,0,0,.18.34.84.84,0,0,0,.31.23.94.94,0,0,0,.39.08,1.1,1.1,0,0,0,.39-.07.87.87,0,0,0,.3-.19l.54.49a2,2,0,0,1-.59.34A2,2,0,0,1,78.35,9.16ZM77.5,7.23H79a.82.82,0,0,0-.15-.33.83.83,0,0,0-.26-.22.71.71,0,0,0-.34-.08.75.75,0,0,0-.34.08.77.77,0,0,0-.26.22A.9.9,0,0,0,77.5,7.23Z" transform="translate(-0.18 -2.16)"/><path class="cls-3" d="M82,9.15a1.16,1.16,0,0,1-.79-.24A.88.88,0,0,1,81,8.22V6.66h-.64V6H81v-.8L81.79,5V6h.89v.68h-.89V8.05a.41.41,0,0,0,.1.31.48.48,0,0,0,.34.09h.22l.22-.06v.68a1.71,1.71,0,0,1-.31.07Z" transform="translate(-0.18 -2.16)"/><path class="cls-3" d="M84.53,9.15A1.37,1.37,0,0,1,83.94,9a1,1,0,0,1-.4-.34.87.87,0,0,1-.14-.5.82.82,0,0,1,.34-.7,1.56,1.56,0,0,1,.93-.25,2.31,2.31,0,0,1,.77.13V7.14a.5.5,0,0,0-.17-.41.76.76,0,0,0-.49-.14,1.57,1.57,0,0,0-.43.06,3.82,3.82,0,0,0-.53.19l-.3-.61A4.26,4.26,0,0,1,84.23,6a2.82,2.82,0,0,1,.68-.08,1.45,1.45,0,0,1,1,.3,1.07,1.07,0,0,1,.35.85v2h-.81V8.88a1.31,1.31,0,0,1-.41.21A1.7,1.7,0,0,1,84.53,9.15Zm-.36-1a.33.33,0,0,0,.16.29.73.73,0,0,0,.41.1,1.33,1.33,0,0,0,.38-.05,1,1,0,0,0,.31-.15V7.91a1.68,1.68,0,0,0-.31-.09,2,2,0,0,0-.35,0,.79.79,0,0,0-.44.11A.33.33,0,0,0,84.17,8.18Z" transform="translate(-0.18 -2.16)"/><path class="cls-3" d="M87.51,5.6a.47.47,0,0,1-.33-.8.47.47,0,0,1,.66.66A.45.45,0,0,1,87.51,5.6ZM87.1,9.1V6h.82V9.1Z" transform="translate(-0.18 -2.16)"/><path class="cls-3" d="M88.81,9.1V4.9l.82-.14V9.1Z" transform="translate(-0.18 -2.16)"/><path class="cls-3" d="M90.94,4.22a3.09,3.09,0,0,1,1.15,1.16A3.31,3.31,0,0,1,92.5,7a3.31,3.31,0,0,1-.4,1.64,3.06,3.06,0,0,1-1.15,1.16l-.46-.51a2.6,2.6,0,0,0,.93-1A2.7,2.7,0,0,0,91.73,7a2.72,2.72,0,0,0-.32-1.33,2.56,2.56,0,0,0-.93-1Z" transform="translate(-0.18 -2.16)"/></svg>