<svg id="Layer_1" data-name="Layer 1" xmlns="http://www.w3.org/2000/svg" xmlns:xlink="http://www.w3.org/1999/xlink" viewBox="0 0 123.67 9.7"><defs><style>.cls-1{fill:none;}.cls-2{clip-path:url(#clip-path);}.cls-3{fill:#010101;}</style><clipPath id="clip-path" transform="translate(-0.33 -0.94)"><rect class="cls-1" width="124.28" height="11.04"/></clipPath></defs><title>community2-txt7</title><g class="cls-2"><path class="cls-3" d="M4.07,8.61A3.88,3.88,0,0,1,2.6,8.33a3.67,3.67,0,0,1-1.19-.77A3.57,3.57,0,0,1,.62,6.41,3.5,3.5,0,0,1,.33,5,3.5,3.5,0,0,1,.62,3.58a3.57,3.57,0,0,1,.79-1.15A3.66,3.66,0,0,1,2.6,1.66a3.89,3.89,0,0,1,1.47-.27,3.89,3.89,0,0,1,1.47.27,3.66,3.66,0,0,1,1.19.77,3.58,3.58,0,0,1,.79,1.15A3.51,3.51,0,0,1,7.81,5a3.51,3.51,0,0,1-.29,1.42,3.58,3.58,0,0,1-.79,1.15,3.68,3.68,0,0,1-1.19.77A3.88,3.88,0,0,1,4.07,8.61ZM4.07,7A1.92,1.92,0,0,0,5.89,5.81a2.25,2.25,0,0,0,0-1.62,2,2,0,0,0-3.64,0A2.11,2.11,0,0,0,2.1,5a2.17,2.17,0,0,0,.15.81,1.93,1.93,0,0,0,.42.65A1.95,1.95,0,0,0,4.07,7Z" transform="translate(-0.33 -0.94)"/><path class="cls-3" d="M11.21,8.6a2.18,2.18,0,0,1-1.09-.27,1.93,1.93,0,0,1-.75-.75A2.23,2.23,0,0,1,9.1,6.47V3.21h1.62v3a.91.91,0,0,0,1,1,1.29,1.29,0,0,0,.55-.11,1.08,1.08,0,0,0,.4-.31V3.21h1.62V8.5H12.63V8.14A2.27,2.27,0,0,1,11.21,8.6Z" transform="translate(-0.33 -0.94)"/><path class="cls-3" d="M18.42,8.57A2.12,2.12,0,0,1,17,8.14a1.58,1.58,0,0,1-.48-1.25V4.56H15.43V3.21H16.5V1.85l1.62-.35V3.21H19.6V4.56H18.12v2a.66.66,0,0,0,.15.5.8.8,0,0,0,.54.14l.37,0,.36-.08V8.41a3.33,3.33,0,0,1-.56.12A4.62,4.62,0,0,1,18.42,8.57Z" transform="translate(-0.33 -0.94)"/><path class="cls-3" d="M23.14,8.57a2.62,2.62,0,0,1-1.36-.37,2.72,2.72,0,0,1-1-1,2.67,2.67,0,0,1-.36-1.37,2.64,2.64,0,0,1,.37-1.37,2.69,2.69,0,0,1,1-1,2.87,2.87,0,0,1,2.1-.27,2.69,2.69,0,0,1,.64.26v-2l1.62-.25V8.5h-1.6V8.11A2.35,2.35,0,0,1,23.14,8.57Zm.28-1.38A1.74,1.74,0,0,0,24,7.08a1.46,1.46,0,0,0,.5-.32V4.92a1.41,1.41,0,0,0-.5-.3,1.8,1.8,0,0,0-.62-.11,1.43,1.43,0,0,0-.71.18,1.33,1.33,0,0,0-.5.48,1.36,1.36,0,0,0,0,1.37,1.32,1.32,0,0,0,.5.48A1.42,1.42,0,0,0,23.42,7.19Z" transform="translate(-0.33 -0.94)"/><path class="cls-3" d="M30.28,8.6a2.93,2.93,0,0,1-1.46-.36,2.78,2.78,0,0,1-1-1,2.6,2.6,0,0,1-.38-1.39,2.63,2.63,0,0,1,.38-1.4,2.77,2.77,0,0,1,1-1,3.1,3.1,0,0,1,2.92,0,2.77,2.77,0,0,1,1,1,2.64,2.64,0,0,1,.38,1.4,2.61,2.61,0,0,1-.38,1.39,2.79,2.79,0,0,1-1,1A2.93,2.93,0,0,1,30.28,8.6Zm0-1.4A1.23,1.23,0,0,0,30.94,7a1.3,1.3,0,0,0,.46-.48,1.37,1.37,0,0,0,.17-.68,1.39,1.39,0,0,0-.17-.69,1.3,1.3,0,0,0-.46-.48,1.28,1.28,0,0,0-1.31,0,1.3,1.3,0,0,0-.47.48,1.39,1.39,0,0,0-.17.69,1.37,1.37,0,0,0,.17.68,1.29,1.29,0,0,0,.47.48A1.23,1.23,0,0,0,30.28,7.2Z" transform="translate(-0.33 -0.94)"/><path class="cls-3" d="M37,8.6a2.93,2.93,0,0,1-1.46-.36,2.78,2.78,0,0,1-1-1,2.6,2.6,0,0,1-.38-1.39,2.63,2.63,0,0,1,.38-1.4,2.77,2.77,0,0,1,1-1,3.1,3.1,0,0,1,2.92,0,2.77,2.77,0,0,1,1,1,2.64,2.64,0,0,1,.38,1.4,2.61,2.61,0,0,1-.38,1.39,2.79,2.79,0,0,1-1,1A2.93,2.93,0,0,1,37,8.6Zm0-1.4A1.23,1.23,0,0,0,37.7,7a1.3,1.3,0,0,0,.46-.48,1.37,1.37,0,0,0,.17-.68,1.39,1.39,0,0,0-.17-.69,1.3,1.3,0,0,0-.46-.48,1.28,1.28,0,0,0-1.31,0,1.3,1.3,0,0,0-.47.48,1.39,1.39,0,0,0-.17.69,1.37,1.37,0,0,0,.17.68,1.29,1.29,0,0,0,.47.48A1.23,1.23,0,0,0,37,7.2Z" transform="translate(-0.33 -0.94)"/><path class="cls-3" d="M41.17,8.5V3.21h1.62v.53a1.74,1.74,0,0,1,.61-.49,1.81,1.81,0,0,1,.78-.17,1.2,1.2,0,0,1,.61.13V4.63a1.45,1.45,0,0,0-.36-.12,2.1,2.1,0,0,0-.41,0,1.46,1.46,0,0,0-.71.17,1.38,1.38,0,0,0-.52.5V8.5Z" transform="translate(-0.33 -0.94)"/><path class="cls-3" d="M48.52,8.5v-7H52.1a2.78,2.78,0,0,1,1.28.29,2.16,2.16,0,0,1,.88.79,2.14,2.14,0,0,1,.31,1.15,2,2,0,0,1-.36,1.18,2.29,2.29,0,0,1-1,.79l1.53,2.8H52.87L51.55,6H50.24V8.5Zm1.72-4h1.7a.93.93,0,0,0,.65-.22.73.73,0,0,0,.25-.57.73.73,0,0,0-.25-.57A.93.93,0,0,0,51.94,3h-1.7Z" transform="translate(-0.33 -0.94)"/><path class="cls-3" d="M57.84,8.6a2.18,2.18,0,0,1-1.09-.27A1.93,1.93,0,0,1,56,7.58a2.23,2.23,0,0,1-.27-1.11V3.21h1.62v3a.91.91,0,0,0,1,1,1.29,1.29,0,0,0,.55-.11,1.08,1.08,0,0,0,.4-.31V3.21h1.62V8.5H59.26V8.14A2.27,2.27,0,0,1,57.84,8.6Z" transform="translate(-0.33 -0.94)"/><path class="cls-3" d="M62.38,8.5V3.21H64v.36a2.27,2.27,0,0,1,1.42-.46,2.18,2.18,0,0,1,1.09.27,2,2,0,0,1,.75.75,2.23,2.23,0,0,1,.27,1.11V8.5H65.91v-3a.9.9,0,0,0-1-1,1.27,1.27,0,0,0-.54.11,1.19,1.19,0,0,0-.4.31V8.5Z" transform="translate(-0.33 -0.94)"/><path class="cls-3" d="M69,8.5V3.21h1.62v.36A2.27,2.27,0,0,1,72,3.11a2.18,2.18,0,0,1,1.09.27,1.94,1.94,0,0,1,.75.75,2.23,2.23,0,0,1,.27,1.11V8.5H72.52v-3a.9.9,0,0,0-1-1,1.27,1.27,0,0,0-.54.11,1.19,1.19,0,0,0-.41.31V8.5Z" transform="translate(-0.33 -0.94)"/><path class="cls-3" d="M76.41,2.72a.89.89,0,0,1-.89-.89.89.89,0,1,1,1.78,0,.89.89,0,0,1-.89.89ZM75.6,8.5V3.21h1.62V8.5Z" transform="translate(-0.33 -0.94)"/><path class="cls-3" d="M78.72,8.5V3.21h1.62v.36a2.27,2.27,0,0,1,1.42-.46,2.18,2.18,0,0,1,1.09.27,1.94,1.94,0,0,1,.75.75,2.23,2.23,0,0,1,.27,1.11V8.5H82.25v-3a.9.9,0,0,0-1-1,1.27,1.27,0,0,0-.54.11,1.19,1.19,0,0,0-.41.31V8.5Z" transform="translate(-0.33 -0.94)"/><path class="cls-3" d="M88,10.64a5.93,5.93,0,0,1-1.21-.12,4.68,4.68,0,0,1-1-.34l.54-1.26a4.4,4.4,0,0,0,.85.3,3.63,3.63,0,0,0,.84.1,1.37,1.37,0,0,0,.86-.23.83.83,0,0,0,.29-.69V8.1a2.39,2.39,0,0,1-1.37.42,2.62,2.62,0,0,1-1.36-.36,2.7,2.7,0,0,1-1-1,2.65,2.65,0,0,1-.36-1.36,2.6,2.6,0,0,1,.37-1.36,2.67,2.67,0,0,1,1-1,2.77,2.77,0,0,1,1.39-.35,2.72,2.72,0,0,1,.7.09,2.51,2.51,0,0,1,.63.26V3.21h1.6V8.42a2,2,0,0,1-.71,1.65A3.15,3.15,0,0,1,88,10.64Zm0-3.48a1.74,1.74,0,0,0,.6-.1,1.45,1.45,0,0,0,.49-.29V4.9a1.63,1.63,0,0,0-.49-.28,1.65,1.65,0,0,0-.59-.11,1.43,1.43,0,0,0-.71.18,1.36,1.36,0,0,0-.5.47,1.22,1.22,0,0,0-.19.67,1.32,1.32,0,0,0,.18.69,1.3,1.3,0,0,0,.5.48A1.43,1.43,0,0,0,88.06,7.16Z" transform="translate(-0.33 -0.94)"/><path class="cls-3" d="M96.69,8.5V3H94.4V1.5h6.3V3H98.41V8.5Z" transform="translate(-0.33 -0.94)"/><path class="cls-3" d="M101.48,8.5V3.21h1.62v.53a1.73,1.73,0,0,1,.61-.49,1.8,1.8,0,0,1,.78-.17,1.2,1.2,0,0,1,.61.13V4.63a1.43,1.43,0,0,0-.36-.12,2.1,2.1,0,0,0-.41,0,1.46,1.46,0,0,0-.71.17,1.39,1.39,0,0,0-.52.5V8.5Z" transform="translate(-0.33 -0.94)"/><path class="cls-3" d="M107.89,8.59a2.26,2.26,0,0,1-1-.21,1.66,1.66,0,0,1-.68-.58A1.51,1.51,0,0,1,106,7a1.37,1.37,0,0,1,.58-1.18,2.71,2.71,0,0,1,1.61-.42,4.79,4.79,0,0,1,1.2.15V5.25a.7.7,0,0,0-.26-.6,1.23,1.23,0,0,0-.75-.19,2.8,2.8,0,0,0-.69.1,6.77,6.77,0,0,0-.91.32l-.58-1.19a7.23,7.23,0,0,1,1.25-.44,5.2,5.2,0,0,1,1.21-.15,2.54,2.54,0,0,1,1.71.52,1.84,1.84,0,0,1,.61,1.48V8.5h-1.6V8.18a2.17,2.17,0,0,1-.68.32A3,3,0,0,1,107.89,8.59Zm-.38-1.67a.44.44,0,0,0,.22.39,1.13,1.13,0,0,0,.61.14,2.37,2.37,0,0,0,.54-.06,1.55,1.55,0,0,0,.47-.19V6.52a3.61,3.61,0,0,0-.47-.09,3.85,3.85,0,0,0-.49,0,1.29,1.29,0,0,0-.65.14A.42.42,0,0,0,107.51,6.92Z" transform="translate(-0.33 -0.94)"/><path class="cls-3" d="M115,8.6a2.84,2.84,0,0,1-1.42-.36,2.69,2.69,0,0,1-1.37-2.38,2.68,2.68,0,0,1,.37-1.4,2.75,2.75,0,0,1,1-1A2.81,2.81,0,0,1,115,3.11a3.09,3.09,0,0,1,1.24.26,2.76,2.76,0,0,1,1,.72l-1,1a1.92,1.92,0,0,0-.57-.47,1.42,1.42,0,0,0-.64-.15,1.16,1.16,0,0,0-.63.18,1.22,1.22,0,0,0-.44.48,1.47,1.47,0,0,0-.16.69,1.41,1.41,0,0,0,.17.69,1.23,1.23,0,0,0,1.1.66,1.34,1.34,0,0,0,.61-.14,1.84,1.84,0,0,0,.54-.43l1,1a2.74,2.74,0,0,1-1,.71A3,3,0,0,1,115,8.6Z" transform="translate(-0.33 -0.94)"/><path class="cls-3" d="M118.3,8.5v-7l1.62-.25V5.37L122,3.21h1.81L121.49,5.6,124,8.5h-2l-2-2.37V8.5Z" transform="translate(-0.33 -0.94)"/></g></svg>