<svg id="Layer_1" data-name="Layer 1" xmlns="http://www.w3.org/2000/svg" xmlns:xlink="http://www.w3.org/1999/xlink" viewBox="0 0 63.77 63.75"><defs><style>.cls-1,.cls-4{fill:none;}.cls-2{clip-path:url(#clip-path);}.cls-3{fill:#020202;}.cls-4{stroke:#020202;stroke-miterlimit:10;stroke-width:6.38px;}</style><clipPath id="clip-path" transform="translate(0)"><rect class="cls-1" width="63.77" height="63.75"/></clipPath></defs><title>community2-icon2</title><g class="cls-2"><path class="cls-3" d="M54.21,9.54A3.19,3.19,0,1,1,51,6.36a3.19,3.19,0,0,1,3.19,3.19" transform="translate(0)"/><path class="cls-3" d="M44.64,9.54a3.19,3.19,0,1,1-3.19-3.19,3.19,3.19,0,0,1,3.19,3.19" transform="translate(0)"/><polyline class="cls-4" points="3.19 0 3.19 16.65 6.39 19.13 57.38 19.13 60.58 16.62 60.58 0"/><line class="cls-4" x1="31.89" y1="60.13" x2="31.9" y2="44.19"/><polygon class="cls-4" points="31.89 60.2 47.83 52.4 47.83 36.26 31.89 28.31 15.94 36.26 15.94 52.4 31.89 60.2"/><polyline class="cls-4" points="47.83 36.26 31.82 44.19 15.94 36.26"/><line class="cls-4" x1="31.88" y1="19.13" x2="31.88" y2="28.31"/></g></svg>