<svg id="Layer_1" data-name="Layer 1" xmlns="http://www.w3.org/2000/svg" xmlns:xlink="http://www.w3.org/1999/xlink" viewBox="0 0 68.27 7.66"><defs><style>.cls-1{fill:none;}.cls-2{clip-path:url(#clip-path);}.cls-3{fill:#010101;}</style><clipPath id="clip-path" transform="translate(-0.58 -0.94)"><rect class="cls-1" width="69.81" height="11.04"/></clipPath></defs><title>community2-txt4</title><g class="cls-2"><path class="cls-3" d="M.58,8.5v-7H4.27a2.5,2.5,0,0,1,1.23.29,2.19,2.19,0,0,1,1.15,2A2.13,2.13,0,0,1,6.34,4.9a2.19,2.19,0,0,1-.85.8A2.54,2.54,0,0,1,4.27,6h-2V8.5ZM2.3,4.57H4.07a.85.85,0,0,0,.61-.22.75.75,0,0,0,.23-.57.78.78,0,0,0-.23-.58A.84.84,0,0,0,4.07,3H2.3Z" transform="translate(-0.58 -0.94)"/><path class="cls-3" d="M8.76,2.72a.89.89,0,0,1-.89-.89.89.89,0,1,1,1.78,0,.89.89,0,0,1-.89.89ZM7.95,8.5V3.21H9.57V8.5Z" transform="translate(-0.58 -0.94)"/><path class="cls-3" d="M11.07,8.5v-7l1.62-.25V8.5Z" transform="translate(-0.58 -0.94)"/><path class="cls-3" d="M15.88,8.59a2.27,2.27,0,0,1-1-.21,1.65,1.65,0,0,1-.68-.58A1.5,1.5,0,0,1,14,7a1.36,1.36,0,0,1,.58-1.18,2.7,2.7,0,0,1,1.6-.42,4.79,4.79,0,0,1,1.2.15V5.25a.7.7,0,0,0-.25-.6,1.23,1.23,0,0,0-.75-.19,2.81,2.81,0,0,0-.7.1,6.79,6.79,0,0,0-.9.32l-.58-1.19a7.21,7.21,0,0,1,1.25-.44,5.2,5.2,0,0,1,1.22-.15,2.54,2.54,0,0,1,1.71.52,1.84,1.84,0,0,1,.61,1.48V8.5h-1.6V8.18a2.17,2.17,0,0,1-.67.32A3,3,0,0,1,15.88,8.59ZM15.5,6.92a.44.44,0,0,0,.22.39,1.13,1.13,0,0,0,.61.14,2.37,2.37,0,0,0,.54-.06,1.55,1.55,0,0,0,.46-.19V6.52a3.58,3.58,0,0,0-.47-.09,3.86,3.86,0,0,0-.49,0,1.28,1.28,0,0,0-.65.14A.42.42,0,0,0,15.5,6.92Z" transform="translate(-0.58 -0.94)"/><path class="cls-3" d="M22.92,8.57a2.12,2.12,0,0,1-1.44-.43A1.58,1.58,0,0,1,21,6.89V4.56H19.93V3.21H21V1.85l1.62-.35V3.21H24.1V4.56H22.62v2a.66.66,0,0,0,.15.5.8.8,0,0,0,.54.14l.37,0L24,7.1V8.41a3.33,3.33,0,0,1-.56.12A4.62,4.62,0,0,1,22.92,8.57Z" transform="translate(-0.58 -0.94)"/><path class="cls-3" d="M27.82,8.6a3,3,0,0,1-1.47-.36,2.77,2.77,0,0,1-1-1,2.6,2.6,0,0,1-.38-1.39,2.68,2.68,0,0,1,.37-1.39,2.71,2.71,0,0,1,1-1,2.74,2.74,0,0,1,1.4-.36,2.55,2.55,0,0,1,1.38.38,2.65,2.65,0,0,1,.95,1A3.13,3.13,0,0,1,30.37,6v.4H26.6a1.47,1.47,0,0,0,.29.44,1.27,1.27,0,0,0,.45.29,1.48,1.48,0,0,0,.56.11,1.63,1.63,0,0,0,.6-.11A1.3,1.3,0,0,0,29,6.85L30,7.8a3.41,3.41,0,0,1-1,.61A3.48,3.48,0,0,1,27.82,8.6ZM26.57,5.28h2.21a1.19,1.19,0,0,0-.25-.44,1.22,1.22,0,0,0-.38-.29,1.1,1.1,0,0,0-.48-.1,1.17,1.17,0,0,0-.49.1,1.05,1.05,0,0,0-.37.29A1.25,1.25,0,0,0,26.57,5.28Z" transform="translate(-0.58 -0.94)"/><path class="cls-3" d="M33.77,8.6a5.23,5.23,0,0,1-1.39-.17,3.4,3.4,0,0,1-1.11-.51L32,6.82a4.64,4.64,0,0,0,.91.43,2.58,2.58,0,0,0,.81.13,1.47,1.47,0,0,0,.63-.11A.35.35,0,0,0,34.63,7a.29.29,0,0,0-.13-.25,1,1,0,0,0-.41-.13L33,6.43a2.14,2.14,0,0,1-1.21-.53,1.41,1.41,0,0,1-.41-1.05,1.55,1.55,0,0,1,.27-.93,1.73,1.73,0,0,1,.78-.59,3.27,3.27,0,0,1,1.22-.21,4.25,4.25,0,0,1,1.15.16,3.81,3.81,0,0,1,1.06.48l-.77,1a3.77,3.77,0,0,0-.82-.37,2.76,2.76,0,0,0-.78-.11,1,1,0,0,0-.5.1.31.31,0,0,0-.19.27A.29.29,0,0,0,33,5a1.22,1.22,0,0,0,.48.15l1,.16a2.13,2.13,0,0,1,1.21.52,1.36,1.36,0,0,1,.42,1,1.47,1.47,0,0,1-.31.92,2.13,2.13,0,0,1-.84.63A3,3,0,0,1,33.77,8.6Z" transform="translate(-0.58 -0.94)"/><path class="cls-3" d="M39.8,8.5v-7h3.58a2.79,2.79,0,0,1,1.28.29,2.16,2.16,0,0,1,.88.79,2.14,2.14,0,0,1,.31,1.15,2,2,0,0,1-.36,1.18,2.29,2.29,0,0,1-.95.79l1.53,2.8H44.15L42.83,6H41.52V8.5Zm1.72-4h1.7a.93.93,0,0,0,.64-.22.73.73,0,0,0,.25-.57.73.73,0,0,0-.25-.57A.93.93,0,0,0,43.22,3h-1.7Z" transform="translate(-0.58 -0.94)"/><path class="cls-3" d="M49.78,8.6a2.93,2.93,0,0,1-1.46-.36,2.79,2.79,0,0,1-1-1,2.61,2.61,0,0,1-.38-1.39,2.64,2.64,0,0,1,.38-1.4,2.77,2.77,0,0,1,1-1,3.1,3.1,0,0,1,2.92,0,2.77,2.77,0,0,1,1,1,2.64,2.64,0,0,1,.38,1.4,2.61,2.61,0,0,1-.38,1.39,2.79,2.79,0,0,1-1,1A2.93,2.93,0,0,1,49.78,8.6Zm0-1.4A1.22,1.22,0,0,0,50.44,7a1.3,1.3,0,0,0,.46-.48,1.37,1.37,0,0,0,.17-.68,1.39,1.39,0,0,0-.17-.69,1.3,1.3,0,0,0-.46-.48,1.28,1.28,0,0,0-1.31,0,1.3,1.3,0,0,0-.46.48,1.39,1.39,0,0,0-.17.69,1.37,1.37,0,0,0,.17.68,1.29,1.29,0,0,0,.46.48A1.23,1.23,0,0,0,49.78,7.2Z" transform="translate(-0.58 -0.94)"/><path class="cls-3" d="M56.54,8.6a2.93,2.93,0,0,1-1.46-.36,2.79,2.79,0,0,1-1-1,2.61,2.61,0,0,1-.38-1.39A2.64,2.64,0,0,1,54,4.46a2.77,2.77,0,0,1,1-1,3.1,3.1,0,0,1,2.92,0,2.77,2.77,0,0,1,1,1,2.64,2.64,0,0,1,.38,1.4A2.61,2.61,0,0,1,59,7.25a2.79,2.79,0,0,1-1,1A2.93,2.93,0,0,1,56.54,8.6Zm0-1.4A1.22,1.22,0,0,0,57.2,7a1.3,1.3,0,0,0,.46-.48,1.37,1.37,0,0,0,.17-.68,1.39,1.39,0,0,0-.17-.69,1.3,1.3,0,0,0-.46-.48,1.28,1.28,0,0,0-1.31,0,1.3,1.3,0,0,0-.46.48,1.39,1.39,0,0,0-.17.69,1.37,1.37,0,0,0,.17.68,1.29,1.29,0,0,0,.46.48A1.23,1.23,0,0,0,56.54,7.2Z" transform="translate(-0.58 -0.94)"/><path class="cls-3" d="M60.57,8.5V3.21h1.62v.34a2.21,2.21,0,0,1,2.22-.25,1.83,1.83,0,0,1,.67.54,2.22,2.22,0,0,1,.76-.54,2.4,2.4,0,0,1,1-.19,2.06,2.06,0,0,1,1.06.27,1.94,1.94,0,0,1,.72.75,2.26,2.26,0,0,1,.27,1.11V8.5H67.23v-3a1,1,0,0,0-.24-.7.8.8,0,0,0-.62-.26,1.17,1.17,0,0,0-.49.1,1,1,0,0,0-.38.3c0,.05,0,.11,0,.17s0,.12,0,.18V8.5H63.9v-3a1,1,0,0,0-.24-.7A.8.8,0,0,0,63,4.5a1.18,1.18,0,0,0-.48.1.94.94,0,0,0-.37.28V8.5Z" transform="translate(-0.58 -0.94)"/></g></svg>