<svg id="CONTENTS" xmlns="http://www.w3.org/2000/svg" viewBox="0 0 12.27 6.48"><defs><style>.cls-1{fill:#010101;}</style></defs><title>community2-name23</title><g id="_02" data-name="02"><g id="아이콘"><g id="아이콘_카피1" data-name="아이콘 카피1"><g id="S4"><path class="cls-1" d="M404.66,775a4.15,4.15,0,0,1-2.79-1.09l.75-.94a4,4,0,0,0,1.06.7,2.71,2.71,0,0,0,1.08.22,2.22,2.22,0,0,0,.68-.09,1,1,0,0,0,.45-.27.62.62,0,0,0,.16-.42.59.59,0,0,0-.23-.5,2,2,0,0,0-.8-.27l-1.25-.22a2.14,2.14,0,0,1-1.22-.57,1.54,1.54,0,0,1-.42-1.12,1.73,1.73,0,0,1,.3-1,1.89,1.89,0,0,1,.85-.66,3.43,3.43,0,0,1,1.32-.23,4.29,4.29,0,0,1,1.38.23,4.12,4.12,0,0,1,1.22.65l-.7,1a3.27,3.27,0,0,0-2-.76,1.89,1.89,0,0,0-.61.09.92.92,0,0,0-.4.25.54.54,0,0,0-.14.37.53.53,0,0,0,.21.45,1.61,1.61,0,0,0,.69.24l1.19.2a2.62,2.62,0,0,1,1.41.6,1.55,1.55,0,0,1,.47,1.17A1.79,1.79,0,0,1,407,774a2.07,2.07,0,0,1-.92.7A3.67,3.67,0,0,1,404.66,775Z" transform="translate(-401.87 -768.47)"/><path class="cls-1" d="M412.13,774.86v-1.48h-3.55v-1l3.37-3.83h1.42v3.79h.77v1h-.77v1.48ZM410,772.35h2.13v-2.42Z" transform="translate(-401.87 -768.47)"/></g></g></g></g></svg>