<svg id="Layer_1" data-name="Layer 1" xmlns="http://www.w3.org/2000/svg" xmlns:xlink="http://www.w3.org/1999/xlink" viewBox="0 0 67.63 65.52"><defs><style>.cls-1,.cls-3,.cls-4{fill:none;}.cls-2{clip-path:url(#clip-path);}.cls-3,.cls-4{stroke:#010101;stroke-miterlimit:10;}.cls-3{stroke-width:6.31px;}.cls-4{stroke-width:4.5px;}</style><clipPath id="clip-path" transform="translate(0 0)"><rect class="cls-1" width="67.63" height="65.52"/></clipPath></defs><title>community2-icon21</title><g class="cls-2"><line class="cls-3" x1="33.82" y1="63.2" x2="33.82" y2="28.51"/><path class="cls-3" d="M62.21,28.5H5.43A25.22,25.22,0,0,1,30.65,3.29H37A25.22,25.22,0,0,1,62.21,28.51" transform="translate(0 0)"/><path class="cls-4" d="M21,28.51h0c0-9.65,2.28-21.12,12.81-25.22" transform="translate(0 0)"/><path class="cls-4" d="M46.63,28.51h0c0-9.65-2.28-21.12-12.81-25.22V28.51" transform="translate(0 0)"/><polyline class="cls-3" points="2.23 63.3 14.9 50.59 52.75 50.59 65.41 37.97"/><line class="cls-3" x1="52.75" y1="50.59" x2="59.06" y2="63.2"/></g></svg>