<svg id="CONTENTS" xmlns="http://www.w3.org/2000/svg" viewBox="0 0 13.02 6.5"><defs><style>.cls-1{fill:#010101;}</style></defs><title>community2-name8</title><g id="_02" data-name="02"><g id="아이콘"><g id="아이콘_카피1" data-name="아이콘 카피1"><g id="O8"><path class="cls-1" d="M405.5,466a3.4,3.4,0,0,1-1.31-.25,3.26,3.26,0,0,1-1.77-1.73,3.29,3.29,0,0,1,0-2.55,3.26,3.26,0,0,1,1.77-1.73,3.57,3.57,0,0,1,2.61,0,3.25,3.25,0,0,1,1.06.69,3.24,3.24,0,0,1,0,4.62,3.25,3.25,0,0,1-1.06.69A3.43,3.43,0,0,1,405.5,466Zm0-1.2a2,2,0,0,0,.79-.16,2,2,0,0,0,1.05-1.08,2.23,2.23,0,0,0,0-1.62,2,2,0,0,0-1.05-1.08,2,2,0,0,0-.79-.16,1.93,1.93,0,0,0-.78.16,2,2,0,0,0-1.05,1.08,2.1,2.1,0,0,0-.15.81,2.16,2.16,0,0,0,.15.82,2,2,0,0,0,1.05,1.08A1.93,1.93,0,0,0,405.5,464.77Z" transform="translate(-402.17 -459.46)"/><path class="cls-1" d="M412.8,466a3,3,0,0,1-1.24-.24,2,2,0,0,1-.85-.66,1.58,1.58,0,0,1-.31-1,1.39,1.39,0,0,1,.16-.65,1.55,1.55,0,0,1,.45-.52,2,2,0,0,1,.66-.33,1.71,1.71,0,0,1-.77-.54,1.29,1.29,0,0,1-.3-.83,1.51,1.51,0,0,1,.29-.9,2,2,0,0,1,.79-.63,2.81,2.81,0,0,1,2.25,0,2,2,0,0,1,.78.63,1.51,1.51,0,0,1,.29.9,1.29,1.29,0,0,1-.3.83,1.71,1.71,0,0,1-.77.54,1.93,1.93,0,0,1,.92.57,1.37,1.37,0,0,1,.35.93,1.6,1.6,0,0,1-.3,1,2,2,0,0,1-.85.66A3.08,3.08,0,0,1,412.8,466Zm0-1a1.52,1.52,0,0,0,.63-.12,1,1,0,0,0,.42-.34.87.87,0,0,0,0-1,1,1,0,0,0-.42-.34,1.63,1.63,0,0,0-1.26,0,1,1,0,0,0-.43.34.87.87,0,0,0,0,1,1,1,0,0,0,.43.34A1.53,1.53,0,0,0,412.8,465Zm0-2.79a1.24,1.24,0,0,0,.54-.11.91.91,0,0,0,.37-.31.78.78,0,0,0,.13-.45.8.8,0,0,0-.13-.45.9.9,0,0,0-.37-.31,1.33,1.33,0,0,0-1.07,0,.91.91,0,0,0-.37.31.79.79,0,0,0-.14.46.78.78,0,0,0,.14.45.9.9,0,0,0,.37.31A1.24,1.24,0,0,0,412.8,462.19Z" transform="translate(-402.17 -459.46)"/></g></g></g></g></svg>