<svg id="Layer_1" data-name="Layer 1" xmlns="http://www.w3.org/2000/svg" viewBox="0 0 1040 617"><defs><style>.cls-1{fill:none;}.cls-2{isolation:isolate;}.cls-3{fill:#020202;}</style></defs><title>community2-num</title><g id="bg"><rect class="cls-1" width="1040" height="617"/></g><g id="Iso"><g id="위치안내"><g id="O1"><g class="cls-2"><path class="cls-3" d="M415.19,335.71a3.4,3.4,0,0,1-1.3-.25,3.26,3.26,0,0,1-1.77-1.73,3.29,3.29,0,0,1,0-2.55,3.26,3.26,0,0,1,1.77-1.73,3.57,3.57,0,0,1,2.61,0,3.25,3.25,0,0,1,1.06.69,3.24,3.24,0,0,1,0,4.62,3.25,3.25,0,0,1-1.06.69A3.43,3.43,0,0,1,415.19,335.71Zm0-1.2a2,2,0,0,0,.79-.16,2,2,0,0,0,1.05-1.08,2.24,2.24,0,0,0,0-1.62,2,2,0,0,0-1.05-1.08,2,2,0,0,0-.79-.16,1.94,1.94,0,0,0-.78.16,2,2,0,0,0-1.05,1.08,2.1,2.1,0,0,0-.15.81,2.16,2.16,0,0,0,.15.82,2,2,0,0,0,1.05,1.08A1.92,1.92,0,0,0,415.19,334.51Z"/><path class="cls-3" d="M420.73,335.61v-5l-1.23.51V330l1.68-.68H422v6.3Z"/></g></g><g id="O2"><g class="cls-2"><path class="cls-3" d="M445.41,322.19a3.4,3.4,0,0,1-1.3-.25,3.26,3.26,0,0,1-1.77-1.73,3.29,3.29,0,0,1,0-2.55,3.26,3.26,0,0,1,1.77-1.73,3.4,3.4,0,0,1,1.3-.25,3.44,3.44,0,0,1,1.31.25,3.25,3.25,0,0,1,1.06.69,3.24,3.24,0,0,1,0,4.62,3.25,3.25,0,0,1-1.06.69A3.44,3.44,0,0,1,445.41,322.19Zm0-1.2a2,2,0,0,0,.79-.16,2,2,0,0,0,1.05-1.08,2.23,2.23,0,0,0,0-1.62,2,2,0,0,0-1.84-1.24,1.94,1.94,0,0,0-.78.16,2,2,0,0,0-1.05,1.08,2.09,2.09,0,0,0-.15.81,2.15,2.15,0,0,0,.15.82,2,2,0,0,0,1.05,1.08A1.93,1.93,0,0,0,445.41,321Z"/><path class="cls-3" d="M450,322.09v-.85l2.63-2.66a2.68,2.68,0,0,0,.3-.37,1.28,1.28,0,0,0,.16-.34,1.17,1.17,0,0,0,0-.34.72.72,0,0,0-.29-.58,1.15,1.15,0,0,0-.74-.23,1.84,1.84,0,0,0-.8.18,3.23,3.23,0,0,0-.81.6l-.67-.81a3.88,3.88,0,0,1,1.11-.74,3,3,0,0,1,1.21-.25,2.65,2.65,0,0,1,1.13.23,1.8,1.8,0,0,1,.76.62,1.61,1.61,0,0,1,.27.93,1.91,1.91,0,0,1-.08.58,2.08,2.08,0,0,1-.27.54,4.28,4.28,0,0,1-.5.59l-1.91,1.92h2.87v1Z"/></g></g><g id="O3"><g class="cls-2"><path class="cls-3" d="M489.87,182.38a3.4,3.4,0,0,1-1.3-.25,3.26,3.26,0,0,1-1.77-1.73,3.29,3.29,0,0,1,0-2.55,3.26,3.26,0,0,1,1.77-1.73,3.4,3.4,0,0,1,1.3-.25,3.44,3.44,0,0,1,1.31.25,3.25,3.25,0,0,1,1.06.69,3.24,3.24,0,0,1,0,4.62,3.25,3.25,0,0,1-1.06.69A3.44,3.44,0,0,1,489.87,182.38Zm0-1.2a2,2,0,0,0,.79-.16,2,2,0,0,0,1.05-1.08,2.23,2.23,0,0,0,0-1.62,2,2,0,0,0-1.84-1.24,1.94,1.94,0,0,0-.78.16,2,2,0,0,0-1.05,1.08,2.09,2.09,0,0,0-.15.81,2.15,2.15,0,0,0,.15.82,2,2,0,0,0,1.05,1.08A1.93,1.93,0,0,0,489.87,181.18Z"/><path class="cls-3" d="M496.68,182.38a3.54,3.54,0,0,1-1.35-.26,2.84,2.84,0,0,1-1-.72l.79-.74a2.12,2.12,0,0,0,.71.54,2.27,2.27,0,0,0,.88.15,1.78,1.78,0,0,0,.66-.11,1,1,0,0,0,.44-.32.77.77,0,0,0,.16-.48.74.74,0,0,0-.13-.43.87.87,0,0,0-.34-.28,1.17,1.17,0,0,0-.51-.1h-.79v-1h.68a1,1,0,0,0,.67-.22.78.78,0,0,0,.24-.61.76.76,0,0,0-.14-.46,1,1,0,0,0-.39-.32,1.31,1.31,0,0,0-.56-.12,1.85,1.85,0,0,0-.8.16,2.38,2.38,0,0,0-.71.58l-.8-.74a3.08,3.08,0,0,1,1.06-.77,3.15,3.15,0,0,1,1.3-.28,2.78,2.78,0,0,1,1.16.23,1.93,1.93,0,0,1,.79.63,1.56,1.56,0,0,1,.29.93,1.34,1.34,0,0,1-.33.9,1.73,1.73,0,0,1-.86.54,1.89,1.89,0,0,1,1,.5,1.25,1.25,0,0,1,.37.91,1.56,1.56,0,0,1-.32,1,2.09,2.09,0,0,1-.86.66A3.1,3.1,0,0,1,496.68,182.38Z"/></g></g><g id="O4"><g class="cls-2"><path class="cls-3" d="M516.39,126.67a3.4,3.4,0,0,1-1.3-.25,3.26,3.26,0,0,1-1.77-1.73,3.3,3.3,0,0,1,0-2.55,3.26,3.26,0,0,1,1.77-1.73,3.57,3.57,0,0,1,2.61,0,3.25,3.25,0,0,1,1.06.69,3.24,3.24,0,0,1,0,4.62,3.25,3.25,0,0,1-1.06.69A3.43,3.43,0,0,1,516.39,126.67Zm0-1.2a1.94,1.94,0,0,0,.79-.16,2,2,0,0,0,1.05-1.08,2.24,2.24,0,0,0,0-1.62,2,2,0,0,0-1.05-1.08,2,2,0,0,0-.79-.16,1.94,1.94,0,0,0-.78.16,2,2,0,0,0-1.05,1.08,2.11,2.11,0,0,0-.15.81,2.17,2.17,0,0,0,.15.82,2,2,0,0,0,1.05,1.08A1.92,1.92,0,0,0,516.39,125.47Z"/><path class="cls-3" d="M524.3,126.57v-1.48h-3.55v-1l3.37-3.83h1.42v3.79h.77v1h-.77v1.48Zm-2.13-2.51h2.13v-2.42Z"/></g></g><g id="O5"><g class="cls-2"><path class="cls-3" d="M498.34,437.19a3.4,3.4,0,0,1-1.3-.25,3.26,3.26,0,0,1-1.77-1.73,3.29,3.29,0,0,1,0-2.55,3.26,3.26,0,0,1,1.77-1.73,3.57,3.57,0,0,1,2.61,0,3.25,3.25,0,0,1,1.06.69,3.24,3.24,0,0,1,0,4.62,3.25,3.25,0,0,1-1.06.69A3.43,3.43,0,0,1,498.34,437.19Zm0-1.2a2,2,0,0,0,.79-.16,2,2,0,0,0,1.05-1.08,2.24,2.24,0,0,0,0-1.62,2,2,0,0,0-1.05-1.08,2,2,0,0,0-.79-.16,1.94,1.94,0,0,0-.78.16,2,2,0,0,0-1.05,1.08,2.1,2.1,0,0,0-.15.81,2.16,2.16,0,0,0,.15.82,2,2,0,0,0,1.05,1.08A1.92,1.92,0,0,0,498.34,436Z"/><path class="cls-3" d="M505,437.19a3.29,3.29,0,0,1-2.26-.85l.7-.82a2.94,2.94,0,0,0,.78.5,2.18,2.18,0,0,0,.83.15,1.41,1.41,0,0,0,.64-.13,1.06,1.06,0,0,0,.43-.38,1,1,0,0,0,.16-.57.94.94,0,0,0-.36-.76,1.39,1.39,0,0,0-.92-.3,2.21,2.21,0,0,0-.57.08,2.64,2.64,0,0,0-.58.24l-.82-.24.14-3.32h4v1h-3l-.07,1.63a3,3,0,0,1,.62-.23,2.79,2.79,0,0,1,.66-.08,2.44,2.44,0,0,1,1.11.24,1.77,1.77,0,0,1,.73.67,1.91,1.91,0,0,1,.26,1,2,2,0,0,1-.31,1.13,2.07,2.07,0,0,1-.87.76A3,3,0,0,1,505,437.19Z"/></g></g><g id="O6"><g class="cls-2"><path class="cls-3" d="M545.41,550.51a3.4,3.4,0,0,1-1.3-.25,3.26,3.26,0,0,1-1.77-1.73,3.29,3.29,0,0,1,0-2.55,3.26,3.26,0,0,1,1.77-1.73,3.4,3.4,0,0,1,1.3-.25,3.44,3.44,0,0,1,1.31.25,3.25,3.25,0,0,1,1.06.69,3.24,3.24,0,0,1,0,4.62,3.25,3.25,0,0,1-1.06.69A3.44,3.44,0,0,1,545.41,550.51Zm0-1.2a2,2,0,0,0,.79-.16,2,2,0,0,0,1.05-1.08,2.23,2.23,0,0,0,0-1.62,2,2,0,0,0-1.84-1.24,1.94,1.94,0,0,0-.78.16,2,2,0,0,0-1.05,1.08,2.09,2.09,0,0,0-.15.81,2.15,2.15,0,0,0,.15.82,2,2,0,0,0,1.05,1.08A1.93,1.93,0,0,0,545.41,549.31Z"/><path class="cls-3" d="M552.6,550.51a2.5,2.5,0,0,1-1.4-.4,2.66,2.66,0,0,1-.94-1.09,3.68,3.68,0,0,1-.34-1.62,4,4,0,0,1,.37-1.78,2.83,2.83,0,0,1,1-1.18,2.88,2.88,0,0,1,1.57-.42,3.09,3.09,0,0,1,1,.16,2.31,2.31,0,0,1,.81.45l-.67.85a1.84,1.84,0,0,0-.56-.31,2.08,2.08,0,0,0-.66-.1,1.56,1.56,0,0,0-.94.28,1.74,1.74,0,0,0-.59.8,3.6,3.6,0,0,0-.21,1.26,2.27,2.27,0,0,1,.76-.67,1.93,1.93,0,0,1,.93-.24,2.37,2.37,0,0,1,1.1.25,1.89,1.89,0,0,1,.75.68,1.85,1.85,0,0,1,.27,1,2,2,0,0,1-.3,1.07,2.11,2.11,0,0,1-.81.75A2.43,2.43,0,0,1,552.6,550.51Zm0-3.09a1.82,1.82,0,0,0-.78.17,2,2,0,0,0-.64.49,2.39,2.39,0,0,0,.28.75,1.4,1.4,0,0,0,.48.49,1.22,1.22,0,0,0,.64.17,1.3,1.3,0,0,0,.6-.13,1.06,1.06,0,0,0,.42-.37,1,1,0,0,0,.15-.54,1,1,0,0,0-.54-.9A1.33,1.33,0,0,0,552.56,547.42Z"/></g></g><g id="O7"><g class="cls-2"><path class="cls-3" d="M587.35,446a3.4,3.4,0,0,1-1.3-.25,3.26,3.26,0,0,1-1.77-1.73,3.3,3.3,0,0,1,0-2.55A3.26,3.26,0,0,1,586,439.8a3.57,3.57,0,0,1,2.61,0,3.25,3.25,0,0,1,1.06.69,3.24,3.24,0,0,1,0,4.62,3.25,3.25,0,0,1-1.06.69A3.43,3.43,0,0,1,587.35,446Zm0-1.2a1.94,1.94,0,0,0,.79-.16,2,2,0,0,0,1.05-1.08,2.24,2.24,0,0,0,0-1.62,2,2,0,0,0-1.05-1.08,2,2,0,0,0-.79-.16,1.94,1.94,0,0,0-.78.16,2,2,0,0,0-1.05,1.08,2.11,2.11,0,0,0-.15.81,2.17,2.17,0,0,0,.15.82,2,2,0,0,0,1.05,1.08A1.92,1.92,0,0,0,587.35,444.85Z"/><path class="cls-3" d="M592.41,446l2.83-5.26h-3.53v-1h4.8v.88L593.82,446Z"/></g></g><g id="O8"><g class="cls-2"><path class="cls-3" d="M685.22,500.54a3.4,3.4,0,0,1-1.3-.25,3.26,3.26,0,0,1-1.77-1.73,3.3,3.3,0,0,1,0-2.55,3.26,3.26,0,0,1,1.77-1.73,3.57,3.57,0,0,1,2.61,0,3.25,3.25,0,0,1,1.06.69,3.24,3.24,0,0,1,0,4.62,3.25,3.25,0,0,1-1.06.69A3.43,3.43,0,0,1,685.22,500.54Zm0-1.2a1.94,1.94,0,0,0,.79-.16,2,2,0,0,0,1.05-1.08,2.24,2.24,0,0,0,0-1.62A2,2,0,0,0,686,495.4a2,2,0,0,0-.79-.16,1.94,1.94,0,0,0-.78.16,2,2,0,0,0-1.05,1.08,2.11,2.11,0,0,0-.15.81,2.17,2.17,0,0,0,.15.82,2,2,0,0,0,1.05,1.08A1.92,1.92,0,0,0,685.22,499.34Z"/><path class="cls-3" d="M692.16,500.54a3,3,0,0,1-1.24-.24,2,2,0,0,1-.85-.66,1.58,1.58,0,0,1-.31-1,1.38,1.38,0,0,1,.16-.65,1.55,1.55,0,0,1,.45-.52,2,2,0,0,1,.66-.33,1.71,1.71,0,0,1-.77-.54,1.29,1.29,0,0,1-.3-.83,1.51,1.51,0,0,1,.29-.9,2,2,0,0,1,.79-.63,2.81,2.81,0,0,1,2.25,0,2,2,0,0,1,.78.63,1.51,1.51,0,0,1,.29.9,1.29,1.29,0,0,1-.3.83,1.71,1.71,0,0,1-.77.54,1.94,1.94,0,0,1,.92.57,1.37,1.37,0,0,1,.35.93,1.59,1.59,0,0,1-.3,1,2,2,0,0,1-.85.66A3.07,3.07,0,0,1,692.16,500.54Zm0-1a1.52,1.52,0,0,0,.63-.12,1,1,0,0,0,.42-.34.87.87,0,0,0,0-1,1,1,0,0,0-.42-.34,1.63,1.63,0,0,0-1.25,0,1,1,0,0,0-.43.34.87.87,0,0,0,0,1,1,1,0,0,0,.43.34A1.53,1.53,0,0,0,692.16,499.56Zm0-2.79a1.23,1.23,0,0,0,.54-.11.91.91,0,0,0,.37-.31.78.78,0,0,0,.13-.45.8.8,0,0,0-.13-.45.89.89,0,0,0-.37-.32,1.33,1.33,0,0,0-1.07,0,.91.91,0,0,0-.37.31.8.8,0,0,0-.13.46.78.78,0,0,0,.13.45.91.91,0,0,0,.37.31A1.23,1.23,0,0,0,692.16,496.77Z"/></g></g><g id="O9"><g class="cls-2"><path class="cls-3" d="M715.76,521.61a3.4,3.4,0,0,1-1.3-.25,3.26,3.26,0,0,1-1.77-1.73,3.3,3.3,0,0,1,0-2.55,3.26,3.26,0,0,1,1.77-1.73,3.57,3.57,0,0,1,2.61,0,3.25,3.25,0,0,1,1.06.69,3.24,3.24,0,0,1,0,4.62,3.25,3.25,0,0,1-1.06.69A3.43,3.43,0,0,1,715.76,521.61Zm0-1.2a1.94,1.94,0,0,0,.79-.16,2,2,0,0,0,1.05-1.08,2.24,2.24,0,0,0,0-1.62,2,2,0,0,0-1.05-1.08,2,2,0,0,0-.79-.16,1.94,1.94,0,0,0-.78.16,2,2,0,0,0-1.05,1.08,2.11,2.11,0,0,0-.15.81,2.17,2.17,0,0,0,.15.82,2,2,0,0,0,1.05,1.08A1.92,1.92,0,0,0,715.76,520.41Z"/><path class="cls-3" d="M722.53,515.11a2.54,2.54,0,0,1,1.41.39,2.62,2.62,0,0,1,.95,1.09,3.72,3.72,0,0,1,.34,1.63,4,4,0,0,1-.37,1.77,2.83,2.83,0,0,1-1,1.19,2.9,2.9,0,0,1-1.57.42,3,3,0,0,1-1-.17,2.44,2.44,0,0,1-.81-.45l.67-.86a1.8,1.8,0,0,0,.56.31,2.09,2.09,0,0,0,.65.1,1.57,1.57,0,0,0,.94-.27,1.71,1.71,0,0,0,.58-.8,3.66,3.66,0,0,0,.21-1.26,2.26,2.26,0,0,1-.75.67,1.91,1.91,0,0,1-.93.24,2.36,2.36,0,0,1-1.09-.24,1.82,1.82,0,0,1-1-1.67,2,2,0,0,1,.29-1.07,2.08,2.08,0,0,1,.81-.74A2.45,2.45,0,0,1,722.53,515.11Zm0,3.09a1.77,1.77,0,0,0,.78-.18,2.1,2.1,0,0,0,.64-.48,2.17,2.17,0,0,0-.28-.75,1.49,1.49,0,0,0-.48-.5,1.2,1.2,0,0,0-.64-.17,1.31,1.31,0,0,0-.6.13,1.05,1.05,0,0,0-.42.37,1,1,0,0,0-.15.54,1,1,0,0,0,.15.53,1,1,0,0,0,.41.36A1.31,1.31,0,0,0,722.57,518.2Z"/></g></g><g id="O10"><g class="cls-2"><path class="cls-3" d="M837,461.16a3.4,3.4,0,0,1-1.3-.25,3.26,3.26,0,0,1-1.77-1.73,3.3,3.3,0,0,1,0-2.55,3.26,3.26,0,0,1,1.77-1.73,3.57,3.57,0,0,1,2.61,0,3.25,3.25,0,0,1,1.06.69,3.24,3.24,0,0,1,0,4.62,3.25,3.25,0,0,1-1.06.69A3.43,3.43,0,0,1,837,461.16Zm0-1.2a1.94,1.94,0,0,0,.79-.16,2,2,0,0,0,1.05-1.08,2.24,2.24,0,0,0,0-1.62,2,2,0,0,0-1.05-1.08,2,2,0,0,0-.79-.16,1.94,1.94,0,0,0-.78.16,2,2,0,0,0-1.05,1.08,2.11,2.11,0,0,0-.15.81,2.17,2.17,0,0,0,.15.82,2,2,0,0,0,1.05,1.08A1.92,1.92,0,0,0,837,460Z"/><path class="cls-3" d="M842.55,461.06v-5l-1.23.51v-1.08l1.68-.68h.78v6.3Z"/><path class="cls-3" d="M847.8,461.16a2.57,2.57,0,0,1-1.44-.41,2.71,2.71,0,0,1-1-1.14,4.34,4.34,0,0,1,0-3.4,2.71,2.71,0,0,1,1-1.14,2.77,2.77,0,0,1,2.9,0,2.73,2.73,0,0,1,1,1.14,4.34,4.34,0,0,1,0,3.4,2.73,2.73,0,0,1-1,1.14A2.59,2.59,0,0,1,847.8,461.16Zm0-1.07a1.36,1.36,0,0,0,.84-.26,1.66,1.66,0,0,0,.54-.76,3.59,3.59,0,0,0,0-2.33,1.67,1.67,0,0,0-.54-.75,1.46,1.46,0,0,0-1.67,0,1.68,1.68,0,0,0-.54.75,3.59,3.59,0,0,0,0,2.33,1.67,1.67,0,0,0,.54.76A1.34,1.34,0,0,0,847.8,460.09Z"/></g></g><g id="O11"><g class="cls-2"><path class="cls-3" d="M826.47,354.16a3.4,3.4,0,0,1-1.3-.25,3.26,3.26,0,0,1-1.77-1.73,3.3,3.3,0,0,1,0-2.55,3.26,3.26,0,0,1,1.77-1.73,3.57,3.57,0,0,1,2.61,0,3.25,3.25,0,0,1,1.06.69,3.24,3.24,0,0,1,0,4.62,3.25,3.25,0,0,1-1.06.69A3.43,3.43,0,0,1,826.47,354.16Zm0-1.2a1.94,1.94,0,0,0,.79-.16,2,2,0,0,0,1.05-1.08,2.24,2.24,0,0,0,0-1.62,2,2,0,0,0-1.05-1.08,2,2,0,0,0-.79-.16,1.94,1.94,0,0,0-.78.16,2,2,0,0,0-1.05,1.08,2.11,2.11,0,0,0-.15.81,2.17,2.17,0,0,0,.15.82,2,2,0,0,0,1.05,1.08A1.92,1.92,0,0,0,826.47,353Z"/><path class="cls-3" d="M832,354.06v-5l-1.23.51v-1.08l1.68-.68h.78v6.3Z"/><path class="cls-3" d="M835.6,354.06v-5l-1.23.51v-1.08l1.68-.68h.78v6.3Z"/></g></g><g id="O12"><g class="cls-2"><path class="cls-3" d="M754.63,298.52a3.4,3.4,0,0,1-1.3-.25,3.26,3.26,0,0,1-1.77-1.73,3.3,3.3,0,0,1,0-2.55,3.26,3.26,0,0,1,1.77-1.73,3.4,3.4,0,0,1,1.3-.25,3.44,3.44,0,0,1,1.31.25A3.25,3.25,0,0,1,757,293a3.24,3.24,0,0,1,0,4.62,3.25,3.25,0,0,1-1.06.69A3.43,3.43,0,0,1,754.63,298.52Zm0-1.2a2,2,0,0,0,.79-.16,2,2,0,0,0,.63-.43,2,2,0,0,0,.42-.65,2.23,2.23,0,0,0,0-1.62,2,2,0,0,0-.42-.65,2,2,0,0,0-.63-.43,2,2,0,0,0-.79-.16,1.93,1.93,0,0,0-.78.16,2,2,0,0,0-1.05,1.08,2.09,2.09,0,0,0-.15.81,2.15,2.15,0,0,0,.15.82,2,2,0,0,0,1.05,1.08A1.92,1.92,0,0,0,754.63,297.32Z"/><path class="cls-3" d="M760.17,298.42v-5l-1.23.51V292.8l1.68-.68h.78v6.3Z"/><path class="cls-3" d="M762.78,298.42v-.85l2.63-2.66a2.69,2.69,0,0,0,.3-.37,1.32,1.32,0,0,0,.16-.34,1.2,1.2,0,0,0,0-.34.72.72,0,0,0-.29-.58,1.15,1.15,0,0,0-.74-.23,1.84,1.84,0,0,0-.8.18,3.25,3.25,0,0,0-.81.6l-.67-.81a3.88,3.88,0,0,1,1.11-.74,3,3,0,0,1,1.21-.25,2.65,2.65,0,0,1,1.13.23,1.8,1.8,0,0,1,.76.62,1.6,1.6,0,0,1,.27.93,1.91,1.91,0,0,1-.09.58,2.05,2.05,0,0,1-.27.54,4.28,4.28,0,0,1-.5.59l-1.91,1.92h2.87v1Z"/></g></g><g id="O13"><g class="cls-2"><path class="cls-3" d="M717.1,268.82a3.4,3.4,0,0,1-1.3-.25,3.26,3.26,0,0,1-1.77-1.73,3.3,3.3,0,0,1,0-2.55,3.26,3.26,0,0,1,1.77-1.73,3.57,3.57,0,0,1,2.61,0,3.25,3.25,0,0,1,1.06.69,3.24,3.24,0,0,1,0,4.62,3.25,3.25,0,0,1-1.06.69A3.43,3.43,0,0,1,717.1,268.82Zm0-1.2a1.94,1.94,0,0,0,.79-.16,2,2,0,0,0,1.05-1.08,2.24,2.24,0,0,0,0-1.62,2,2,0,0,0-1.05-1.08,2,2,0,0,0-.79-.16,1.94,1.94,0,0,0-.78.16,2,2,0,0,0-1.05,1.08,2.11,2.11,0,0,0-.15.81,2.17,2.17,0,0,0,.15.82,2,2,0,0,0,1.05,1.08A1.92,1.92,0,0,0,717.1,267.62Z"/><path class="cls-3" d="M722.64,268.72v-5l-1.23.51V263.1l1.68-.68h.78v6.3Z"/><path class="cls-3" d="M727.5,268.82a3.54,3.54,0,0,1-1.35-.26,2.85,2.85,0,0,1-1-.72l.79-.74a2.13,2.13,0,0,0,.72.54,2.26,2.26,0,0,0,.88.15,1.79,1.79,0,0,0,.66-.11,1,1,0,0,0,.44-.32.76.76,0,0,0,.16-.48.74.74,0,0,0-.13-.43.87.87,0,0,0-.34-.28,1.17,1.17,0,0,0-.51-.1H727v-1h.68a1,1,0,0,0,.67-.22.78.78,0,0,0,.24-.61.77.77,0,0,0-.14-.46,1,1,0,0,0-.39-.32,1.31,1.31,0,0,0-.56-.12,1.86,1.86,0,0,0-.81.16,2.39,2.39,0,0,0-.71.58l-.8-.74a3.08,3.08,0,0,1,1.06-.77,3.15,3.15,0,0,1,1.3-.28,2.79,2.79,0,0,1,1.16.23,1.94,1.94,0,0,1,.79.63,1.56,1.56,0,0,1,.29.93,1.34,1.34,0,0,1-.33.9,1.73,1.73,0,0,1-.86.54,1.89,1.89,0,0,1,1,.5,1.25,1.25,0,0,1,.37.91,1.56,1.56,0,0,1-.31,1,2.09,2.09,0,0,1-.86.66A3.1,3.1,0,0,1,727.5,268.82Z"/></g></g><g id="O14"><g class="cls-2"><path class="cls-3" d="M687.48,245.61a3.4,3.4,0,0,1-1.3-.25,3.26,3.26,0,0,1-1.77-1.73,3.3,3.3,0,0,1,0-2.55,3.26,3.26,0,0,1,1.77-1.73,3.57,3.57,0,0,1,2.61,0,3.25,3.25,0,0,1,1.06.69,3.24,3.24,0,0,1,0,4.62,3.25,3.25,0,0,1-1.06.69A3.43,3.43,0,0,1,687.48,245.61Zm0-1.2a1.94,1.94,0,0,0,.79-.16,2,2,0,0,0,1.05-1.08,2.24,2.24,0,0,0,0-1.62,2,2,0,0,0-1.05-1.08,2,2,0,0,0-.79-.16,1.94,1.94,0,0,0-.78.16,2,2,0,0,0-1.05,1.08,2.11,2.11,0,0,0-.15.81,2.17,2.17,0,0,0,.15.82,2,2,0,0,0,1.05,1.08A1.92,1.92,0,0,0,687.48,244.41Z"/><path class="cls-3" d="M693,245.51v-5l-1.23.51v-1.08l1.68-.68h.78v6.3Z"/><path class="cls-3" d="M699,245.51V244h-3.55v-1l3.37-3.83h1.42V243H701v1h-.77v1.48ZM696.85,243H699v-2.42Z"/></g></g><g id="O15"><g class="cls-2"><path class="cls-3" d="M670.31,232.72a3.4,3.4,0,0,1-1.3-.25,3.26,3.26,0,0,1-1.77-1.73,3.3,3.3,0,0,1,0-2.55,3.26,3.26,0,0,1,1.77-1.73,3.57,3.57,0,0,1,2.61,0,3.25,3.25,0,0,1,1.06.69,3.24,3.24,0,0,1,0,4.62,3.25,3.25,0,0,1-1.06.69A3.43,3.43,0,0,1,670.31,232.72Zm0-1.2a1.94,1.94,0,0,0,.79-.16,2,2,0,0,0,1.05-1.08,2.24,2.24,0,0,0,0-1.62,2,2,0,0,0-1.05-1.08,2,2,0,0,0-.79-.16,1.94,1.94,0,0,0-.78.16,2,2,0,0,0-1.05,1.08,2.11,2.11,0,0,0-.15.81,2.17,2.17,0,0,0,.15.82,2,2,0,0,0,1.05,1.08A1.92,1.92,0,0,0,670.31,231.52Z"/><path class="cls-3" d="M675.85,232.62v-5l-1.23.51V227l1.68-.68h.78v6.3Z"/><path class="cls-3" d="M680.58,232.72a3.29,3.29,0,0,1-2.26-.85l.7-.82a2.94,2.94,0,0,0,.78.5,2.18,2.18,0,0,0,.83.15,1.41,1.41,0,0,0,.64-.13,1.06,1.06,0,0,0,.43-.38,1,1,0,0,0,.16-.57.94.94,0,0,0-.36-.76,1.39,1.39,0,0,0-.92-.3,2.21,2.21,0,0,0-.57.08,2.65,2.65,0,0,0-.58.24l-.82-.24.14-3.32h4v1h-3l-.07,1.63a3,3,0,0,1,.62-.23,2.78,2.78,0,0,1,.66-.08,2.44,2.44,0,0,1,1.11.24,1.77,1.77,0,0,1,.73.67,1.91,1.91,0,0,1,.26,1,2,2,0,0,1-.31,1.13,2.07,2.07,0,0,1-.87.76A3,3,0,0,1,680.58,232.72Z"/></g></g><g id="S6"><g class="cls-2"><path class="cls-3" d="M456.34,457.42a4.16,4.16,0,0,1-2.79-1.09l.75-.94a4,4,0,0,0,1.06.7,2.71,2.71,0,0,0,1.08.22,2.22,2.22,0,0,0,.68-.09,1,1,0,0,0,.45-.27.62.62,0,0,0,.16-.42.59.59,0,0,0-.23-.5,2,2,0,0,0-.8-.27l-1.25-.22a2.14,2.14,0,0,1-1.22-.57,1.54,1.54,0,0,1-.42-1.12,1.73,1.73,0,0,1,.3-1,1.89,1.89,0,0,1,.85-.66,3.43,3.43,0,0,1,1.32-.23,4.29,4.29,0,0,1,1.38.23,4.13,4.13,0,0,1,1.22.65l-.7,1a3.27,3.27,0,0,0-2-.76,1.89,1.89,0,0,0-.61.09.92.92,0,0,0-.4.25.54.54,0,0,0-.14.37.53.53,0,0,0,.21.45,1.62,1.62,0,0,0,.69.24l1.19.2a2.62,2.62,0,0,1,1.41.6,1.55,1.55,0,0,1,.47,1.17,1.79,1.79,0,0,1-.32,1.07,2.07,2.07,0,0,1-.92.7A3.67,3.67,0,0,1,456.34,457.42Z"/><path class="cls-3" d="M462.72,457.43a2.5,2.5,0,0,1-1.4-.4,2.66,2.66,0,0,1-.94-1.09,3.68,3.68,0,0,1-.34-1.62,4,4,0,0,1,.37-1.78,2.84,2.84,0,0,1,1-1.18,2.88,2.88,0,0,1,1.57-.42,3.1,3.1,0,0,1,1,.16,2.31,2.31,0,0,1,.81.45l-.67.85a1.84,1.84,0,0,0-.56-.31,2.08,2.08,0,0,0-.66-.1,1.56,1.56,0,0,0-.94.28,1.73,1.73,0,0,0-.59.8,3.6,3.6,0,0,0-.21,1.26,2.26,2.26,0,0,1,.76-.67,1.93,1.93,0,0,1,.93-.24,2.36,2.36,0,0,1,1.1.25,1.88,1.88,0,0,1,.75.68,1.85,1.85,0,0,1,.27,1,2,2,0,0,1-.3,1.07,2.11,2.11,0,0,1-.81.75A2.43,2.43,0,0,1,462.72,457.43Zm0-3.09a1.82,1.82,0,0,0-.78.17,2,2,0,0,0-.64.49,2.38,2.38,0,0,0,.28.75,1.4,1.4,0,0,0,.48.49,1.22,1.22,0,0,0,.64.17,1.3,1.3,0,0,0,.6-.13,1.05,1.05,0,0,0,.42-.37,1,1,0,0,0,.15-.54,1,1,0,0,0-.54-.9A1.33,1.33,0,0,0,462.68,454.34Z"/></g></g><g id="S5"><g class="cls-2"><path class="cls-3" d="M390,527a4.16,4.16,0,0,1-2.79-1.09L388,525a4,4,0,0,0,1.06.7,2.71,2.71,0,0,0,1.08.22,2.22,2.22,0,0,0,.68-.09,1,1,0,0,0,.45-.27.62.62,0,0,0,.16-.42.59.59,0,0,0-.23-.5,2,2,0,0,0-.8-.27l-1.25-.22a2.14,2.14,0,0,1-1.22-.57,1.54,1.54,0,0,1-.42-1.12,1.73,1.73,0,0,1,.3-1,1.89,1.89,0,0,1,.85-.66,3.43,3.43,0,0,1,1.32-.23,4.29,4.29,0,0,1,1.38.23,4.13,4.13,0,0,1,1.22.65l-.7,1a3.27,3.27,0,0,0-2-.76,1.89,1.89,0,0,0-.61.09.92.92,0,0,0-.4.25.54.54,0,0,0-.14.37.53.53,0,0,0,.21.45,1.62,1.62,0,0,0,.69.24l1.19.2a2.62,2.62,0,0,1,1.41.6,1.55,1.55,0,0,1,.47,1.17,1.79,1.79,0,0,1-.32,1.07,2.07,2.07,0,0,1-.92.7A3.67,3.67,0,0,1,390,527Z"/><path class="cls-3" d="M395.9,527a3.29,3.29,0,0,1-2.26-.85l.7-.82a2.94,2.94,0,0,0,.78.5,2.18,2.18,0,0,0,.83.15,1.41,1.41,0,0,0,.64-.13,1.06,1.06,0,0,0,.43-.38,1,1,0,0,0,.16-.57.94.94,0,0,0-.36-.76,1.39,1.39,0,0,0-.92-.3,2.21,2.21,0,0,0-.57.08,2.64,2.64,0,0,0-.58.24l-.82-.24.14-3.32h4v1h-3l-.07,1.63a3,3,0,0,1,.62-.23,2.79,2.79,0,0,1,.66-.08,2.44,2.44,0,0,1,1.11.24,1.77,1.77,0,0,1,.73.67,1.91,1.91,0,0,1,.26,1,2,2,0,0,1-.31,1.13,2.07,2.07,0,0,1-.87.76A3,3,0,0,1,395.9,527Z"/></g></g><g id="S4"><g class="cls-2"><path class="cls-3" d="M250.86,461.25a4.16,4.16,0,0,1-2.79-1.09l.75-.94a4,4,0,0,0,1.06.7,2.71,2.71,0,0,0,1.08.22,2.22,2.22,0,0,0,.68-.09,1,1,0,0,0,.45-.27.62.62,0,0,0,.16-.42.59.59,0,0,0-.23-.5,2,2,0,0,0-.8-.27l-1.25-.22a2.14,2.14,0,0,1-1.22-.57,1.54,1.54,0,0,1-.42-1.12,1.73,1.73,0,0,1,.3-1,1.89,1.89,0,0,1,.85-.66,3.43,3.43,0,0,1,1.32-.23,4.29,4.29,0,0,1,1.38.23,4.13,4.13,0,0,1,1.22.65l-.7,1a3.27,3.27,0,0,0-2-.76,1.89,1.89,0,0,0-.61.09.92.92,0,0,0-.4.25.54.54,0,0,0-.14.37.53.53,0,0,0,.21.45,1.62,1.62,0,0,0,.69.24l1.19.2a2.62,2.62,0,0,1,1.41.6,1.55,1.55,0,0,1,.47,1.17,1.79,1.79,0,0,1-.32,1.07,2.07,2.07,0,0,1-.92.7A3.67,3.67,0,0,1,250.86,461.25Z"/><path class="cls-3" d="M258,461.16v-1.48h-3.55v-1l3.37-3.83h1.42v3.79H260v1h-.77v1.48Zm-2.13-2.51H258v-2.42Z"/></g></g><g id="S3"><g class="cls-2"><path class="cls-3" d="M216.2,421.11a4.16,4.16,0,0,1-2.79-1.09l.75-.94a4,4,0,0,0,1.06.7,2.71,2.71,0,0,0,1.08.22,2.22,2.22,0,0,0,.68-.09,1,1,0,0,0,.45-.27.62.62,0,0,0,.16-.42.59.59,0,0,0-.23-.5,2,2,0,0,0-.8-.27l-1.25-.22a2.14,2.14,0,0,1-1.22-.57,1.54,1.54,0,0,1-.42-1.12,1.73,1.73,0,0,1,.3-1,1.89,1.89,0,0,1,.85-.66,3.43,3.43,0,0,1,1.32-.23,4.29,4.29,0,0,1,1.38.23,4.13,4.13,0,0,1,1.22.65l-.7,1a3.27,3.27,0,0,0-2-.76,1.89,1.89,0,0,0-.61.09.92.92,0,0,0-.4.25.54.54,0,0,0-.14.37.53.53,0,0,0,.21.45,1.62,1.62,0,0,0,.69.24l1.19.2a2.62,2.62,0,0,1,1.41.6,1.55,1.55,0,0,1,.47,1.17,1.79,1.79,0,0,1-.32,1.07,2.07,2.07,0,0,1-.92.7A3.67,3.67,0,0,1,216.2,421.11Z"/><path class="cls-3" d="M222.2,421.12a3.54,3.54,0,0,1-1.35-.26,2.85,2.85,0,0,1-1-.72l.79-.74a2.13,2.13,0,0,0,.72.54,2.27,2.27,0,0,0,.88.15,1.78,1.78,0,0,0,.66-.11,1,1,0,0,0,.44-.32.77.77,0,0,0,.16-.48.74.74,0,0,0-.13-.43.87.87,0,0,0-.34-.28,1.17,1.17,0,0,0-.51-.1h-.79v-1h.68a1,1,0,0,0,.67-.22.78.78,0,0,0,.24-.61.77.77,0,0,0-.14-.46,1,1,0,0,0-.39-.32,1.31,1.31,0,0,0-.56-.12,1.85,1.85,0,0,0-.81.16,2.38,2.38,0,0,0-.71.58l-.8-.74a3.08,3.08,0,0,1,1.06-.77,3.15,3.15,0,0,1,1.3-.28,2.78,2.78,0,0,1,1.16.23,1.93,1.93,0,0,1,.79.63,1.56,1.56,0,0,1,.29.93,1.34,1.34,0,0,1-.33.9,1.73,1.73,0,0,1-.86.54,1.89,1.89,0,0,1,1,.5,1.25,1.25,0,0,1,.37.91,1.56,1.56,0,0,1-.31,1,2.09,2.09,0,0,1-.86.66A3.1,3.1,0,0,1,222.2,421.12Z"/></g></g><g id="S2"><g class="cls-2"><path class="cls-3" d="M348.25,300a4.16,4.16,0,0,1-2.79-1.09l.75-.94a4,4,0,0,0,1.06.7,2.71,2.71,0,0,0,1.08.22,2.22,2.22,0,0,0,.68-.09,1,1,0,0,0,.45-.27.62.62,0,0,0,.16-.42.59.59,0,0,0-.23-.5,2,2,0,0,0-.8-.27l-1.25-.22a2.14,2.14,0,0,1-1.22-.57,1.54,1.54,0,0,1-.42-1.12,1.73,1.73,0,0,1,.3-1,1.89,1.89,0,0,1,.85-.66,3.43,3.43,0,0,1,1.32-.23,4.29,4.29,0,0,1,1.38.23,4.13,4.13,0,0,1,1.22.65l-.7,1a3.27,3.27,0,0,0-2-.76,1.89,1.89,0,0,0-.61.09.92.92,0,0,0-.4.25.54.54,0,0,0-.14.37.53.53,0,0,0,.21.45,1.62,1.62,0,0,0,.69.24l1.19.2a2.62,2.62,0,0,1,1.41.6,1.55,1.55,0,0,1,.47,1.17,1.79,1.79,0,0,1-.32,1.07,2.07,2.07,0,0,1-.92.7A3.67,3.67,0,0,1,348.25,300Z"/><path class="cls-3" d="M352,299.91v-.85l2.63-2.66a2.68,2.68,0,0,0,.3-.37,1.3,1.3,0,0,0,.16-.34,1.18,1.18,0,0,0,0-.34.72.72,0,0,0-.29-.58,1.15,1.15,0,0,0-.74-.23,1.84,1.84,0,0,0-.8.18,3.23,3.23,0,0,0-.81.6l-.67-.81a3.88,3.88,0,0,1,1.11-.74,3,3,0,0,1,1.21-.25,2.65,2.65,0,0,1,1.13.23,1.8,1.8,0,0,1,.76.62,1.6,1.6,0,0,1,.27.93,1.9,1.9,0,0,1-.09.58,2.06,2.06,0,0,1-.27.54,4.28,4.28,0,0,1-.5.59l-1.91,1.92h2.87v1Z"/></g></g><g id="S1"><g class="cls-2"><path class="cls-3" d="M260.58,210.38a4.15,4.15,0,0,1-2.79-1.09l.75-.94a4,4,0,0,0,1.06.7,2.71,2.71,0,0,0,1.08.22,2.21,2.21,0,0,0,.68-.09,1,1,0,0,0,.45-.27.63.63,0,0,0,.16-.42.59.59,0,0,0-.23-.5,2,2,0,0,0-.8-.27l-1.25-.22a2.14,2.14,0,0,1-1.22-.57,1.54,1.54,0,0,1-.42-1.12,1.74,1.74,0,0,1,.3-1,1.89,1.89,0,0,1,.86-.66,3.43,3.43,0,0,1,1.32-.23,4.29,4.29,0,0,1,1.38.23,4.13,4.13,0,0,1,1.22.65l-.7,1a3.27,3.27,0,0,0-2-.76,1.89,1.89,0,0,0-.61.09.92.92,0,0,0-.4.25.54.54,0,0,0-.14.37.53.53,0,0,0,.21.45,1.62,1.62,0,0,0,.69.24l1.19.2a2.62,2.62,0,0,1,1.41.6,1.55,1.55,0,0,1,.47,1.17,1.79,1.79,0,0,1-.32,1.07,2.07,2.07,0,0,1-.92.7A3.67,3.67,0,0,1,260.58,210.38Z"/><path class="cls-3" d="M265.31,210.29v-5l-1.23.51v-1.08l1.68-.68h.78v6.3Z"/></g></g><g id="R1"><g class="cls-2"><path class="cls-3" d="M470.57,221.35v-6.3h3.08a2.47,2.47,0,0,1,1.13.25,1.84,1.84,0,0,1,1,1.71,1.76,1.76,0,0,1-.33,1.06,2,2,0,0,1-.89.68l1.4,2.6h-1.46l-1.23-2.41h-1.42v2.41Zm1.31-3.48h1.66a1,1,0,0,0,.71-.23.84.84,0,0,0,0-1.22,1,1,0,0,0-.71-.23h-1.66Z"/><path class="cls-3" d="M478,221.35v-5l-1.23.51v-1.08l1.68-.68h.78v6.3Z"/></g></g><g id="R2"><g class="cls-2"><path class="cls-3" d="M612.92,202.62v-6.3H616a2.47,2.47,0,0,1,1.13.25,1.84,1.84,0,0,1,1,1.71,1.76,1.76,0,0,1-.33,1.06,2,2,0,0,1-.89.68l1.4,2.6h-1.46l-1.23-2.41h-1.42v2.41Zm1.3-3.48h1.66a1,1,0,0,0,.71-.23.84.84,0,0,0,0-1.22,1,1,0,0,0-.71-.23h-1.66Z"/><path class="cls-3" d="M619.35,202.62v-.85l2.63-2.66a2.68,2.68,0,0,0,.3-.37,1.28,1.28,0,0,0,.16-.34,1.17,1.17,0,0,0,0-.34.72.72,0,0,0-.29-.58,1.15,1.15,0,0,0-.74-.23,1.84,1.84,0,0,0-.8.18,3.23,3.23,0,0,0-.81.6l-.67-.81a3.88,3.88,0,0,1,1.11-.74,3,3,0,0,1,1.21-.25,2.65,2.65,0,0,1,1.13.23,1.8,1.8,0,0,1,.76.62,1.61,1.61,0,0,1,.27.93,1.91,1.91,0,0,1-.08.58,2.08,2.08,0,0,1-.27.54,4.28,4.28,0,0,1-.5.59l-1.91,1.92h2.87v1Z"/></g></g></g></g></svg>