<svg id="Layer_1" data-name="Layer 1" xmlns="http://www.w3.org/2000/svg" xmlns:xlink="http://www.w3.org/1999/xlink" viewBox="0 0 65.74 9.7"><defs><style>.cls-1{fill:none;}.cls-2{clip-path:url(#clip-path);}.cls-3{fill:#010101;}</style><clipPath id="clip-path" transform="translate(-0.58 -0.94)"><rect class="cls-1" width="67.32" height="11.04"/></clipPath></defs><title>community2-txt24</title><g class="cls-2"><path class="cls-3" d="M.58,8.5v-7H6.1V3H2.3V4.25H4.81V5.69H2.3V7H6.14V8.5Z" transform="translate(-0.58 -0.94)"/><path class="cls-3" d="M7.57,8.5V3.21H9.19v.36a2.27,2.27,0,0,1,1.42-.46,2.18,2.18,0,0,1,1.09.27,1.94,1.94,0,0,1,.75.75,2.22,2.22,0,0,1,.27,1.11V8.5H11.1v-3a.9.9,0,0,0-1-1,1.27,1.27,0,0,0-.54.11,1.19,1.19,0,0,0-.4.31V8.5Z" transform="translate(-0.58 -0.94)"/><path class="cls-3" d="M16.7,8.57a2.12,2.12,0,0,1-1.44-.43,1.58,1.58,0,0,1-.48-1.25V4.56H13.71V3.21h1.07V1.85L16.4,1.5V3.21h1.48V4.56H16.4v2a.66.66,0,0,0,.15.5.8.8,0,0,0,.54.14l.37,0,.36-.08V8.41a3.33,3.33,0,0,1-.56.12A4.62,4.62,0,0,1,16.7,8.57Z" transform="translate(-0.58 -0.94)"/><path class="cls-3" d="M21.6,8.6a3,3,0,0,1-1.47-.36,2.77,2.77,0,0,1-1-1,2.6,2.6,0,0,1-.38-1.39,2.68,2.68,0,0,1,.37-1.39,2.71,2.71,0,0,1,1-1,2.74,2.74,0,0,1,1.4-.36,2.55,2.55,0,0,1,1.38.38,2.65,2.65,0,0,1,.95,1A3.13,3.13,0,0,1,24.15,6v.4H20.38a1.47,1.47,0,0,0,.29.44,1.27,1.27,0,0,0,.45.29,1.48,1.48,0,0,0,.56.11,1.63,1.63,0,0,0,.6-.11,1.3,1.3,0,0,0,.46-.29l1.07,1a3.41,3.41,0,0,1-1,.61A3.48,3.48,0,0,1,21.6,8.6ZM20.35,5.28h2.21a1.19,1.19,0,0,0-.25-.44,1.22,1.22,0,0,0-.38-.29,1.1,1.1,0,0,0-.48-.1,1.17,1.17,0,0,0-.49.1,1.05,1.05,0,0,0-.37.29A1.25,1.25,0,0,0,20.35,5.28Z" transform="translate(-0.58 -0.94)"/><path class="cls-3" d="M25.41,8.5V3.21H27v.53a1.74,1.74,0,0,1,.61-.49,1.81,1.81,0,0,1,.78-.17,1.2,1.2,0,0,1,.61.13V4.63a1.45,1.45,0,0,0-.36-.12,2.1,2.1,0,0,0-.41,0,1.46,1.46,0,0,0-.71.17,1.38,1.38,0,0,0-.52.5V8.5Z" transform="translate(-0.58 -0.94)"/><path class="cls-3" d="M32.9,8.57a2.12,2.12,0,0,1-1.44-.43A1.58,1.58,0,0,1,31,6.89V4.56H29.91V3.21H31V1.85L32.6,1.5V3.21h1.48V4.56H32.6v2a.66.66,0,0,0,.15.5.8.8,0,0,0,.54.14l.37,0L34,7.1V8.41a3.33,3.33,0,0,1-.56.12A4.62,4.62,0,0,1,32.9,8.57Z" transform="translate(-0.58 -0.94)"/><path class="cls-3" d="M36.9,8.59a2.26,2.26,0,0,1-1-.21,1.66,1.66,0,0,1-.68-.58A1.51,1.51,0,0,1,35,7a1.37,1.37,0,0,1,.58-1.18,2.71,2.71,0,0,1,1.61-.42,4.79,4.79,0,0,1,1.2.15V5.25a.7.7,0,0,0-.26-.6,1.23,1.23,0,0,0-.75-.19,2.8,2.8,0,0,0-.69.1,6.77,6.77,0,0,0-.91.32l-.58-1.19a7.23,7.23,0,0,1,1.25-.44,5.2,5.2,0,0,1,1.21-.15,2.54,2.54,0,0,1,1.71.52A1.84,1.84,0,0,1,40,5.11V8.5h-1.6V8.18a2.17,2.17,0,0,1-.68.32A3,3,0,0,1,36.9,8.59Zm-.38-1.67a.44.44,0,0,0,.22.39,1.13,1.13,0,0,0,.61.14,2.37,2.37,0,0,0,.54-.06,1.55,1.55,0,0,0,.47-.19V6.52a3.61,3.61,0,0,0-.47-.09,3.85,3.85,0,0,0-.49,0,1.29,1.29,0,0,0-.65.14A.42.42,0,0,0,36.52,6.92Z" transform="translate(-0.58 -0.94)"/><path class="cls-3" d="M42.23,2.72a.89.89,0,0,1-.89-.89.89.89,0,1,1,1.78,0,.89.89,0,0,1-.89.89ZM41.42,8.5V3.21H43V8.5Z" transform="translate(-0.58 -0.94)"/><path class="cls-3" d="M44.54,8.5V3.21h1.62v.36a2.27,2.27,0,0,1,1.42-.46,2.18,2.18,0,0,1,1.09.27,1.94,1.94,0,0,1,.75.75,2.23,2.23,0,0,1,.27,1.11V8.5H48.07v-3a.9.9,0,0,0-1-1,1.27,1.27,0,0,0-.54.11,1.19,1.19,0,0,0-.41.31V8.5Z" transform="translate(-0.58 -0.94)"/><path class="cls-3" d="M52,2.72a.89.89,0,0,1-.89-.89.89.89,0,1,1,1.78,0,.89.89,0,0,1-.89.89ZM51.15,8.5V3.21h1.62V8.5Z" transform="translate(-0.58 -0.94)"/><path class="cls-3" d="M54.27,8.5V3.21h1.62v.36a2.27,2.27,0,0,1,1.42-.46,2.18,2.18,0,0,1,1.09.27,1.94,1.94,0,0,1,.75.75,2.23,2.23,0,0,1,.27,1.11V8.5H57.8v-3a.9.9,0,0,0-1-1,1.27,1.27,0,0,0-.54.11,1.19,1.19,0,0,0-.41.31V8.5Z" transform="translate(-0.58 -0.94)"/><path class="cls-3" d="M63.58,10.64a5.93,5.93,0,0,1-1.21-.12,4.68,4.68,0,0,1-1-.34l.54-1.26a4.4,4.4,0,0,0,.85.3,3.63,3.63,0,0,0,.84.1,1.37,1.37,0,0,0,.86-.23.83.83,0,0,0,.29-.69V8.1a2.39,2.39,0,0,1-1.37.42A2.62,2.62,0,0,1,62,8.16a2.7,2.7,0,0,1-1-1,2.65,2.65,0,0,1-.36-1.36A2.6,2.6,0,0,1,61,4.46a2.67,2.67,0,0,1,1-1,2.77,2.77,0,0,1,1.39-.35,2.72,2.72,0,0,1,.7.09,2.51,2.51,0,0,1,.63.26V3.21h1.6V8.42a2,2,0,0,1-.71,1.65A3.15,3.15,0,0,1,63.58,10.64Zm0-3.48a1.74,1.74,0,0,0,.6-.1,1.45,1.45,0,0,0,.49-.29V4.9a1.63,1.63,0,0,0-.49-.28,1.65,1.65,0,0,0-.59-.11,1.43,1.43,0,0,0-.71.18,1.36,1.36,0,0,0-.5.47,1.22,1.22,0,0,0-.19.67,1.32,1.32,0,0,0,.18.69,1.3,1.3,0,0,0,.5.48A1.43,1.43,0,0,0,63.61,7.16Z" transform="translate(-0.58 -0.94)"/></g></svg>