<svg id="Layer_1" data-name="Layer 1" xmlns="http://www.w3.org/2000/svg" xmlns:xlink="http://www.w3.org/1999/xlink" viewBox="0 0 59.77 67.02"><defs><style>.cls-1,.cls-3{fill:none;}.cls-2{clip-path:url(#clip-path);}.cls-3{stroke:#020202;stroke-miterlimit:10;stroke-width:6.64px;}</style><clipPath id="clip-path" transform="translate(0 0)"><rect class="cls-1" width="59.77" height="67.02"/></clipPath></defs><title>community2-icon1</title><g class="cls-2"><polyline class="cls-3" points="3.32 30.1 3.32 43.54 16.6 50.04 29.88 43.54 29.88 30.1"/></g><line class="cls-3" x1="16.6" y1="50.04" x2="16.61" y2="36.76"/><line class="cls-3" x1="16.6" y1="36.71" x2="16.61" y2="23.43"/><g class="cls-2"><polyline class="cls-3" points="29.88 30.26 16.58 36.76 3.32 30.26"/><polygon class="cls-3" points="16.6 36.76 29.88 30.26 29.88 16.82 16.6 10.2 3.32 16.82 3.32 30.26 16.6 36.76"/><polyline class="cls-3" points="29.88 16.82 16.55 23.43 3.32 16.82"/><polyline class="cls-3" points="3.32 43.38 3.32 56.82 16.6 63.32 29.88 56.82 29.88 43.38"/><line class="cls-3" x1="16.6" y1="63.32" x2="16.6" y2="50.04"/><polyline class="cls-3" points="29.88 43.54 16.6 50.04 3.32 43.54"/><polyline class="cls-3" points="29.89 30.1 29.89 43.54 43.17 50.04 56.45 43.54 56.45 30.1"/></g><line class="cls-3" x1="43.17" y1="50.04" x2="43.18" y2="36.76"/><line class="cls-3" x1="43.17" y1="36.71" x2="43.18" y2="23.43"/><g class="cls-2"><polyline class="cls-3" points="56.45 30.26 43.15 36.76 29.89 30.26"/><polyline class="cls-3" points="56.45 16.82 43.11 23.43 29.89 16.82"/><polyline class="cls-3" points="29.89 43.38 29.89 56.82 43.17 63.32 56.45 56.82 56.45 43.38"/><line class="cls-3" x1="43.17" y1="63.32" x2="43.17" y2="50.04"/><polyline class="cls-3" points="56.45 43.54 43.17 50.04 29.89 43.54"/><polygon class="cls-3" points="43.17 36.76 56.45 30.26 56.45 16.82 43.17 10.2 29.89 16.82 29.89 30.26 43.17 36.76"/><polyline class="cls-3" points="43.17 10.2 29.89 3.7 16.6 10.2"/><line class="cls-3" x1="43.17" y1="10.2" x2="29.88" y2="16.82"/></g></svg>