<svg id="CONTENTS" xmlns="http://www.w3.org/2000/svg" viewBox="0 0 16.59 6.5"><defs><style>.cls-1{fill:#010101;}</style></defs><title>community2-name12</title><g id="_02" data-name="02"><g id="아이콘"><g id="아이콘_카피1" data-name="아이콘 카피1"><g id="O12"><path class="cls-1" d="M311.5,569a3.4,3.4,0,0,1-1.31-.25,3.26,3.26,0,0,1-1.77-1.73,3.29,3.29,0,0,1,0-2.55,3.26,3.26,0,0,1,1.77-1.73,3.57,3.57,0,0,1,2.61,0,3.25,3.25,0,0,1,1.06.69,3.24,3.24,0,0,1,0,4.62,3.25,3.25,0,0,1-1.06.69A3.43,3.43,0,0,1,311.5,569Zm0-1.2a2,2,0,0,0,.79-.16,2,2,0,0,0,.63-.43,2,2,0,0,0,.42-.65,2.24,2.24,0,0,0,0-1.62,2,2,0,0,0-1.05-1.08,2,2,0,0,0-.79-.16,1.94,1.94,0,0,0-.78.16,2,2,0,0,0-1.05,1.08,2.1,2.1,0,0,0-.15.81,2.16,2.16,0,0,0,.15.82,2,2,0,0,0,.42.65,2,2,0,0,0,.63.43A1.93,1.93,0,0,0,311.5,567.77Z" transform="translate(-308.17 -562.46)"/><path class="cls-1" d="M317.4,568.86v-5l-1.23.51v-1.08l1.68-.68h.78v6.3Z" transform="translate(-308.17 -562.46)"/><path class="cls-1" d="M320.37,568.86V568l2.63-2.66a2.67,2.67,0,0,0,.3-.37,1.28,1.28,0,0,0,.16-.34,1.18,1.18,0,0,0,0-.34.72.72,0,0,0-.29-.58,1.15,1.15,0,0,0-.74-.23,1.84,1.84,0,0,0-.8.18,3.23,3.23,0,0,0-.81.6l-.67-.81a3.87,3.87,0,0,1,1.11-.74,3,3,0,0,1,1.21-.25,2.64,2.64,0,0,1,1.12.23,1.8,1.8,0,0,1,.76.62,1.61,1.61,0,0,1,.27.93,1.9,1.9,0,0,1-.09.58,2.06,2.06,0,0,1-.27.54,4.28,4.28,0,0,1-.5.59l-1.91,1.92h2.87v1Z" transform="translate(-308.17 -562.46)"/></g></g></g></g></svg>