<svg id="Layer_1" data-name="Layer 1" xmlns="http://www.w3.org/2000/svg" xmlns:xlink="http://www.w3.org/1999/xlink" viewBox="0 0 92.34 8.13"><defs><style>.cls-1{fill:none;}.cls-2{clip-path:url(#clip-path);}.cls-3{fill:#010101;}</style><clipPath id="clip-path" transform="translate(-0.18 -1.74)"><rect class="cls-1" width="93.16" height="11.82"/></clipPath></defs><title>community2-txt17</title><g class="cls-2"><path class="cls-3" d="M2.47,9.28V3.8H.18V2.28h6.3V3.8H4.19V9.28Z" transform="translate(-0.18 -1.74)"/><path class="cls-3" d="M9.35,9.38A3,3,0,0,1,7.88,9a2.77,2.77,0,0,1-1-1,2.6,2.6,0,0,1-.38-1.39,2.68,2.68,0,0,1,.37-1.39,2.71,2.71,0,0,1,1-1,2.74,2.74,0,0,1,1.4-.36,2.55,2.55,0,0,1,1.38.38,2.65,2.65,0,0,1,.95,1,3.13,3.13,0,0,1,.34,1.49v.4H8.13a1.47,1.47,0,0,0,.29.44,1.27,1.27,0,0,0,.45.29A1.48,1.48,0,0,0,9.43,8a1.63,1.63,0,0,0,.6-.11,1.3,1.3,0,0,0,.46-.29l1.07,1a3.41,3.41,0,0,1-1,.61A3.48,3.48,0,0,1,9.35,9.38ZM8.1,6.06h2.21a1.19,1.19,0,0,0-.25-.44,1.22,1.22,0,0,0-.38-.29,1.1,1.1,0,0,0-.48-.1,1.17,1.17,0,0,0-.49.1,1.05,1.05,0,0,0-.37.29A1.25,1.25,0,0,0,8.1,6.06Z" transform="translate(-0.18 -1.74)"/><path class="cls-3" d="M13.16,9.28V4h1.62v.53A1.74,1.74,0,0,1,15.39,4a1.81,1.81,0,0,1,.78-.17,1.2,1.2,0,0,1,.61.13V5.41a1.45,1.45,0,0,0-.36-.12,2.1,2.1,0,0,0-.41,0,1.46,1.46,0,0,0-.71.17,1.38,1.38,0,0,0-.52.5V9.28Z" transform="translate(-0.18 -1.74)"/><path class="cls-3" d="M18,9.28V4H19.6v.53A1.74,1.74,0,0,1,20.21,4,1.81,1.81,0,0,1,21,3.87,1.2,1.2,0,0,1,21.6,4V5.41a1.45,1.45,0,0,0-.36-.12,2.1,2.1,0,0,0-.41,0,1.46,1.46,0,0,0-.71.17,1.38,1.38,0,0,0-.52.5V9.28Z" transform="translate(-0.18 -1.74)"/><path class="cls-3" d="M24.39,9.37a2.27,2.27,0,0,1-1-.21,1.65,1.65,0,0,1-.68-.58,1.5,1.5,0,0,1-.25-.85A1.36,1.36,0,0,1,23,6.56a2.7,2.7,0,0,1,1.6-.42,4.79,4.79,0,0,1,1.2.15V6a.7.7,0,0,0-.25-.6,1.23,1.23,0,0,0-.75-.19,2.81,2.81,0,0,0-.7.1,6.79,6.79,0,0,0-.9.32l-.58-1.19A7.21,7.21,0,0,1,23.91,4a5.2,5.2,0,0,1,1.22-.15,2.54,2.54,0,0,1,1.71.52,1.84,1.84,0,0,1,.61,1.48V9.28h-1.6V9a2.17,2.17,0,0,1-.67.32A3,3,0,0,1,24.39,9.37ZM24,7.7a.44.44,0,0,0,.22.39,1.13,1.13,0,0,0,.61.14,2.37,2.37,0,0,0,.54-.06A1.55,1.55,0,0,0,25.85,8V7.3a3.58,3.58,0,0,0-.47-.09,3.86,3.86,0,0,0-.49,0,1.28,1.28,0,0,0-.65.14A.42.42,0,0,0,24,7.7Z" transform="translate(-0.18 -1.74)"/><path class="cls-3" d="M31.47,9.38A2.84,2.84,0,0,1,30,9a2.69,2.69,0,0,1-1.37-2.38A2.68,2.68,0,0,1,29,5.24a2.74,2.74,0,0,1,1-1,2.81,2.81,0,0,1,1.43-.37,3.08,3.08,0,0,1,1.24.26,2.76,2.76,0,0,1,1,.72l-1,1a1.93,1.93,0,0,0-.57-.47,1.42,1.42,0,0,0-.64-.15,1.16,1.16,0,0,0-.63.18,1.23,1.23,0,0,0-.44.48,1.48,1.48,0,0,0-.16.69,1.41,1.41,0,0,0,.17.69,1.23,1.23,0,0,0,1.1.66,1.34,1.34,0,0,0,.61-.14,1.84,1.84,0,0,0,.54-.43l1,1a2.74,2.74,0,0,1-1,.71A3,3,0,0,1,31.47,9.38Z" transform="translate(-0.18 -1.74)"/><path class="cls-3" d="M37.28,9.38A3,3,0,0,1,35.81,9a2.77,2.77,0,0,1-1-1,2.6,2.6,0,0,1-.38-1.39,2.68,2.68,0,0,1,.37-1.39,2.71,2.71,0,0,1,1-1,2.74,2.74,0,0,1,1.4-.36,2.55,2.55,0,0,1,1.38.38,2.65,2.65,0,0,1,.95,1,3.13,3.13,0,0,1,.34,1.49v.4H36.06a1.47,1.47,0,0,0,.29.44,1.27,1.27,0,0,0,.45.29,1.48,1.48,0,0,0,.56.11,1.63,1.63,0,0,0,.6-.11,1.3,1.3,0,0,0,.46-.29l1.07,1a3.41,3.41,0,0,1-1,.61A3.48,3.48,0,0,1,37.28,9.38ZM36,6.06h2.21A1.19,1.19,0,0,0,38,5.62a1.22,1.22,0,0,0-.38-.29,1.1,1.1,0,0,0-.48-.1,1.17,1.17,0,0,0-.49.1,1.05,1.05,0,0,0-.37.29A1.25,1.25,0,0,0,36,6.06Z" transform="translate(-0.18 -1.74)"/><path class="cls-3" d="M46.39,9.38a4,4,0,0,1-1.48-.27,3.69,3.69,0,0,1-1.19-.77,3.5,3.5,0,0,1-1.08-2.56,3.52,3.52,0,0,1,.29-1.42,3.48,3.48,0,0,1,.8-1.15,3.75,3.75,0,0,1,1.2-.77,4,4,0,0,1,2.62-.1,4.1,4.1,0,0,1,1,.48,3.06,3.06,0,0,1,.79.72L48.2,4.68a2.5,2.5,0,0,0-.83-.7,2.15,2.15,0,0,0-1-.23A2,2,0,0,0,45,4.33a1.92,1.92,0,0,0-.42.64,2.13,2.13,0,0,0-.15.81A2,2,0,0,0,45,7.22a1.92,1.92,0,0,0,.65.43,2.18,2.18,0,0,0,.82.15,2.06,2.06,0,0,0,.94-.22,2.42,2.42,0,0,0,.79-.65L49.31,8a3.18,3.18,0,0,1-.79.71,3.94,3.94,0,0,1-1,.47A3.84,3.84,0,0,1,46.39,9.38Z" transform="translate(-0.18 -1.74)"/><path class="cls-3" d="M52.15,9.37a2.26,2.26,0,0,1-1-.21,1.66,1.66,0,0,1-.68-.58,1.51,1.51,0,0,1-.25-.85,1.37,1.37,0,0,1,.58-1.18,2.71,2.71,0,0,1,1.61-.42,4.79,4.79,0,0,1,1.2.15V6a.7.7,0,0,0-.26-.6,1.23,1.23,0,0,0-.75-.19,2.8,2.8,0,0,0-.69.1,6.77,6.77,0,0,0-.91.32l-.58-1.19A7.23,7.23,0,0,1,51.67,4a5.2,5.2,0,0,1,1.21-.15,2.54,2.54,0,0,1,1.71.52,1.84,1.84,0,0,1,.61,1.48V9.28h-1.6V9a2.17,2.17,0,0,1-.68.32A3,3,0,0,1,52.15,9.37ZM51.77,7.7a.44.44,0,0,0,.22.39,1.13,1.13,0,0,0,.61.14,2.37,2.37,0,0,0,.54-.06A1.55,1.55,0,0,0,53.61,8V7.3a3.61,3.61,0,0,0-.47-.09,3.85,3.85,0,0,0-.49,0,1.29,1.29,0,0,0-.65.14A.42.42,0,0,0,51.77,7.7Z" transform="translate(-0.18 -1.74)"/><path class="cls-3" d="M57.35,9.28V5.34H56.19V4h1.16V3.67a1.83,1.83,0,0,1,.55-1.44,2.32,2.32,0,0,1,1.6-.5l.46,0a2.14,2.14,0,0,1,.4.08V3.18L60,3.13l-.3,0a.91.91,0,0,0-.56.15A.52.52,0,0,0,59,3.7V4h1.39V5.34H59V9.28Z" transform="translate(-0.18 -1.74)"/><path class="cls-3" d="M64,9.38A3,3,0,0,1,62.51,9a2.78,2.78,0,0,1-1-1,2.61,2.61,0,0,1-.38-1.39,2.69,2.69,0,0,1,1.36-2.37,2.74,2.74,0,0,1,1.4-.36,2.55,2.55,0,0,1,1.38.38,2.65,2.65,0,0,1,.94,1,3.13,3.13,0,0,1,.35,1.49v.4H62.76a1.47,1.47,0,0,0,.29.44,1.26,1.26,0,0,0,.45.29,1.47,1.47,0,0,0,.56.11,1.64,1.64,0,0,0,.6-.11,1.31,1.31,0,0,0,.46-.29l1.07,1a3.4,3.4,0,0,1-1,.61A3.49,3.49,0,0,1,64,9.38ZM62.73,6.06h2.21a1.18,1.18,0,0,0-.24-.44,1.23,1.23,0,0,0-.39-.29,1.1,1.1,0,0,0-.48-.1,1.17,1.17,0,0,0-.49.1,1.05,1.05,0,0,0-.37.29A1.25,1.25,0,0,0,62.73,6.06Z" transform="translate(-0.18 -1.74)"/></g><path class="cls-3" d="M70.51,9.87a3.22,3.22,0,0,1-1.2-1.21A3.44,3.44,0,0,1,68.9,7a3.44,3.44,0,0,1,.42-1.71A3.17,3.17,0,0,1,70.51,4l.47.53a2.71,2.71,0,0,0-1,1A2.82,2.82,0,0,0,69.69,7,2.83,2.83,0,0,0,70,8.33a2.66,2.66,0,0,0,1,1Z" transform="translate(-0.18 -1.74)"/><g class="cls-2"><path class="cls-3" d="M71.85,9.28V4.91H74a1.72,1.72,0,0,1,.78.17,1.32,1.32,0,0,1,.53.48,1.29,1.29,0,0,1,.19.71,1.21,1.21,0,0,1-.23.74,1.42,1.42,0,0,1-.62.48l1,1.81h-1l-.86-1.67h-1V9.28Zm.91-2.42H73.9a.71.71,0,0,0,.49-.16.58.58,0,0,0,0-.85.71.71,0,0,0-.49-.16H72.75Z" transform="translate(-0.18 -1.74)"/><path class="cls-3" d="M77.75,9.34a1.77,1.77,0,0,1-.88-.22,1.71,1.71,0,0,1-.63-.61A1.62,1.62,0,0,1,76,7.66a1.66,1.66,0,0,1,.83-1.46A1.64,1.64,0,0,1,77.68,6a1.51,1.51,0,0,1,.83.23,1.64,1.64,0,0,1,.57.63,1.87,1.87,0,0,1,.21.89v.22H76.88a1,1,0,0,0,.18.35.86.86,0,0,0,.32.24,1,1,0,0,0,.41.09,1.14,1.14,0,0,0,.4-.07.9.9,0,0,0,.32-.19l.56.51a2,2,0,0,1-1.33.47Zm-.88-2h1.58A.84.84,0,0,0,78.29,7,.86.86,0,0,0,78,6.76a.73.73,0,0,0-.35-.08A.77.77,0,0,0,77,7,.94.94,0,0,0,76.87,7.33Z" transform="translate(-0.18 -1.74)"/><path class="cls-3" d="M81.58,9.33a1.2,1.2,0,0,1-.82-.25.91.91,0,0,1-.28-.72V6.74h-.67V6h.67V5.19L81.33,5V6h.93v.71h-.93V8.19a.44.44,0,0,0,.1.32.5.5,0,0,0,.35.1l.23,0,.23-.06v.71a1.83,1.83,0,0,1-.33.07Z" transform="translate(-0.18 -1.74)"/><path class="cls-3" d="M84,9.34a1.42,1.42,0,0,1-.62-.13A1,1,0,0,1,83,8.86a.91.91,0,0,1-.15-.52.85.85,0,0,1,.35-.73,1.61,1.61,0,0,1,1-.26,2.39,2.39,0,0,1,.8.13V7.24a.52.52,0,0,0-.17-.42.79.79,0,0,0-.51-.14,1.68,1.68,0,0,0-.44.07,4.14,4.14,0,0,0-.55.2L83,6.31a4.39,4.39,0,0,1,.74-.26A2.92,2.92,0,0,1,84.43,6a1.51,1.51,0,0,1,1,.32,1.11,1.11,0,0,1,.37.89V9.28H85V9a1.36,1.36,0,0,1-.43.22A1.76,1.76,0,0,1,84,9.34Zm-.37-1a.34.34,0,0,0,.16.3.76.76,0,0,0,.43.11,1.4,1.4,0,0,0,.39-.05A1,1,0,0,0,85,8.51V8a1.83,1.83,0,0,0-.33-.09,2,2,0,0,0-.36,0,.83.83,0,0,0-.46.11A.34.34,0,0,0,83.66,8.32Z" transform="translate(-0.18 -1.74)"/><path class="cls-3" d="M87.2,5.64a.49.49,0,0,1-.34-.83.49.49,0,0,1,.69.69A.47.47,0,0,1,87.2,5.64Zm-.42,3.64V6h.86V9.28Z" transform="translate(-0.18 -1.74)"/><path class="cls-3" d="M88.62,9.28V4.91l.86-.14V9.28Z" transform="translate(-0.18 -1.74)"/></g><path class="cls-3" d="M90.9,4a3.23,3.23,0,0,1,1.2,1.21A3.45,3.45,0,0,1,92.52,7a3.45,3.45,0,0,1-.42,1.71,3.19,3.19,0,0,1-1.2,1.21l-.47-.53a2.72,2.72,0,0,0,1-1A2.81,2.81,0,0,0,91.73,7a2.82,2.82,0,0,0-.33-1.38,2.67,2.67,0,0,0-1-1Z" transform="translate(-0.18 -1.74)"/></svg>