<svg id="CONTENTS" xmlns="http://www.w3.org/2000/svg" viewBox="0 0 13.15 6.5"><defs><style>.cls-1{fill:#010101;}</style></defs><title>community2-name6</title><g id="_02" data-name="02"><g id="아이콘"><g id="아이콘_카피1" data-name="아이콘 카피1"><g id="O6"><path class="cls-1" d="M217.5,466a3.4,3.4,0,0,1-1.31-.25,3.26,3.26,0,0,1-1.77-1.73,3.29,3.29,0,0,1,0-2.55,3.26,3.26,0,0,1,1.77-1.73,3.57,3.57,0,0,1,2.61,0,3.25,3.25,0,0,1,1.06.69,3.24,3.24,0,0,1,0,4.62,3.25,3.25,0,0,1-1.06.69A3.43,3.43,0,0,1,217.5,466Zm0-1.2a2,2,0,0,0,.79-.16,2,2,0,0,0,1.05-1.08,2.23,2.23,0,0,0,0-1.62,2,2,0,0,0-1.05-1.08,2,2,0,0,0-.79-.16,1.93,1.93,0,0,0-.78.16,2,2,0,0,0-1.05,1.08,2.1,2.1,0,0,0-.15.81,2.16,2.16,0,0,0,.15.82,2,2,0,0,0,1.05,1.08A1.93,1.93,0,0,0,217.5,464.77Z" transform="translate(-214.17 -459.46)"/><path class="cls-1" d="M225,466a2.5,2.5,0,0,1-1.4-.4,2.66,2.66,0,0,1-.94-1.09,3.69,3.69,0,0,1-.34-1.62,4,4,0,0,1,.37-1.78,2.85,2.85,0,0,1,1-1.18,2.88,2.88,0,0,1,1.57-.42,3.07,3.07,0,0,1,1,.16,2.29,2.29,0,0,1,.81.45l-.67.85a1.83,1.83,0,0,0-.56-.31,2.07,2.07,0,0,0-.66-.1,1.56,1.56,0,0,0-.94.28,1.73,1.73,0,0,0-.59.8,3.61,3.61,0,0,0-.21,1.26,2.26,2.26,0,0,1,.76-.67,1.92,1.92,0,0,1,.93-.24,2.35,2.35,0,0,1,1.1.25,1.87,1.87,0,0,1,.75.68,1.85,1.85,0,0,1,.27,1,2,2,0,0,1-.3,1.07,2.12,2.12,0,0,1-.81.75A2.45,2.45,0,0,1,225,466Zm0-3.09a1.81,1.81,0,0,0-.78.17,2,2,0,0,0-.64.49,2.37,2.37,0,0,0,.28.75,1.39,1.39,0,0,0,.48.49,1.23,1.23,0,0,0,.64.17,1.3,1.3,0,0,0,.6-.14,1.05,1.05,0,0,0,.42-.37,1,1,0,0,0,.15-.54,1,1,0,0,0-.54-.9A1.33,1.33,0,0,0,225,462.88Z" transform="translate(-214.17 -459.46)"/></g></g></g></g></svg>