<svg id="CONTENTS" xmlns="http://www.w3.org/2000/svg" viewBox="0 0 70.71 9.39"><defs><style>.cls-1{fill:#1d1d1b;}.cls-2{fill:#010101;}</style></defs><title>community2-name19</title><g id="_02" data-name="02"><g id="아이콘"><g id="아이콘_카피1" data-name="아이콘 카피1"><g id="숙박시설_커뮤니티" data-name="숙박시설 커뮤니티"><path class="cls-1" d="M499,672.41v.8h2.26V676h-1.19v-1.85h-4.57v-.93h2.31v-.8h-3.14v-.95h7.49v.95Zm2.37-1.38a4,4,0,0,1-3-1.6,4,4,0,0,1-3,1.6l-.43-.91c1.86-.23,2.77-1.2,2.77-2.08v-.24H499V668c0,.87.91,1.85,2.76,2.08Z" transform="translate(-494.66 -666.62)"/><path class="cls-1" d="M506.48,672.24h-4v-4h1.17v1.09h1.63v-1.09h1.17Zm-3.22.78h5.54v3h-1.19v-2h-4.35Zm2.05-2.81h-1.63v1.09h1.63Zm4.58.46h-1.1v2h-1.19v-5h1.19v2h1.1Z" transform="translate(-494.66 -666.62)"/><path class="cls-1" d="M513.09,669.53a3.8,3.8,0,0,0,2.06,3.66l-.68,1a3.79,3.79,0,0,1-2-2.27,4,4,0,0,1-2,2.47l-.71-1a4,4,0,0,0,2.13-3.83v-1.21h1.19Zm3.66-1.85V676h-1.19v-8.32Z" transform="translate(-494.66 -666.62)"/><path class="cls-1" d="M521.82,671.8a3,3,0,0,1-1.84-1.52,3.16,3.16,0,0,1-2,1.68l-.61-.93a2.52,2.52,0,0,0,2-2.49V668h1.2v.59a2.41,2.41,0,0,0,1.86,2.34Zm2.82,3.16v.93H519v-2.27h4.29v-.46h-4.29v-.91h5.46v2.22h-4.29V675Zm-1.42-5.11h-1.51v-.95h1.51v-1.22h1.19v4.21h-1.19Z" transform="translate(-494.66 -666.62)"/><path class="cls-1" d="M530.66,668.48c0,2.55-.67,4.69-3.64,6.25l-.65-.9a5.69,5.69,0,0,0,2.57-2.35l-2.37.22-.15-1,2.88-.16a8.21,8.21,0,0,0,.18-1.11h-2.62v-.95Zm2.72-.79V676h-1.19v-4.15h-1.55v-1h1.55v-3.18Z" transform="translate(-494.66 -666.62)"/><path class="cls-1" d="M541.56,673.25h-1.68V676h-1.19v-2.75H537V676h-1.18v-2.75h-1.72v-.95h7.51Zm-.9-1.83h-5.74v-3.35h5.74ZM539.5,669h-3.41v1.47h3.41Z" transform="translate(-494.66 -666.62)"/><path class="cls-1" d="M543.27,672.91a20.19,20.19,0,0,0,3.48-.36l.13,1a19.68,19.68,0,0,1-4.05.39h-.74v-5.46h1.18Zm5.31-5.24V676h-1.19v-8.29Z" transform="translate(-494.66 -666.62)"/><path class="cls-1" d="M550.89,673.15a22.58,22.58,0,0,0,3.37-.22l.11.95a25,25,0,0,1-3.94.23h-.72v-5.73h4.2v1h-3v1.35h2.67v.93h-2.67Zm5.28-5.46V676H555v-8.3Z" transform="translate(-494.66 -666.62)"/></g><g id="_6" data-name="6"><path class="cls-2" d="M562.09,676a3.61,3.61,0,0,1-2-.57,3.85,3.85,0,0,1-1.36-1.58,5.33,5.33,0,0,1-.49-2.35,5.76,5.76,0,0,1,.54-2.57,4.11,4.11,0,0,1,1.51-1.71,4.16,4.16,0,0,1,2.27-.61,4.45,4.45,0,0,1,1.42.23,3.32,3.32,0,0,1,1.17.65l-1,1.22a2.64,2.64,0,0,0-.81-.44,3,3,0,0,0-.95-.14,2.25,2.25,0,0,0-1.35.4,2.5,2.5,0,0,0-.85,1.15,5.19,5.19,0,0,0-.31,1.83,3.27,3.27,0,0,1,1.09-1,2.78,2.78,0,0,1,1.34-.34,3.4,3.4,0,0,1,1.59.36,2.72,2.72,0,0,1,1.08,1,2.68,2.68,0,0,1,.39,1.44,2.83,2.83,0,0,1-.43,1.54,3.05,3.05,0,0,1-1.17,1.08A3.52,3.52,0,0,1,562.09,676Zm-.05-4.46a2.62,2.62,0,0,0-1.12.25,2.86,2.86,0,0,0-.93.7,3.43,3.43,0,0,0,.41,1.09,2,2,0,0,0,.7.71,1.77,1.77,0,0,0,.92.25,1.87,1.87,0,0,0,.86-.2,1.52,1.52,0,0,0,.6-.54,1.4,1.4,0,0,0,.22-.77,1.42,1.42,0,0,0-.21-.77,1.44,1.44,0,0,0-.58-.52A1.92,1.92,0,0,0,562,671.55Z" transform="translate(-494.66 -666.62)"/></g></g></g></g></svg>