<svg id="Layer_1" data-name="Layer 1" xmlns="http://www.w3.org/2000/svg" xmlns:xlink="http://www.w3.org/1999/xlink" viewBox="0 0 42.53 9.24"><defs><style>.cls-1{fill:none;}.cls-2{clip-path:url(#clip-path);}.cls-3{fill:#010101;}</style><clipPath id="clip-path" transform="translate(0 -1.4)"><rect class="cls-1" width="43.3" height="11.04"/></clipPath></defs><title>community2-txt1</title><g class="cls-2"><path class="cls-3" d="M3.16,8.6a4.76,4.76,0,0,1-1.68-.31A5,5,0,0,1,0,7.43L1,6.18a5,5,0,0,0,1.18.74,3,3,0,0,0,1.15.23A2.53,2.53,0,0,0,4,7.07a1,1,0,0,0,.43-.24.51.51,0,0,0,.15-.37A.52.52,0,0,0,4.33,6a1.87,1.87,0,0,0-.75-.25L2,5.5A2.25,2.25,0,0,1,.73,4.85,1.8,1.8,0,0,1,.27,3.58,2,2,0,0,1,.62,2.41a2.16,2.16,0,0,1,1-.75A4.1,4.1,0,0,1,3.14,1.4a4.91,4.91,0,0,1,1.57.27,4.36,4.36,0,0,1,1.37.73L5.17,3.67A3.53,3.53,0,0,0,3,2.84a2.16,2.16,0,0,0-.6.08A.9.9,0,0,0,2,3.12a.44.44,0,0,0-.13.33.46.46,0,0,0,.19.4,1.63,1.63,0,0,0,.64.22l1.45.24A2.77,2.77,0,0,1,5.71,5,1.76,1.76,0,0,1,6.23,6.3a2,2,0,0,1-.37,1.23,2.36,2.36,0,0,1-1.06.79A4.35,4.35,0,0,1,3.16,8.6Z" transform="translate(0 -1.4)"/><path class="cls-3" d="M10.2,8.57a2.12,2.12,0,0,1-1.44-.43,1.58,1.58,0,0,1-.48-1.25V4.56H7.21V3.21H8.28V1.85L9.9,1.5V3.21h1.48V4.56H9.9v2a.66.66,0,0,0,.15.5.8.8,0,0,0,.54.14l.37,0,.36-.08V8.41a3.33,3.33,0,0,1-.56.12A4.62,4.62,0,0,1,10.2,8.57Z" transform="translate(0 -1.4)"/><path class="cls-3" d="M15.35,8.6a2.93,2.93,0,0,1-1.46-.36,2.78,2.78,0,0,1-1-1,2.6,2.6,0,0,1-.38-1.39,2.63,2.63,0,0,1,.38-1.4,2.77,2.77,0,0,1,1-1,3.1,3.1,0,0,1,2.92,0,2.77,2.77,0,0,1,1,1,2.64,2.64,0,0,1,.38,1.4,2.61,2.61,0,0,1-.38,1.39,2.79,2.79,0,0,1-1,1A2.93,2.93,0,0,1,15.35,8.6Zm0-1.4A1.23,1.23,0,0,0,16,7a1.3,1.3,0,0,0,.46-.48,1.37,1.37,0,0,0,.17-.68,1.39,1.39,0,0,0-.17-.69A1.3,1.3,0,0,0,16,4.69a1.28,1.28,0,0,0-1.31,0,1.3,1.3,0,0,0-.47.48,1.39,1.39,0,0,0-.17.69,1.37,1.37,0,0,0,.17.68A1.29,1.29,0,0,0,14.7,7,1.23,1.23,0,0,0,15.35,7.2Z" transform="translate(0 -1.4)"/><path class="cls-3" d="M19.48,8.5V3.21H21.1v.53a1.74,1.74,0,0,1,.61-.49,1.81,1.81,0,0,1,.78-.17,1.19,1.19,0,0,1,.61.13V4.63a1.43,1.43,0,0,0-.36-.12,2.1,2.1,0,0,0-.41,0,1.46,1.46,0,0,0-.71.17,1.39,1.39,0,0,0-.53.5V8.5Z" transform="translate(0 -1.4)"/><path class="cls-3" d="M25.88,8.59a2.26,2.26,0,0,1-1-.21,1.66,1.66,0,0,1-.68-.58A1.51,1.51,0,0,1,24,7a1.37,1.37,0,0,1,.58-1.18,2.71,2.71,0,0,1,1.61-.42,4.79,4.79,0,0,1,1.2.15V5.25a.7.7,0,0,0-.26-.6,1.23,1.23,0,0,0-.75-.19,2.8,2.8,0,0,0-.69.1,6.77,6.77,0,0,0-.91.32l-.58-1.19a7.23,7.23,0,0,1,1.25-.44,5.2,5.2,0,0,1,1.21-.15,2.54,2.54,0,0,1,1.71.52,1.84,1.84,0,0,1,.61,1.48V8.5h-1.6V8.18a2.17,2.17,0,0,1-.68.32A3,3,0,0,1,25.88,8.59ZM25.5,6.92a.44.44,0,0,0,.22.39,1.13,1.13,0,0,0,.61.14,2.37,2.37,0,0,0,.54-.06,1.55,1.55,0,0,0,.47-.19V6.52a3.61,3.61,0,0,0-.47-.09,3.85,3.85,0,0,0-.49,0,1.29,1.29,0,0,0-.65.14A.42.42,0,0,0,25.5,6.92Z" transform="translate(0 -1.4)"/><path class="cls-3" d="M33.1,10.64a5.93,5.93,0,0,1-1.21-.12,4.68,4.68,0,0,1-1-.34l.54-1.26a4.4,4.4,0,0,0,.85.3,3.63,3.63,0,0,0,.84.1,1.37,1.37,0,0,0,.86-.23.83.83,0,0,0,.29-.69V8.1a2.39,2.39,0,0,1-1.37.42,2.62,2.62,0,0,1-1.36-.36,2.7,2.7,0,0,1-1-1,2.65,2.65,0,0,1-.36-1.36,2.6,2.6,0,0,1,.37-1.36,2.67,2.67,0,0,1,1-1,2.77,2.77,0,0,1,1.39-.35,2.72,2.72,0,0,1,.7.09,2.51,2.51,0,0,1,.63.26V3.21h1.6V8.42a2,2,0,0,1-.71,1.65A3.15,3.15,0,0,1,33.1,10.64Zm0-3.48a1.74,1.74,0,0,0,.6-.1,1.45,1.45,0,0,0,.49-.29V4.9a1.63,1.63,0,0,0-.49-.28,1.65,1.65,0,0,0-.59-.11,1.43,1.43,0,0,0-.71.18,1.36,1.36,0,0,0-.5.47,1.22,1.22,0,0,0-.19.67,1.32,1.32,0,0,0,.18.69,1.3,1.3,0,0,0,.5.48A1.43,1.43,0,0,0,33.13,7.16Z" transform="translate(0 -1.4)"/><path class="cls-3" d="M40,8.6a3,3,0,0,1-1.46-.36,2.78,2.78,0,0,1-1-1,2.61,2.61,0,0,1-.38-1.39,2.69,2.69,0,0,1,1.36-2.37,2.74,2.74,0,0,1,1.4-.36,2.55,2.55,0,0,1,1.38.38,2.65,2.65,0,0,1,.94,1A3.13,3.13,0,0,1,42.53,6v.4H38.76a1.47,1.47,0,0,0,.29.44,1.26,1.26,0,0,0,.45.29,1.47,1.47,0,0,0,.56.11,1.64,1.64,0,0,0,.6-.11,1.31,1.31,0,0,0,.46-.29l1.07,1a3.4,3.4,0,0,1-1,.61A3.49,3.49,0,0,1,40,8.6ZM38.73,5.28h2.21a1.18,1.18,0,0,0-.24-.44,1.23,1.23,0,0,0-.39-.29,1.1,1.1,0,0,0-.48-.1,1.17,1.17,0,0,0-.49.1,1.05,1.05,0,0,0-.37.29A1.25,1.25,0,0,0,38.73,5.28Z" transform="translate(0 -1.4)"/></g></svg>