<svg id="CONTENTS" xmlns="http://www.w3.org/2000/svg" viewBox="0 0 11.58 6.5"><defs><style>.cls-1{fill:#010101;}</style></defs><title>community2-name22</title><g id="_02" data-name="02"><g id="아이콘"><g id="아이콘_카피1" data-name="아이콘 카피1"><g id="S3"><path class="cls-1" d="M310.66,775a4.15,4.15,0,0,1-2.79-1.09l.75-.94a4,4,0,0,0,1.06.7,2.71,2.71,0,0,0,1.08.22,2.22,2.22,0,0,0,.68-.09,1,1,0,0,0,.45-.27.62.62,0,0,0,.16-.42.59.59,0,0,0-.23-.5,2,2,0,0,0-.8-.27l-1.25-.22a2.14,2.14,0,0,1-1.22-.57,1.54,1.54,0,0,1-.42-1.12,1.73,1.73,0,0,1,.3-1,1.89,1.89,0,0,1,.85-.66,3.43,3.43,0,0,1,1.32-.23,4.29,4.29,0,0,1,1.38.23,4.12,4.12,0,0,1,1.22.65l-.7,1a3.27,3.27,0,0,0-2-.76,1.89,1.89,0,0,0-.61.09.92.92,0,0,0-.4.25.54.54,0,0,0-.14.37.53.53,0,0,0,.21.45,1.61,1.61,0,0,0,.69.24l1.19.2a2.62,2.62,0,0,1,1.41.6,1.55,1.55,0,0,1,.47,1.17A1.79,1.79,0,0,1,313,774a2.07,2.07,0,0,1-.92.7A3.67,3.67,0,0,1,310.66,775Z" transform="translate(-307.87 -768.46)"/><path class="cls-1" d="M317,775a3.54,3.54,0,0,1-1.35-.26,2.85,2.85,0,0,1-1-.72l.79-.74a2.12,2.12,0,0,0,.72.54,2.27,2.27,0,0,0,.88.15,1.78,1.78,0,0,0,.66-.11,1,1,0,0,0,.44-.32.77.77,0,0,0,.16-.48.74.74,0,0,0-.13-.43.87.87,0,0,0-.34-.28,1.17,1.17,0,0,0-.51-.1h-.79v-1h.68a1,1,0,0,0,.67-.22.78.78,0,0,0,.24-.61.77.77,0,0,0-.14-.46,1,1,0,0,0-.39-.32,1.31,1.31,0,0,0-.56-.12,1.86,1.86,0,0,0-.81.16,2.38,2.38,0,0,0-.71.58l-.8-.74a3.08,3.08,0,0,1,1.06-.77,3.15,3.15,0,0,1,1.3-.28,2.79,2.79,0,0,1,1.16.23,1.94,1.94,0,0,1,.79.63,1.56,1.56,0,0,1,.29.93,1.34,1.34,0,0,1-.33.9,1.73,1.73,0,0,1-.86.54,1.89,1.89,0,0,1,1,.5,1.25,1.25,0,0,1,.37.91,1.56,1.56,0,0,1-.31,1,2.09,2.09,0,0,1-.86.66A3.1,3.1,0,0,1,317,775Z" transform="translate(-307.87 -768.46)"/></g></g></g></g></svg>