<svg id="CONTENTS" xmlns="http://www.w3.org/2000/svg" viewBox="0 0 16.87 6.5"><defs><style>.cls-1{fill:#010101;}</style></defs><title>community2-name13</title><g id="_02" data-name="02"><g id="아이콘"><g id="아이콘_카피1" data-name="아이콘 카피1"><g id="O13"><path class="cls-1" d="M405.5,569a3.4,3.4,0,0,1-1.31-.25,3.26,3.26,0,0,1-1.77-1.73,3.29,3.29,0,0,1,0-2.55,3.26,3.26,0,0,1,1.77-1.73,3.57,3.57,0,0,1,2.61,0,3.25,3.25,0,0,1,1.06.69,3.24,3.24,0,0,1,0,4.62,3.25,3.25,0,0,1-1.06.69A3.43,3.43,0,0,1,405.5,569Zm0-1.2a2,2,0,0,0,.79-.16,2,2,0,0,0,.63-.43,2,2,0,0,0,.42-.65,2.24,2.24,0,0,0,0-1.62,2,2,0,0,0-1.05-1.08,2,2,0,0,0-.79-.16,1.94,1.94,0,0,0-.78.16,2,2,0,0,0-1.05,1.08,2.1,2.1,0,0,0-.15.81,2.16,2.16,0,0,0,.15.82,2,2,0,0,0,.42.65,2,2,0,0,0,.63.43A1.93,1.93,0,0,0,405.5,567.77Z" transform="translate(-402.17 -562.46)"/><path class="cls-1" d="M411.4,568.86v-5l-1.23.51v-1.08l1.68-.68h.78v6.3Z" transform="translate(-402.17 -562.46)"/><path class="cls-1" d="M416.62,569a3.54,3.54,0,0,1-1.35-.26,2.85,2.85,0,0,1-1-.72l.79-.74a2.12,2.12,0,0,0,.72.54,2.27,2.27,0,0,0,.88.15,1.78,1.78,0,0,0,.66-.11,1,1,0,0,0,.44-.32.77.77,0,0,0,.16-.48.74.74,0,0,0-.13-.43.87.87,0,0,0-.34-.28,1.17,1.17,0,0,0-.51-.1h-.79v-1h.68a1,1,0,0,0,.67-.22.78.78,0,0,0,.24-.61.77.77,0,0,0-.14-.46,1,1,0,0,0-.39-.32,1.31,1.31,0,0,0-.56-.12,1.86,1.86,0,0,0-.81.16,2.38,2.38,0,0,0-.71.58l-.8-.74a3.08,3.08,0,0,1,1.06-.77,3.15,3.15,0,0,1,1.3-.28,2.79,2.79,0,0,1,1.16.23,1.94,1.94,0,0,1,.79.63,1.56,1.56,0,0,1,.29.93,1.34,1.34,0,0,1-.33.9,1.73,1.73,0,0,1-.86.54,1.89,1.89,0,0,1,1,.5,1.25,1.25,0,0,1,.37.91,1.56,1.56,0,0,1-.31,1,2.09,2.09,0,0,1-.86.66A3.1,3.1,0,0,1,416.62,569Z" transform="translate(-402.17 -562.46)"/></g></g></g></g></svg>