<svg id="Layer_1" data-name="Layer 1" xmlns="http://www.w3.org/2000/svg" xmlns:xlink="http://www.w3.org/1999/xlink" viewBox="0 0 58.86 9.14"><defs><style>.cls-1{fill:none;}.cls-2{clip-path:url(#clip-path);}.cls-3{fill:#010101;}</style><clipPath id="clip-path" transform="translate(-0.58 -2.7)"><rect class="cls-1" width="60.9" height="12.24"/></clipPath></defs><title>community2-txt20</title><g class="cls-2"><path class="cls-3" d="M.58,9.7v-7H2.3V8.18H6V9.7Z" transform="translate(-0.58 -2.7)"/><path class="cls-3" d="M9.85,9.8a2.93,2.93,0,0,1-1.46-.36,2.78,2.78,0,0,1-1-1A2.61,2.61,0,0,1,7,7.06a2.63,2.63,0,0,1,.38-1.4,2.77,2.77,0,0,1,1-1,3.1,3.1,0,0,1,2.92,0,2.77,2.77,0,0,1,1,1,2.64,2.64,0,0,1,.38,1.4,2.61,2.61,0,0,1-.38,1.39,2.79,2.79,0,0,1-1,1A2.93,2.93,0,0,1,9.85,9.8Zm0-1.4a1.23,1.23,0,0,0,.66-.18A1.3,1.3,0,0,0,11,7.74a1.36,1.36,0,0,0,.17-.67A1.38,1.38,0,0,0,11,6.37a1.3,1.3,0,0,0-.46-.48,1.28,1.28,0,0,0-1.31,0,1.3,1.3,0,0,0-.47.48,1.38,1.38,0,0,0-.17.69,1.36,1.36,0,0,0,.17.67,1.29,1.29,0,0,0,.47.48A1.23,1.23,0,0,0,9.85,8.4Z" transform="translate(-0.58 -2.7)"/><path class="cls-3" d="M16,9.8a2.18,2.18,0,0,1-1.09-.27,1.93,1.93,0,0,1-.75-.75,2.23,2.23,0,0,1-.27-1.11V4.41h1.62v3a.91.91,0,0,0,1,1A1.29,1.29,0,0,0,17,8.3a1.08,1.08,0,0,0,.4-.31V4.41H19V9.7H17.37V9.34A2.27,2.27,0,0,1,16,9.8Z" transform="translate(-0.58 -2.7)"/><path class="cls-3" d="M20.39,9.7V4.41H22v.36a2.27,2.27,0,0,1,1.42-.46,2.18,2.18,0,0,1,1.09.27,1.94,1.94,0,0,1,.75.75,2.22,2.22,0,0,1,.27,1.11V9.7H23.92v-3a.9.9,0,0,0-1-1,1.27,1.27,0,0,0-.54.11,1.19,1.19,0,0,0-.4.31V9.7Z" transform="translate(-0.58 -2.7)"/><path class="cls-3" d="M29.59,11.84a5.93,5.93,0,0,1-1.22-.12,4.71,4.71,0,0,1-1-.34l.54-1.26a4.42,4.42,0,0,0,.85.3,3.63,3.63,0,0,0,.84.1,1.36,1.36,0,0,0,.86-.23.83.83,0,0,0,.29-.69V9.3a2.39,2.39,0,0,1-1.37.42A2.62,2.62,0,0,1,28,9.36a2.69,2.69,0,0,1-1-1A2.65,2.65,0,0,1,26.65,7,2.59,2.59,0,0,1,27,5.66a2.67,2.67,0,0,1,1-1,2.77,2.77,0,0,1,1.39-.35,2.71,2.71,0,0,1,.7.09,2.52,2.52,0,0,1,.63.26V4.41h1.6V9.62a2,2,0,0,1-.71,1.65A3.15,3.15,0,0,1,29.59,11.84Zm0-3.48a1.74,1.74,0,0,0,.6-.1A1.46,1.46,0,0,0,30.71,8V6.1a1.66,1.66,0,0,0-1.08-.39,1.43,1.43,0,0,0-.71.18,1.35,1.35,0,0,0-.5.47,1.22,1.22,0,0,0-.19.67,1.32,1.32,0,0,0,.18.68,1.3,1.3,0,0,0,.5.48A1.43,1.43,0,0,0,29.62,8.36Z" transform="translate(-0.58 -2.7)"/><path class="cls-3" d="M36.38,9.8a3,3,0,0,1-1.46-.36,2.78,2.78,0,0,1-1-1,2.61,2.61,0,0,1-.38-1.39,2.69,2.69,0,0,1,1.36-2.38,2.74,2.74,0,0,1,1.4-.36,2.55,2.55,0,0,1,1.38.38,2.65,2.65,0,0,1,.94,1,3.13,3.13,0,0,1,.35,1.49v.4H35.16a1.47,1.47,0,0,0,.29.44,1.26,1.26,0,0,0,.45.29,1.47,1.47,0,0,0,.56.11,1.64,1.64,0,0,0,.6-.11A1.31,1.31,0,0,0,37.52,8l1.07,1a3.4,3.4,0,0,1-1,.61A3.49,3.49,0,0,1,36.38,9.8ZM35.13,6.48h2.21A1.18,1.18,0,0,0,37.1,6a1.23,1.23,0,0,0-.39-.29,1.1,1.1,0,0,0-.48-.1,1.17,1.17,0,0,0-.49.1,1.05,1.05,0,0,0-.37.29A1.26,1.26,0,0,0,35.13,6.48Z" transform="translate(-0.58 -2.7)"/></g><path class="cls-3" d="M43,4.34a4,4,0,0,0-.76,2.45A4,4,0,0,0,43,9.23h-.41a3.88,3.88,0,0,1-.79-2.43,4,4,0,0,1,.79-2.45Z" transform="translate(-0.58 -2.7)"/><path class="cls-3" d="M44.64,8.46a1.85,1.85,0,0,0,.94.26c.53,0,.85-.28.85-.69s-.22-.59-.76-.8-1.07-.58-1.07-1.15A1.16,1.16,0,0,1,45.9,5a1.83,1.83,0,0,1,.89.2l-.14.43a1.6,1.6,0,0,0-.77-.19c-.55,0-.76.33-.76.61s.25.56.8.78S47,7.4,47,8s-.46,1.16-1.42,1.16a2.08,2.08,0,0,1-1-.26Z" transform="translate(-0.58 -2.7)"/><path class="cls-3" d="M48.49,5.36V6.2h.76v.4h-.76V8.17c0,.36.1.56.4.56a1.15,1.15,0,0,0,.31,0l0,.4a1.29,1.29,0,0,1-.47.07.73.73,0,0,1-.57-.22,1.07,1.07,0,0,1-.2-.76V6.6h-.45V6.2H48V5.5Z" transform="translate(-0.58 -2.7)"/><path class="cls-3" d="M51.75,9.1l0-.37h0a1.08,1.08,0,0,1-.89.43.83.83,0,0,1-.89-.83c0-.7.62-1.08,1.75-1.08V7.19A.6.6,0,0,0,51,6.52a1.43,1.43,0,0,0-.75.22l-.12-.35a1.81,1.81,0,0,1,1-.26c.89,0,1.1.61,1.1,1.19V8.41a4.07,4.07,0,0,0,0,.7Zm-.08-1.48c-.58,0-1.23.09-1.23.65a.47.47,0,0,0,.5.5.72.72,0,0,0,.7-.49.54.54,0,0,0,0-.17Z" transform="translate(-0.58 -2.7)"/><path class="cls-3" d="M55.29,6.2l.64,1.71c.07.19.14.42.19.59h0c.05-.17.11-.4.19-.61l.58-1.7h.56l-.79,2.07a4.41,4.41,0,0,1-1,1.82,1.43,1.43,0,0,1-.65.34L54.88,10a1.4,1.4,0,0,0,.46-.26,1.61,1.61,0,0,0,.44-.59.37.37,0,0,0,0-.13.44.44,0,0,0,0-.14L54.72,6.2Z" transform="translate(-0.58 -2.7)"/><g class="cls-2"><path class="cls-3" d="M58.25,9.23A4.06,4.06,0,0,0,59,6.77a4,4,0,0,0-.76-2.44h.41a3.82,3.82,0,0,1,.79,2.44,3.89,3.89,0,0,1-.79,2.45Z" transform="translate(-0.58 -2.7)"/></g></svg>