<svg id="Layer_1" data-name="Layer 1" xmlns="http://www.w3.org/2000/svg" xmlns:xlink="http://www.w3.org/1999/xlink" viewBox="0 0 69.12 7.66"><defs><style>.cls-1{fill:none;}.cls-2{clip-path:url(#clip-path);}.cls-3{fill:#010101;}</style><clipPath id="clip-path" transform="translate(-0.58 -0.94)"><rect class="cls-1" width="70.46" height="11.04"/></clipPath></defs><title>community2-txt3</title><g class="cls-2"><path class="cls-3" d="M.58,8.5v-7H2.75L4.48,4.8,6.21,1.5H8.38v7H6.76V3.73L4.46,8,2.16,3.71V8.5Z" transform="translate(-0.58 -0.94)"/><path class="cls-3" d="M12.6,8.6a3,3,0,0,1-1.47-.36,2.77,2.77,0,0,1-1-1,2.6,2.6,0,0,1-.38-1.39,2.68,2.68,0,0,1,.37-1.39,2.71,2.71,0,0,1,1-1,2.74,2.74,0,0,1,1.4-.36,2.55,2.55,0,0,1,1.38.38,2.65,2.65,0,0,1,.95,1A3.13,3.13,0,0,1,15.15,6v.4H11.38a1.47,1.47,0,0,0,.29.44,1.27,1.27,0,0,0,.45.29,1.48,1.48,0,0,0,.56.11,1.63,1.63,0,0,0,.6-.11,1.3,1.3,0,0,0,.46-.29l1.07,1a3.41,3.41,0,0,1-1,.61A3.48,3.48,0,0,1,12.6,8.6ZM11.35,5.28h2.21a1.19,1.19,0,0,0-.25-.44,1.22,1.22,0,0,0-.38-.29,1.1,1.1,0,0,0-.48-.1,1.17,1.17,0,0,0-.49.1,1.05,1.05,0,0,0-.37.29A1.25,1.25,0,0,0,11.35,5.28Z" transform="translate(-0.58 -0.94)"/><path class="cls-3" d="M18.92,8.57a2.62,2.62,0,0,1-1.36-.37,2.72,2.72,0,0,1-1-1,2.67,2.67,0,0,1-.36-1.37,2.64,2.64,0,0,1,.37-1.37,2.69,2.69,0,0,1,1-1,2.87,2.87,0,0,1,2.1-.27,2.69,2.69,0,0,1,.64.26v-2l1.62-.25V8.5h-1.6V8.11A2.35,2.35,0,0,1,18.92,8.57Zm.28-1.38a1.74,1.74,0,0,0,.62-.11,1.46,1.46,0,0,0,.5-.32V4.92a1.41,1.41,0,0,0-.5-.3,1.8,1.8,0,0,0-.62-.11,1.43,1.43,0,0,0-.71.18,1.33,1.33,0,0,0-.5.48,1.36,1.36,0,0,0,0,1.37,1.32,1.32,0,0,0,.5.48A1.42,1.42,0,0,0,19.2,7.19Z" transform="translate(-0.58 -0.94)"/><path class="cls-3" d="M24.24,2.72a.89.89,0,0,1-.89-.89.89.89,0,1,1,1.78,0,.89.89,0,0,1-.89.89ZM23.43,8.5V3.21H25V8.5Z" transform="translate(-0.58 -0.94)"/><path class="cls-3" d="M28.24,8.59a2.27,2.27,0,0,1-1-.21,1.65,1.65,0,0,1-.68-.58A1.5,1.5,0,0,1,26.32,7a1.36,1.36,0,0,1,.58-1.18,2.7,2.7,0,0,1,1.6-.42,4.79,4.79,0,0,1,1.2.15V5.25a.7.7,0,0,0-.25-.6,1.23,1.23,0,0,0-.75-.19,2.81,2.81,0,0,0-.7.1,6.79,6.79,0,0,0-.9.32l-.58-1.19a7.21,7.21,0,0,1,1.25-.44A5.2,5.2,0,0,1,29,3.11a2.54,2.54,0,0,1,1.71.52,1.84,1.84,0,0,1,.61,1.48V8.5H29.7V8.18A2.17,2.17,0,0,1,29,8.5,3,3,0,0,1,28.24,8.59Zm-.38-1.67a.44.44,0,0,0,.22.39,1.13,1.13,0,0,0,.61.14,2.37,2.37,0,0,0,.54-.06,1.55,1.55,0,0,0,.46-.19V6.52a3.58,3.58,0,0,0-.47-.09,3.86,3.86,0,0,0-.49,0,1.28,1.28,0,0,0-.65.14A.42.42,0,0,0,27.86,6.92Z" transform="translate(-0.58 -0.94)"/><path class="cls-3" d="M37.88,8.6a4.76,4.76,0,0,1-1.68-.31,4.94,4.94,0,0,1-1.48-.86l1-1.25a5,5,0,0,0,1.18.74A3,3,0,0,0,38,7.15a2.51,2.51,0,0,0,.68-.08,1,1,0,0,0,.43-.24.51.51,0,0,0,.15-.37A.52.52,0,0,0,39.05,6a1.87,1.87,0,0,0-.75-.25L36.76,5.5a2.24,2.24,0,0,1-1.31-.65A1.8,1.8,0,0,1,35,3.58a2,2,0,0,1,.35-1.17,2.15,2.15,0,0,1,1-.75,4.09,4.09,0,0,1,1.53-.26,4.9,4.9,0,0,1,1.57.27,4.36,4.36,0,0,1,1.37.73l-.91,1.27a3.53,3.53,0,0,0-2.15-.83,2.16,2.16,0,0,0-.61.08.89.89,0,0,0-.39.21.44.44,0,0,0-.14.33.47.47,0,0,0,.2.4,1.63,1.63,0,0,0,.63.22l1.45.24A2.76,2.76,0,0,1,40.43,5,1.76,1.76,0,0,1,41,6.3a2.05,2.05,0,0,1-.37,1.23,2.35,2.35,0,0,1-1.06.79A4.35,4.35,0,0,1,37.88,8.6Z" transform="translate(-0.58 -0.94)"/><path class="cls-3" d="M44.92,8.57a2.11,2.11,0,0,1-1.43-.43A1.58,1.58,0,0,1,43,6.89V4.56H41.93V3.21H43V1.85l1.62-.35V3.21H46.1V4.56H44.62v2a.66.66,0,0,0,.16.5.79.79,0,0,0,.54.14l.36,0L46,7.1V8.41a3.33,3.33,0,0,1-.56.12A4.61,4.61,0,0,1,44.92,8.57Z" transform="translate(-0.58 -0.94)"/><path class="cls-3" d="M49.56,8.6a2.18,2.18,0,0,1-1.1-.27,1.93,1.93,0,0,1-.74-.75,2.23,2.23,0,0,1-.27-1.11V3.21h1.62v3a.91.91,0,0,0,1,1,1.29,1.29,0,0,0,.55-.11,1.08,1.08,0,0,0,.4-.31V3.21H52.6V8.5H51V8.14A2.27,2.27,0,0,1,49.56,8.6Z" transform="translate(-0.58 -0.94)"/><path class="cls-3" d="M56.56,8.57a2.63,2.63,0,0,1-1.37-.37,2.72,2.72,0,0,1-1-1,2.67,2.67,0,0,1-.36-1.37,2.64,2.64,0,0,1,.37-1.37,2.69,2.69,0,0,1,1-1,2.87,2.87,0,0,1,2.1-.27,2.7,2.7,0,0,1,.64.26v-2l1.62-.25V8.5H58V8.11A2.35,2.35,0,0,1,56.56,8.57Zm.28-1.38a1.75,1.75,0,0,0,.62-.11,1.47,1.47,0,0,0,.5-.32V4.92a1.41,1.41,0,0,0-.5-.3,1.8,1.8,0,0,0-.62-.11,1.43,1.43,0,0,0-.71.18,1.33,1.33,0,0,0-.5.48,1.36,1.36,0,0,0,0,1.37,1.32,1.32,0,0,0,.5.48A1.42,1.42,0,0,0,56.84,7.19Z" transform="translate(-0.58 -0.94)"/><path class="cls-3" d="M61.89,2.72A.89.89,0,0,1,61,1.83a.89.89,0,1,1,1.78,0,.89.89,0,0,1-.89.89ZM61.08,8.5V3.21H62.7V8.5Z" transform="translate(-0.58 -0.94)"/><path class="cls-3" d="M66.83,8.6a2.93,2.93,0,0,1-1.46-.36,2.79,2.79,0,0,1-1-1A2.61,2.61,0,0,1,64,5.86a2.64,2.64,0,0,1,.38-1.4,2.77,2.77,0,0,1,1-1,3.1,3.1,0,0,1,2.92,0,2.77,2.77,0,0,1,1,1,2.64,2.64,0,0,1,.38,1.4,2.61,2.61,0,0,1-.38,1.39,2.79,2.79,0,0,1-1,1A2.93,2.93,0,0,1,66.83,8.6Zm0-1.4A1.22,1.22,0,0,0,67.49,7,1.3,1.3,0,0,0,68,6.54a1.37,1.37,0,0,0,.17-.68A1.39,1.39,0,0,0,68,5.17a1.3,1.3,0,0,0-.46-.48,1.28,1.28,0,0,0-1.31,0,1.3,1.3,0,0,0-.46.48,1.39,1.39,0,0,0-.17.69,1.37,1.37,0,0,0,.17.68,1.29,1.29,0,0,0,.46.48A1.23,1.23,0,0,0,66.83,7.2Z" transform="translate(-0.58 -0.94)"/></g></svg>