<svg id="Layer_1" data-name="Layer 1" xmlns="http://www.w3.org/2000/svg" xmlns:xlink="http://www.w3.org/1999/xlink" viewBox="0 0 38.56 7.66"><defs><style>.cls-1{fill:none;}.cls-2{clip-path:url(#clip-path);}.cls-3{fill:#010101;}</style><clipPath id="clip-path" transform="translate(-0.58 -0.94)"><rect class="cls-1" width="39.76" height="11.04"/></clipPath></defs><title>community2-txt6</title><g class="cls-2"><path class="cls-3" d="M.58,8.5v-7H6.14V3H2.3V4.3H4.86V5.74H2.3V8.5Z" transform="translate(-0.58 -0.94)"/><path class="cls-3" d="M8.43,2.72a.89.89,0,0,1-.89-.89.89.89,0,1,1,1.78,0,.89.89,0,0,1-.89.89ZM7.62,8.5V3.21H9.24V8.5Z" transform="translate(-0.58 -0.94)"/><path class="cls-3" d="M13.41,8.57A2.12,2.12,0,0,1,12,8.14a1.58,1.58,0,0,1-.48-1.25V4.56H10.42V3.21h1.07V1.85l1.62-.35V3.21h1.48V4.56H13.11v2a.66.66,0,0,0,.15.5.8.8,0,0,0,.54.14l.37,0,.36-.08V8.41a3.33,3.33,0,0,1-.56.12A4.62,4.62,0,0,1,13.41,8.57Z" transform="translate(-0.58 -0.94)"/><path class="cls-3" d="M16,8.5V3.21h1.62v.36A2.27,2.27,0,0,1,19,3.11a2.18,2.18,0,0,1,1.1.27,1.94,1.94,0,0,1,.74.75,2.23,2.23,0,0,1,.27,1.11V8.5H19.5v-3a.9.9,0,0,0-1-1,1.27,1.27,0,0,0-.54.11,1.19,1.19,0,0,0-.4.31V8.5Z" transform="translate(-0.58 -0.94)"/><path class="cls-3" d="M25.22,8.6a3,3,0,0,1-1.46-.36,2.78,2.78,0,0,1-1-1,2.61,2.61,0,0,1-.38-1.39A2.69,2.69,0,0,1,23.7,3.48a2.74,2.74,0,0,1,1.4-.36,2.55,2.55,0,0,1,1.38.38,2.65,2.65,0,0,1,.94,1A3.13,3.13,0,0,1,27.77,6v.4H24a1.47,1.47,0,0,0,.29.44,1.26,1.26,0,0,0,.45.29,1.47,1.47,0,0,0,.56.11,1.64,1.64,0,0,0,.6-.11,1.31,1.31,0,0,0,.46-.29l1.07,1a3.4,3.4,0,0,1-1,.61A3.49,3.49,0,0,1,25.22,8.6ZM24,5.28h2.21a1.18,1.18,0,0,0-.24-.44,1.23,1.23,0,0,0-.39-.29,1.1,1.1,0,0,0-.48-.1,1.17,1.17,0,0,0-.49.1,1.05,1.05,0,0,0-.37.29A1.25,1.25,0,0,0,24,5.28Z" transform="translate(-0.58 -0.94)"/><path class="cls-3" d="M31.17,8.6a5.23,5.23,0,0,1-1.39-.17,3.4,3.4,0,0,1-1.11-.51l.77-1.09a4.62,4.62,0,0,0,.91.43,2.59,2.59,0,0,0,.81.13,1.47,1.47,0,0,0,.63-.11A.35.35,0,0,0,32,7a.29.29,0,0,0-.13-.25,1,1,0,0,0-.41-.13l-1-.16a2.14,2.14,0,0,1-1.21-.53,1.41,1.41,0,0,1-.42-1.05,1.56,1.56,0,0,1,.27-.93,1.73,1.73,0,0,1,.79-.59,3.27,3.27,0,0,1,1.22-.21,4.25,4.25,0,0,1,1.15.16,3.81,3.81,0,0,1,1.06.48l-.77,1a3.77,3.77,0,0,0-.82-.37,2.76,2.76,0,0,0-.78-.11,1,1,0,0,0-.5.1.31.31,0,0,0-.19.27.29.29,0,0,0,.14.25,1.22,1.22,0,0,0,.48.15l1,.16a2.13,2.13,0,0,1,1.21.52,1.36,1.36,0,0,1,.42,1,1.47,1.47,0,0,1-.31.92,2.13,2.13,0,0,1-.84.63A3,3,0,0,1,31.17,8.6Z" transform="translate(-0.58 -0.94)"/><path class="cls-3" d="M36.76,8.6a5.23,5.23,0,0,1-1.39-.17,3.4,3.4,0,0,1-1.11-.51L35,6.82a4.62,4.62,0,0,0,.91.43,2.59,2.59,0,0,0,.81.13,1.47,1.47,0,0,0,.63-.11A.35.35,0,0,0,37.62,7a.29.29,0,0,0-.13-.25,1,1,0,0,0-.41-.13l-1-.16a2.14,2.14,0,0,1-1.21-.53,1.41,1.41,0,0,1-.42-1.05,1.56,1.56,0,0,1,.27-.93,1.73,1.73,0,0,1,.79-.59,3.27,3.27,0,0,1,1.22-.21,4.25,4.25,0,0,1,1.15.16,3.81,3.81,0,0,1,1.06.48l-.77,1a3.77,3.77,0,0,0-.82-.37,2.76,2.76,0,0,0-.78-.11,1,1,0,0,0-.5.1.31.31,0,0,0-.19.27A.29.29,0,0,0,36,5a1.22,1.22,0,0,0,.48.15l1,.16a2.13,2.13,0,0,1,1.21.52,1.36,1.36,0,0,1,.42,1,1.47,1.47,0,0,1-.31.92,2.13,2.13,0,0,1-.84.63A3,3,0,0,1,36.76,8.6Z" transform="translate(-0.58 -0.94)"/></g></svg>