<svg id="Layer_1" data-name="Layer 1" xmlns="http://www.w3.org/2000/svg" xmlns:xlink="http://www.w3.org/1999/xlink" viewBox="0 0 88.35 9.7"><defs><style>.cls-1{fill:none;}.cls-2{clip-path:url(#clip-path);}.cls-3{fill:#010101;}</style><clipPath id="clip-path" transform="translate(-0.33 -0.94)"><rect class="cls-1" width="89.68" height="11.04"/></clipPath></defs><title>community2-txt22</title><g class="cls-2"><path class="cls-3" d="M4.09,8.6A4,4,0,0,1,2.6,8.33a3.69,3.69,0,0,1-1.19-.77A3.5,3.5,0,0,1,.33,5,3.52,3.52,0,0,1,.62,3.58a3.48,3.48,0,0,1,.8-1.15,3.75,3.75,0,0,1,1.2-.77,4,4,0,0,1,2.61-.1,4.11,4.11,0,0,1,1,.48,3.08,3.08,0,0,1,.79.72L5.9,3.9a2.49,2.49,0,0,0-.82-.7,2.15,2.15,0,0,0-1-.23,2,2,0,0,0-1.42.58,1.92,1.92,0,0,0-.42.64A2.13,2.13,0,0,0,2.1,5a2,2,0,0,0,.58,1.43,1.92,1.92,0,0,0,.65.43A2.18,2.18,0,0,0,4.15,7a2.07,2.07,0,0,0,.95-.22,2.43,2.43,0,0,0,.78-.65L7,7.25A3.2,3.2,0,0,1,6.22,8a3.94,3.94,0,0,1-1,.47A3.83,3.83,0,0,1,4.09,8.6Z" transform="translate(-0.33 -0.94)"/><path class="cls-3" d="M10.64,8.6a2.93,2.93,0,0,1-1.46-.36,2.78,2.78,0,0,1-1-1,2.6,2.6,0,0,1-.38-1.39,2.63,2.63,0,0,1,.38-1.4,2.77,2.77,0,0,1,1-1,3.1,3.1,0,0,1,2.92,0,2.77,2.77,0,0,1,1,1,2.64,2.64,0,0,1,.38,1.4,2.61,2.61,0,0,1-.38,1.39,2.79,2.79,0,0,1-1,1A2.93,2.93,0,0,1,10.64,8.6Zm0-1.4A1.23,1.23,0,0,0,11.3,7a1.3,1.3,0,0,0,.46-.48,1.37,1.37,0,0,0,.17-.68,1.39,1.39,0,0,0-.17-.69,1.3,1.3,0,0,0-.46-.48,1.28,1.28,0,0,0-1.31,0,1.3,1.3,0,0,0-.47.48,1.39,1.39,0,0,0-.17.69,1.37,1.37,0,0,0,.17.68A1.29,1.29,0,0,0,10,7,1.23,1.23,0,0,0,10.64,7.2Z" transform="translate(-0.33 -0.94)"/><path class="cls-3" d="M17.3,8.6a2.93,2.93,0,0,1-1.46-.36,2.78,2.78,0,0,1-1-1,2.6,2.6,0,0,1-.38-1.39,2.63,2.63,0,0,1,.38-1.4,2.77,2.77,0,0,1,1-1,3.1,3.1,0,0,1,2.92,0,2.77,2.77,0,0,1,1,1,2.64,2.64,0,0,1,.38,1.4,2.61,2.61,0,0,1-.38,1.39,2.79,2.79,0,0,1-1,1A2.93,2.93,0,0,1,17.3,8.6Zm0-1.4A1.23,1.23,0,0,0,18,7a1.3,1.3,0,0,0,.46-.48,1.37,1.37,0,0,0,.17-.68,1.39,1.39,0,0,0-.17-.69A1.3,1.3,0,0,0,18,4.69a1.28,1.28,0,0,0-1.31,0,1.3,1.3,0,0,0-.47.48,1.39,1.39,0,0,0-.17.69,1.37,1.37,0,0,0,.17.68,1.29,1.29,0,0,0,.47.48A1.23,1.23,0,0,0,17.3,7.2Z" transform="translate(-0.33 -0.94)"/><path class="cls-3" d="M21.33,8.5v-7L23,1.25V5.37l2.11-2.16h1.81L24.52,5.6,27,8.5H25L23,6.13V8.5Z" transform="translate(-0.33 -0.94)"/><path class="cls-3" d="M28.61,2.72a.89.89,0,0,1-.89-.89.89.89,0,1,1,1.78,0,.89.89,0,0,1-.89.89ZM27.8,8.5V3.21h1.62V8.5Z" transform="translate(-0.33 -0.94)"/><path class="cls-3" d="M30.92,8.5V3.21h1.62v.36A2.27,2.27,0,0,1,34,3.11a2.18,2.18,0,0,1,1.09.27,1.94,1.94,0,0,1,.75.75,2.22,2.22,0,0,1,.27,1.11V8.5H34.45v-3a.9.9,0,0,0-1-1,1.27,1.27,0,0,0-.54.11,1.19,1.19,0,0,0-.4.31V8.5Z" transform="translate(-0.33 -0.94)"/><path class="cls-3" d="M40.22,10.64A5.93,5.93,0,0,1,39,10.52a4.71,4.71,0,0,1-1-.34l.54-1.26a4.42,4.42,0,0,0,.85.3,3.63,3.63,0,0,0,.84.1A1.36,1.36,0,0,0,41,9.09a.83.83,0,0,0,.29-.69V8.1A2.39,2.39,0,0,1,40,8.52a2.62,2.62,0,0,1-1.36-.36,2.69,2.69,0,0,1-1-1,2.65,2.65,0,0,1-.36-1.36,2.59,2.59,0,0,1,.37-1.36,2.67,2.67,0,0,1,1-1A2.77,2.77,0,0,1,40,3.14a2.72,2.72,0,0,1,.7.09,2.51,2.51,0,0,1,.63.26V3.21H43V8.42a2,2,0,0,1-.71,1.65A3.15,3.15,0,0,1,40.22,10.64Zm0-3.48a1.74,1.74,0,0,0,.6-.1,1.45,1.45,0,0,0,.48-.29V4.9a1.62,1.62,0,0,0-.48-.28,1.65,1.65,0,0,0-.59-.11,1.43,1.43,0,0,0-.71.18,1.36,1.36,0,0,0-.5.47,1.22,1.22,0,0,0-.19.67A1.33,1.33,0,0,0,39,6.5a1.3,1.3,0,0,0,.5.48A1.43,1.43,0,0,0,40.25,7.16Z" transform="translate(-0.33 -0.94)"/><path class="cls-3" d="M48.69,8.61a3.27,3.27,0,0,1-1.32-.25,2.09,2.09,0,0,1-.89-.71,1.77,1.77,0,0,1-.32-1,2.08,2.08,0,0,1,.13-.76,1.69,1.69,0,0,1,.4-.6,3.77,3.77,0,0,1,.75-.54A2.79,2.79,0,0,1,47,4a2.25,2.25,0,0,1-.12-.76,1.68,1.68,0,0,1,.26-.93,1.83,1.83,0,0,1,.73-.65,2.33,2.33,0,0,1,1.06-.23,2.3,2.3,0,0,1,1,.23,1.83,1.83,0,0,1,.72.61,1.55,1.55,0,0,1,.26.89,1.49,1.49,0,0,1-.24.82A2.15,2.15,0,0,1,50,4.6l-.51.32.53.52.58.55a4.65,4.65,0,0,0,.29-.67,6.85,6.85,0,0,0,.21-.8l1.38.23A9.73,9.73,0,0,1,52.13,6a4.94,4.94,0,0,1-.47.95l.43.34.46.35-1,1.14-.45-.35L50.69,8a3.38,3.38,0,0,1-.92.43A3.77,3.77,0,0,1,48.69,8.61Zm.12-1.26a2,2,0,0,0,.46,0,1.44,1.44,0,0,0,.41-.16q-.4-.36-.76-.73t-.71-.76a1.45,1.45,0,0,0-.32.25.87.87,0,0,0-.17.27.83.83,0,0,0-.05.31.75.75,0,0,0,.31.64A1.38,1.38,0,0,0,48.81,7.35ZM48.74,4l.35-.21a1,1,0,0,0,.33-.29.62.62,0,0,0,.09-.34.57.57,0,0,0-.17-.43.6.6,0,0,0-.43-.17.55.55,0,0,0-.42.17.59.59,0,0,0-.17.43.82.82,0,0,0,.09.37A2.56,2.56,0,0,0,48.74,4Z" transform="translate(-0.33 -0.94)"/><path class="cls-3" d="M55.91,8.5v-7h2.84a3.84,3.84,0,0,1,1.45.27,3.7,3.7,0,0,1,1.17.75,3.49,3.49,0,0,1,.79,1.12A3.35,3.35,0,0,1,62.45,5a3.25,3.25,0,0,1-.29,1.36,3.48,3.48,0,0,1-.79,1.11,3.76,3.76,0,0,1-1.17.75,3.85,3.85,0,0,1-1.45.27ZM57.63,7h1.08a1.94,1.94,0,0,0,2-2,2.05,2.05,0,0,0-.15-.79,1.92,1.92,0,0,0-.42-.63,2,2,0,0,0-.62-.43A1.89,1.89,0,0,0,58.71,3H57.63Z" transform="translate(-0.33 -0.94)"/><path class="cls-3" d="M64.59,2.72a.89.89,0,0,1-.89-.89.89.89,0,1,1,1.78,0,.89.89,0,0,1-.89.89ZM63.78,8.5V3.21H65.4V8.5Z" transform="translate(-0.33 -0.94)"/><path class="cls-3" d="M66.9,8.5V3.21h1.62v.36a2.27,2.27,0,0,1,1.42-.46A2.18,2.18,0,0,1,71,3.38a1.94,1.94,0,0,1,.75.75,2.23,2.23,0,0,1,.27,1.11V8.5H70.43v-3a.9.9,0,0,0-1-1,1.27,1.27,0,0,0-.54.11,1.19,1.19,0,0,0-.41.31V8.5Z" transform="translate(-0.33 -0.94)"/><path class="cls-3" d="M74.32,2.72a.89.89,0,0,1-.89-.89.89.89,0,1,1,1.78,0,.89.89,0,0,1-.89.89ZM73.51,8.5V3.21h1.62V8.5Z" transform="translate(-0.33 -0.94)"/><path class="cls-3" d="M76.63,8.5V3.21h1.62v.36a2.27,2.27,0,0,1,1.42-.46,2.18,2.18,0,0,1,1.09.27,1.94,1.94,0,0,1,.75.75,2.23,2.23,0,0,1,.27,1.11V8.5H80.16v-3a.9.9,0,0,0-1-1,1.27,1.27,0,0,0-.54.11,1.19,1.19,0,0,0-.41.31V8.5Z" transform="translate(-0.33 -0.94)"/><path class="cls-3" d="M85.94,10.64a5.93,5.93,0,0,1-1.21-.12,4.68,4.68,0,0,1-1-.34l.54-1.26a4.4,4.4,0,0,0,.85.3,3.63,3.63,0,0,0,.84.1,1.37,1.37,0,0,0,.86-.23.83.83,0,0,0,.29-.69V8.1a2.39,2.39,0,0,1-1.37.42,2.62,2.62,0,0,1-1.36-.36,2.7,2.7,0,0,1-1-1A2.65,2.65,0,0,1,83,5.82a2.6,2.6,0,0,1,.37-1.36,2.67,2.67,0,0,1,1-1,2.77,2.77,0,0,1,1.39-.35,2.72,2.72,0,0,1,.7.09,2.51,2.51,0,0,1,.63.26V3.21h1.6V8.42A2,2,0,0,1,88,10.07,3.15,3.15,0,0,1,85.94,10.64Zm0-3.48a1.74,1.74,0,0,0,.6-.1,1.45,1.45,0,0,0,.49-.29V4.9a1.63,1.63,0,0,0-.49-.28A1.65,1.65,0,0,0,86,4.51a1.43,1.43,0,0,0-.71.18,1.36,1.36,0,0,0-.5.47,1.22,1.22,0,0,0-.19.67,1.32,1.32,0,0,0,.18.69,1.3,1.3,0,0,0,.5.48A1.43,1.43,0,0,0,86,7.16Z" transform="translate(-0.33 -0.94)"/></g></svg>