<svg id="Layer_1" data-name="Layer 1" xmlns="http://www.w3.org/2000/svg" xmlns:xlink="http://www.w3.org/1999/xlink" viewBox="0 0 53.06 7.66"><defs><style>.cls-1{fill:none;}.cls-2{clip-path:url(#clip-path);}.cls-3{fill:#010101;}</style><clipPath id="clip-path" transform="translate(-0.58 -0.94)"><rect class="cls-1" width="54.6" height="11.04"/></clipPath></defs><title>community2-txt25</title><g class="cls-2"><path class="cls-3" d="M.58,8.5v-7H2.75L4.48,4.8,6.21,1.5H8.38v7H6.76V3.73L4.46,8,2.16,3.71V8.5Z" transform="translate(-0.58 -0.94)"/><path class="cls-3" d="M11.55,8.59a2.27,2.27,0,0,1-1-.21,1.65,1.65,0,0,1-.68-.58A1.5,1.5,0,0,1,9.63,7a1.36,1.36,0,0,1,.58-1.18,2.7,2.7,0,0,1,1.6-.42,4.79,4.79,0,0,1,1.2.15V5.25a.7.7,0,0,0-.25-.6A1.23,1.23,0,0,0,12,4.46a2.81,2.81,0,0,0-.7.1,6.79,6.79,0,0,0-.9.32L9.82,3.69a7.21,7.21,0,0,1,1.25-.44,5.2,5.2,0,0,1,1.22-.15A2.54,2.54,0,0,1,14,3.63a1.84,1.84,0,0,1,.61,1.48V8.5H13V8.18a2.17,2.17,0,0,1-.67.32A3,3,0,0,1,11.55,8.59Zm-.38-1.67a.44.44,0,0,0,.22.39,1.13,1.13,0,0,0,.61.14,2.37,2.37,0,0,0,.54-.06A1.55,1.55,0,0,0,13,7.2V6.52a3.58,3.58,0,0,0-.47-.09,3.86,3.86,0,0,0-.49,0,1.28,1.28,0,0,0-.65.14A.42.42,0,0,0,11.17,6.92Z" transform="translate(-0.58 -0.94)"/><path class="cls-3" d="M16.88,2.72A.89.89,0,0,1,16,1.83a.89.89,0,1,1,1.78,0,.89.89,0,0,1-.89.89ZM16.07,8.5V3.21h1.62V8.5Z" transform="translate(-0.58 -0.94)"/><path class="cls-3" d="M19.19,8.5v-7l1.62-.25V8.5Z" transform="translate(-0.58 -0.94)"/><path class="cls-3" d="M24.59,8.5v-7h3.58a2.79,2.79,0,0,1,1.28.29,2.16,2.16,0,0,1,.88.79,2.14,2.14,0,0,1,.31,1.15,2,2,0,0,1-.36,1.18,2.29,2.29,0,0,1-.95.79l1.53,2.8H28.94L27.62,6H26.31V8.5Zm1.72-4H28a.93.93,0,0,0,.64-.22.73.73,0,0,0,.25-.57.73.73,0,0,0-.25-.57A.93.93,0,0,0,28,3h-1.7Z" transform="translate(-0.58 -0.94)"/><path class="cls-3" d="M34.57,8.6a2.93,2.93,0,0,1-1.46-.36,2.79,2.79,0,0,1-1-1,2.61,2.61,0,0,1-.38-1.39,2.64,2.64,0,0,1,.38-1.4,2.77,2.77,0,0,1,1-1,3.1,3.1,0,0,1,2.92,0,2.77,2.77,0,0,1,1,1,2.64,2.64,0,0,1,.38,1.4,2.61,2.61,0,0,1-.38,1.39,2.79,2.79,0,0,1-1,1A2.93,2.93,0,0,1,34.57,8.6Zm0-1.4A1.22,1.22,0,0,0,35.23,7a1.3,1.3,0,0,0,.46-.48,1.37,1.37,0,0,0,.17-.68,1.39,1.39,0,0,0-.17-.69,1.3,1.3,0,0,0-.46-.48,1.28,1.28,0,0,0-1.31,0,1.3,1.3,0,0,0-.46.48,1.39,1.39,0,0,0-.17.69,1.37,1.37,0,0,0,.17.68,1.29,1.29,0,0,0,.46.48A1.23,1.23,0,0,0,34.57,7.2Z" transform="translate(-0.58 -0.94)"/><path class="cls-3" d="M41.33,8.6a2.93,2.93,0,0,1-1.46-.36,2.79,2.79,0,0,1-1-1,2.61,2.61,0,0,1-.38-1.39,2.64,2.64,0,0,1,.38-1.4,2.77,2.77,0,0,1,1-1,3.1,3.1,0,0,1,2.92,0,2.77,2.77,0,0,1,1,1,2.64,2.64,0,0,1,.38,1.4,2.61,2.61,0,0,1-.38,1.39,2.79,2.79,0,0,1-1,1A2.93,2.93,0,0,1,41.33,8.6Zm0-1.4A1.22,1.22,0,0,0,42,7a1.3,1.3,0,0,0,.46-.48,1.37,1.37,0,0,0,.17-.68,1.39,1.39,0,0,0-.17-.69A1.3,1.3,0,0,0,42,4.69a1.28,1.28,0,0,0-1.31,0,1.3,1.3,0,0,0-.46.48,1.39,1.39,0,0,0-.17.69,1.37,1.37,0,0,0,.17.68,1.29,1.29,0,0,0,.46.48A1.23,1.23,0,0,0,41.33,7.2Z" transform="translate(-0.58 -0.94)"/><path class="cls-3" d="M45.36,8.5V3.21H47v.34A2.21,2.21,0,0,1,49.2,3.3a1.83,1.83,0,0,1,.67.54,2.22,2.22,0,0,1,.76-.54,2.4,2.4,0,0,1,1-.19,2.06,2.06,0,0,1,1.06.27,1.94,1.94,0,0,1,.72.75,2.26,2.26,0,0,1,.27,1.11V8.5H52v-3a1,1,0,0,0-.24-.7.8.8,0,0,0-.62-.26,1.17,1.17,0,0,0-.49.1,1,1,0,0,0-.38.3c0,.05,0,.11,0,.17s0,.12,0,.18V8.5H48.69v-3a1,1,0,0,0-.24-.7.8.8,0,0,0-.62-.26,1.18,1.18,0,0,0-.48.1.94.94,0,0,0-.37.28V8.5Z" transform="translate(-0.58 -0.94)"/></g></svg>