<svg id="Layer_1" data-name="Layer 1" xmlns="http://www.w3.org/2000/svg" xmlns:xlink="http://www.w3.org/1999/xlink" viewBox="0 0 66.33 9.29"><defs><style>.cls-1{fill:none;}.cls-2{clip-path:url(#clip-path);}.cls-3{fill:#010101;}</style><clipPath id="clip-path" transform="translate(-0.58 -1.25)"><rect class="cls-1" width="67.68" height="11.04"/></clipPath></defs><title>community2-txt2</title><g class="cls-2"><path class="cls-3" d="M.58,8.5v-7H2.75L4.48,4.8,6.21,1.5H8.38v7H6.76V3.73L4.46,8,2.16,3.71V8.5Z" transform="translate(-0.58 -1.25)"/><path class="cls-3" d="M11.55,8.59a2.27,2.27,0,0,1-1-.21,1.65,1.65,0,0,1-.68-.58A1.5,1.5,0,0,1,9.63,7a1.36,1.36,0,0,1,.58-1.18,2.7,2.7,0,0,1,1.6-.42,4.79,4.79,0,0,1,1.2.15V5.25a.7.7,0,0,0-.25-.6A1.23,1.23,0,0,0,12,4.46a2.81,2.81,0,0,0-.7.1,6.79,6.79,0,0,0-.9.32L9.82,3.69a7.21,7.21,0,0,1,1.25-.44,5.2,5.2,0,0,1,1.22-.15A2.54,2.54,0,0,1,14,3.63a1.84,1.84,0,0,1,.61,1.48V8.5H13V8.18a2.17,2.17,0,0,1-.67.32A3,3,0,0,1,11.55,8.59Zm-.38-1.67a.44.44,0,0,0,.22.39,1.13,1.13,0,0,0,.61.14,2.37,2.37,0,0,0,.54-.06A1.55,1.55,0,0,0,13,7.2V6.52a3.58,3.58,0,0,0-.47-.09,3.86,3.86,0,0,0-.49,0,1.28,1.28,0,0,0-.65.14A.42.42,0,0,0,11.17,6.92Z" transform="translate(-0.58 -1.25)"/><path class="cls-3" d="M16.07,8.5v-7l1.62-.25V5.37L19.8,3.21h1.81L19.26,5.6l2.51,2.9H19.72l-2-2.37V8.5Z" transform="translate(-0.58 -1.25)"/><path class="cls-3" d="M24.73,8.6a3,3,0,0,1-1.47-.36,2.77,2.77,0,0,1-1-1,2.6,2.6,0,0,1-.38-1.39,2.68,2.68,0,0,1,.37-1.39,2.71,2.71,0,0,1,1-1,2.74,2.74,0,0,1,1.4-.36A2.55,2.55,0,0,1,26,3.5a2.65,2.65,0,0,1,.95,1A3.13,3.13,0,0,1,27.28,6v.4H23.51a1.47,1.47,0,0,0,.29.44,1.27,1.27,0,0,0,.45.29,1.48,1.48,0,0,0,.56.11,1.63,1.63,0,0,0,.6-.11,1.3,1.3,0,0,0,.46-.29l1.07,1a3.41,3.41,0,0,1-1,.61A3.48,3.48,0,0,1,24.73,8.6ZM23.48,5.28h2.21a1.19,1.19,0,0,0-.25-.44,1.22,1.22,0,0,0-.38-.29,1.1,1.1,0,0,0-.48-.1,1.17,1.17,0,0,0-.49.1,1.05,1.05,0,0,0-.37.29A1.25,1.25,0,0,0,23.48,5.28Z" transform="translate(-0.58 -1.25)"/><path class="cls-3" d="M28.54,8.5V3.21h1.62v.53a1.74,1.74,0,0,1,.61-.49,1.81,1.81,0,0,1,.78-.17,1.2,1.2,0,0,1,.61.13V4.63a1.45,1.45,0,0,0-.36-.12,2.1,2.1,0,0,0-.41,0,1.46,1.46,0,0,0-.71.17,1.38,1.38,0,0,0-.52.5V8.5Z" transform="translate(-0.58 -1.25)"/><path class="cls-3" d="M38.47,8.6a4.76,4.76,0,0,1-1.68-.31,5,5,0,0,1-1.48-.86l1-1.25a5,5,0,0,0,1.18.74,3,3,0,0,0,1.15.23,2.52,2.52,0,0,0,.68-.08,1,1,0,0,0,.43-.24.51.51,0,0,0,.15-.37A.52.52,0,0,0,39.64,6a1.87,1.87,0,0,0-.75-.25L37.35,5.5A2.24,2.24,0,0,1,36,4.85a1.8,1.8,0,0,1-.46-1.27,2,2,0,0,1,.35-1.17,2.15,2.15,0,0,1,1-.75,4.09,4.09,0,0,1,1.53-.26A4.91,4.91,0,0,1,40,1.66a4.36,4.36,0,0,1,1.37.73l-.91,1.27a3.53,3.53,0,0,0-2.15-.83,2.16,2.16,0,0,0-.6.08.9.9,0,0,0-.39.21.44.44,0,0,0-.14.33.46.46,0,0,0,.2.4,1.63,1.63,0,0,0,.63.22l1.45.24A2.76,2.76,0,0,1,41,5a1.76,1.76,0,0,1,.53,1.32,2,2,0,0,1-.37,1.23,2.36,2.36,0,0,1-1.06.79A4.35,4.35,0,0,1,38.47,8.6Z" transform="translate(-0.58 -1.25)"/><path class="cls-3" d="M42.75,10.54V3.21h1.6V3.6a2.35,2.35,0,0,1,1.42-.46,2.62,2.62,0,0,1,1.37.36,2.74,2.74,0,0,1,1,1,2.68,2.68,0,0,1,.36,1.38,2.65,2.65,0,0,1-.36,1.38,2.72,2.72,0,0,1-1,1,2.74,2.74,0,0,1-1.4.36A2.78,2.78,0,0,1,45,8.48a2.72,2.72,0,0,1-.64-.26v2.32ZM45.49,7.2A1.42,1.42,0,0,0,46.2,7a1.36,1.36,0,0,0,.5-.48,1.36,1.36,0,0,0,0-1.37,1.34,1.34,0,0,0-.5-.48,1.43,1.43,0,0,0-.71-.17,1.76,1.76,0,0,0-.62.1,1.46,1.46,0,0,0-.5.31V6.79a1.55,1.55,0,0,0,.5.3A1.73,1.73,0,0,0,45.49,7.2Z" transform="translate(-0.58 -1.25)"/><path class="cls-3" d="M51.46,8.59a2.26,2.26,0,0,1-1-.21,1.66,1.66,0,0,1-.68-.58A1.51,1.51,0,0,1,49.54,7a1.37,1.37,0,0,1,.58-1.18,2.71,2.71,0,0,1,1.61-.42,4.79,4.79,0,0,1,1.2.15V5.25a.7.7,0,0,0-.26-.6,1.23,1.23,0,0,0-.75-.19,2.8,2.8,0,0,0-.69.1,6.77,6.77,0,0,0-.91.32l-.58-1.19A7.23,7.23,0,0,1,51,3.25a5.2,5.2,0,0,1,1.21-.15,2.54,2.54,0,0,1,1.71.52,1.84,1.84,0,0,1,.61,1.48V8.5h-1.6V8.18a2.17,2.17,0,0,1-.68.32A3,3,0,0,1,51.46,8.59Zm-.38-1.67a.44.44,0,0,0,.22.39,1.13,1.13,0,0,0,.61.14,2.37,2.37,0,0,0,.54-.06,1.55,1.55,0,0,0,.47-.19V6.52a3.61,3.61,0,0,0-.47-.09,3.85,3.85,0,0,0-.49,0,1.29,1.29,0,0,0-.65.14A.42.42,0,0,0,51.08,6.92Z" transform="translate(-0.58 -1.25)"/><path class="cls-3" d="M58.54,8.6a2.84,2.84,0,0,1-1.42-.36,2.69,2.69,0,0,1-1.37-2.38,2.68,2.68,0,0,1,.37-1.4,2.75,2.75,0,0,1,1-1,2.81,2.81,0,0,1,1.42-.37,3.09,3.09,0,0,1,1.24.26,2.76,2.76,0,0,1,1,.72l-1,1a1.92,1.92,0,0,0-.57-.47,1.42,1.42,0,0,0-.64-.15,1.16,1.16,0,0,0-.63.18,1.22,1.22,0,0,0-.44.48,1.47,1.47,0,0,0-.16.69,1.41,1.41,0,0,0,.17.69,1.23,1.23,0,0,0,1.1.66,1.34,1.34,0,0,0,.61-.14,1.84,1.84,0,0,0,.54-.43l1,1a2.74,2.74,0,0,1-1,.71A3,3,0,0,1,58.54,8.6Z" transform="translate(-0.58 -1.25)"/><path class="cls-3" d="M64.36,8.6a3,3,0,0,1-1.46-.36,2.78,2.78,0,0,1-1-1,2.61,2.61,0,0,1-.38-1.39,2.69,2.69,0,0,1,1.36-2.37,2.74,2.74,0,0,1,1.4-.36,2.55,2.55,0,0,1,1.38.38,2.65,2.65,0,0,1,.94,1A3.13,3.13,0,0,1,66.91,6v.4H63.14a1.47,1.47,0,0,0,.29.44,1.26,1.26,0,0,0,.45.29,1.47,1.47,0,0,0,.56.11,1.64,1.64,0,0,0,.6-.11,1.31,1.31,0,0,0,.46-.29l1.07,1a3.4,3.4,0,0,1-1,.61A3.49,3.49,0,0,1,64.36,8.6ZM63.11,5.28h2.21a1.18,1.18,0,0,0-.24-.44,1.23,1.23,0,0,0-.39-.29,1.1,1.1,0,0,0-.48-.1,1.17,1.17,0,0,0-.49.1,1.05,1.05,0,0,0-.37.29A1.25,1.25,0,0,0,63.11,5.28Z" transform="translate(-0.58 -1.25)"/></g></svg>