<svg id="CONTENTS" xmlns="http://www.w3.org/2000/svg" viewBox="0 0 149.22 125.16"><defs><style>.cls-1{fill:none;}.cls-2{fill-rule:evenodd;}</style></defs><title>flyq-icon1</title><g id="_02" data-name="02"><g id="일러그림"><g id="line"><rect class="cls-1" width="149.22" height="125.16"/></g><g id="아이콘"><g id="_01" data-name="01"><path class="cls-2" d="M955.15,536.66c.24-3.73.52-7.45.91-11.19,0-.12,0-.24,0-.36a1.41,1.41,0,0,1,.15-2.19c.17-1.94.41-3.87.6-5.82,0-.91.47-2.15-.11-2.92l0,0a1,1,0,0,0-1.45,0c-.34.35-.34,1.24-.42,1.81-.26,2-.44,4.06-.64,6.06-.7,7-1.31,13.9-1.71,20.89-.14,2.42-.46,5.44-.53,8.12a1.14,1.14,0,0,0,1.38,1c1-.29.84-1.58,1-2.42.09-1,.25-2.09.26-3.14,0-.3,0-.6,0-.9q.21-3.58.42-7.13a1.4,1.4,0,0,1,.11-1.78Zm2.44,1a1.41,1.41,0,0,0-2.44-1q-.06.89-.11,1.78a1.41,1.41,0,0,0,2.55-.8Zm22.33-66.33a1.83,1.83,0,0,0,.72-1.35,8.2,8.2,0,0,0,.13-1.12c0-.18,0-.36,0-.54s.06-.38.06-.57a3.52,3.52,0,0,0,0-.74c-.1-.59-.45-1.09-1.1-1.07h0c-1.34.35-.84,2.42-1,3.5-.07.54-.28,1.27.14,1.72A.9.9,0,0,0,979.92,471.31ZM957,525.49a1.42,1.42,0,0,0,0-2.83,1.4,1.4,0,0,0-.83.26q-.09,1.09-.15,2.19A1.4,1.4,0,0,0,957,525.49Zm-2.6-45.12a1.1,1.1,0,0,0,.07,1.5,2.8,2.8,0,0,0,1.81.62,20.69,20.69,0,0,0,5.77,0,4.49,4.49,0,0,0,1.46-.44,1.16,1.16,0,0,0,.24-1.75l0,0a1.49,1.49,0,0,0-1.26-.12,24,24,0,0,1-4,.27,13.17,13.17,0,0,1-2.77-.29,1.41,1.41,0,0,0-.89,0A1.22,1.22,0,0,0,954.41,480.37Zm6.11,28a1.41,1.41,0,0,0,1.39,1.44,1.4,1.4,0,0,0,.39-.06c.09-.31.16-.62.26-.86a2.74,2.74,0,0,0,.17-1,2.49,2.49,0,0,0-.26-.78,1.41,1.41,0,0,0-2,1.28Zm-3.05-35.28c.44-1.1.72-1.64,1-2.46.44-1.27,1.87-5,.77-6a.85.85,0,0,0-.91-.14l-.16.09a1.24,1.24,0,0,0-.42.54,3.88,3.88,0,0,0-.22,1.23,8.13,8.13,0,0,1-.33,1.61q-.23.82-.54,1.61c-.39,1-.88,2-1.29,3-1.18,2.83,1.76,4.28,4.13,3.62a1,1,0,0,0,.28-1.83l-.14-.08a1.73,1.73,0,0,0-.67-.13h-.8a1,1,0,0,1-.8-.33.47.47,0,0,1,0-.33A1.72,1.72,0,0,1,957.46,473.13Zm-6.33-9.63a.93.93,0,0,0-.52,0,1,1,0,0,0-.65.44,1.65,1.65,0,0,0-.21.62,6.1,6.1,0,0,0,.05,2.2,1.65,1.65,0,0,0,.44.84.81.81,0,0,0,1,.08,1.56,1.56,0,0,0,.7-1.54,13.9,13.9,0,0,0-.09-1.43A1.3,1.3,0,0,0,951.13,463.5Zm-21.52-17.2a11,11,0,0,0,3.39,1.17,7.41,7.41,0,0,0,3.09,0,15,15,0,0,1,5.77-.68,4.88,4.88,0,0,1,1.85.67,13.41,13.41,0,0,0,2.69,1c1.48.38,2.82-.16,4.2-.58a10.58,10.58,0,0,0,1.84-.65c1.2-.5,2.58-.87,3.78-1.51a8.76,8.76,0,0,1,2.66-.85,6.73,6.73,0,0,1,2,0,14.59,14.59,0,0,0,4.28.19c1.13-.13,1.85-1.19,2.74-1.8a11,11,0,0,1,1.71-.94c.8-.24,1.77-.38,2.65-.62a4,4,0,0,0,2.07-1.3,2.37,2.37,0,0,0,.6-2,11,11,0,0,0-2.77-4.87,16.76,16.76,0,0,0-18.9-4.85,13.15,13.15,0,0,0-3.14,2c-1.24,1.08-2.33,2.31-4,2.69s-3.35.24-4.89.58a6.54,6.54,0,0,0-4.73,3.94c-.49,1.26-2.28,5.31.13,5.46a11.75,11.75,0,0,0,1.6-.21,20.55,20.55,0,0,1,3.85,0,9.32,9.32,0,0,1,3.66,1.14,1,1,0,0,1,.46.44l0,0a.65.65,0,0,1-.43.92c-.85,0-1.47-.62-2.3-.76a12.58,12.58,0,0,0-4.08-.39,14.81,14.81,0,0,0-3.65.52,6.37,6.37,0,0,1-4.05-.1c-.65-.22-1.25-.8-1.92-1a1.08,1.08,0,0,0-1.26,1.33C928.66,445.81,929.22,446.09,929.62,446.3Zm36.79,18.41c0,.41-.08.81-.1,1.22,0,.79.24,2,1.26,1.83a1,1,0,0,0,.66-.48,1.69,1.69,0,0,0,.22-.58,4.67,4.67,0,0,0,.06-1.11c0-.35,0-.71,0-1.06-.05-.57-.58-1.2-1.15-1.09a.81.81,0,0,0-.3.13A1.38,1.38,0,0,0,966.41,464.71Zm31.74,56.79c-3.2-6.75-9.19-11.51-15.76-14.8l-.45-.24a36.65,36.65,0,0,1-8.77-7.15,1.08,1.08,0,0,1-.21-.36c-.69-1.92-1.7-3.7-3.83-4a1.06,1.06,0,0,1-.85-.67c-1-2.73,3-5.12,4.37-7.14a23.33,23.33,0,0,0,3.5-6.94,1.05,1.05,0,0,1,.25-.42c1.11-1.09,3.3-.14,5.05-2.38,3.68-4,5-12,.65-15.9-.66-.47-.33-1.24-.24-1.92.77-5.45,1-12-2.69-16.47l0,0c-1.89-2.33-4.58-1.38-6.85-.32a2.79,2.79,0,0,0-.39.23c-1.38.94-3.32.47-4,2a.83.83,0,0,0-.08.34c0,2,4.65,2.34,5.36,7.22.56,3.58-.09,7.44,1.59,10.62a3.9,3.9,0,0,1,.32.87c.2.78.65,1.74,1.57,1.18.64-.52.69-1.37,1.44-1.84a2.53,2.53,0,0,1,3.75,1c1.77,3.78.88,9.28-2.33,12-1.08,1.13-2.79.37-4,.88a1.06,1.06,0,0,0-.56.54c-1.34,3-2,6-4.24,8.52a15.64,15.64,0,0,1-6.58,4.63,1.11,1.11,0,0,0-.46.34c-.92,1.17.11,1.74,1.22,1.58a1.07,1.07,0,0,1,1.2,1.12c0,.05,0,.1,0,.15s0,.12,0,.17,0,.17,0,.26,0,.34,0,.51a1.05,1.05,0,0,1-.64,1.07,18.87,18.87,0,0,1-12.6.06,1,1,0,0,1-.7-1,7.07,7.07,0,0,0,0-1.85c-.1-.47-.07-1.07.57-.8a27.43,27.43,0,0,0,6,1.31h.09a5,5,0,0,0,2.6-.43,1,1,0,0,0-.57-1.83c-8.77,1-15.54-5.6-17.48-13.74a1,1,0,0,0-.4-.61c-.92-.6-2.51,0-3.46-.49-4-2.34-5.3-9.54-2.51-13.22a1.07,1.07,0,0,1,.3-.27c3.39-2,3.48,3,5.34,1.86.8-.57.28-1.49.07-2.21a1.1,1.1,0,0,1,0-.12,30.2,30.2,0,0,1-.41-7.62c.17-2.2,3-6.39-1.08-6.68-5.18-.75-6.66,5-6.55,9.08,0,1.9.86,4.19-.12,6-2.13,5.05-.88,13.05,4.61,15.29a4.25,4.25,0,0,0,1.2.27,1.86,1.86,0,0,1,1.9,1.65,7.62,7.62,0,0,0,.23.76,19.3,19.3,0,0,0,3.19,5.74c1.58,2.05,5.14,4.08,4.33,7a.66.66,0,0,1-.55.47c-4.11.48-4.31,5.66-7.35,7.85-11.2,8.77-18.85,11-24.26,25.86-2.42,6.65-3.06,13.71-3.44,20.73,0,.06,0,.13,0,.19.06,2.73,2.28,2.49,2.3-.37,0-.06,0-.13,0-.19.56-12.94,3.55-27.23,14.21-35.62,3-2.65,6.58-4.09,9.67-6.56l.27-.2c1.07-.75,4.2-4.53,5-3.91,2.07,2.49,4,5.23,6.28,7.51a2.78,2.78,0,0,0,1.37.75c.36.08.68.2.79.64.41,2.64,3.32,1.68,5.23,1.79s3.93.28,4.5-1.68a1,1,0,0,1,.57-.67c3-1.28,4.76-4.88,7.09-7.26.49-.44.87-1.75,1.65-1.09a38.57,38.57,0,0,0,4.18,3.54c.19.13.38.26.58.37,7.74,4.6,16.18,9.1,19.27,18.21a105.72,105.72,0,0,1,5.07,17.28,93.28,93.28,0,0,1,1.41,9.34.93.93,0,0,0,1.86-.11A85,85,0,0,0,998.15,521.5Zm-27-20.75a20.42,20.42,0,0,1-1.73,2.22c-1.14,1.31-2.2,2.65-3.3,4-.82,1-1,1.07-1.51-.15s-1.18-2.64-2-3.84c-.84-.94-2,0-1.64,1.07.28.91.71,1.54,1,2.33.11.24.26.51.4.79a1.41,1.41,0,0,1-.17,2.67,2.29,2.29,0,0,1-.59,1.17,1.17,1.17,0,0,1-.57.15c-.77,0-1.54.06-2.33.06-.54,0-1-.06-1.63-.07a1,1,0,0,1-1-.53,13.24,13.24,0,0,1-.68-2.36,1.24,1.24,0,0,1,0-.44,7.33,7.33,0,0,1,.43-1.13,1.4,1.4,0,0,1,1-2c.08-.18.16-.36.22-.53.41-1.42-1.14-2.26-1.85-.79-.52,1.08-1.21,2.54-1.77,3.65-.14.22-.22.58-.47.71a.25.25,0,0,1-.14,0c-.29,0-.55-.43-.73-.64-.65-.8-1.27-1.56-1.95-2.41a35.46,35.46,0,0,1-3.14-4,1.27,1.27,0,0,1-.16-.75,4.18,4.18,0,0,1,1.57-2.66c.74-.52,1.66,0,2.32.37,3.36,1.63,7.12,1.83,10.85,1.52a17.67,17.67,0,0,0,5.83-1.57,8.88,8.88,0,0,1,1.54-.74h.06c1.44-.19,2,2,2.3,3.09A1.15,1.15,0,0,1,971.18,500.75Zm-14,42.44a1.42,1.42,0,1,0,1.39,1.44A1.41,1.41,0,0,0,957.18,543.18Zm6.25-3.92a1.42,1.42,0,1,0,.18,1.66c-.05-.48-.11-1-.16-1.44Zm-6.22-31.83a1.42,1.42,0,1,0-.3-2.8c-.29.67-.65,1.34-1,2A1.41,1.41,0,0,0,957.21,507.43ZM964,522.29c-.16-1.95-.35-3.9-.54-5.85-.09-.88.2-2.76-1.45-2.52h-.06c-1.29.4-.7,2.28-.64,3.17s.14,1.7.21,2.56a1.4,1.4,0,0,1,.18,1.95c.07.7.14,1.38.21,2,.59,5.21,1,10.41,1.51,15.61a1.39,1.39,0,0,1,.18,1.66c.24,2.13.55,4.27.76,6.18.11,1,.28,2,.41,3.06s0,2,1,2.38a1,1,0,0,0,1.34-1c-.18-2.09-.58-4.33-.76-6.39C965.4,537.57,964.76,529.92,964,522.29Zm26.65,14.05c-.2-2.26-.37-4.36-.62-6.63,0-.87-.55-1.54-1.26-1.39h0a1,1,0,0,0-.34.19,1.89,1.89,0,0,0-.38,1.62c.07.69.22,1.36.25,2.05.07,1.14.16,2.28.26,3.42s.22,2.26.34,3.39q.09.85.17,1.7c.05.56.08,1.14.16,1.69.29,2.19.39,4.4.49,6.63a8.61,8.61,0,0,0,.16,1.72,1,1,0,0,0,1.88-.07,16.58,16.58,0,0,0-.08-4C991.5,543.21,991,539.82,990.65,536.34Zm-52.4-70.44h0c-1.09.31-.88,1.74-.79,2.59.09,1,.08,3,1.45,3,1.3-.19.74-1.95.6-2.84S939.69,465.88,938.25,465.91Zm22.74,66a1.41,1.41,0,1,0-1.44,1.39A1.41,1.41,0,0,0,961,531.94Zm.22,15.74a1.42,1.42,0,1,0,1.39,1.44A1.41,1.41,0,0,0,961.21,547.68Zm-.58-28.36a1.42,1.42,0,1,0,1.07,2.3q-.1-1-.18-1.95A1.4,1.4,0,0,0,960.63,519.32Zm-30.92,8.15a2.47,2.47,0,0,0-.23.84,137.27,137.27,0,0,0-.93,14.68c-.18,2.19-.11,4.44-.18,6.64a2.67,2.67,0,0,0,.35,1.63l0,0a.87.87,0,0,0,1.36-.09,1.89,1.89,0,0,0,.31-1.08c.07-5.92.31-11.86.69-17.79.05-1.43.48-2.92.39-4.35A1,1,0,0,0,929.71,527.47Z" transform="translate(-885.39 -427.42)"/></g></g></g></g></svg>