<svg id="CONTENTS" xmlns="http://www.w3.org/2000/svg" viewBox="0 0 149.22 125.16"><defs><style>.cls-1{fill:none;}.cls-2{fill-rule:evenodd;}</style></defs><title>flyq-icon4</title><g id="_02" data-name="02"><g id="일러그림"><g id="line"><rect class="cls-1" width="149.22" height="125.16"/></g><g id="아이콘"><g id="_03" data-name="03"><path class="cls-2" d="M990.12,477.74c-.71-.5-1.35-1-2.11-1.47a1.54,1.54,0,0,0-.75-.28h0a.75.75,0,0,0-.38,1.32c.87.74,1.81,1.36,2.73,2,.25.17.51.34.77.49,2.83,1.69,5.49,3.67,8.26,5.44a13.49,13.49,0,0,0,5.09,1.89c1,.24,2.24.21,3.28.44a11.15,11.15,0,0,1,1.76.51,1.58,1.58,0,0,0,.63.19c.56,0,.88-.39.59-.9s-.82-.64-1.18-.77a19.43,19.43,0,0,0-3.9-.7c-.4,0-.81-.1-1.2-.18a12.06,12.06,0,0,1-2.73-.88c-3.51-1.82-6.42-4.45-9.82-6.46C990.77,478.17,990.43,478,990.12,477.74Zm-50.41,3.76.31-.1c.21-.07.41-.14.61-.22.69-.28,2.37-1.15,1.61-2.09l0,0a1,1,0,0,0-1.36.32,2.51,2.51,0,0,1-.9.72c-.65.25-1.43.19-1.86.8a1.32,1.32,0,0,0,.65,2.06c.91.3,2.53.29,3.16-.55a.6.6,0,0,0-.21-.79.81.81,0,0,0-.62-.09,6,6,0,0,0-.7.17c-.24.07-.51.21-.76.09-.08,0-.19-.13-.11-.22S939.64,481.51,939.71,481.5Zm45.22-33a.54.54,0,0,0,.7-.15,1.1,1.1,0,0,0,.22-.7,1.88,1.88,0,0,1-.1-.63.71.71,0,0,0-1-.77c-.46.22-.51,1-.38,1.46a1.69,1.69,0,0,0,.3.6A.76.76,0,0,0,984.92,448.5Zm-50.77,32.79c.23-.12.44-.42.69-.57a10.67,10.67,0,0,1,1.5-.74.64.64,0,0,0-.11-1.17,2.58,2.58,0,0,0-1.91.47,3.84,3.84,0,0,0-.93.63,1,1,0,0,0-.34,1A.81.81,0,0,0,934.15,481.29Zm3.16,6.17c6.35-1.91,8.83-6.69,12.37-11.73,1.62-2.35,3.92-4.16,6-6.11l0,0a.8.8,0,0,0-.26-1.25c-.49-.19-.95.2-1.3.51-1.07.95-2.09,1.95-3.17,2.92-2.09,2-3.49,4.37-5.1,6.68-2.36,3.51-4.83,6.23-9,7.55C935.54,486.33,935.92,488,937.31,487.46Zm43.33-29.71a1.23,1.23,0,0,1-.65-.28,14.88,14.88,0,0,0-3.13-1.6c-.84-.27-1.58.54-1,1.22a1.73,1.73,0,0,0,.57.33,20.35,20.35,0,0,1,3.16,1.72,10.6,10.6,0,0,1,3.55,6.07c.55,1.37.8,2.84,1.32,4.25.46,1,.9,2.17,1.33,3.19a5.53,5.53,0,0,0,.4,1.15.77.77,0,0,0,1.38-.27,2.4,2.4,0,0,0-.19-1.18c-.28-.85-.7-1.69-1-2.52a27.72,27.72,0,0,1-1.35-4,20.51,20.51,0,0,0-2.29-5.61c-.25-.44-1-.93-.56-1.36,1-.79,2.07-.65,3.28-.66a16.53,16.53,0,0,0,2.67-.1c1.87-.28,2.91-1.9,4-3.3a5.91,5.91,0,0,1,2.85-2.09c1.12-.3.28-2.28.09-2.92a6.1,6.1,0,0,1,.4-3.77c.33-1,.88-2.28.24-3.23l0,0a.74.74,0,0,0-1,0c-.46.35-.34,1.13-.43,1.59-.25,1.09-.74,2-.89,3.17a10,10,0,0,0,.36,2.7c.13.52.52,1.2-.07,1.53s-1.5,1.08-2.12,1.42a3.14,3.14,0,0,1-2.11-.45c-.43-.23-1-.24-1,.32s.63,1,1.11,1.16c.3.11.66.22.65.45a.63.63,0,0,1-.17.37,4.59,4.59,0,0,1-1.44,1.41c-1.31.52-2.83,0-4.21.13a5.8,5.8,0,0,0-2.6.63C981.41,457.27,981.06,457.67,980.64,457.75Zm-38.31,18.8c2.23-2.7,3.79-5.76,6-8.49.18-.22.34-.45.51-.67a10.46,10.46,0,0,1,5.06-3.46c.32-.12.87-.42,1,.13a14.45,14.45,0,0,0,.57,2.8c.29.91.52,2.11,1.45,2.52a1.21,1.21,0,0,0,.67.09.45.45,0,0,0,.42-.31c.14-.48-.23-.88-.45-1.27a7.83,7.83,0,0,1-.56-1.36,9.82,9.82,0,0,1-.43-1.85,6.68,6.68,0,0,1,0-2.49c.12-.44.61-.7,1-.88s.88-.36,1.31-.57a36.51,36.51,0,0,1,4.55-1.5q1.28-.34,2.57-.64c.88-.2,1.74-.46,2.62-.68s1.79-.39,2.7-.54a8.16,8.16,0,0,0,2.28-.7,8.85,8.85,0,0,0,1.17-.69,7,7,0,0,0,1.39-1.35c.25-.34.48-.7.72-1a3.6,3.6,0,0,0,.61-.92c.09-.29.12-.65.42-.8l0,0a8.52,8.52,0,0,1,1.5-.13,7.69,7.69,0,0,0,2.35-.65,3.18,3.18,0,0,0,2.1-2.13c.2-1.09-.55-2.49.23-3.47a1,1,0,0,1,1.62.12,1.71,1.71,0,0,0,1.43.71c1.57.12,2.37-1.3,3.43-2.22a9.25,9.25,0,0,1,1.25-.88c1-.87-.91-2.65-1.66-3.22-1-.65-2-.53-3.34-.7a8.57,8.57,0,0,0-4.81.56,9.24,9.24,0,0,1-3.83.51c-1.63,0-3.8-1.75-4.14,1-.08,1.26.16,2.33.17,3.61a13.59,13.59,0,0,0,.45,3c1.12,3.09,2.51,3-.09,6.16-1.52,1.64-4,1.72-6,2.22-3.87,1.08-7.87,1.76-11.54,3.53a5.87,5.87,0,0,0-1.68,1.07l-.1.12a4.27,4.27,0,0,1-2,1.59l-.3.12a12,12,0,0,0-4.26,2.5c-2.72,2.84-4.47,6.29-6.8,9.39a12.91,12.91,0,0,1-2.79,2.8c-.66.55-2.27.89-1.78,2C938,480.84,941.59,477.43,942.33,476.55Zm49.82-28.05a5.28,5.28,0,0,0,.31-1,1.06,1.06,0,0,0,0-.67.76.76,0,0,0-1.23-.3l0,0a2.36,2.36,0,0,0-.28.76,2.22,2.22,0,0,0-.21,1.22A.72.72,0,0,0,992.14,448.5Zm-20.61-10.35c.32,0,.56-.26.89-.38a4.2,4.2,0,0,1,3.35.16,6.06,6.06,0,0,0,4.8,1.17c1.37-.3,2.61-1,4.07-1a8.35,8.35,0,0,1,1.64.1c1,.09,1.64,0,2.45.06a3.62,3.62,0,0,1,2.83,1.46,4.07,4.07,0,0,1,.43.7,2.7,2.7,0,0,0,2.61,1.79,2.05,2.05,0,0,0,1.56-1,4,4,0,0,0-.7-4.09,9.7,9.7,0,0,0-4.93-4.14c-2.15-.61-4.31-.14-6.51-.23a5.58,5.58,0,0,1-3.38-.86,2.53,2.53,0,0,1-.74-.83c-.2-.34-.31-.73-.72-.85a.77.77,0,0,0-1,.71c0,.64.47,1.07.76,1.63a.61.61,0,0,1-.19.91,3.94,3.94,0,0,0-1.6,1.57c-.45,1.54,1.83,1.57,3.06,1.56.26,0,1.27.17,1,.54l0,0a4.6,4.6,0,0,1-3.24.14c-1-.42-1.83-1.23-2.91-1.37s-4.06-.07-4.29,1.3a.79.79,0,0,0,.14.63A.72.72,0,0,0,971.53,438.15Zm-37.46,47.73c-.11.43-.18.89.22,1.16a.75.75,0,0,0,1-.14,2.31,2.31,0,0,0,.28-.81,2.35,2.35,0,0,1,1-1.28,2.07,2.07,0,0,0,.74-.73.81.81,0,0,0,0-.77.55.55,0,0,0-.11-.13c-.65-.54-1.37.24-1.89.67A3.82,3.82,0,0,0,934.07,485.87Zm72.11,6.06c-.36-.19-.76-.33-1.14-.5s-.81-.39-1.24-.54a.85.85,0,0,0-.79.08.58.58,0,0,0-.27.55.84.84,0,0,0,.33.54,5.3,5.3,0,0,0,1,.49c.49.23,1,.41,1.48.68a1.07,1.07,0,0,0,1.11,0,.6.6,0,0,0,.22-.29.57.57,0,0,0,0-.21C1006.91,492.37,1006.52,492.12,1006.18,491.94Zm-2.94,1c-2.6-2.84-6.22-4.4-9.27-6.76a13.29,13.29,0,0,0-2.71-1.64c-2.21-1-4.6-1.6-6.61-3a10.5,10.5,0,0,1-3.09-3,.54.54,0,0,1,.42-.82,4.63,4.63,0,0,0,1-.08,8.32,8.32,0,0,0,3.57-1.74.77.77,0,1,0-.86-1.29c-2.23,1.76-5,1.81-7.74,1.54-1.59-.38-2.49-5.67-3.66-7.31-.43-.76-.52-1.79-1.21-2.41-.57-.34-1.15-.08-1.13.59.27,1.55,1.19,2.87,1.73,4.33.66,1.83,1.5,3.62,2.11,5.44a1,1,0,0,1,0,.68c-1.72,3.91-3.78,7.77-5.59,11.65a18,18,0,0,1-2.45,4.23c-1,.75-2.4-.1-3.47-.23a30.16,30.16,0,0,1-13.3-8.2,1,1,0,0,0-1-.25c-1.66.72,4.19,5.4,5.13,5.87a32,32,0,0,0,11.6,4.78,2.1,2.1,0,0,1,.87.38,69.42,69.42,0,0,1,5.68,4.57.44.44,0,0,1,.1.51c-.91,1.94-2.81,3.62-4.39,5.16a5.89,5.89,0,0,1-.78.63,12.6,12.6,0,0,0-2.05,1.37,1.31,1.31,0,0,0-.44.71.78.78,0,0,0,.34.75,1,1,0,0,0,.54.07,1.83,1.83,0,0,1,.57,0,2.34,2.34,0,0,1,.64.32,5.83,5.83,0,0,1,.58.47,6,6,0,0,1,.56.49c.53.61-.07,1.43-.15,2.1-.24.91-.32,1.86-.52,2.79-.15.72-.27,1.44-.37,2.17-.46,3.4-.61,6.93-.89,10.32a3.81,3.81,0,0,1-.79,2.39,8.7,8.7,0,0,0-.76,1.51,11.1,11.1,0,0,0-.9,5.17,1.44,1.44,0,0,0,.44.89c2.89,2.65,15.56,4.2,18.18,2,3.73-.15,7.61.1,11.32-.21a9.76,9.76,0,0,0,3.5-1.17,3.19,3.19,0,0,1,1-.29c1.32-.12,2,.68.94,1.65a3,3,0,0,1-1.08.6c-3.34,1.11-7.19.74-10.7.88-5.14.2-10.28,0-15.46.07-.5,0-1.14,0-1.28.54-.16,1.57,2.15.92,3.11,1,5.77.12,11.55,0,17.33-.08,1.54,0,3.08-.27,4.61-.29a1,1,0,0,1,.89.56v0a.91.91,0,0,0,1.07.49,5.36,5.36,0,0,0,3.68-4.84c0-2.2-2.18-2.51-4-2.15-1.34.33-2.23,1.23-3.64,1.34-3.55.22-7.06.26-10.6.15a1,1,0,0,1-.81-.38,12.33,12.33,0,0,0-7.92-6,1,1,0,0,0-.88.2c-.79.69.84,1.5,1.63,1.72a12.91,12.91,0,0,1,3.6,2.14,7.43,7.43,0,0,1,1.37,1.37c.72,1,1.27,2.09-.26,2.27a27.94,27.94,0,0,1-6-.21c-.3,0-.6-.07-.9-.12a29.7,29.7,0,0,1-6.79-1.82,1.38,1.38,0,0,1-.84-1.07,6.4,6.4,0,0,1,.29-2.16,17.44,17.44,0,0,1,.49-1.74,2,2,0,0,1,.29-.61.62.62,0,0,1,.79-.14,8.37,8.37,0,0,0,3.62,1.07,1.56,1.56,0,0,0,1-.18c.64-.38.92-1.14-.13-1.23a6.55,6.55,0,0,1-3.52-1,1.08,1.08,0,0,1-.4-1.25.53.53,0,0,1,.54-.35c.87.06,1.84.31,2.77.47a.45.45,0,0,1,.35.26c.24.58.12,1.47.87,1.3a.94.94,0,0,0,.57-.38c.44-.64.34-1.65.54-2.39a78.32,78.32,0,0,1,2.69-9.79,32.36,32.36,0,0,0,2.44-8.78c.21-2-1.08-3.45-2.27-4.9-.7-.93-1.78-1.66-2.39-2.61,0-.59.75-.91.79-1.58-.12-1.39-3-2.78-4.05-3.89-2.89-2.08-2.61-1.9-.76-4.74,1.35-2.77,2.72-5.7,4.07-8.48,1-1.66,1.5-3.49,2.56-5.13a1,1,0,0,1,.66-.45c1.42-.27,2.32,1.64,3.09,2.61a14.23,14.23,0,0,0,4.09,3.2,57.94,57.94,0,0,0,5.84,2.47,39.18,39.18,0,0,1,5,3.44c1.46.9,3,1.7,4.38,2.72.71.5,1.58,1.75,2.63,1.79.58-.1.59-.66.28-1.1Zm-29.06,11a20.12,20.12,0,0,1,2.56,2.78,3.72,3.72,0,0,1,1.1,3,36.16,36.16,0,0,1-1,4.46c-.63,2.06-1.62,3.92-2.16,6s-1.14,4.15-1.68,6.25c-.24,1.34-.7,1.28-1.9,1.2a8.85,8.85,0,0,1-1.88-.41.69.69,0,0,1-.47-.36c-.16-.52,0-1,.64-.66.76.33,1.61.74,2.21.38s.3-1.32-.44-1.46a12,12,0,0,1-1.79-.76.84.84,0,0,1-.45-.79c.15-2,.37-4,.55-6,.1-1,.44-1.86.53-2.93a19.57,19.57,0,0,1,.42-2.05.71.71,0,0,1,.24-.41c.31-.16.72.25,1.17.23a.75.75,0,0,0,.76-.71.85.85,0,0,0-.43-.73,25.72,25.72,0,0,1-2.63-1.9c-.28-.29-1.08-.64-.7-1.11a37.68,37.68,0,0,0,3.91-3.71l0,0C973.21,503.73,973.52,503.21,974.19,503.93Zm35.33-12.68-.22-.12a10.77,10.77,0,0,0-3.17-1.29,2.64,2.64,0,0,1-.36-.1,1.9,1.9,0,0,0-1.38-.18l-.14.08a.56.56,0,0,0-.14.76,1.39,1.39,0,0,0,.82.49,11.23,11.23,0,0,1,3,1.12,2.54,2.54,0,0,0,1.16.4A.63.63,0,0,0,1009.52,491.24Zm2.14-1.42a2.94,2.94,0,0,0-.66-.34q-.52-.24-1.07-.45c-.52-.2-1-.37-1.59-.53s-1.1-.27-1.64-.41a1.32,1.32,0,0,0-.78,0,.56.56,0,0,0-.39.78c.17.34.62.45,1,.56s.87.2,1.29.34a18,18,0,0,1,1.81.65,4.2,4.2,0,0,0,1.31.46.88.88,0,0,0,.34,0,.72.72,0,0,0,.57-.74A.5.5,0,0,0,1011.66,489.83Zm-63.58,4.57h0c-1.9.2.79,3.77,1.17,4.62a28,28,0,0,0,4.45,5.74,36.58,36.58,0,0,0,3.9,2.82c2.2,1.36,4.28,3,6.91,3.32.86.15,1.48-.8.74-1.35a3.76,3.76,0,0,0-1.29-.39c-2.07-.53-3.66-1.84-5.44-2.9-1.11-.74-2.27-1.54-3.37-2.34a17.08,17.08,0,0,1-2.57-2.88c-.23-.35-.52-.66-.77-1s-.48-.69-.7-1l-.37-.59c-.36-.58-.7-1.17-1-1.77s-.53-1.19-.87-1.74A.9.9,0,0,0,948.08,494.39Zm-2.53,16.4a.79.79,0,0,1,.63-.33,9.76,9.76,0,0,1,1.17.22,1,1,0,0,0,.61-.11c1.63-.91,3-2.74,4.2-4.09.56-.62.91-1.68,0-1.9a.82.82,0,0,0-.74.25c-.42.42-.74,1-1.19,1.49a14.82,14.82,0,0,1-2.17,2.23,1.75,1.75,0,0,1-1.37.3c-2.16-.42-3.9-2-5.47-3.53a14.76,14.76,0,0,1-2.75-4,1.45,1.45,0,0,1,.47-1.38c.44-.54.89-1.07,1.36-1.58A19.37,19.37,0,0,0,945,491a26.9,26.9,0,0,1,4.37-7.54,34.3,34.3,0,0,1,2.55-2.74l0,0a66.2,66.2,0,0,0,6.29-7.77c2.5-3.45,5.11-6.75,6.85-10.64a.7.7,0,0,0-.65-.94,1.11,1.11,0,0,0-.86.58,106.48,106.48,0,0,1-10.27,14.81,29.76,29.76,0,0,1-2.22,2.5,39.62,39.62,0,0,0-5.25,6.3c-1.75,2.37-2.22,5.12-3.58,7.68s-4.12,4.49-5.51,7.19c-.71,1.41,1.41,2.37.68,3.73a11.42,11.42,0,0,1-.74,1.3,2.32,2.32,0,0,1-1.33.88q-1,.24-1.95.44c-1.78.38-3.57.69-5.37,1s-3.61.5-5.42.7l-3.58.39a9.88,9.88,0,0,1-1.48.17,10.15,10.15,0,0,1-1.21-.29,7,7,0,0,0-1.25-.09c-.48,0-1,0-1.43,0a9.27,9.27,0,0,0-3.9.55,2.26,2.26,0,0,0-1.23,1.26,11.38,11.38,0,0,0-.34,3.61c0,.27,0,.55,0,.82a26,26,0,0,0,3,10.5c.21.42.42.84.65,1.25a11.58,11.58,0,0,0,.88,1.49,1.42,1.42,0,0,0,1.74.36,5.13,5.13,0,0,0,1.89-1.86,8.84,8.84,0,0,0,1.29-3.7c.11-.86.15-1.73.21-2.57,0-.33.06-.66.09-1,.09-.87.07-2.34-.8-2.11a1,1,0,0,0-.68.7c-.08.35,0,.75-.09,1.08-.16,1.28-.19,2.61-.37,3.92a6.93,6.93,0,0,1-1.11,3c-1.35,2-1.72-.34-2.88-2.56v0a21.21,21.21,0,0,1-2.11-11.86c.2-1.64,3.78-1.21,5.1-1.22.59,0,.77.44.64,1,0,.32,0,.66,0,1a8.69,8.69,0,0,0,.3,2.49,2.47,2.47,0,0,0,.51,1,.71.71,0,0,0,1-.13,1.22,1.22,0,0,0,.11-1.1c-.1-.45-.19-.89-.24-1.35a3.9,3.9,0,0,1,.14-2.14.37.37,0,0,1,.66.06,11.15,11.15,0,0,0,.65,3.34c.3.48-.33.5-.64.72a.74.74,0,0,0,.52,1.37c5.84-.4,11.72-.29,17.54-.83h0A11.39,11.39,0,0,0,945.55,510.79Zm-1.8-.3a8.76,8.76,0,0,1-3.55,2.7,16.14,16.14,0,0,1-4.64.81c-1.8.14-3.54.24-5.36.28-1.59.08-3.19.27-4.8.24-1.34,0-2.65,0-4,.06a1.15,1.15,0,0,1-.79-.21,4.35,4.35,0,0,1-1-3.27c0-.46.17-.85.68-.87s.61.09.67.44a3.61,3.61,0,0,0,.87,2.49.71.71,0,0,0,1-.25c.2-.33-.13-.69-.24-1a4.2,4.2,0,0,1-.22-1.07c0-.71.43-.95,1.41-1,2.55-.28,5.25-.71,7.82-1.15,1-.13,1.82-.4,2.73-.61.35-.07.53.19.72.46l0,0c1.24,1,2.59-2.1,3.12-2.84.2-.33.49-1,.9-.48a18.72,18.72,0,0,0,4.21,3.83C944,509.56,944.52,509.61,943.75,510.49Zm-10.15-25.62c.44-.16.57-.69.83-1.07a3.28,3.28,0,0,1,.7-.73c.39-.3.8-.37,1.16-.69s.13-1.34-.45-1.31h0A4.32,4.32,0,0,0,933.2,483a1.88,1.88,0,0,0-.49,1.52A.66.66,0,0,0,933.59,484.86Zm61.32,58.77c-1.08,0-2.17.13-3.25.17-3.42.13-6.85.21-10.27.21s-6.88.12-10.35.08-7-.11-10.41-.2c-1.06,0-2.07-.14-3.12-.2-2.82-.16-5.8,0-8.52-.73-.94-.28.56-.16.85-.15,6.08.21,12.26.15,18.3.15a2.13,2.13,0,0,0,.64-.1.76.76,0,0,0-.11-1.48c-5.15-.11-10.39-.06-15.54-.07-.3,0-.59,0-.89,0a31.54,31.54,0,0,1-5.19-.42,12.31,12.31,0,0,1-3.18-1c-.29-.16-.52-.44-.38-.7s.91-.31,1.35-.28a13.87,13.87,0,0,1,3.59,1,7.47,7.47,0,0,0,2.1.11c2.74.08,5.52.14,8.28.2,1.69,0,3.36,0,5.07,0a1.39,1.39,0,0,0,1.07-.34.66.66,0,0,0,0-.89.62.62,0,0,0-.38-.2,9.54,9.54,0,0,0-1.22,0h-1.25c-2.2,0-4.4-.08-6.61-.08-.89,0-1.78-.1-2.67-.13s-1.7,0-2.55,0a4.46,4.46,0,0,1-1.45-.14c-.45-.15-.86-.37-1.32-.52s-.93-.35-1.41-.49a6.76,6.76,0,0,0-2-.14,2.67,2.67,0,0,0-1.93.57,2,2,0,0,0-.4,1.94,5.21,5.21,0,0,0,1.78,2.31,10.06,10.06,0,0,0,3.68,2,19,19,0,0,0,6.06,1c.36,0,.52.15.31.53a2.85,2.85,0,0,0-.23,1.93,2.93,2.93,0,0,0,.33.77,2.41,2.41,0,0,0,1.17,1.09,6.88,6.88,0,0,0,2.21.32A3.2,3.2,0,0,0,960.8,546c-.05-.42.31-.52.66-.51,7.16.14,14.13.12,21.19.14,1,0,.48.66.56,1.24a2.77,2.77,0,0,0,.25,1.25,3.12,3.12,0,0,0,2.75,1.75,9,9,0,0,0,.92,0c2.26-.17,3.64-1.61,3.37-3.83,0-.37.3-.48.62-.49l3-.18c.7-.05,1.73,0,2-.65C996.46,543.79,995.56,543.62,994.92,543.64ZM959,547.42c-.13.16-.57.49-.8.41s0-.57,0-.72a2.6,2.6,0,0,0,0-.86c0-.24-.3-.58-.19-.83a.08.08,0,0,1,.08-.05l.4,0a.64.64,0,0,1,.25.07c.13.08.13.23.21.34a1.11,1.11,0,0,1,.24.7A1.35,1.35,0,0,1,959,547.42Zm29.6,0a.18.18,0,0,1,0,.05.19.19,0,0,1-.08,0,3.75,3.75,0,0,0-.43.19.7.7,0,0,1-.17.08s-.14,0-.17,0,0-.23,0-.28.06-.4.07-.6a2.29,2.29,0,0,0-.14-1.19s-.09-.12-.06-.18.16,0,.22,0h.4a.33.33,0,0,1,.2,0c.14.1.12.33.23.45C989.06,546.39,988.75,547,988.59,547.45Z" transform="translate(-885.39 -427.42)"/></g></g></g></g></svg>