<svg id="CONTENTS" xmlns="http://www.w3.org/2000/svg" viewBox="0 0 149.22 125.16"><defs><style>.cls-1{fill:none;}.cls-2{fill-rule:evenodd;}</style></defs><title>flyq-icon2</title><g id="_02" data-name="02"><g id="일러그림"><g id="line"><rect class="cls-1" width="149.22" height="125.16"/></g><g id="아이콘"><g id="_02-2" data-name="02"><path class="cls-2" d="M982.18,501.29a1.19,1.19,0,0,0-1.24.7c-3.33,6.14-6.55,12.46-10.52,18.25-2.42,3.6-5.88,6.76-8.88,9.9l0,0c-4.72,4.51-9.61,4.37-14.35,1a12.61,12.61,0,0,1-3.32-3.39,31.28,31.28,0,0,1-3.48-8.14,38.24,38.24,0,0,1-1-3.84,113.06,113.06,0,0,1-1.68-13.62c-.11-2.5,0-5,0-7.48a1.08,1.08,0,0,0-1.52-1,1.07,1.07,0,0,0-.61,1,104.19,104.19,0,0,0,1.85,21.83,38.12,38.12,0,0,0,4.75,12.64,11.3,11.3,0,0,0,1.81,2.23,17.6,17.6,0,0,0,6,3.63,10,10,0,0,0,1.06.32c5.62,1.39,4.25-1.33,3.85,7.89-.06,1.33-.63,8.81,1.26,8.67,1.12-.08.81-2.24.8-2.94,0-1.28,0-2.71,0-4,.05-2.35.27-4.69.28-7,0-.92-.2-2.17.74-2.72a19.14,19.14,0,0,0,5.92-4.37q.48-.49,1-1,.77-.72,1.5-1.47c1.22-1.24,2.37-2.55,3.46-3.91s2.12-2.76,3.11-4.2,1.92-2.92,2.82-4.41,1.77-3,2.61-4.55,1.67-3.07,2.48-4.62l1.21-2.31c.19-.37.4-.74.59-1.11a2.68,2.68,0,0,0,.46-1.1A1,1,0,0,0,982.18,501.29ZM943,444c1.41,0,2.7-1.07,4.09-1.27a3.43,3.43,0,0,1,1.36-.08c4.3,1.49,7.29,3,13.32,1.68a30.6,30.6,0,0,1,5.47-1.18,5.52,5.52,0,0,1,2.3.37c.35.14,1.06,1.1,0,1a10.7,10.7,0,0,0-3.32.1c-1.72.26-3.54.8-5.25,1.15-.32.07-.63.17-.95.21-8.66,1.23-11.46-3.19-13.56-1.39-1,.89-.41,2.58.69,3.34s2.22.83,3.36,1.22a4.58,4.58,0,0,1,2.15,1.46c1.17,1.16,2.45,2.31,3.63,3.47,1.63,1.6,3.41,3.86,5.93,3.37,1.68-.32,2.7-2.2,3-3.73a2.11,2.11,0,0,1,.48-1,.66.66,0,0,1,.45-.17,2.45,2.45,0,0,1,1.38.52,2.6,2.6,0,0,1,.87,1,6.57,6.57,0,0,1,.18,4.07,3.22,3.22,0,0,1-.37,1l-.17.29a3.46,3.46,0,0,0-.48,1.7,3.17,3.17,0,0,0,.37,1.71,5,5,0,0,0,3.43,2.33c.83.18,1.68.28,2.51.47a14,14,0,0,0,2.73.44,2.7,2.7,0,0,0,2.6-1.7c.24-.61.42-1.25.62-1.8.41-1.29.82-2.69,1.28-4,.55-1.89,1.31-3.66,1.85-5.57a23.44,23.44,0,0,0,.84-8.08c-.27-3.5-1.94-6.07-4.05-8.65-.57-.69-1.12-1.4-1.64-2.13a15.88,15.88,0,0,0-3.86-4.22l0,0c-2.65-2-6.23-2.16-9.45-1.84a20.88,20.88,0,0,0-3.11.72,42.32,42.32,0,0,1-7,1,16.86,16.86,0,0,1-4.46,0,13.12,13.12,0,0,0-4.94.08c-3.76.68-7.23,4.15-7.15,8.13C937.86,441,939.63,444.22,943,444Zm30-.12a3.41,3.41,0,0,1,1.82.8,17.06,17.06,0,0,1,1.44,1.53c.26.27.49.56.73.83a7.55,7.55,0,0,1,.48.61l0,.06c.11.15.23.31.33.47a4.6,4.6,0,0,1,.37.65.92.92,0,0,1,.11.57.36.36,0,0,1-.5.18,3.5,3.5,0,0,1-.94-.82c-.82-.9-1.59-1.84-2.49-2.65a9.59,9.59,0,0,0-1-.79,2.66,2.66,0,0,1-1-.91C972.24,444.08,972.63,443.87,973,443.9Zm-22-5.84c.25-.45.78-.19,1-.17l1.2.09a9.82,9.82,0,0,0,1.75-.08,6,6,0,0,0,2.28-.58c.31-.14.9-.51,1.21-.62a13.73,13.73,0,0,1,2-.5c.48-.09,2-.63,2.2.3a.52.52,0,0,1-.35.61c-.76.23-1.52.44-2.27.69a9.49,9.49,0,0,0-1.28.53,7.4,7.4,0,0,1-1.34.64,12.35,12.35,0,0,1-3.66.28c-.45,0-1,0-1.43-.09a1.77,1.77,0,0,1-1.15-.36A.62.62,0,0,1,951,438.07Zm45.68,108.27c-.08-11.39-.41-22.81-.61-34.22-.26-5.94-.27-12-1.71-17.78-.25-.87-.51-1.74-.79-2.61a60,60,0,0,0-2.36-6.39,25.64,25.64,0,0,0-1.44-2.85,22.26,22.26,0,0,0-3.21-4.22c-1.24-1.26-2.57-2.41-3.79-3.68-.46-.47-.89-1-1.34-1.45a10.61,10.61,0,0,1-1-1.35l-.67-1-1.63-2.46a9.29,9.29,0,0,0-.8-1.35,1,1,0,0,0-1.31-.14c-1.24.83,1.22,3.76,2.28,5.41.47.72,1,1.43,1.48,2.12,1.28,1.72-.23.53-3,1.2-1.74.5-3.73.77-4.9,2.26a1,1,0,0,0,.06,1,1,1,0,0,0,1.21.34c2.59-1,5.51-2.3,8.39-1.3,4.94,1.74,7.34,7,8.92,11.61,2.3,5.46,3,11.27,3.19,17.15.54,14.17.87,28.51.74,42.7a7.72,7.72,0,0,0,.11,1.44c.11.61.3,1.17.83,1.25a.93.93,0,0,0,.92-.42C996.88,550.53,996.71,547.91,996.67,546.34Zm-29.76-91.76a.78.78,0,0,0-.33,0,1.28,1.28,0,0,0-.72.66c-.12.26-.06.76-.16,1.08s-.31.46-.37.72a1.22,1.22,0,0,0,0,.62,1,1,0,0,0,.89.7,1.28,1.28,0,0,0,1.18-.83,3.38,3.38,0,0,0,.38-2A1.1,1.1,0,0,0,966.91,454.58ZM933,478.37a1.71,1.71,0,0,0,.82-1.09c.51-1.92.67-4.88,1.67-6.49a.72.72,0,0,1,.89-.34c3.31,1.27,7.22,2.25,9.92,4.46a.39.39,0,0,1,.12.42c-.1.33-.35.5-.59.09-2.75-3.06-4.41,1.59-3.54,4,.46,1.25-.27,1.95-.43,3.06-.09.61.08,1.2.6,1.36,1.1.34,1.59-.54,1.77-1.19a6.4,6.4,0,0,0,.34-3.31c-.06-.27-.39-1.16,0-1.35a16.07,16.07,0,0,1,1.32,7.76c-.08.94.2,2.22-.19,3.07-.79.58-1.67-.15-2.08-.91-3.21-3.26-2.88-8.15-5.46-11.69a2,2,0,0,0-1.34-.84c-2.27-.33-2.49,3.64-2.35,5.74,0,.25,0,.44,0,.69.19,2,2.07,2,2.14-.81-.13-4.21.58-2.69,1.21,0,1.83,8.79,6.42,7.64,1.16,9.39-.71.42-2.16.76-2,1.86s1.44,1,2.15.5c2.17-1.34,4.8-1.4,7.39-1.5,1.89-.24,2,1.52,2,3a44,44,0,0,0,.93,8.63c.73,2.66,1.38,5.42,2.37,8,.4,1.44,2.46,3.07.82,4.39a15.75,15.75,0,0,0-1.72,2.1c-.36,1,1.1,1.75,1.8,1C956,515,958.21,511,960.31,507c1.31-2.24,2.55-4.52,3.74-6.83q1.05-2,2.06-4.09a9.12,9.12,0,0,0,.48-1,9.57,9.57,0,0,1,.53-.89,23.73,23.73,0,0,0,1.31-2.39,2.57,2.57,0,0,0,.32-1.24.87.87,0,0,0-1.19-.78c-2.09.89-4.48,8.41-5.39,9.81-.16.21-.8,1.32-.73.47,1.12-7,3.53-14.42,9.22-19.07,1.63-1.4-.81-2.88-1.85-1.25-.85.93-1.16-.89-1.71-1.32-4.44-6.53-12.68-1.16-14.37-6.58a.2.2,0,0,1,.1-.24c1.28-.65,4.21-3.09,2.44-3.67a1.74,1.74,0,0,0-1.61.33,6.88,6.88,0,0,1-1.79,1.31.5.5,0,0,1-.45-.06q-.49-.34-1-.71l-.06,0,0,0a4,4,0,0,0-1.12-.73,4.27,4.27,0,0,0-1.27-.2c-.43,0-.86,0-1.29,0a.27.27,0,0,1-.15,0l0,0c-.15-.16,0-.5,0-.67a6.24,6.24,0,0,0,.08-.73c0-.51,0-1,0-1.52a29.17,29.17,0,0,0-.54-4.26c-.14-.71-.29-1.42-.44-2.13l-.24-1.08-.12-.54c0-.17-.08-.36-.11-.52a45.75,45.75,0,0,1-.46-6.91c0-1.58,0-2.89-.55-3-2.67-.46-1.54,6.47-1.11,9.84a36.18,36.18,0,0,0,.71,3.89,16,16,0,0,1,.53,7c-.81,3.95,1.93,2.52,4.27,3a.6.6,0,0,1,.32.18c1.12,1.22,1.75,2.91,2.81,4.16,3.62,4.67,10.94-.13,14.18,6,1.35,1.43-.45,2.51-1.09,3.75a52.65,52.65,0,0,0-4.51,10.3,81.18,81.18,0,0,0-1.38,8.26,8,8,0,0,1-1.45,5c-3.19,6.94-3,3.31-4.76-1.46-.09-.41-.19-.81-.29-1.19a31.72,31.72,0,0,1-1.55-9c-.41-2.38.58-6-2.36-6.88-.27-.08-.36-.79-.38-1a10.08,10.08,0,0,1,.05-1.2c0-.92.06-1.83,0-2.75a17.22,17.22,0,0,0-.86-5.41l.07-.21a18.1,18.1,0,0,1,1.36-3c.25-.46.64-1.05.44-1.6-.26-.72-1.29-1.14-1.91-1.45a49.42,49.42,0,0,0-5.4-2.21,50.41,50.41,0,0,0-4.92-1.83c-1-.26-2.65-.44-3.19.8s-.84,3-1.36,4.53h0a1,1,0,0,0-1.85.73C930.43,476.54,931.26,479.29,933,478.37Zm-4.78,1.72a1.77,1.77,0,0,0,.66.81,1.06,1.06,0,0,0,1.55-.93c0-.64-.41-1.09-.58-1.67s-.35-1.25-.49-1.8a18.86,18.86,0,0,1-.31-2c-.08-.74,0-1.41-.62-1.87a1,1,0,0,0-1.35.22l0,0c-.57.74-.17,1.89-.11,2.7A15.32,15.32,0,0,0,928.22,480.09Zm6.72,10.26A23.55,23.55,0,0,1,933,488.6c-.93-1-1.8-2-2.63-3.1l0,0a21,21,0,0,1-3.22-4.61,33.48,33.48,0,0,1-1.46-4.31c-.1-.4-.16-.71-.25-1.11a3.49,3.49,0,0,0-.36-1.09c-.55-.82-1.64-.28-1.79.68-.12,1.46.57,2.61.92,4a19.48,19.48,0,0,0,1.32,3.61,26.44,26.44,0,0,0,3.24,4.46,28.12,28.12,0,0,0,5,5.2,1.1,1.1,0,0,0,1.59-1.43A1.71,1.71,0,0,0,934.94,490.35Zm14.61-33a1.16,1.16,0,0,0-.49,0,1,1,0,0,0-.4.21,1.19,1.19,0,0,0-.34,1,9.21,9.21,0,0,0,.27,1.16,4.84,4.84,0,0,0,.2.72,1.08,1.08,0,0,0,1.82.33,1.25,1.25,0,0,0,.29-.93,5,5,0,0,0-.31-1.12c-.08-.25-.11-.52-.2-.76A1,1,0,0,0,949.54,457.33Z" transform="translate(-885.39 -427.42)"/></g></g></g></g></svg>