<svg id="CONTENTS" xmlns="http://www.w3.org/2000/svg" viewBox="0 0 178.94 25.82"><defs><style>.cls-1{fill-rule:evenodd;}</style></defs><title>flyq3-logo</title><g id="_03" data-name="03"><g id="tt"><g id="현대logo"><path class="cls-1" d="M1427,451.38h-3.59a5.9,5.9,0,0,0-.75-.93h2.14v-2.52h-4.58v-1.67h-3.26v1.67h-4.58v2.52h2.11a5.78,5.78,0,1,0,8.73,7.54H1427v4.85h3.26V446.89H1427Zm-8.43,6.14a3,3,0,1,1,3-3A3,3,0,0,1,1418.54,457.51Zm8.43-2.05h-2.73a5.5,5.5,0,0,0,0-1.56H1427Zm-9.2,6.08h-3.27V468h15.73v-2.52h-12.47Zm30.6-8.31h-1.81v-6.33h-3.26v13.41h-6.42V449.86h4.41v-2.52h-7.68v15.49h9.69V468h3.26V455.75h1.81V468h3.27V446.89h-3.27ZM1547,459c-4.26,0-7.72,2.09-7.72,4.67s3.46,4.67,7.72,4.67,7.72-2.09,7.72-4.67S1551.24,459,1547,459Zm0,6.85c-2.37,0-4.29-1-4.29-2.18s1.92-2.18,4.29-2.18,4.28,1,4.28,2.18S1549.34,465.83,1547,465.83Zm-64-16h3.87v-2.58h-11.2v2.58h4.07c0,7.68-5,10.8-5,10.8l1.8,2.13c4.49-4,4.88-7.33,4.88-7.33a13.63,13.63,0,0,0,4.89,7.35l1.81-2.22A12.75,12.75,0,0,1,1483,449.84Zm6.83,18.2h3.27V446.89h-3.27Zm20.65-7.76h-10.72v-13h-3.27V462.8h14V468h3.27V446.89h-3.27Zm40.81-1.31h3.27V446.89h-3.27v8.17h-11.63V453.9h7.91v-6.64H1537V450h7.6v1.16H1537v6.64h14.3Zm-21-5.81h-2.7a8.38,8.38,0,0,0-1.35-4.21,5.13,5.13,0,0,0-4.45-2.06,5.42,5.42,0,0,0-4.61,2c-1,1.29-1.47,3.31-1.47,6s.49,4.72,1.47,6a5.43,5.43,0,0,0,4.61,1.94,5.18,5.18,0,0,0,4.5-1.95,9.54,9.54,0,0,0,1.36-5.11h2.64V468h3.29V446.89h-3.29Zm-6.14,5.26a2.3,2.3,0,0,1-2.4,1.41,2.5,2.5,0,0,1-2.54-1.4,11,11,0,0,1-.63-3.59,7.45,7.45,0,0,1,.64-3.61,2.54,2.54,0,0,1,2.55-1.37,2.37,2.37,0,0,1,2.38,1.38,7.31,7.31,0,0,1,.62,3.6A7.68,7.68,0,0,1,1524.15,458.43Zm-54.47,4.38h3V446.89h-3Zm-9.48-1.27h-3.27V468h15.73v-2.52h-12.47Zm4.77-7.73h.92v9h3V446.89h-3v4.43h-1a5.74,5.74,0,1,0,0,2.49Zm-8.58-1.17a3,3,0,1,1,3,3A3,3,0,0,1,1456.4,452.64ZM1393,446.33l-12.86,21.83h29.31l-14.2-25.66Zm-2.12-3.82-15.11,25.66h2.94l13.59-23.08Z" transform="translate(-1375.76 -442.51)"/></g></g></g></svg>