<svg id="CONTENTS" xmlns="http://www.w3.org/2000/svg" viewBox="0 0 149.22 125.16"><defs><style>.cls-1{fill:none;}.cls-2{fill-rule:evenodd;}</style></defs><title>flyq-icon3</title><g id="_02" data-name="02"><g id="일러그림"><g id="line"><rect class="cls-1" width="149.22" height="125.16"/></g><g id="아이콘"><g id="_04" data-name="04"><path class="cls-2" d="M886.69,486.12c.2.26.37.54.57.8a.76.76,0,0,0,1.33-.45c0-.6-.46-.92-.77-1.33s-.71-.92-1.27-.7a.72.72,0,0,0-.44.82C886.19,485.64,886.46,485.83,886.69,486.12Zm147,.4a6.62,6.62,0,0,1-.7-2.62c-.13-2.26-.5-5-3-5.45a1.84,1.84,0,0,0-.86.06,6.23,6.23,0,0,1-2,.29,7.39,7.39,0,0,1-1.6-.29c-.56-.15-1.12-.31-1.7-.41-.84-.15-1.71-.13-2.55-.2a8.82,8.82,0,0,1-3.81-1.14,3.33,3.33,0,0,0-2-.71c-.86.21-.93,1-1.37,1.7-.76,1.17-2.32,1.18-3.32,2-1.64,1-1.1,3.12-2.18,4.53-1.78,2.18-3.26,2-5.26.26a27.78,27.78,0,0,0-9.63-4.34c-1.94-.49-3.3-.16-4.89-1.79a3.62,3.62,0,0,0-1-.72,6.33,6.33,0,0,0-5.09.29,5.06,5.06,0,0,1-1.21.33c-2,.28-4.18,0-6.18.27-1.47.16-5.05-.29-5.81.92a.31.31,0,0,0,0,.19c.06.61.88.58,1.31.58,1.4,0,2.81-.24,4.21-.31s2.93-.1,4.39-.09l1.12,0a5,5,0,0,0,1.18.05c3.23-1,5.18-2.1,7.79,1,.68.83-.71-.1-1-.27-.89-.69-1.36-.22-1.51.66a8.7,8.7,0,0,1-1.16-1.43.67.67,0,0,0-1.19.38,3.53,3.53,0,0,0,1.78,2.51.9.9,0,0,0,1.12-.49.26.26,0,0,1,.11-.11c.29-.13.63.08,1,.32A3.24,3.24,0,0,0,990,483c.88.09,1.2-.32,1.58-1.32a.2.2,0,0,1,.2-.13c3.89.29,7.69,2.32,10.87,4.5,2.07,1.11,3.73,3.28,6,3.86a.57.57,0,0,0,.72-.46,1,1,0,0,0-.53-1c-3.31-1.89-.25-1.21,1-3.63.95-1.41,1.35-6.23,3.41-2.75.56.59,1.67.1,1.26-.71-.17-.36-.82-.79-.78-1.21.2-.71,1.34-.91,1.66-1.63.8-2.06,1.86.88,6.35,1,.46,0,.92,0,1.38.09a4.71,4.71,0,0,1,3.26,1.26,1,1,0,0,1,.21.8,4.73,4.73,0,0,1-.24.7,1.55,1.55,0,0,0,0,1,6.62,6.62,0,0,1-.05,3.48c-.3,1.21-.77,2.38-1,3.61a8.06,8.06,0,0,0-.14,1.37A3.08,3.08,0,0,1,1025,493a.72.72,0,0,1-.16.22c-.18.11-.32-.07-.39-.21a1.67,1.67,0,0,1-.14-.53,9.69,9.69,0,0,1,0-1.27,5,5,0,0,1,.16-1.43c.62-2.1,1.65-4.51,1-6.72a.55.55,0,0,0-.33-.36c-1.48-.6-2.55.82-3.81,1.79a4.7,4.7,0,0,1-1.54.75c-2.32.69-2.26,3.05.23,3.75a.38.38,0,0,1,.26.24c.19.63-.47,1.07-1.19,1.29a2.89,2.89,0,0,1-1.75-.06,4.26,4.26,0,0,0-4.09.43c-1,.89-2.74-2-3.38-.5a.53.53,0,0,0,.06.51c1.32,1.87,7.3,4.94,9.26,4.85a.72.72,0,0,0,0-1.43,13.94,13.94,0,0,1-4.25-1.69c-1.25-.57,0-1,.73-1s1.27.45,2,.5c1,.2,2.08-.51,2.85.12,3.22,2.16,4.33,6.54,1.34,8.88a5.49,5.49,0,0,1-2.37,1c-3.17.6-6.65-.39-9.76-.91-3.27-.7-6.15-2.33-9.26-3.38a35.17,35.17,0,0,0-8.63-1.2c-4.46,0-8.85.09-13.28.36-1.33.08-2.65.18-4,.31a27.2,27.2,0,0,1-3.72.18c-.3,0-.61,0-.91-.07l-.48,0c-.09,0-.35,0-.41-.09s0-.69,0-.88.11-.66.14-1c.07-.67.13-1.34.19-2a41,41,0,0,0,.1-6.78,18.35,18.35,0,0,0-1.64-6.48c-1.58-3.12-8.4-1.68-11.72-1.79-.28,0-.57,0-.85,0-16.71.52-33.15,3.16-49.71,5.23a1.83,1.83,0,0,0-.84.33c-4.87,3.51-7.59-7.3-11.32-5.94a1.64,1.64,0,0,0-1,1c-.67,2,2.29,4.16,1.51.67a.06.06,0,0,1,0-.07c1.58-.64,4.65,6,7.93,6.35a4.57,4.57,0,0,1,1.34.31,2,2,0,0,1,.65.6,1.11,1.11,0,0,0,.75.38c1.65.13,3.4-.54,5.06-.71,5.35-.82,10.74-1.44,16.11-2a242.49,242.49,0,0,1,24.6-1.48h1.22a.69.69,0,0,1,.49.18c.38.46-.54,1-.75,1-.41.08-.81.14-1.22.18-2.14.22-4.3.06-6.45.23-.65.05-1.3.07-2,.09-11,.3-21.87,1.86-32.76,3.17-2.21.29-4.82,0-6.67,1.37-2.18,1.76-5.26.28-6.93-1.65-.14-.16-.28-.31-.43-.46-1.84-1.84-3.06-4.6-5.58-5.52-1.83-.55-2.86,2.42-1.15,3.07a.64.64,0,0,0,.81-.63c0-.28-.3-.85-.05-.85,2,.5,3.65,3.6,5.42,5.42.23.24.49.46.72.7,1.6,1.71,3.55,1.94,5.8,2.28a.17.17,0,0,1,.14.15c.43,3.75.48,2.62-2.55,3.74l-.54.22c-6,2.54-8.13-6.54-11.86-9.25a.33.33,0,0,0-.39,0c-1,.73.67,2.27,1.17,3.06,1.61,2.14,2.82,4.5,4.85,6.31,3,3,5.92,1.46,9.35.47.6-.21,1.09.33,1.5.63a.74.74,0,0,0,.22.11,11.2,11.2,0,0,0,3,.11c10.2,0,20,.22,30.14.33,1.16,0,2.33.08,3.49.19,10.6,1,21.27.95,31.91,1.32h.57c7.92-.49,16-1.29,23.93-.56,4.59.4,8.44,2.91,12.8,4.08.38.1.77.18,1.15.24,3.8.68,8.24,2,11.82.35,3.23-1.47,2.67-4.71,4.55-5.07a5.43,5.43,0,0,0,2.41-1,11.57,11.57,0,0,0,2.81-3.62,12.22,12.22,0,0,0,.91-2,4.68,4.68,0,0,0,.4-2.32,3.93,3.93,0,0,0-.22-.75c-.1-.25-.21-.49-.33-.73l-.36-.72a7.3,7.3,0,0,1-.31-.71,3.25,3.25,0,0,1-.18-.72,2.27,2.27,0,0,1,0-.38c0-.06,0-.11,0-.17a.39.39,0,0,1,.05-.18.14.14,0,0,1,.16,0,.25.25,0,0,1,.13.1,2.58,2.58,0,0,1,.4,1,4,4,0,0,0,.29.73,12.83,12.83,0,0,1,.79,1.57,4.35,4.35,0,0,1,.23,1.71c0,.61-.16,1.21-.16,1.82,0,.28,0,.61.3.69.87.28,1.11-1.9,1.16-2.57A6.6,6.6,0,0,0,1033.67,486.52Zm-13.84-4.91a1.35,1.35,0,0,0,.66-.17.6.6,0,0,0,.32-.59.69.69,0,0,0-.45-.49,2,2,0,0,0-.89-.12,2.49,2.49,0,0,0-.39,0,.75.75,0,0,0-.27.1.73.73,0,0,0-.31.47.62.62,0,0,0,.39.66A2.1,2.1,0,0,0,1019.82,481.61Zm-35.55,1.51a.59.59,0,0,0,.61-.32,1.09,1.09,0,0,0,0-.95c-.22-.41-.53-.71-.75-1.14a.88.88,0,0,0-.66-.53.52.52,0,0,0-.24,0,.77.77,0,0,0-.4.76,2,2,0,0,0,.24.74,4.57,4.57,0,0,0,.53.79C983.79,482.74,984,483.07,984.28,483.12Zm-92.88-.66c.11.09.24.15.35.24l0,0a2.31,2.31,0,0,1,.3.41.85.85,0,0,0,.4.41.8.8,0,0,0,.47,0,.68.68,0,0,0,.59-.67,1.57,1.57,0,0,0-.27-.73,2.32,2.32,0,0,0-.59-.64,1.43,1.43,0,0,0-.92-.3.69.69,0,0,0-.34,1.22Zm126.7,7.69a1.28,1.28,0,0,0,.88-.27.53.53,0,0,0,.08-.72,1.27,1.27,0,0,0-.93-.42l-.46,0c-.15,0-.3,0-.44,0a.87.87,0,0,0-.64.22.72.72,0,0,0-.12.57c0,.31.3.43.59.53A3.8,3.8,0,0,0,1018.1,490.14Z" transform="translate(-885.39 -427.42)"/></g></g></g></g></svg>