<svg id="Layer_1" data-name="Layer 1" xmlns="http://www.w3.org/2000/svg" viewBox="0 0 95 18.49"><defs><style>.cls-1{fill-rule:evenodd;}</style></defs><title>foot-brand3</title><path class="cls-1" d="M1425,1036.27a4,4,0,0,0-1.63-1.85,3.74,3.74,0,0,0-3.78,0,3.3,3.3,0,0,0-1.24,1.31,3.54,3.54,0,0,0-.23.57,4,4,0,0,0,.26,3.13,1.6,1.6,0,0,0,.76.65,1.14,1.14,0,0,0,1-.08,1,1,0,0,0,.37-1.09,2.75,2.75,0,0,1,0-1.51,1.14,1.14,0,0,1,.27-.43,1,1,0,0,1,.26-.17,1.16,1.16,0,0,1,.65-.11,1.25,1.25,0,0,1,.88.7,2.78,2.78,0,0,1,.24,1.12,16.51,16.51,0,0,1-.76,5l-.14.49c0,.13-.1.29,0,.41a.31.31,0,0,0,.15.11.58.58,0,0,0,.63-.22,8.93,8.93,0,0,0,2.08-3.57,11.52,11.52,0,0,0,.4-1.49,6.43,6.43,0,0,0,.08-2.22,3.26,3.26,0,0,0-.24-.81m6.93-7.34a2.32,2.32,0,0,0-.7.22,29,29,0,0,1-14,1.3c-.79-.12-1.6-.27-2.39-.39-.5-.08-1-.18-1.5-.22a1.82,1.82,0,0,0-1.31.25,1.33,1.33,0,0,0-.17,1.61,3.62,3.62,0,0,0,1.43,1.35,3.46,3.46,0,0,0,1.86.63q2.66-.17,5.3-.5a36,36,0,0,0,9-1.89,11.28,11.28,0,0,0,2.63-1.45c.14-.1.35-.28.35-.49a.43.43,0,0,0-.47-.41m-10.42.63a1.71,1.71,0,0,0,1.73-1.7,1,1,0,0,0-.1-.41c-.15-.31-.32-.46-.3-.83s-.63-.51-1-.51a2.57,2.57,0,0,0-1.13.22,1.74,1.74,0,0,0-.68.6,1.7,1.7,0,0,0-.27.88v0a1.71,1.71,0,0,0,1.73,1.7m22.29,1h-1.89V1043h1.89v-7.4h1.81v-1.23h-1.81Zm-5.75,0h-2v1.3h-2.55v1.23h1.28a4.54,4.54,0,0,0-1,2.95c0,2.31,1.3,4.05,3.25,4s3.22-1.72,3.24-4a4.63,4.63,0,0,0-1-2.95h1.37v-1.23h-2.61Zm.38,5.48c0,1.71-.58,2.81-1.37,2.81s-1.37-1.12-1.36-2.81.6-2.92,1.37-2.92,1.35,1.07,1.35,2.92m17.59-5.48h-1.89v7.23a4.4,4.4,0,0,1-2.29.37h-3.17c-.4,0-.61-.19-.61-.51v-6.55h-1.89v6.59a1.59,1.59,0,0,0,1.45,1.7h4.17a6.14,6.14,0,0,0,2.33-.37V1043H1456v-7.4h1.81v-1.23H1456Zm6.56,3.18v-1.26h2.16v-1.23h-6.35v1.23h2.23v1.23c0,2.27-.94,4-2.44,4.57v1.3a4.83,4.83,0,0,0,3.36-2.43,4.92,4.92,0,0,0,3.48,2.43v-1.3c-1.52-.57-2.46-2.33-2.44-4.54m5.65-3.18h-1.88V1043h1.88v-7.4h1.81v-1.23h-1.81Zm12.21,0h-1.88v9h1.88v-4.79h1.82v-1.23h-1.82Zm-6.68,5a4.31,4.31,0,0,0,3.47,2.23v-1.23c-1.55-.44-2.44-2.08-2.44-4.4V1031h-2v1.08c0,2.34-.92,4-2.45,4.42v1.23a4.39,4.39,0,0,0,3.37-2.23m.33,5.63v-2.6h-1.88v2.74a1.51,1.51,0,0,0,1.34,1.64h6.89v-1.24h-5.79a.52.52,0,0,1-.56-.55m16.82-1.64h1.89v-9h-1.89Zm-4.94-4a4.31,4.31,0,0,0,3.47,2.23v-1.23c-1.55-.44-2.44-2.08-2.44-4.4V1031h-2v1.08c0,2.34-.92,4-2.44,4.42v1.23a4.38,4.38,0,0,0,3.36-2.23m.48,5.63v-2.74h-1.89v2.88a1.52,1.52,0,0,0,1.34,1.64h6.9v-1.24H1487a.52.52,0,0,1-.56-.55m10.19-1.64H1503v3.56h1.89v-4.79h-8.24Zm8.24-6.44v-2.53H1503v5.05a4,4,0,0,1-2.15.36h-3.31c-.4,0-.61-.19-.61-.51v-.78h3.91v-1.23h-3.91v-1.25h4V1031H1495v4.53a1.59,1.59,0,0,0,1.45,1.7h4.31a5.5,5.5,0,0,0,2.19-.38v.8h1.89v-3.29h1.82v-1.23Z" transform="translate(-1411.7 -1026.12)"/></svg>