<svg id="Layer_1" data-name="Layer 1" xmlns="http://www.w3.org/2000/svg" viewBox="0 0 104.06 14.69"><defs><style>.cls-1{fill-rule:evenodd;}</style></defs><title>foot-brand1</title><path class="cls-1" d="M1159.31,1033h-2.09a3.39,3.39,0,0,0-.43-.53H1158V1031h-2.67v-1h-1.9v1h-2.66v1.44H1152a3.26,3.26,0,0,0-1,2.33,3.33,3.33,0,0,0,3.36,3.3,3.37,3.37,0,0,0,2.7-1.34h2.21v2.76h1.9v-9.07h-1.9Zm-4.9,3.49a1.71,1.71,0,1,1,1.74-1.71,1.73,1.73,0,0,1-1.74,1.71m4.9-1.17h-1.59a3.13,3.13,0,0,0,0-.53,3.07,3.07,0,0,0,0-.36h1.56Zm-5.35,3.46h-1.9v3.7h9.15V1041H1154Zm17.8-4.73h-1.05v-3.61h-1.9v7.63h-3.74v-5.94h2.57v-1.44h-4.46v8.82h5.63v3h1.9v-7h1.05v7h1.9v-12h-1.9Zm57.34,3.27c-2.48,0-4.49,1.19-4.49,2.66s2,2.66,4.49,2.66,4.49-1.19,4.49-2.66-2-2.66-4.49-2.66m0,3.9c-1.38,0-2.49-.56-2.49-1.24s1.12-1.24,2.49-1.24,2.49.56,2.49,1.24-1.12,1.24-2.49,1.24m-37.22-9.1h2.25v-1.47h-6.51v1.47H1190a7.17,7.17,0,0,1-2.94,6.15l1.05,1.21c2.61-2.26,2.84-4.17,2.84-4.17a7.77,7.77,0,0,0,2.84,4.18l1.05-1.26a7.18,7.18,0,0,1-3-6.12m4,10.36h1.9v-12h-1.9Zm12-4.42h-6.23v-7.41h-1.9v8.85h8.13v3h1.9v-12h-1.9Zm23.73-.74h1.9v-6.88h-1.9v4.65h-6.77v-.66h4.6v-3.78h-6.15v1.56h4.42v.66h-4.42v3.78h8.32ZM1219.4,1034h-1.57a4.69,4.69,0,0,0-.79-2.4,3,3,0,0,0-2.59-1.17,3.18,3.18,0,0,0-2.68,1.11,7.28,7.28,0,0,0,0,6.84,3.19,3.19,0,0,0,2.68,1.11,3,3,0,0,0,2.62-1.11,5.34,5.34,0,0,0,.79-2.91h1.54v7h1.91v-12h-1.91Zm-3.57,3a1.34,1.34,0,0,1-1.39.8,1.46,1.46,0,0,1-1.48-.79,6.14,6.14,0,0,1-.36-2,4.17,4.17,0,0,1,.37-2.05,1.48,1.48,0,0,1,1.49-.78,1.38,1.38,0,0,1,1.38.79,4.08,4.08,0,0,1,.36,2,4.29,4.29,0,0,1-.36,2m-31.68,2.49h1.74v-9.06h-1.74Zm-5.51-.72h-1.9v3.7h9.15V1041h-7.25Zm2.78-4.4h.54v5.12h1.73v-9.06h-1.73V1033h-.56a3.26,3.26,0,1,0,0,1.41m-5-.66a1.72,1.72,0,1,1,1.72,1.69,1.71,1.71,0,0,1-1.72-1.69m-36.88-3.59-7.48,12.43h17l-8.26-14.6Zm-1.23-2.18-8.78,14.6h1.71l7.9-13.14Z" transform="translate(-1129.53 -1027.93)"/></svg>