<svg id="Layer_1" data-name="Layer 1" xmlns="http://www.w3.org/2000/svg" viewBox="0 0 70.3 13.37"><defs><style>.cls-1{fill-rule:evenodd;}</style></defs><title>foot-brand2</title><path class="cls-1" d="M1294.34,1034.69c2.32,0,3.95-.94,3.95-2.55v-.53c0-1.61-1.63-2.54-3.95-2.54s-3.95.94-3.95,2.54v.53c0,1.61,1.63,2.55,3.95,2.55m-2.33-3c0-.64.88-1.22,2.33-1.22s2.33.58,2.33,1.22v.36c0,.65-.88,1.22-2.33,1.22s-2.33-.58-2.33-1.22Zm-3.18,5.23h11v-1.46h-11Zm3.18.77h-1.63v3.83h8.15v-1.47H1292Zm16-3.21c-.52,0-1,.07-1.47.1V1031h1v1.14H1309v.78h-1.49v1.41H1309v2.27h1.62v-7.71H1309v1.85h-1.37v-1.13H1301V1031h1.07v3.75h-1.15v1.39c2.21,0,5.15-.07,7.17-.26Zm-3,.17-1.31,0V1031h1.31Zm2,2c-2.13,0-3.76.9-3.76,2.44v.55c0,1.54,1.63,2.44,3.76,2.44s3.77-.89,3.77-2.44v-.55c0-1.54-1.63-2.44-3.77-2.44m2.16,2.88c0,.62-1,1.13-2.16,1.13s-2.16-.51-2.16-1.13v-.33c0-.62,1-1.13,2.16-1.13s2.16.51,2.16,1.13Zm4.85-.52h6.47v2.84H1322v-4.27h-8.1Zm4.89-4.82H1322v-5.07h-1.62v1.26h-4.71v-1.26H1314v5.07h3.16v1.06h-4.7v1.43h11v-1.43h-4.7Zm-3.17-2.4h4.71v1h-4.71Zm15.14,2.52v-.41c0-1.13-1-2-2.86-2s-2.86.87-2.86,2v.41c0,1.13,1,2,2.86,2s2.86-.87,2.86-2m-4.18-.08V1034c0-.39.45-.74,1.32-.74s1.32.36,1.32.74v.25c0,.39-.45.74-1.32.74s-1.32-.36-1.32-.74m7.27-5.34h-1.63v7.33h1.63v-2.89h1.58v-1.51h-1.58Zm-1.6,9H1328v-1.09h-1.6v4.93h7.48v-4.93h-1.6Zm0,2.44H1328v-1h4.27Zm-.93-10.23h-2.6v-1.38h-1.63v1.38h-2.65v1.43h6.88Zm5.12,1.54h3.06v1.18c0,2.06-.39,2.76-3.39,4.89l.93,1.32c3.45-2.52,4.05-3.48,4.05-5.93v-3h-4.66Zm8.62,1.62h-1.15v-4.1h-1.56v11.93h1.56v-6.32h1.15v6.94h1.55v-12.81h-1.55Zm9.09-4h-1.59v1.58h-2.51v-1.58h-1.59v5.69h5.7Zm-1.59,4.27h-2.51v-1.27h2.51Zm5-4.64h-1.63v6.44h1.63v-2.51h1.58v-1.51h-1.58Zm-5.94,10.62h5.94v-3.6H1350v1.36h6v.92H1350v3.62h7.88v-1.38h-6.3Z" transform="translate(-1288.82 -1028.68)"/></svg>