<svg id="Layer_1" data-name="Layer 1" xmlns="http://www.w3.org/2000/svg" viewBox="0 0 89.54 19"><title>foot-txt3</title><path d="M1355.15,1031.12c0,3.48,1.93,7,4.91,8.3l-1.26,1.72a9.48,9.48,0,0,1-4.7-5.69,9.83,9.83,0,0,1-4.82,6.1l-1.28-1.8c3-1.36,5-5,5-8.64V1028h2.16Zm8.6,14.3h-2.18v-19h2.18Z" transform="translate(-1348 -1026.43)"/><path d="M1375.44,1030.26H1366v-1.7h3.67v-1.95h2.12v1.95h3.65Zm-4.7,7.36c-2.37,0-4-1.3-4-3.27s1.68-3.27,4-3.27,4.07,1.32,4.07,3.27-1.68,3.27-4.07,3.27m0-1.57c1.26,0,2.14-.67,2.14-1.7s-.88-1.7-2.14-1.7-2.12.67-2.12,1.7.84,1.7,2.12,1.7m11.49,6c0,2.14-2.39,3.38-6.4,3.38s-6.42-1.24-6.42-3.38,2.41-3.35,6.42-3.35,6.4,1.21,6.4,3.35m-2.16,0c0-1.13-1.51-1.72-4.24-1.72s-4.26.59-4.26,1.72,1.55,1.74,4.26,1.74,4.24-.61,4.24-1.74m-2-4.26h-2v-11h2v4.59h2v-4.95h2.06v12h-2.06v-5.22h-2Z" transform="translate(-1348 -1026.43)"/><path d="M1401.16,1038.72h-7.53v6.69h-2.16v-6.69H1384V1037h17.11Zm-1.57-3.55a9.59,9.59,0,0,1-7-4.28c-1.22,2.2-3.84,3.77-7,4.28l-.84-1.74c3.86-.54,6.67-2.87,6.67-5.37v-1h2.29v1c0,2.45,2.85,4.82,6.67,5.37Z" transform="translate(-1348 -1026.43)"/><path d="M1412.89,1036.49a45.87,45.87,0,0,1-8.64.54h-1.49v-9.33h8.77v1.74h-6.61v2h6.25v1.7h-6.25v2.12a42.69,42.69,0,0,0,7.74-.52Zm-8.58,2.29h12.46v6.61h-2.16v-4.87h-10.3Zm15.14-5.71h-2.68v4.82h-2.16v-11.47h2.16v4.86h2.68Z" transform="translate(-1348 -1026.43)"/><path d="M1426.55,1031.12c0,3.38,1.76,6.8,4.61,8.2l-1.32,1.72a9.44,9.44,0,0,1-4.36-5.58,9.78,9.78,0,0,1-4.57,5.94l-1.32-1.74c3-1.45,4.8-5,4.8-8.54V1028h2.16Zm11,4.61h-3v9.65h-2.16v-18.94h2.16V1034h3Z" transform="translate(-1348 -1026.43)"/></svg>