<svg id="Layer_1" data-name="Layer 1" xmlns="http://www.w3.org/2000/svg" viewBox="0 0 31.66 6.69"><defs><style>.cls-1{fill-rule:evenodd;}</style></defs><title>foot-txt2</title><path class="cls-1" d="M1258,1039.25h.76v-6.69H1258Zm-2.25-5v-1.09H1255v1.09a3.36,3.36,0,0,1-1.74,3l.44.63a3.46,3.46,0,0,0,1.69-2.15,3.32,3.32,0,0,0,1.64,2l.44-.6a3.23,3.23,0,0,1-1.72-2.92m7,1.14c0-.69-.59-1.15-1.42-1.15s-1.41.47-1.41,1.15.59,1.15,1.41,1.15,1.42-.46,1.42-1.15m-2.17,0c0-.36.3-.6.74-.6s.75.24.75.6-.31.6-.75.6-.74-.24-.74-.6m2.52,1.51c-1.4,0-2.24.43-2.24,1.18s.84,1.19,2.24,1.19,2.23-.43,2.23-1.19-.83-1.18-2.23-1.18m0,1.79c-.94,0-1.49-.21-1.49-.61s.54-.61,1.49-.61,1.48.2,1.48.61-.53.61-1.48.61m-.14-5.34h-1.27v-.69h-.74v.69h-1.28v.6h3.3Zm.93,1.62h.69v1.84h.72v-4.21h-.72v1.74h-.69v-1.62h-.7v3.86h.7Zm6.89,4.31h.75v-6.67h-.75Zm-2.57-3.59a1.52,1.52,0,0,0,1.71-1.4c0-.82-.72-1.4-1.71-1.4a1.43,1.43,0,1,0,0,2.8m0-2.17c.58,0,1,.3,1,.77s-.4.78-1,.78-1-.3-1-.78.41-.77,1-.77m-2.15,2.66.09.63c.51,0,1.1,0,1.72,0v2.3h.75v-2.34a14.16,14.16,0,0,0,1.78-.23l-.05-.56a30.58,30.58,0,0,1-4.29.24m10.09-.64a15.1,15.1,0,0,1-2.7.19v-.75h2.18v-.6h-2.18v-.72h2.31V1033h-3.06v3.28h.52a15.91,15.91,0,0,0,3-.19Zm-2.92,2h3.6v1.71h.76v-2.33h-4.35Zm4.35-5h-.76v4h.76v-1.7h.94v-.63h-.94Zm6.32,0h-.75v6.67h.75v-3.39h1v-.63h-1Zm-2.81,1.65v-1.09h-.76v1.09a3.38,3.38,0,0,1-1.68,3l.46.61a3.44,3.44,0,0,0,1.6-2.09,3.32,3.32,0,0,0,1.52,2l.46-.6a3.24,3.24,0,0,1-1.61-2.89" transform="translate(-1253.21 -1032.56)"/></svg>