<svg id="Layer_1" data-name="Layer 1" xmlns="http://www.w3.org/2000/svg" viewBox="0 0 99.45 13.06"><title>foot-terms</title><path d="M1529.84,1031.31a9.39,9.39,0,0,1-4.67,8.53l-1.06-1.22a7.52,7.52,0,0,0,4-5.91h-3.32v-1.4Zm3.9,11.14v-6.5h-1.14v5.95H1531v-11.63h1.62v4.3h1.14v-4.5h1.62v12.39Z" transform="translate(-1524.11 -1030.06)"/><path d="M1540.81,1030.91a3.19,3.19,0,1,1,0,6.36,3.19,3.19,0,1,1,0-6.36m0,4.92a1.74,1.74,0,1,0-1.73-1.73,1.67,1.67,0,0,0,1.73,1.73m-1.37,6.85v-4.31h1.72v2.94H1548v1.37Zm6.58-12.62h1.7v9.26H1546Z" transform="translate(-1524.11 -1030.06)"/><path d="M1550,1030.84h6.8v1.4h-2.46a3.86,3.86,0,0,0,2.91,3.52l-.88,1.34a5.25,5.25,0,0,1-2.88-2.51,5.31,5.31,0,0,1-3,2.84l-.95-1.32a4.24,4.24,0,0,0,3.06-3.87H1550Zm6.21,12.26c-2.53,0-4.12-1.06-4.12-2.71s1.59-2.75,4.12-2.75,4.13,1.09,4.13,2.75-1.58,2.71-4.13,2.71m0-4.06c-1.47,0-2.39.52-2.39,1.36s.92,1.32,2.39,1.32,2.42-.52,2.42-1.32-.91-1.36-2.42-1.36m2.43-1.44v-3.14h-2.13v-1.39h2.13v-3h1.7v7.54Z" transform="translate(-1524.11 -1030.06)"/><path d="M1568.9,1037.31v2.31h5V1041h-11.65v-1.39h5v-2.31h-3.41v-6.54h1.7v1.94h5.14v-2h1.7v6.55Zm1.73-3.24h-5.14v1.87h5.14Z" transform="translate(-1524.11 -1030.06)"/><path d="M1581.75,1040a6.25,6.25,0,0,1-3-3.08,6,6,0,0,1-3.06,3.27l-.93-1.29a5,5,0,0,0,3.09-4.67h-2.59v-1.36h6.92v1.36h-2.58a4.85,4.85,0,0,0,3.08,4.46Zm-5-9.43h3.9V1032h-3.9Zm7.25,11.86v-5.86h-2.27v-1.41H1584v-5.11h1.69v12.39Z" transform="translate(-1524.11 -1030.06)"/><path d="M1595.6,1039.08a37.6,37.6,0,0,1-7.32.4v-5.14h4.16v-2h-4.21V1031h5.92v4.71H1590v2.39a29.6,29.6,0,0,0,5.44-.4Zm.93-9h1.7v12.39h-1.7Z" transform="translate(-1524.11 -1030.06)"/><path d="M1600.43,1036.72v-6h1.69v1.72h2.71v-1.73h1.69v6.06Zm4.39-3h-2.7v1.58h2.7Zm1.4,9.35c-2.5,0-4.08-1.08-4.08-2.73s1.58-2.76,4.08-2.76,4.07,1.09,4.07,2.76-1.57,2.73-4.07,2.73m0-4.12c-1.45,0-2.33.55-2.33,1.39s.88,1.35,2.33,1.35,2.34-.54,2.34-1.35-.91-1.39-2.34-1.39m4-4.52v3h-1.72v-7.43h1.72v3h1.91v1.4Z" transform="translate(-1524.11 -1030.06)"/><path d="M1613.32,1032.34h6.91v1.39h-2.49a3.56,3.56,0,0,0,2.83,2.54l-.81,1.33a5,5,0,0,1-3-2.27,5.13,5.13,0,0,1-3.06,2.55l-.84-1.33a3.77,3.77,0,0,0,2.93-2.83h-2.51Zm1.55-2.07h3.84v1.39h-3.84Zm.47,8h8.23v4.61h-8.23Zm6.51,1.33h-4.79v1.92h4.79Zm0-9.56h1.72v7.58h-1.72Z" transform="translate(-1524.11 -1030.06)"/></svg>