<svg id="Layer_1" data-name="Layer 1" xmlns="http://www.w3.org/2000/svg" viewBox="0 0 12.4 6.69"><defs><style>.cls-1{fill-rule:evenodd;}</style></defs><title>foot-txt1</title><path class="cls-1" d="M1118.45,1039.25h.76v-6.69h-.76Zm-2.24-5v-1.09h-.76v1.09a3.36,3.36,0,0,1-1.74,3l.44.63a3.45,3.45,0,0,0,1.69-2.15,3.33,3.33,0,0,0,1.64,2l.44-.6a3.23,3.23,0,0,1-1.72-2.92m6.89,2.53c-1.43,0-2.33.47-2.33,1.24s.9,1.25,2.33,1.25,2.32-.47,2.32-1.25-.91-1.24-2.32-1.24m0,1.9c-1,0-1.58-.24-1.58-.67s.6-.65,1.58-.65,1.56.24,1.56.65-.58.67-1.56.67m.15-4.26h-.76v1.23h-2.34v.61h6v-.61h-2.86Zm1.2.75.74.08a6.37,6.37,0,0,0,.18-1.77v-.56h-4.54v.61h3.8a5.9,5.9,0,0,1-.18,1.64" transform="translate(-1113.7 -1032.56)"/></svg>