<svg id="Layer_1" data-name="Layer 1" xmlns="http://www.w3.org/2000/svg" viewBox="0 0 27.47 7.02"><title>foot-txt4</title><path d="M1666.73,1037.76v-1.23H1664v-.68l6.29,0v.68h-2.69v1.23Zm-1.07-.62v1.34l3.75,0v.67l-4.58,0v-2Zm-.79-1.88v-2.79h.83v.77h2.84v-.77h.83v2.79Zm3.67-1.34h-2.84v.68h2.84Z" transform="translate(-1663.96 -1032.32)"/><path d="M1673,1032.68a1.69,1.69,0,0,1,1.78,1.65,1.8,1.8,0,1,1-1.78-1.65m0,2.62a.94.94,0,0,0,1-1,.93.93,0,0,0-1-1,1,1,0,1,0,0,1.94m1.42,4c-1.34,0-2.17-.59-2.16-1.46s.84-1.48,2.18-1.47,2.17.61,2.17,1.49-.84,1.45-2.18,1.44m0-2.26c-.82,0-1.33.31-1.33.8s.51.79,1.33.79,1.33-.31,1.33-.78-.49-.81-1.33-.81m2.15-1.65v.93h-.83l0-4h.83v1h1v.68h-1v.79h1v.69Z" transform="translate(-1663.96 -1032.32)"/><path d="M1681.16,1037.83v-1.32h-2.77v-.67l6.29,0v.67H1682v1.33Zm-1.07-.67v1.38l3.75,0v.67l-4.58,0v-2Zm-.78-2v-2.56l4.47,0v2.56Zm3.64-1.87h-2.81v1.21h2.81Z" transform="translate(-1663.96 -1032.32)"/><path d="M1690.24,1037.39c-.61.07-1.58.15-2.33.18s-1.6.05-2.2,0l-.1-.72c.65,0,1.46,0,2.21,0s1.8-.09,2.36-.15Zm-2.43-4.64a1.66,1.66,0,1,1-1.87,1.64,1.69,1.69,0,0,1,1.87-1.64m0,2.6a1,1,0,1,0-1-1,1,1,0,0,0,1,1m2.81-3h.82l0,6.7h-.82Z" transform="translate(-1663.96 -1032.32)"/></svg>