<svg id="Layer_1" data-name="Layer 1" xmlns="http://www.w3.org/2000/svg" viewBox="0 0 734.43 277.56"><defs><style>.cls-1{fill:#000;}</style></defs><title>240220_FLYQ은평최종로고(AI)</title><rect class="cls-1" y="122.93" width="20.12" height="100.88"/><rect class="cls-1" x="20.12" y="105.38" width="99.74" height="17.55"/><polygon class="cls-1" points="20.12 21.09 156.35 21.09 156.35 3.53 0 3.53 0 105.38 20.12 105.38 20.12 21.09"/><rect class="cls-1" x="195.02" y="3.53" width="20.12" height="202.73"/><rect class="cls-1" x="215.14" y="206.26" width="133.98" height="17.55"/><polygon class="cls-1" points="335.17 3.53 311.82 3.53 387.99 117.23 399.16 100.5 335.17 3.53"/><polygon class="cls-1" points="484.49 3.53 399.13 131.43 399.12 223.81 419.25 223.81 419.25 134.82 506.88 3.53 484.49 3.53"/><path class="cls-1" d="M36.83,671.06a112.59,112.59,0,0,0-24.24-36.21,112.6,112.6,0,0,0-36.21-24.24A113.7,113.7,0,0,0-67.86,602a114.49,114.49,0,0,0-44.57,8.66,112.55,112.55,0,0,0-36.21,24.24,112.52,112.52,0,0,0-24.24,36.21,114.44,114.44,0,0,0-8.66,44.57,114.41,114.41,0,0,0,8.66,44.57,112.49,112.49,0,0,0,24.24,36.21,112.45,112.45,0,0,0,36.21,24.24,114.47,114.47,0,0,0,44.57,8.66,111.62,111.62,0,0,0,31.95-4.56,124.85,124.85,0,0,0,14.54-5.34l-12.35-14.66a88.3,88.3,0,0,1-9.11,3.07,93.49,93.49,0,0,1-25,3.3,92.91,92.91,0,0,1-36.73-7.25,91,91,0,0,1-29.66-20.27A93.83,93.83,0,0,1-154,753.12a99.15,99.15,0,0,1-7.08-37.49A98.82,98.82,0,0,1-154,678a94.38,94.38,0,0,1,19.76-30.29,91.18,91.18,0,0,1,29.66-20.27,93,93,0,0,1,36.73-7.25,91.82,91.82,0,0,1,36.58,7.26A91.73,91.73,0,0,1-1.79,647.67,94.53,94.53,0,0,1,18,678,98.92,98.92,0,0,1,25,715.63a98.65,98.65,0,0,1-7.41,38.16A95.3,95.3,0,0,1-2.94,784.73l-1.79,1.79,12.4,14.36,1.61-1.49a113.56,113.56,0,0,0,26.45-37.16,113,113,0,0,0,9.76-46.6,114.52,114.52,0,0,0-8.65-44.57" transform="translate(688.94 -601.95)"/><polygon class="cls-1" points="663.83 157.75 638.98 157.75 696.47 226.02 721.1 226.02 663.83 157.75"/><rect class="cls-1" x="532.2" y="261.54" width="26.2" height="2.8"/><rect class="cls-1" x="563.41" y="251.79" width="14.71" height="3.2"/><rect class="cls-1" x="574.34" y="253.66" width="3.78" height="10.49"/><rect class="cls-1" x="583.43" y="250.71" width="3.78" height="26.73"/><rect class="cls-1" x="563.41" y="261.69" width="14.71" height="3.2"/><rect class="cls-1" x="584.96" y="261.69" width="5.97" height="3.2"/><rect class="cls-1" x="717.32" y="250.71" width="3.78" height="16.01"/><rect class="cls-1" x="713.42" y="259.56" width="5.97" height="3.2"/><rect class="cls-1" x="713.42" y="254.12" width="5.97" height="3.2"/><rect class="cls-1" x="623.89" y="273.09" width="28.26" height="3.2"/><rect class="cls-1" x="626.13" y="261.94" width="22.63" height="3.2"/><rect class="cls-1" x="644.97" y="253.12" width="3.78" height="16.77"/><rect class="cls-1" x="626.13" y="251.29" width="22.63" height="3.2"/><rect class="cls-1" x="696.03" y="251.29" width="15.73" height="3.2"/><rect class="cls-1" x="696.03" y="262.39" width="15.73" height="3.2"/><polygon class="cls-1" points="699.1 263.99 698.46 257.17 701.64 257.2 702.27 264.02 699.1 263.99"/><polygon class="cls-1" points="708.69 263.99 709.32 257.17 706.15 257.2 705.51 264.02 708.69 263.99"/><polygon class="cls-1" points="538.25 257.47 537.57 253.52 541.12 253.52 541.8 257.47 538.25 257.47"/><polygon class="cls-1" points="552.34 257.47 553.02 253.52 549.47 253.52 548.78 257.47 552.34 257.47"/><rect class="cls-1" x="532.92" y="257.02" width="24.74" height="2.8"/><rect class="cls-1" x="532.92" y="266.07" width="24.74" height="2.8"/><rect class="cls-1" x="554.17" y="267.5" width="3.49" height="4.56"/><rect class="cls-1" x="532.92" y="271.96" width="3.49" height="4.56"/><rect class="cls-1" x="532.92" y="274.68" width="24.74" height="2.79"/><rect class="cls-1" x="532.92" y="270.37" width="24.74" height="2.8"/><rect class="cls-1" x="532.92" y="251.01" width="24.74" height="2.91"/><path class="cls-1" d="M-86.7,852.94c-4.54,0-7.84,2.91-7.84,6.92v11.93c0,4,3.29,6.93,7.84,6.93s7.84-2.91,7.84-6.93V859.86c0-4-3.3-6.92-7.84-6.92M-82.6,872c0,2.07-1.67,3.51-4.07,3.51s-4.07-1.44-4.07-3.51V859.65c0-2,1.71-3.51,4.07-3.51s4.07,1.47,4.07,3.51Z" transform="translate(688.94 -601.95)"/><polygon class="cls-1" points="580.23 273.09 567.2 273.09 567.2 275.08 567.2 276.29 580.23 276.29 580.23 273.09"/><rect class="cls-1" x="563.41" y="264.6" width="3.78" height="8.49"/><path class="cls-1" d="M-17.23,863.08H-3.12a5,5,0,0,0,4.84-5.19,5,5,0,0,0-4.84-5.19H-17.23A5,5,0,0,0-22,857.89a4.9,4.9,0,0,0,4.81,5.19m.88-7.32H-4a2,2,0,0,1,2,2.1A2,2,0,0,1-4,860H-16.35a2,2,0,0,1-2-2.16,2,2,0,0,1,2-2.1" transform="translate(688.94 -601.95)"/><rect class="cls-1" x="665.41" y="263.97" width="26.73" height="3.2"/><polygon class="cls-1" points="671.06 274.16 671.06 270.01 667.27 270.01 667.27 276.16 667.27 276.16 667.27 277.36 690.54 277.36 690.54 274.16 671.06 274.16"/><path class="cls-1" d="M27,869.77H13.59c-3.18,0-5.49,2-5.49,4.87s2.36,4.87,5.49,4.87H27c3.21,0,5.54-2,5.54-4.87s-2.33-4.87-5.54-4.87m-.85,6.85H14.45c-1.46,0-2.48-.83-2.48-2s1-2,2.48-2H26.17c1.49,0,2.54.81,2.54,2s-1,2-2.54,2" transform="translate(688.94 -601.95)"/><rect class="cls-1" x="615.44" y="250.71" width="3.78" height="26.73"/></svg>