<svg id="Layer_1" data-name="Layer 1" xmlns="http://www.w3.org/2000/svg" viewBox="0 0 365.64 307.26"><defs><style>.cls-2{fill-rule:evenodd;}.cls-2{fill:#000;}</style></defs><path class="cls-2" d="M195.2,160.74c2.67-1.8,1.4-3.61,1.47-6.3.07-6.88,8.23-13.62,13.63-17a24.76,24.76,0,0,1,9.26-3.63,37.8,37.8,0,0,1,13.92.65,18.27,18.27,0,0,1,5.12,2.08,23.44,23.44,0,0,1,4,3.65c1.37,1.34,2.86,2.39,4.62,1.87a3.67,3.67,0,0,0,2.17-5,5.16,5.16,0,0,0-.86-1.35,30.06,30.06,0,0,0-7.49-6,18.94,18.94,0,0,0-2.63-1.32,33.84,33.84,0,0,0-10.67-2,40.74,40.74,0,0,0-9.89.48,31.93,31.93,0,0,0-7.9,2.84,57.08,57.08,0,0,0-13.13,9.69,25.62,25.62,0,0,0-6.77,10.94,13,13,0,0,0-.43,3.19,25.86,25.86,0,0,0,.05,4.71,3.74,3.74,0,0,0,5.51,2.5m54.54-11.89a3.44,3.44,0,0,0,3.13.91c1.15-.22,2.2-.66,3.38-.8a16,16,0,0,1,3.38,0,11,11,0,0,1,6.26,2.5,6,6,0,0,0,2.71,1.79c3,.48,5.52-2.48,3.75-5.26-1.69-2.53-5.08-4.46-7.93-5.34h0a20.23,20.23,0,0,0-5.76-.92,31.58,31.58,0,0,0-3.82.19,12.82,12.82,0,0,0-4.31,1.32,3.46,3.46,0,0,0-1.8,2.78,3.75,3.75,0,0,0,1.05,2.88m16.62,8a3.51,3.51,0,0,0-2,5.33,3.27,3.27,0,0,0,.25.3,3.16,3.16,0,0,0,1.95.92,23.07,23.07,0,0,1,7.42,1.78,120,120,0,0,1,14.32,8.69,50.19,50.19,0,0,1,10.74,9.52,49.58,49.58,0,0,1,9.45,17.52,101.14,101.14,0,0,1,1.33,53.61c-2.73,6.5-5.7,12.84-8.68,19.29-4.53,6.05-9.08,12.39-14.34,17.93-15.74,15.61-40,17.25-39.09,44.8-.46,7.5,1.89,9.7-4,15.94-8.18,8.42-15,10.59-26,11.83a3.61,3.61,0,0,0-2.59,1.45c-1.4,2-.39,4.9,3.21,5a33.5,33.5,0,0,0,9.22-1.31,38.59,38.59,0,0,0,9.77-3.55l.6-.34a59.35,59.35,0,0,0,12.36-9.92l.48-.49.25-.27c.13-.13.37-.52.57-.26s.22.26.34.39l.67.72a21.69,21.69,0,0,0,1.62,1.55,10.13,10.13,0,0,0,1.68,1.19,4.22,4.22,0,0,0,1.66.55,2.44,2.44,0,0,0,1.54-.39,4.11,4.11,0,0,0,1.33-1.62c.91-1.78-.64-3.48-1.78-4.81a23.52,23.52,0,0,1-2.94-5.39c-1.59-4.08-.75-8.7-.71-13-.37-9,6.15-16.73,13.7-20.8,9.48-5.56,19.22-11.21,26.42-19.73,4.11-4.4,5.31-7.66,11.49-13.9,2.52-1.82,5.22-4.3,9-4.86,1.28-.1,1.32,1.82,1.83,3,1.52,3.58,3.21,7.33,4.91,10.87,3.63,7.4,5.88,16.29,12.76,21.45a31.25,31.25,0,0,0,26.86,3.28,8.46,8.46,0,0,0,2-1.07c4.25-3.28.74-8.11-5.16-5.29-7.12,2.54-17.25.68-22.24-5.41-3.43-4.61-5-10.23-7.46-15.32-2.31-5.07-5.07-10.27-6.75-15.53a2,2,0,0,1,.1-1.47c.7-1.73,2.07-2.72,3.28-4,2.17-1.78,7.16.87,9.79,3.14,6.15,4.83,11.6,10.34,18.15,14.63,9.64,5.57,21.75,5.9,32.45,3.46a41.36,41.36,0,0,1,13.72-1c2.13.07,4.35,1.27,6.4.7,4-1.55,2.25-6.83-1.51-7.08-7.73-1.7-15.83-.83-23.44,1.11A41.19,41.19,0,0,1,362.3,279c-12.42-4.17-18.91-17.72-31.56-21.28a.55.55,0,0,1-.4-.56,14.41,14.41,0,0,1,.94-2.38c2.06-4.49.66-6.79,3.81-5.64A44.72,44.72,0,0,0,350.78,252c4.26,0,8.55-.47,12.82-.84q3-.26,6-.74c6.86-1.13,14.14-1.75,20.83-3.62,5.71-1.6,11.27-4.51,17.3-5,5.19-.19,10.49-.48,15.66.35,3,.35,5.14,1.49,8.34,2.07,3.53.64,5.37-5.08,2-6.54-6.76-2.91-14.07-3-21.44-3.11-11.25-.22-21.23,5.65-32.08,7.27-8.7,1-17.32,3-26.12,3-6.33.49-13.33.15-19-2.8a3.24,3.24,0,0,1-1.76-3c0-1.44.37-3.06.08-4.15,0-3.36-1.38-4.76-1.8-7.81l-.08-.3a1.15,1.15,0,0,1,.93-1.43c12.52-2.16,23-9.39,33.73-15.79,8.16-5,13.94-9.48,24-9.47,5.71.17,12.67-.51,17.11,3.47a10.6,10.6,0,0,1,4.06,6.84,4.42,4.42,0,0,0,1.38,2.89c4.05,3.53,9.46-4.17,1.79-12.11-8.18-9.93-22.65-8.53-34.09-6.66-5.78,1-10.45,4.68-15.46,7.52-8.11,4.7-16,10.1-24.63,13.7a35.24,35.24,0,0,1-9.63,2.57,7.9,7.9,0,0,1-6-2,34.79,34.79,0,0,0-4.58-3.83c-2.43-1.76-2.25-5.42-3.2-8a60.81,60.81,0,0,0-5.67-15.93c-5.17-9.08-13.51-17.9-21.48-22.47-6.14-3.53-16-11.57-23.25-9.23m-125,74.67c1,.79,2,1.5,2.94,2.26,2.48,2,6.41,3.48,5.9,7a5.11,5.11,0,0,1-.44,1.39c-1.76,3.84-3.81,7.6-5.67,11.43a49.66,49.66,0,0,0-5,17.65c-.57,7,.43,14.07,4.76,19.9,6.17,9.59,16.57,15.19,25.11,22.42,4.6,3.79,8,8.58,11.25,13.47a66.33,66.33,0,0,1,6.15,11.33,45,45,0,0,1,3.18,11.47c.74,3.95,0,8.52,1.54,12.23,1.27,3.09,6.14,1.69,6.2-1.38a66.07,66.07,0,0,0-3.4-22.35c-.26-.77-.56-1.53-.9-2.27-4.64-10.4-10.77-20.62-19.53-28-10.39-9.08-28.08-16.82-27.73-32.57.11-4.79.61-10.36,2.58-14.6a1.34,1.34,0,0,1,1.85-.63c1.32.73,2.93,2.27,4.37,2.87,3.29,1.38,8.84,2.76,12.6,1.46a3.66,3.66,0,0,0,2-5.44,2.9,2.9,0,0,0-2.11-1.32c-1.78-.1-3.86.43-5.76,0a15.15,15.15,0,0,1-7-2.87,3.18,3.18,0,0,1-1-3.81l.05-.12c1.55-3.46,4.23-7,4.13-11-.19-7.46-5.62-8.65-9.8-12.64a.92.92,0,0,1,.31-1.52c3.79-1.48,8.24-2.62,11.49-5.17,5.68-4.5,11.33-9.17,15.5-15.16l0-.06c5.81-9.91,12.24-19.92,21.57-26.9a77.24,77.24,0,0,1,13.28-7.36c3.07-1.34,6.51-1.92,9.58-3.47a3.5,3.5,0,0,0-2-6.33c-3.7.5-7.07,2.11-10.57,3.33-11.77,4.73-20.48,12.09-27.86,21.52a98.77,98.77,0,0,0-7.26,10.84c-3.89,6.62-7.22,10.3-13.88,15.7a28.92,28.92,0,0,1-9.8,5.81c-2.9,1.05-6.64,1.42-8.72,4a4.92,4.92,0,0,0-1,4,7.91,7.91,0,0,0,2.91,4.9m89.23-5.27c-.92,1.88-2.42,5-3.27,6.88a120.62,120.62,0,0,1-9.44,16.57c-2.9,4.48-7.09,7.7-9.05,12.3a7.49,7.49,0,0,0-.63,2.75c-.2,8.56,15.42,5.94,20.7,3.32,5.77-2.34,9.72-6.47,14.17-10.55,4-3.64,7.5-8.68,11.36-12.16a2.19,2.19,0,0,1,2.79-.13c4.09,3.15,3.58,9,3.21,13a24,24,0,0,1-2.52,8.41A29.65,29.65,0,0,1,249,277a18.75,18.75,0,0,1-7.1,3.19,6.26,6.26,0,0,0-3.69,1.92c-6.83,8.1-16.91,11.34-8,22.69,5.55,7.09,7.11,8.56,13.41,1.63,6.8-7.48,9.93-8.16,5-17l-.94-1.91a1.12,1.12,0,0,1,.49-1.48c11.18-6,18.11-18,18.63-30.83.49-12.1-9.87-24.83-19.68-12.08a88.7,88.7,0,0,1-8.67,9.16c-.8.73-1.61,1.45-2.37,2.23-4.61,4.7-11.6,9.89-18.37,9.83a1.21,1.21,0,0,1-1-1.89c1.26-1.86,3.27-3.93,4.27-5.36a65.94,65.94,0,0,0,6-8.9c2.67-4.55,5-9.6,7.63-14.5a94.3,94.3,0,0,0,6.45-15,68.57,68.57,0,0,0,3.23-19.93,52.42,52.42,0,0,0-7.38-27.29,45.32,45.32,0,0,0-3.69-5.27,4,4,0,0,0-3.16-1.55c-3.07.06-4.23,2.42-1.11,7l.1.15A47.34,47.34,0,0,1,237.21,198a49.69,49.69,0,0,1-1.49,13.36,58.32,58.32,0,0,1-5.11,14.88m12.35,69.44a22.46,22.46,0,0,1-3.86,5.36c-.54.51-1,1.29-1.77,1.3a2.22,2.22,0,0,1-1.74-1.12c-.51-.89-.95-1.43-1.53-2.47-.38-.69-1-1.73-.82-2.59.37-1.43,1.76-2.46,2.81-3.4s2.39-2.05,3.6-3.06a.79.79,0,0,1,.51-.23.58.58,0,0,1,.45.33,18.94,18.94,0,0,1,2.12,3.81,2.83,2.83,0,0,1,.22,2.07m258.4-74.08a63.33,63.33,0,0,0-10.4-17,37.46,37.46,0,0,0-7.23-5.93A55.46,55.46,0,0,0,466,191a58.12,58.12,0,0,0-15.45-1.55,59.68,59.68,0,0,0-16.32,2.78c-3.71,1.18-9.06,2.83-10.27,7.08-.59,2.07-.11,3.86,2,4.15,2.41.33,5.24-1.79,7.06-3,5-3.29,12.09-4,17.85-4.15a46.45,46.45,0,0,1,21.76,4.36c4.66,2.32,9.43,4.95,13,8.82,3.76,4.07,6.64,9.4,8.89,14.41A31,31,0,0,1,497,236.63c0,6.76-.8,13.91-5.1,19.46a33.92,33.92,0,0,1-3.93,3.84c-1.76,1.46-3.86,2.63-5.43,4.35a3.57,3.57,0,0,0,2.92,5.64,3.51,3.51,0,0,0,1.76-.58l.58-.37A35.26,35.26,0,0,0,504,239.74c0-5.77-.38-12.75-2.68-18.14M196.92,198.81a3.23,3.23,0,0,0-1.32-.74c-2.54-.73-3.6,1.55-4.85,3.55-.86,1.5-1.84,2.76-2.54,4.23a3.38,3.38,0,0,0,.59,3.46l0,.05c2.93,3,6.29-.77,7.85-3.19,1.36-2.2,2.23-5.48.22-7.36m50.9,70.53.05-.05c1.33-1.55,2.69-3.58,1.75-5.73a3,3,0,0,0-3.68-1.48,6.07,6.07,0,0,0-2.3,1.71c-.49.5-1,1-1.4,1.56a4.69,4.69,0,0,0-1.34,3.16,3.21,3.21,0,0,0,3,2.93,5.43,5.43,0,0,0,4-2.09m227.46,2.8h-.08a9.5,9.5,0,0,0-3.5,1.64c-1,.63-2,1.39-3,1.88-7.66,4.44-14.88,10.83-17.39,19.58-1.09,4-1.43,8.13-3.28,11.93q-.24.53-.5,1a35.28,35.28,0,0,1-29.75,20h-.2a43.1,43.1,0,0,1-13.3-1.37,26.06,26.06,0,0,1-7.41-3c-4.36-3.26-8.64-6.73-14-8.51-2.08-.56-4.3-2-6.43-1a3.59,3.59,0,0,0-.53,6c1.18.8,2.83,1,4.25,1.53a26.23,26.23,0,0,1,5.31,2.56c2.43,1.38,4.53,3.25,6.8,4.85,5,3.49,11,5,17,5.55,10.54,1,21.42-.71,30.38-6.69a39.5,39.5,0,0,0,10.68-10.62,44.7,44.7,0,0,0,6.12-13c1.38-5.92,1.56-9.79,5.78-14.73,4.07-5,10.22-7.55,15.26-11.48,2.86-2.31,1.37-6.65-2.27-6.16M218.75,433.53c-.16-7-.08-13.91,0-20.87-.08-3.46.08-7.06.19-10.5.18-4.15,1.25-8.59,3.86-11.82,4.49-5.53,7.63-5.39,13.49-5.42A51.5,51.5,0,0,1,251,387c2.07.62,4.26.44,6.33,1.06a27,27,0,0,1,5.73,2.76c5,2.89,10.24,5.83,14.39,9.87a74.5,74.5,0,0,1,6.74,7.74c1.44,1.94,2.79,3.64,4.06,5.65.28.38.47,1,0,1.31-4.47,2.08-8.95,3.63-13.09,6.27a18.17,18.17,0,0,0-5.63,8.14,16.43,16.43,0,0,0-.74,3.73m127,0-6.67-16.46c-3.55-8.76-5.93-19.57-14-25.33a19.94,19.94,0,0,0-12.3-3.78c-4.58.18-8.1,1.35-12.41,2.77-6.08,2-12.17,4.16-18.18,6.48-3.77,1.12-7.24,3.36-11.33,3a2.23,2.23,0,0,1-1.94-1.05c-.7-1-1.65-2-2.36-3-2-2.8-4.82-5.1-7.19-7.63-4.94-5.37-12.25-7.54-17.94-11.86-2.21-1.52-4.32-3.19-6.4-4.88a79.54,79.54,0,0,0-8-5.71q-2.67-1.67-5.44-3.23c-.83-.47-1.62-1-2.42-1.5-3.09-2-6.66-.34-6.33,2.82a4,4,0,0,0,1.65,2.8c1,.76,2.29,1.25,3.36,2a83.45,83.45,0,0,1,11.16,7.1,95.25,95.25,0,0,0,19.08,12.85c4.37,2.18,7.44,6,10.94,9.3a21.23,21.23,0,0,1,3.27,4.3c-.26,2.63-4.45,3-6.69,2.91-2-.51-3.4-2.31-5.09-3.27-2.64-2.09-5.31-3.92-8.08-6-8.85-5.82-17.27-13-27.83-15.39a39,39,0,0,0-6-.9c-1.55-.11-3.09.11-4.64.12a24,24,0,0,1-4.44-.56,56.31,56.31,0,0,0-8.63-1.33c-2.72-.07-5.42.06-8.14.16a20.36,20.36,0,0,0-7.76,1.33c-5.2,1.73-8.68,6.55-10.67,11.35a34.05,34.05,0,0,0-2.35,8.53,6.94,6.94,0,0,1-1,2.73,45.6,45.6,0,0,0-3.09,4.72c-2.22,4.1-4.79,8-7.13,12.1a77.86,77.86,0,0,0-6.25,14.48m11.14,0a59.91,59.91,0,0,1,1.6-6.42,33.85,33.85,0,0,1,2.23-5.51,23.52,23.52,0,0,1,1.57-3.2c.77-1.22.48.4.54.92,0,4.75,0,9.48.08,14.21m-19.86-46.77c-.14.45-.25.92-.35,1.38a37.57,37.57,0,0,1-1.71,5.22c-.79,2.27-1.58,4.81-2.29,7.28-.63,2.21-1.36,4.39-2.18,6.54-1.92,5-4.1,9.89-5.88,14.93-.42,1-.83,2.09-1.23,3.14a72.56,72.56,0,0,1-3.8,8.31l8.17,0c1.49-3.48,2.77-7,4.13-10.59,3-7.88,6.71-15.7,8.61-23.93.85-3.36,2.55-6.49,3.29-9.89,1-3.23,1.31-7.36,2.18-10.47.36-1.55,1.36-2.77,1.16-4.44a3.55,3.55,0,0,0-4.07-3h-.09c-4.56.89-4.56,11.28-5.92,15.55" transform="translate(-138.39 -126.3)"/></svg>